<?xml version="1.0" encoding="UTF-8" standalone="yes"?><svg xmlns="http://www.w3.org/2000/svg" xmlns:xlink="http://www.w3.org/1999/xlink" height="224px" style="width:247px;height:224px;" version="1.1" viewBox="0 0 247 224" width="247px"><defs><filter height="300%" id="f1" width="300%" x="-1" y="-1"><feGaussianBlur result="blurOut" stdDeviation="2.0"/><feColorMatrix in="blurOut" result="blurOut2" type="matrix" values="0 0 0 0 0 0 0 0 0 0 0 0 0 0 0 0 0 0 .4 0"/><feOffset dx="4.0" dy="4.0" in="blurOut2" result="blurOut3"/><feBlend in="SourceGraphic" in2="blurOut3" mode="normal"/></filter></defs><g><rect fill="#FEFECE" filter="url(#f1)" height="60.8047" style="stroke: #A80036; stroke-width: 1.5;" width="94" x="77" y="8"/><ellipse cx="99.65" cy="24" fill="#A9DCDF" rx="11" ry="11" style="stroke: #A80036; stroke-width: 1.0;"/><path d="M101.2281,25.8125 L97.1813,25.8125 L96.7906,26.7969 L97.1813,26.7969 C97.6344,26.7969 97.775,26.8281 97.9469,26.9531 C98.1656,27.125 98.2906,27.375 98.2906,27.6563 C98.2906,27.9375 98.15,28.2344 97.8844,28.375 C97.7594,28.4688 97.5406,28.5 97.1813,28.5 L94.9156,28.5 C94.1656,28.5 93.7906,28.2188 93.7906,27.6563 C93.7906,27.3594 93.9469,27.0781 94.1969,26.9219 C94.3531,26.8125 94.5094,26.7969 94.9313,26.7969 L97.5719,20.2813 L96.4938,20.2813 C96.0563,20.2813 95.8844,20.25 95.7125,20.1406 C95.4938,19.9688 95.3531,19.7188 95.3531,19.4375 C95.3531,19.1563 95.5094,18.875 95.7594,18.7031 C95.9156,18.6094 96.0406,18.5938 96.4938,18.5938 L100.1656,18.5938 L103.5563,26.7969 C104.025,26.7969 104.1813,26.8281 104.3531,26.9688 C104.5719,27.125 104.7125,27.375 104.7125,27.6563 C104.7125,27.9375 104.5563,28.2344 104.3063,28.375 C104.1656,28.4688 103.9469,28.5 103.5875,28.5 L101.2281,28.5 C100.8063,28.5 100.6031,28.4531 100.4625,28.3281 C100.2438,28.1719 100.1031,27.9219 100.1031,27.6563 C100.1031,27.3594 100.2594,27.0781 100.5094,26.9219 C100.6656,26.8125 100.775,26.7969 101.2281,26.7969 L101.6188,26.7969 Z M100.525,24.1094 L99.1969,20.8438 L97.8531,24.1094 Z "/><text fill="#000000" font-family="sans-serif" font-size="12" font-style="italic" lengthAdjust="spacingAndGlyphs" textLength="45" x="115.35" y="28.1543">Symbol</text><line style="stroke: #A80036; stroke-width: 1.5;" x1="78" x2="170" y1="40" y2="40"/><line style="stroke: #A80036; stroke-width: 1.5;" x1="78" x2="170" y1="48" y2="48"/><text fill="#000000" font-family="sans-serif" font-size="11" font-style="italic" lengthAdjust="spacingAndGlyphs" textLength="82" x="83" y="62.2104">doSomething()</text><rect fill="#FEFECE" filter="url(#f1)" height="86.4141" style="stroke: #A80036; stroke-width: 1.5;" width="102" x="6" y="129"/><ellipse cx="39" cy="145" fill="#ADD1B2" rx="11" ry="11" style="stroke: #A80036; stroke-width: 1.0;"/><path d="M41.3438,140.6719 L41.5156,140.75 C41.7344,140.4375 41.9375,140.3438 42.2344,140.3438 C42.5313,140.3438 42.8125,140.4844 42.9688,140.75 C43.0625,140.9063 43.0781,141.0313 43.0781,141.4688 L43.0781,142.8906 C43.0781,143.3125 43.0469,143.5 42.9375,143.6563 C42.7656,143.875 42.5,144.0156 42.2344,144.0156 C42.0156,144.0156 41.7813,143.9063 41.6406,143.7656 C41.5,143.6406 41.4688,143.5156 41.4063,143.1094 C41.3125,142.7031 41.1406,142.4844 40.6563,142.2031 C40.1875,141.9531 39.5781,141.7969 39,141.7969 C37.2656,141.7969 36.0156,143.1094 36.0156,144.8906 L36.0156,145.9844 C36.0156,147.6875 37.3125,148.7813 39.3594,148.7813 C40.125,148.7813 40.8125,148.6563 41.2344,148.3906 C41.4219,148.2969 41.4219,148.2969 41.875,147.8125 C42.0625,147.625 42.2656,147.5469 42.4844,147.5469 C42.9531,147.5469 43.3438,147.9375 43.3438,148.3906 C43.3438,148.7813 43.0156,149.2344 42.4375,149.6406 C41.6875,150.1875 40.5313,150.4844 39.3125,150.4844 C36.4219,150.4844 34.3125,148.5938 34.3125,146.0156 L34.3125,144.8906 C34.3125,142.1719 36.3125,140.0938 38.9375,140.0938 C39.8125,140.0938 40.4063,140.2344 41.3438,140.6719 Z "/><text fill="#000000" font-family="sans-serif" font-size="12" lengthAdjust="spacingAndGlyphs" textLength="30" x="57" y="149.1543">Note</text><line style="stroke: #A80036; stroke-width: 1.5;" x1="7" x2="107" y1="161" y2="161"/><text fill="#000000" font-family="sans-serif" font-size="11" lengthAdjust="spacingAndGlyphs" textLength="73" x="12" y="175.2104">name: Name</text><text fill="#000000" font-family="sans-serif" font-size="11" lengthAdjust="spacingAndGlyphs" textLength="90" x="12" y="188.0151">rhythm: Rhythm</text><line style="stroke: #A80036; stroke-width: 1.5;" x1="7" x2="107" y1="194.6094" y2="194.6094"/><text fill="#000000" font-family="sans-serif" font-size="11" lengthAdjust="spacingAndGlyphs" textLength="83" x="12" y="208.8198">doSomething()</text><rect fill="#FEFECE" filter="url(#f1)" height="73.6094" style="stroke: #A80036; stroke-width: 1.5;" width="95" x="143.5" y="135"/><ellipse cx="174.25" cy="151" fill="#ADD1B2" rx="11" ry="11" style="stroke: #A80036; stroke-width: 1.0;"/><path d="M176.5938,146.6719 L176.7656,146.75 C176.9844,146.4375 177.1875,146.3438 177.4844,146.3438 C177.7813,146.3438 178.0625,146.4844 178.2188,146.75 C178.3125,146.9063 178.3281,147.0313 178.3281,147.4688 L178.3281,148.8906 C178.3281,149.3125 178.2969,149.5 178.1875,149.6563 C178.0156,149.875 177.75,150.0156 177.4844,150.0156 C177.2656,150.0156 177.0313,149.9063 176.8906,149.7656 C176.75,149.6406 176.7188,149.5156 176.6563,149.1094 C176.5625,148.7031 176.3906,148.4844 175.9063,148.2031 C175.4375,147.9531 174.8281,147.7969 174.25,147.7969 C172.5156,147.7969 171.2656,149.1094 171.2656,150.8906 L171.2656,151.9844 C171.2656,153.6875 172.5625,154.7813 174.6094,154.7813 C175.375,154.7813 176.0625,154.6563 176.4844,154.3906 C176.6719,154.2969 176.6719,154.2969 177.125,153.8125 C177.3125,153.625 177.5156,153.5469 177.7344,153.5469 C178.2031,153.5469 178.5938,153.9375 178.5938,154.3906 C178.5938,154.7813 178.2656,155.2344 177.6875,155.6406 C176.9375,156.1875 175.7813,156.4844 174.5625,156.4844 C171.6719,156.4844 169.5625,154.5938 169.5625,152.0156 L169.5625,150.8906 C169.5625,148.1719 171.5625,146.0938 174.1875,146.0938 C175.0625,146.0938 175.6563,146.2344 176.5938,146.6719 Z "/><text fill="#000000" font-family="sans-serif" font-size="12" lengthAdjust="spacingAndGlyphs" textLength="28" x="191.75" y="155.1543">Rest</text><line style="stroke: #A80036; stroke-width: 1.5;" x1="144.5" x2="237.5" y1="167" y2="167"/><text fill="#000000" font-family="sans-serif" font-size="11" lengthAdjust="spacingAndGlyphs" textLength="83" x="149.5" y="181.2104">rhythm: Rhytm</text><line style="stroke: #A80036; stroke-width: 1.5;" x1="144.5" x2="237.5" y1="187.8047" y2="187.8047"/><text fill="#000000" font-family="sans-serif" font-size="11" lengthAdjust="spacingAndGlyphs" textLength="83" x="149.5" y="202.0151">doSomething()</text><path d="M99.6698,87.252 C92.7301,100.873 85.2215,115.61 78.4659,128.8691 " fill="none" style="stroke: #A80036; stroke-width: 1.0;"/><polygon fill="none" points="93.6472,83.654,108.964,69.011,106.121,90.009,93.6472,83.654" style="stroke: #A80036; stroke-width: 1.0;"/><path d="M148.116,86.832 C156.121,102.544 164.904,119.7824 172.426,134.5445 " fill="none" style="stroke: #A80036; stroke-width: 1.0;"/><polygon fill="none" points="141.879,90.009,139.036,69.011,154.353,83.654,141.879,90.009" style="stroke: #A80036; stroke-width: 1.0;"/></g></svg>