<?xml version="1.0" encoding="UTF-8" standalone="yes"?><svg xmlns="http://www.w3.org/2000/svg" xmlns:xlink="http://www.w3.org/1999/xlink" height="90px" style="width:117px;height:90px;" version="1.1" viewBox="0 0 117 90" width="117px"><defs><filter height="300%" id="f1" width="300%" x="-1" y="-1"><feGaussianBlur result="blurOut" stdDeviation="2.0"/><feColorMatrix in="blurOut" result="blurOut2" type="matrix" values="0 0 0 0 0 0 0 0 0 0 0 0 0 0 0 0 0 0 .4 0"/><feOffset dx="4.0" dy="4.0" in="blurOut2" result="blurOut3"/><feBlend in="SourceGraphic" in2="blurOut3" mode="normal"/></filter></defs><g><rect fill="#FEFECE" filter="url(#f1)" height="73.6094" style="stroke: #A80036; stroke-width: 1.5;" width="102" x="6" y="8"/><ellipse cx="39" cy="24" fill="#ADD1B2" rx="11" ry="11" style="stroke: #A80036; stroke-width: 1.0;"/><path d="M41.3438,19.6719 L41.5156,19.75 C41.7344,19.4375 41.9375,19.3438 42.2344,19.3438 C42.5313,19.3438 42.8125,19.4844 42.9688,19.75 C43.0625,19.9063 43.0781,20.0313 43.0781,20.4688 L43.0781,21.8906 C43.0781,22.3125 43.0469,22.5 42.9375,22.6563 C42.7656,22.875 42.5,23.0156 42.2344,23.0156 C42.0156,23.0156 41.7813,22.9063 41.6406,22.7656 C41.5,22.6406 41.4688,22.5156 41.4063,22.1094 C41.3125,21.7031 41.1406,21.4844 40.6563,21.2031 C40.1875,20.9531 39.5781,20.7969 39,20.7969 C37.2656,20.7969 36.0156,22.1094 36.0156,23.8906 L36.0156,24.9844 C36.0156,26.6875 37.3125,27.7813 39.3594,27.7813 C40.125,27.7813 40.8125,27.6563 41.2344,27.3906 C41.4219,27.2969 41.4219,27.2969 41.875,26.8125 C42.0625,26.625 42.2656,26.5469 42.4844,26.5469 C42.9531,26.5469 43.3438,26.9375 43.3438,27.3906 C43.3438,27.7813 43.0156,28.2344 42.4375,28.6406 C41.6875,29.1875 40.5313,29.4844 39.3125,29.4844 C36.4219,29.4844 34.3125,27.5938 34.3125,25.0156 L34.3125,23.8906 C34.3125,21.1719 36.3125,19.0938 38.9375,19.0938 C39.8125,19.0938 40.4063,19.2344 41.3438,19.6719 Z "/><text fill="#000000" font-family="sans-serif" font-size="12" lengthAdjust="spacingAndGlyphs" textLength="30" x="57" y="28.1543">Note</text><line style="stroke: #A80036; stroke-width: 1.5;" x1="7" x2="107" y1="40" y2="40"/><text fill="#000000" font-family="sans-serif" font-size="11" lengthAdjust="spacingAndGlyphs" textLength="73" x="12" y="54.2104">name: Name</text><text fill="#000000" font-family="sans-serif" font-size="11" lengthAdjust="spacingAndGlyphs" textLength="90" x="12" y="67.0151">rhythm: Rhythm</text><line style="stroke: #A80036; stroke-width: 1.5;" x1="7" x2="107" y1="73.6094" y2="73.6094"/></g></svg>