<?xml version="1.0" encoding="UTF-8" standalone="no"?>
<!-- Created with Inkscape (http://www.inkscape.org/) -->
<svg
   xmlns:svg="http://www.w3.org/2000/svg"
   xmlns="http://www.w3.org/2000/svg"
   version="1.0"
   width="260"
   height="72"
   id="svg2">
  <defs
     id="defs4" />
  <g
     id="g2240">
    <g
       style="fill:none;stroke:#000000;stroke-width:1"
       id="lines">
      <path
         d="M 1,46.5 L 258,46.5"
         id="path14" />
      <path
         d="M 1,39.5 L 258,39.5"
         id="path18" />
      <path
         d="M 1,32.5 L 258,32.5"
         id="path22" />
      <path
         d="M 1,25.5 L 258,25.5"
         id="path26" />
      <path
         d="M 1,18.5 L 258,18.5"
         id="path30" />
    </g>
    <path
       d="M 14.686739,9.4267902 C 14.638765,9.4513302 14.466252,9.6231062 14.293739,9.7961102 C 12.534746,11.531054 11.461142,13.731023 11.187894,16.175159 C 11.140042,16.592331 11.140042,17.594771 11.163968,18.256111 C 11.26458,20.72356 11.652795,22.578748 12.659284,25.732077 L 12.77916,26.173788 L 12.069845,27.079297 C 9.774049,29.988457 8.892099,31.282917 8.134809,32.849766 C 7.37752,34.412934 7.008568,35.831318 6.960593,37.398167 C 6.888692,40.254567 8.158858,42.949006 10.430604,44.631196 C 12.290332,46.025036 14.538153,46.590676 16.958486,46.245896 C 17.155047,46.222576 17.32756,46.198036 17.32756,46.222576 L 17.32756,47.420106 C 17.32756,50.157496 17.155047,51.307166 16.570271,52.505926 C 16.201319,53.262966 15.760344,53.823696 15.223542,54.216326 C 14.614839,54.681356 14.001351,54.877666 13.244061,54.877666 C 12.386159,54.877666 11.628869,54.633506 10.94348,54.120626 C 10.727778,53.972166 10.358704,53.602846 10.210117,53.386896 L 10.090364,53.238426 L 10.186191,53.286286 C 11.020166,53.579526 12.093771,53.215116 12.659284,52.458076 C 13.1194,51.844586 13.244061,51.086316 12.999647,50.281416 C 12.707259,49.255666 11.897209,48.571016 10.895506,48.523156 C 9.941777,48.493716 8.964,48.958736 8.451124,49.768536 C 8.062908,50.377116 7.962296,51.110856 8.182784,52.064216 C 8.451124,53.334136 9.285099,54.460496 10.454653,55.146376 C 11.216728,55.611406 12.117697,55.880106 13.023573,55.927966 C 14.638765,55.975816 16.057517,55.218766 17.083147,53.703456 C 17.768536,52.677706 18.156751,51.503486 18.257363,50.061786 C 18.353312,49.107196 18.353312,48.690026 18.377238,47.324406 L 18.377238,45.929336 L 18.621652,45.828716 C 19.623355,45.440996 20.481257,44.802966 21.214621,43.897456 C 22.460738,42.358836 22.877787,40.331867 22.364911,38.352754 C 21.90001,36.515971 20.677819,34.95403 19.038701,34.144226 C 18.257363,33.755274 17.495288,33.558958 16.594319,33.511106 L 16.17727,33.482886 L 16.081443,33.070622 C 15.78427,32.015422 15.223542,30.209313 14.662691,28.474369 L 14.538153,28.129589 L 14.955079,27.567633 C 16.690146,25.344353 17.643875,23.705112 18.257363,22.065872 C 18.818214,20.527244 19.014653,18.912543 18.818214,17.44508 C 18.47785,14.781314 16.982535,11.483202 15.324154,9.6954982 C 15.02698,9.3789382 14.883178,9.3077742 14.686739,9.4267902 z M 16.201319,12.973978 C 16.249171,13.04637 16.642171,13.826727 16.762047,14.095435 C 16.886585,14.440215 17.006461,14.929779 17.083147,15.322411 C 17.131121,15.734675 17.131121,17.105207 17.083147,17.522379 C 16.814807,19.818052 15.956782,21.821704 14.097177,24.414305 C 13.92945,24.658473 13.756937,24.903868 13.685036,24.999572 L 13.560375,25.148036 L 13.488474,24.879329 C 13.047499,23.508796 12.606647,21.773852 12.462845,20.771412 C 12.386159,20.283076 12.386159,19.353028 12.438796,18.864691 C 12.659284,17.248764 13.220135,15.907679 14.221838,14.661071 C 14.466252,14.339603 15.051029,13.755562 15.372128,13.510167 C 15.616542,13.313851 16.129418,12.949439 16.153344,12.949439 C 16.153344,12.949439 16.17727,12.973978 16.201319,12.973978 z M 14.025277,29.917293 C 14.586005,31.652237 15.127715,33.535646 15.103666,33.558958 C 15.103666,33.558958 14.979128,33.60681 14.883178,33.60681 C 14.562079,33.679202 14.025277,33.852206 13.732888,34.00067 C 13.196086,34.26815 12.77916,34.536858 12.36211,34.95403 C 11.092067,36.24849 10.627166,38.179751 11.187894,39.914695 C 11.408382,40.648427 11.825308,41.309767 12.386159,41.870496 C 12.827134,42.310976 13.267987,42.627536 13.881475,42.919556 C 14.173863,43.068026 14.221838,43.068026 14.370425,43.068026 C 14.514227,43.068026 14.538153,43.068026 14.638765,42.996856 C 14.782566,42.896246 14.883178,42.699926 14.883178,42.531836 C 14.859252,42.310976 14.782566,42.239816 14.466252,42.042276 C 12.951672,41.184615 12.218431,39.766231 12.630573,38.352754 C 12.927746,37.297555 13.828838,36.515971 15.074955,36.24849 C 15.324154,36.176098 15.78427,36.123338 15.812981,36.147878 C 15.812981,36.147878 15.90893,36.492658 16.057517,37.178538 C 16.517633,39.085259 16.838733,40.868055 17.035172,42.579686 C 17.178973,43.653296 17.303634,45.096216 17.250874,45.148976 C 17.226948,45.172286 16.738121,45.244676 16.273097,45.267996 C 14.75864,45.363696 13.464548,45.119526 12.165671,44.463096 C 11.432308,44.093776 10.847654,43.653296 10.286803,43.115876 C 9.381049,42.187056 8.868173,41.161303 8.743512,40.010399 C 8.69566,39.693839 8.719586,38.961334 8.767561,38.49631 C 9.040686,36.319655 9.917851,34.29269 11.75353,31.747941 C 12.266283,31.01421 13.708962,29.135709 13.756937,29.135709 L 14.025277,29.917293 z M 17.32756,36.271803 C 19.211214,36.688974 20.601133,38.203063 20.946159,40.158863 C 20.970207,40.331867 20.970207,40.528183 20.970207,40.892595 C 20.970207,41.333079 20.970207,41.428784 20.922232,41.697496 C 20.869473,41.893806 20.82162,42.137976 20.773646,42.239816 C 20.481257,43.092566 19.843843,43.950216 19.110479,44.438556 C 18.84214,44.631196 18.329264,44.875356 18.305338,44.850816 C 18.305338,44.827506 18.281412,44.683956 18.281412,44.535486 C 18.204726,43.580896 17.989023,41.750256 17.768536,40.450884 C 17.571974,39.228815 17.155047,37.153998 16.93456,36.296342 L 16.886585,36.176098 L 16.958486,36.200638 C 17.006461,36.200638 17.155047,36.223951 17.32756,36.271803 z "
       style="fill:#000000;fill-rule:evenodd;stroke:#000000;stroke-width:0;stroke-linecap:round;stroke-linejoin:round;stroke-miterlimit:10"
       id="path42" />
    <path
       d="M 238.51004,32.35505 C 236.27717,32.507348 234.3212,33.382123 233.51942,34.586667 C 233.23874,34.989441 233.16574,35.314177 233.16574,35.791211 C 233.16574,36.268247 233.23874,36.592983 233.51942,36.995758 C 234.14372,37.924654 235.49554,38.677337 237.10286,39.025988 C 238.53396,39.32681 240.16142,39.32681 241.59252,39.025988 C 243.19481,38.677337 244.55165,37.924654 245.17721,36.995758 C 245.45664,36.592983 245.5309,36.268247 245.5309,35.791211 C 245.5309,35.314177 245.45664,34.989441 245.17721,34.586667 C 244.55165,33.657771 243.19481,32.905088 241.59252,32.556436 C 240.66362,32.35505 239.53712,32.280789 238.51004,32.35505 z M 239.13434,33.057386 C 240.4912,33.356949 241.46414,34.261931 241.76874,35.442561 C 241.94117,36.170071 241.91726,36.946668 241.71965,37.52188 C 241.51826,38.02283 241.1394,38.396654 240.66362,38.548953 C 240.43706,38.598041 239.91095,38.598041 239.61138,38.548953 C 238.22936,38.24939 237.2262,37.344409 236.92664,36.139863 C 236.70007,35.265089 236.8033,34.311019 237.12803,33.735808 C 237.35459,33.356949 237.75736,33.082561 238.18027,33.008299 C 238.38166,32.984382 238.88387,33.008299 239.13434,33.057386 z "
       style="fill:#000000;fill-rule:evenodd;stroke:#000000;stroke-width:0;stroke-linecap:butt;stroke-linejoin:round;stroke-miterlimit:10"
       id="path82" />
    <g
       transform="matrix(0.9908164,0,0,0.9908164,1.3970742,1.9271083)"
       id="g2297">
      <path
         d="M 147.61266,46.26706 L 147.98075,46.26706 L 147.98075,22.56041 L 147.61266,22.56041 L 147.61266,46.26706 z "
         style="fill:#000000;fill-rule:nonzero;stroke:#000000;stroke-width:0;stroke-linecap:butt;stroke-linejoin:round;stroke-miterlimit:10"
         id="path70" />
      <path
         d="M 147.6157,46.264024 L 147.97772,46.264024 L 147.97772,21.656766 L 147.6157,21.656766 L 147.6157,46.264024 z "
         style="fill:#000000;stroke:#000000;stroke-width:0.59283084;stroke-linecap:butt;stroke-linejoin:round;stroke-miterlimit:10"
         id="path74" />
      <path
         d="M 153.13977,16.193876 C 151.93684,16.342586 150.7074,16.837302 149.64878,17.660358 C 148.44585,18.539363 147.62427,19.712843 147.35924,20.915771 C 147.30182,21.30006 147.30182,21.972934 147.38868,22.267408 C 147.65224,23.296595 148.4753,23.940022 149.7062,24.205049 C 150.05662,24.262472 150.94299,24.262472 151.38028,24.205049 C 152.49486,23.997444 153.64037,23.496838 154.63422,22.766542 C 155.8077,21.887536 156.63076,20.714056 156.89579,19.511129 C 156.95321,19.12684 156.95321,18.453966 156.86634,18.131517 C 156.60131,17.165642 155.8077,16.514853 154.63422,16.251298 C 154.31325,16.193876 153.49019,16.164429 153.13977,16.193876 z "
         style="fill:#000000;fill-rule:evenodd;stroke:#000000;stroke-width:0;stroke-linecap:butt;stroke-linejoin:round;stroke-miterlimit:10"
         id="path94" />
    </g>
    <g
       transform="translate(0,0.3945372)"
       id="g2198">
      <path
         d="M 62.191972,28.463882 L 62.191972,32.127142 L 62.427556,32.127142 L 62.692576,32.127142 L 63.13576,32.599774 C 66.005416,35.619607 67.327612,37.822274 67.56466,39.904208 C 67.592632,40.254632 67.592632,41.105663 67.535212,41.63424 C 67.386508,43.015332 67.006636,44.511264 66.4486,45.799584 C 66.39118,45.977736 66.33376,46.12056 66.33376,46.21332 C 66.33376,46.32816 66.419152,46.563744 66.534004,46.650612 C 66.626764,46.771344 66.885892,46.856748 67.034608,46.856748 C 67.149448,46.856748 67.41448,46.736016 67.50724,46.650612 C 67.592632,46.563744 67.707484,46.27074 67.943056,45.562536 C 68.708692,43.245024 69.001696,40.840637 68.708692,39.053177 C 68.53054,37.994543 68.150668,36.941797 67.56466,35.740342 C 67.121476,34.859863 66.741604,34.210548 65.654992,32.449591 C 64.188508,30.102631 63.630484,28.988046 63.193192,27.670273 C 62.900188,26.789796 62.692576,25.703185 62.692576,24.972889 L 62.692576,24.794732 L 62.457004,24.794732 L 62.191972,24.794732 L 62.191972,28.463882 z "
         style="fill:#000000;fill-rule:evenodd;stroke:#000000;stroke-width:0;stroke-linecap:butt;stroke-linejoin:round;stroke-miterlimit:10"
         id="path58" />
      <path
         d="M 62.451112,48.714876 L 62.8192,48.714876 L 62.8192,25.012643 L 62.451112,25.012643 L 62.451112,48.714876 z "
         style="fill:#000000;fill-rule:nonzero;stroke:#000000;stroke-width:0;stroke-linecap:butt;stroke-linejoin:round;stroke-miterlimit:10"
         id="path62" />
      <path
         d="M 62.451112,48.714876 L 62.8192,48.714876 L 62.8192,25.012643 L 62.451112,25.012643 L 62.451112,48.714876 z "
         style="fill:#000000;stroke:#000000;stroke-width:0.58674884;stroke-linecap:butt;stroke-linejoin:round;stroke-miterlimit:10"
         id="path66" />
      <path
         d="M 59.316604,45.805476 C 58.113676,45.95418 56.88424,46.448904 55.825612,47.27196 C 54.622684,48.15096 53.801104,49.32444 53.536072,50.527368 C 53.478652,50.911656 53.478652,51.584532 53.56552,51.879 C 53.829076,52.908192 54.652132,53.55162 55.883032,53.81664 C 56.233456,53.874072 57.119824,53.874072 57.557116,53.81664 C 58.6717,53.60904 59.817208,53.108436 60.81106,52.37814 C 61.98454,51.499128 62.807596,50.325648 63.072616,49.12272 C 63.130048,48.738432 63.130048,48.065568 63.04318,47.743116 C 62.778148,46.777236 61.98454,46.126452 60.81106,45.862896 C 60.490084,45.805476 59.667028,45.776028 59.316604,45.805476 z "
         style="fill:#000000;fill-rule:evenodd;stroke:#000000;stroke-width:0;stroke-linecap:butt;stroke-linejoin:round;stroke-miterlimit:10"
         id="path98" />
    </g>
    <g
       transform="matrix(0.9525362,0,0,0.9525362,4.2889955,2.3619249)"
       id="g2281">
      <path
         d="M 94.51026,34.309462 L 94.878348,34.309462 L 94.878348,10.60281 L 94.51026,10.60281 L 94.51026,34.309462 z "
         style="fill:#000000;fill-rule:nonzero;stroke:#000000;stroke-width:0;stroke-linecap:butt;stroke-linejoin:round;stroke-miterlimit:10"
         id="path86" />
      <path
         d="M 94.51026,34.309462 L 94.878348,34.309462 L 94.878348,10.60281 L 94.51026,10.60281 L 94.51026,34.309462 z "
         style="fill:#000000;stroke:#000000;stroke-width:0.58674884;stroke-linecap:butt;stroke-linejoin:round;stroke-miterlimit:10"
         id="path90" />
      <path
         d="M 91.375752,31.348523 C 90.172824,31.497233 88.943388,31.99195 87.88476,32.815006 C 86.681832,33.694011 85.86024,34.867491 85.59522,36.070419 C 85.5378,36.454708 85.5378,37.127581 85.624668,37.422055 C 85.888224,38.451243 86.71128,39.094669 87.94218,39.359697 C 88.292604,39.417119 89.178972,39.417119 89.616264,39.359697 C 90.730848,39.152092 91.876356,38.651485 92.870208,37.921189 C 94.043688,37.042183 94.866744,35.868703 95.131764,34.665777 C 95.189196,34.281487 95.189196,33.608614 95.102316,33.286164 C 94.837296,32.320289 94.043688,31.6695 92.870208,31.405945 C 92.549232,31.348523 91.726176,31.319076 91.375752,31.348523 z "
         style="fill:#000000;fill-rule:evenodd;stroke:#000000;stroke-width:0;stroke-linecap:butt;stroke-linejoin:round;stroke-miterlimit:10"
         id="path102" />
    </g>
    <g
       transform="translate(0,1.1159197)"
       id="g2307">
      <path
         d="M 190.24478,17.004222 L 190.24478,20.667482 L 190.48036,20.667482 L 190.74539,20.667482 L 191.18858,21.140113 C 194.05822,24.159948 195.38042,26.362615 195.61746,28.444548 C 195.64544,28.794973 195.64544,29.646003 195.58802,30.174584 C 195.43931,31.555669 195.05944,33.051598 194.5014,34.339923 C 194.44398,34.51808 194.38656,34.6609 194.38656,34.753659 C 194.38656,34.868504 194.47196,35.104084 194.58681,35.190954 C 194.67957,35.311688 194.9387,35.397086 195.08741,35.397086 C 195.20225,35.397086 195.46728,35.276352 195.56004,35.190954 C 195.64544,35.104084 195.76029,34.811082 195.99586,34.102872 C 196.7615,31.785358 197.0545,29.380976 196.7615,27.593517 C 196.58334,26.534882 196.20347,25.482136 195.61746,24.280682 C 195.17428,23.400204 194.79441,22.750887 193.7078,20.989932 C 192.24131,18.642972 191.68329,17.528386 191.246,16.210614 C 190.95299,15.330135 190.74539,14.243526 190.74539,13.51323 L 190.74539,13.335073 L 190.50981,13.335073 L 190.24478,13.335073 L 190.24478,17.004222 z "
         style="fill:#000000;fill-rule:evenodd;stroke:#000000;stroke-width:0;stroke-linecap:round;stroke-linejoin:round;stroke-miterlimit:10"
         id="path46" />
      <path
         d="M 190.10196,36.558787 L 190.47005,36.558787 L 190.47005,12.852134 L 190.10196,12.852134 L 190.10196,36.558787 z "
         style="fill:#000000;fill-rule:nonzero;stroke:#000000;stroke-width:0;stroke-linecap:round;stroke-linejoin:round;stroke-miterlimit:10"
         id="path50" />
      <path
         d="M 190.10196,36.558787 L 190.47005,36.558787 L 190.47005,12.852134 L 190.10196,12.852134 L 190.10196,36.558787 z "
         style="fill:#000000;stroke:#000000;stroke-width:0.58674884;stroke-linecap:butt;stroke-linejoin:round;stroke-miterlimit:10"
         id="path54" />
      <path
         d="M 175.70511,27.419778 C 175.5623,27.48309 175.46954,27.569959 175.41212,27.714252 C 175.35468,27.805539 175.35468,28.127988 175.35468,30.152499 L 175.35468,32.442037 L 174.1812,32.964728 L 173.00772,33.465334 L 172.97975,31.268557 C 172.97975,29.272021 172.9503,29.036442 172.92233,28.949571 C 172.68528,28.535835 172.06983,28.565282 171.89168,29.008466 C 171.83424,29.093864 171.83424,29.416314 171.83424,31.526221 L 171.83424,33.965941 L 171.09807,34.258942 C 170.63279,34.466547 170.33979,34.609368 170.31034,34.66679 C 170.13219,34.844947 170.13219,34.874394 170.13219,35.990451 C 170.13219,36.898905 170.13219,37.01375 170.18961,37.134484 C 170.28237,37.3362 170.51206,37.484908 170.74764,37.456934 C 170.83451,37.456934 171.09807,37.3362 171.33364,37.249329 L 171.80627,37.043197 C 171.83424,37.043197 171.83424,38.072385 171.83424,39.36071 L 171.83424,41.678228 L 171.09807,41.97122 C 170.63279,42.178832 170.33979,42.327536 170.31034,42.384956 C 170.13219,42.558704 170.13219,42.592568 170.13219,43.702736 C 170.13219,44.611184 170.13219,44.731916 170.18961,44.846768 C 170.28237,45.054368 170.51206,45.204548 170.74764,45.16922 C 170.83451,45.16922 171.09807,45.054368 171.33364,44.9675 L 171.80627,44.761364 C 171.83424,44.761364 171.83424,45.697796 171.83424,46.843304 C 171.83424,48.632228 171.83424,48.925232 171.89168,49.016516 C 172.06983,49.483268 172.7427,49.483268 172.92233,49.016516 C 172.97975,48.925232 172.97975,48.60278 172.97975,46.578272 L 172.97975,44.231312 L 174.15176,43.732184 L 175.35468,43.23746 L 175.35468,45.462212 C 175.35468,47.458748 175.38267,47.694332 175.41212,47.751752 C 175.64769,48.194936 176.23517,48.165488 176.4413,47.722304 C 176.49872,47.636912 176.49872,47.486732 176.49872,45.16922 L 176.49872,42.736856 L 177.22901,42.443852 C 177.70164,42.236252 177.99465,42.091964 178.02263,42.034532 C 178.20078,41.85638 178.20078,41.828408 178.20078,40.712348 C 178.20078,39.803894 178.20078,39.687577 178.14336,39.566841 C 178.05207,39.36071 177.8165,39.216417 177.5868,39.245865 C 177.49404,39.245865 177.22901,39.36071 176.99933,39.451996 L 176.52816,39.653712 C 176.49872,39.653712 176.49872,38.630414 176.49872,37.3362 L 176.49872,35.023104 L 177.22901,34.724212 C 177.70164,34.52397 177.99465,34.373787 178.02263,34.316365 C 178.20078,34.138208 178.20078,34.108761 178.20078,32.998593 C 178.20078,32.08425 178.20078,31.969405 178.14336,31.85456 C 178.05207,31.646956 177.8165,31.498246 177.5868,31.526221 C 177.49404,31.526221 177.22901,31.646956 176.99933,31.733826 L 176.52816,31.94143 C 176.49872,31.94143 176.49872,31.00353 176.49872,29.887472 C 176.49872,27.949831 176.49872,27.805539 176.4413,27.684805 C 176.32056,27.419778 175.97014,27.276957 175.70511,27.419778 z M 175.35468,37.836805 L 175.35468,40.154318 L 174.21065,40.654928 C 173.59521,40.918484 173.06516,41.155532 173.03717,41.155532 C 172.97975,41.183504 172.97975,41.120192 172.97975,38.865993 L 172.97975,36.519033 L 174.15176,36.018427 L 175.35468,35.51782 L 175.35468,37.836805 z "
         style="fill:#000000;fill-rule:evenodd;stroke:#000000;stroke-width:0;stroke-linecap:butt;stroke-linejoin:round;stroke-miterlimit:10"
         id="path78" />
      <path
         d="M 186.96746,34.345813 C 185.76453,34.494522 184.5351,34.989238 183.47646,35.812294 C 182.27354,36.6913 181.45196,37.86478 181.18694,39.067708 C 181.1295,39.451996 181.1295,40.12487 181.21637,40.419344 C 181.47993,41.448536 182.30298,42.091964 183.5339,42.356984 C 183.88432,42.414404 184.77069,42.414404 185.20798,42.356984 C 186.32256,42.149384 187.46807,41.64878 188.46191,40.918484 C 189.63539,40.039473 190.45845,38.865993 190.72348,37.663065 C 190.7809,37.278776 190.7809,36.605902 190.69403,36.283454 C 190.429,35.317578 189.63539,34.66679 188.46191,34.403235 C 188.14094,34.345813 187.31788,34.316365 186.96746,34.345813 z "
         style="fill:#000000;fill-rule:evenodd;stroke:#000000;stroke-width:0;stroke-linecap:butt;stroke-linejoin:round;stroke-miterlimit:10"
         id="path106" />
    </g>
    <g
       transform="matrix(0.9724239,0,0,0.9724239,3.329881,1.8427245)"
       id="g2289">
      <path
         d="M 116.23749,53.883926 L 116.60559,53.883926 L 116.60559,30.175802 L 116.23749,30.175802 L 116.23749,53.883926 z "
         style="fill:#000000;fill-rule:nonzero;stroke:#000000;stroke-width:0;stroke-linecap:butt;stroke-linejoin:round;stroke-miterlimit:10"
         id="path110" />
      <path
         d="M 116.24063,53.880782 L 116.60245,53.880782 L 116.60245,29.241916 L 116.24063,29.241916 L 116.24063,53.880782 z "
         style="fill:#000000;stroke:#000000;stroke-width:0.59303004;stroke-linecap:butt;stroke-linejoin:round;stroke-miterlimit:10"
         id="path114" />
      <path
         d="M 121.76459,23.838715 C 120.56167,23.987425 119.33223,24.482142 118.2736,25.305198 C 117.07067,26.184202 116.24908,27.357682 115.98406,28.56061 C 115.92664,28.9449 115.92664,29.617773 116.01351,29.912247 C 116.27707,30.941434 117.10012,31.584861 118.33102,31.849888 C 118.68145,31.907311 119.56781,31.907311 120.00511,31.849888 C 121.11969,31.642284 122.2652,31.141677 123.25905,30.411381 C 124.43253,29.532375 125.25559,28.358895 125.52061,27.155968 C 125.57804,26.771679 125.57804,26.098806 125.49116,25.776356 C 125.22614,24.810481 124.43253,24.159692 123.25905,23.896137 C 122.93807,23.838715 122.11502,23.809268 121.76459,23.838715 z "
         style="fill:#000000;fill-rule:evenodd;stroke:#000000;stroke-width:0;stroke-linecap:butt;stroke-linejoin:round;stroke-miterlimit:10"
         id="path118" />
    </g>
    <g
       transform="matrix(0.9160908,0,0,0.9160908,3.1274158,3.8123715)"
       id="g2334">
      <path
         d="M 39.810558,17.244695 C 39.701781,17.296432 38.965532,17.478174 38.701535,17.535216 C 38.514494,17.560421 38.302237,17.560421 37.959976,17.560421 C 37.40547,17.560421 37.245351,17.535216 36.478451,17.348168 C 35.923945,17.214183 35.872205,17.214183 35.737427,17.399906 C 35.685563,17.478174 35.685563,17.508684 35.659687,17.850942 C 35.581958,19.302219 35.421304,20.068982 35.053441,21.208513 C 34.493762,22.872042 33.545523,24.535573 32.224118,26.120835 C 32.0116,26.38615 31.959731,26.468398 31.959731,26.520135 C 31.959731,26.784124 32.146381,27.022908 32.436503,27.101176 C 32.591979,27.152913 32.643848,27.152913 34.892799,27.152913 L 37.193611,27.152913 L 37.193611,27.286898 C 37.193611,27.919675 37.006969,28.556433 36.716846,29.002164 C 36.374847,29.504937 35.923945,29.795458 35.369564,29.852501 C 35.105181,29.852501 35.079317,29.877705 34.996404,29.982506 C 34.892799,30.143021 34.944539,30.355275 35.105181,30.407011 C 35.260662,30.485279 35.763304,30.458748 37.006969,30.2717 C 38.617962,30.059447 38.831538,30.059447 40.468544,30.2717 C 41.686345,30.458748 42.189111,30.485279 42.344319,30.407011 C 42.504836,30.355275 42.556576,30.143021 42.453108,29.982506 C 42.376163,29.877705 42.344319,29.852501 42.080333,29.852501 C 41.26183,29.768927 40.629062,29.137475 40.365064,28.131928 C 40.313336,27.893144 40.261596,27.500476 40.286801,27.31343 L 40.286801,27.152913 L 41.287035,27.152913 C 42.189111,27.152913 42.292591,27.152913 42.376163,27.101176 C 42.504836,27.049439 42.583111,26.945967 42.583111,26.784124 C 42.583111,26.598403 42.504836,26.49493 42.376163,26.443194 C 42.292591,26.38615 42.189111,26.38615 41.287035,26.38615 L 40.286801,26.38615 L 40.286801,23.110827 C 40.286801,19.48794 40.286801,19.701519 40.126284,19.59672 C 40.022816,19.514472 39.835763,19.541003 39.758818,19.623252 C 39.726986,19.649783 39.623506,19.830197 39.546573,20.017245 C 39.069,21.074528 38.77981,21.416786 37.722526,22.131812 C 37.40547,22.344065 37.297215,22.421006 37.271215,22.504581 C 37.219487,22.608053 37.193611,22.65979 37.193611,24.510368 L 37.193611,26.38615 L 34.996404,26.38615 L 32.804496,26.38615 C 32.804496,26.359619 34.493762,24.405567 36.582068,21.975276 C 39.546573,18.535456 40.338541,17.586952 40.338541,17.535216 C 40.338541,17.322963 40.049339,17.162447 39.810558,17.244695 z "
         style="fill:#000000;fill-rule:evenodd;stroke:#000000;stroke-width:0;stroke-linecap:round;stroke-linejoin:round;stroke-miterlimit:10"
         id="path38" />
      <path
         d="M 39.810558,32.230857 C 39.701769,32.282594 38.965507,32.464336 38.701522,32.521378 C 38.514469,32.546583 38.302224,32.546583 37.959976,32.546583 C 37.40547,32.546583 37.245351,32.521378 36.478451,32.334331 C 35.923945,32.200347 35.872205,32.200347 35.737427,32.386068 C 35.68555,32.464336 35.68555,32.494848 35.659687,32.837105 C 35.581946,34.288382 35.421304,35.055145 35.053441,36.194674 C 34.493762,37.858205 33.545517,39.521734 32.224113,41.106997 C 32.011596,41.372313 31.959725,41.45456 31.959725,41.5063 C 31.959725,41.770285 32.146375,42.009065 32.436499,42.087341 C 32.591974,42.139081 32.643842,42.139081 34.892787,42.139081 L 37.193611,42.139081 L 37.193611,42.273063 C 37.193611,42.905844 37.006956,43.542592 36.716834,43.988332 C 36.374847,44.491098 35.923945,44.781618 35.369564,44.838668 C 35.105181,44.838668 35.079305,44.863873 34.996404,44.968671 C 34.892787,45.129189 34.944527,45.341434 35.105181,45.393174 C 35.26065,45.471437 35.763291,45.444914 37.006956,45.257861 C 38.617962,45.045604 38.831538,45.045604 40.468544,45.257861 C 41.686345,45.444914 42.189111,45.471437 42.344319,45.393174 C 42.504836,45.341434 42.556564,45.129189 42.453096,44.968671 C 42.376151,44.863873 42.344319,44.838668 42.080346,44.838668 C 41.261843,44.755083 40.629062,44.123633 40.365051,43.118089 C 40.313324,42.879309 40.261596,42.486639 40.286801,42.299586 L 40.286801,42.139081 L 41.287047,42.139081 C 42.189111,42.139081 42.292591,42.139081 42.376151,42.087341 C 42.504836,42.035601 42.583099,41.932133 42.583099,41.770285 C 42.583099,41.584563 42.504836,41.481095 42.376151,41.429355 C 42.292591,41.372313 42.189111,41.372313 41.287047,41.372313 L 40.286801,41.372313 L 40.286801,38.096989 C 40.286801,34.474101 40.286801,34.687683 40.126271,34.582881 C 40.022816,34.500636 39.835763,34.527165 39.758806,34.609414 C 39.726961,34.635946 39.623506,34.816361 39.546548,35.003409 C 39.069,36.060691 38.77981,36.402948 37.722514,37.117973 C 37.40547,37.330226 37.297215,37.407168 37.271215,37.490743 C 37.219475,37.594216 37.193611,37.645952 37.193611,39.496531 L 37.193611,41.372313 L 34.996404,41.372313 L 32.804491,41.372313 C 32.804491,41.34578 34.493762,39.391729 36.582056,36.961436 C 39.546548,33.52162 40.338529,32.573116 40.338529,32.521378 C 40.338529,32.309126 40.049339,32.14861 39.810558,32.230857 z "
         style="fill:#000000;fill-rule:evenodd;stroke:#000000;stroke-width:0;stroke-linecap:butt;stroke-linejoin:round;stroke-miterlimit:10"
         id="path158" />
    </g>
    <path
       d="M 1.46909,18.581265 L 1.46909,46.527821"
       style="fill:none;fill-rule:evenodd;stroke:#000000;stroke-width:0.93818009px;stroke-linecap:butt;stroke-linejoin:miter;stroke-opacity:1"
       id="path2419" />
    <path
       d="M 214.87788,18.007948 L 214.87788,46.009431"
       style="fill:none;fill-rule:evenodd;stroke:#000000;stroke-width:0.97538894px;stroke-linecap:butt;stroke-linejoin:miter;stroke-opacity:1"
       id="path2421" />
  </g>
</svg>
