<?xml version="1.0" encoding="UTF-8" standalone="yes"?><svg xmlns="http://www.w3.org/2000/svg" xmlns:xlink="http://www.w3.org/1999/xlink" height="211px" style="width:117px;height:211px;" version="1.1" viewBox="0 0 117 211" width="117px"><defs><filter height="300%" id="f1" width="300%" x="-1" y="-1"><feGaussianBlur result="blurOut" stdDeviation="2.0"/><feColorMatrix in="blurOut" result="blurOut2" type="matrix" values="0 0 0 0 0 0 0 0 0 0 0 0 0 0 0 0 0 0 .4 0"/><feOffset dx="4.0" dy="4.0" in="blurOut2" result="blurOut3"/><feBlend in="SourceGraphic" in2="blurOut3" mode="normal"/></filter></defs><g><rect fill="#FEFECE" filter="url(#f1)" height="60.8047" style="stroke: #A80036; stroke-width: 1.5;" width="85" x="14.5" y="8"/><ellipse cx="29.5" cy="24" fill="#ADD1B2" rx="11" ry="11" style="stroke: #A80036; stroke-width: 1.0;"/><path d="M31.8438,19.6719 L32.0156,19.75 C32.2344,19.4375 32.4375,19.3438 32.7344,19.3438 C33.0313,19.3438 33.3125,19.4844 33.4688,19.75 C33.5625,19.9063 33.5781,20.0313 33.5781,20.4688 L33.5781,21.8906 C33.5781,22.3125 33.5469,22.5 33.4375,22.6563 C33.2656,22.875 33,23.0156 32.7344,23.0156 C32.5156,23.0156 32.2813,22.9063 32.1406,22.7656 C32,22.6406 31.9688,22.5156 31.9063,22.1094 C31.8125,21.7031 31.6406,21.4844 31.1563,21.2031 C30.6875,20.9531 30.0781,20.7969 29.5,20.7969 C27.7656,20.7969 26.5156,22.1094 26.5156,23.8906 L26.5156,24.9844 C26.5156,26.6875 27.8125,27.7813 29.8594,27.7813 C30.625,27.7813 31.3125,27.6563 31.7344,27.3906 C31.9219,27.2969 31.9219,27.2969 32.375,26.8125 C32.5625,26.625 32.7656,26.5469 32.9844,26.5469 C33.4531,26.5469 33.8438,26.9375 33.8438,27.3906 C33.8438,27.7813 33.5156,28.2344 32.9375,28.6406 C32.1875,29.1875 31.0313,29.4844 29.8125,29.4844 C26.9219,29.4844 24.8125,27.5938 24.8125,25.0156 L24.8125,23.8906 C24.8125,21.1719 26.8125,19.0938 29.4375,19.0938 C30.3125,19.0938 30.9063,19.2344 31.8438,19.6719 Z "/><text fill="#000000" font-family="sans-serif" font-size="12" lengthAdjust="spacingAndGlyphs" textLength="53" x="43.5" y="28.1543">Partition</text><line style="stroke: #A80036; stroke-width: 1.5;" x1="15.5" x2="98.5" y1="40" y2="40"/><text fill="#000000" font-family="sans-serif" font-size="11" lengthAdjust="spacingAndGlyphs" textLength="50" x="20.5" y="54.2104">clef: Clef</text><line style="stroke: #A80036; stroke-width: 1.5;" x1="15.5" x2="98.5" y1="60.8047" y2="60.8047"/><rect fill="#FEFECE" filter="url(#f1)" height="73.6094" style="stroke: #A80036; stroke-width: 1.5;" width="102" x="6" y="129"/><ellipse cx="39" cy="145" fill="#ADD1B2" rx="11" ry="11" style="stroke: #A80036; stroke-width: 1.0;"/><path d="M41.3438,140.6719 L41.5156,140.75 C41.7344,140.4375 41.9375,140.3438 42.2344,140.3438 C42.5313,140.3438 42.8125,140.4844 42.9688,140.75 C43.0625,140.9063 43.0781,141.0313 43.0781,141.4688 L43.0781,142.8906 C43.0781,143.3125 43.0469,143.5 42.9375,143.6563 C42.7656,143.875 42.5,144.0156 42.2344,144.0156 C42.0156,144.0156 41.7813,143.9063 41.6406,143.7656 C41.5,143.6406 41.4688,143.5156 41.4063,143.1094 C41.3125,142.7031 41.1406,142.4844 40.6563,142.2031 C40.1875,141.9531 39.5781,141.7969 39,141.7969 C37.2656,141.7969 36.0156,143.1094 36.0156,144.8906 L36.0156,145.9844 C36.0156,147.6875 37.3125,148.7813 39.3594,148.7813 C40.125,148.7813 40.8125,148.6563 41.2344,148.3906 C41.4219,148.2969 41.4219,148.2969 41.875,147.8125 C42.0625,147.625 42.2656,147.5469 42.4844,147.5469 C42.9531,147.5469 43.3438,147.9375 43.3438,148.3906 C43.3438,148.7813 43.0156,149.2344 42.4375,149.6406 C41.6875,150.1875 40.5313,150.4844 39.3125,150.4844 C36.4219,150.4844 34.3125,148.5938 34.3125,146.0156 L34.3125,144.8906 C34.3125,142.1719 36.3125,140.0938 38.9375,140.0938 C39.8125,140.0938 40.4063,140.2344 41.3438,140.6719 Z "/><text fill="#000000" font-family="sans-serif" font-size="12" lengthAdjust="spacingAndGlyphs" textLength="30" x="57" y="149.1543">Note</text><line style="stroke: #A80036; stroke-width: 1.5;" x1="7" x2="107" y1="161" y2="161"/><text fill="#000000" font-family="sans-serif" font-size="11" lengthAdjust="spacingAndGlyphs" textLength="73" x="12" y="175.2104">name: Name</text><text fill="#000000" font-family="sans-serif" font-size="11" lengthAdjust="spacingAndGlyphs" textLength="90" x="12" y="188.0151">rhythm: Rhythm</text><line style="stroke: #A80036; stroke-width: 1.5;" x1="7" x2="107" y1="194.6094" y2="194.6094"/><path d="M57,82.484 C57,97.546 57,114.3003 57,128.7555 " fill="none" style="stroke: #A80036; stroke-width: 1.0;"/><polygon fill="#FFFFFF" points="57,69.242,53,75.242,57,81.242,61,75.242,57,69.242" style="stroke: #A80036; stroke-width: 1.0;"/><text fill="#000000" font-family="sans-serif" font-size="13" lengthAdjust="spacingAndGlyphs" textLength="8" x="48.2125" y="88.8701">1</text><text fill="#000000" font-family="sans-serif" font-size="13" lengthAdjust="spacingAndGlyphs" textLength="7" x="49.3766" y="117.8989">*</text></g></svg>