<?xml version="1.0" encoding="UTF-8" standalone="yes"?><svg xmlns="http://www.w3.org/2000/svg" xmlns:xlink="http://www.w3.org/1999/xlink" height="198px" style="width:247px;height:198px;" version="1.1" viewBox="0 0 247 198" width="247px"><defs><filter height="300%" id="f1" width="300%" x="-1" y="-1"><feGaussianBlur result="blurOut" stdDeviation="2.0"/><feColorMatrix in="blurOut" result="blurOut2" type="matrix" values="0 0 0 0 0 0 0 0 0 0 0 0 0 0 0 0 0 0 .4 0"/><feOffset dx="4.0" dy="4.0" in="blurOut2" result="blurOut3"/><feBlend in="SourceGraphic" in2="blurOut3" mode="normal"/></filter></defs><g><rect fill="#FEFECE" filter="url(#f1)" height="48" style="stroke: #A80036; stroke-width: 1.5;" width="77" x="85.5" y="8"/><ellipse cx="100.5" cy="24" fill="#A9DCDF" rx="11" ry="11" style="stroke: #A80036; stroke-width: 1.0;"/><path d="M102.0781,25.8125 L98.0313,25.8125 L97.6406,26.7969 L98.0313,26.7969 C98.4844,26.7969 98.625,26.8281 98.7969,26.9531 C99.0156,27.125 99.1406,27.375 99.1406,27.6563 C99.1406,27.9375 99,28.2344 98.7344,28.375 C98.6094,28.4688 98.3906,28.5 98.0313,28.5 L95.7656,28.5 C95.0156,28.5 94.6406,28.2188 94.6406,27.6563 C94.6406,27.3594 94.7969,27.0781 95.0469,26.9219 C95.2031,26.8125 95.3594,26.7969 95.7813,26.7969 L98.4219,20.2813 L97.3438,20.2813 C96.9063,20.2813 96.7344,20.25 96.5625,20.1406 C96.3438,19.9688 96.2031,19.7188 96.2031,19.4375 C96.2031,19.1563 96.3594,18.875 96.6094,18.7031 C96.7656,18.6094 96.8906,18.5938 97.3438,18.5938 L101.0156,18.5938 L104.4063,26.7969 C104.875,26.7969 105.0313,26.8281 105.2031,26.9688 C105.4219,27.125 105.5625,27.375 105.5625,27.6563 C105.5625,27.9375 105.4063,28.2344 105.1563,28.375 C105.0156,28.4688 104.7969,28.5 104.4375,28.5 L102.0781,28.5 C101.6563,28.5 101.4531,28.4531 101.3125,28.3281 C101.0938,28.1719 100.9531,27.9219 100.9531,27.6563 C100.9531,27.3594 101.1094,27.0781 101.3594,26.9219 C101.5156,26.8125 101.625,26.7969 102.0781,26.7969 L102.4688,26.7969 Z M101.375,24.1094 L100.0469,20.8438 L98.7031,24.1094 Z "/><text fill="#000000" font-family="sans-serif" font-size="12" font-style="italic" lengthAdjust="spacingAndGlyphs" textLength="45" x="114.5" y="28.1543">Symbol</text><line style="stroke: #A80036; stroke-width: 1.5;" x1="86.5" x2="161.5" y1="40" y2="40"/><line style="stroke: #A80036; stroke-width: 1.5;" x1="86.5" x2="161.5" y1="48" y2="48"/><rect fill="#FEFECE" filter="url(#f1)" height="73.6094" style="stroke: #A80036; stroke-width: 1.5;" width="102" x="6" y="116"/><ellipse cx="39" cy="132" fill="#ADD1B2" rx="11" ry="11" style="stroke: #A80036; stroke-width: 1.0;"/><path d="M41.3438,127.6719 L41.5156,127.75 C41.7344,127.4375 41.9375,127.3438 42.2344,127.3438 C42.5313,127.3438 42.8125,127.4844 42.9688,127.75 C43.0625,127.9063 43.0781,128.0313 43.0781,128.4688 L43.0781,129.8906 C43.0781,130.3125 43.0469,130.5 42.9375,130.6563 C42.7656,130.875 42.5,131.0156 42.2344,131.0156 C42.0156,131.0156 41.7813,130.9063 41.6406,130.7656 C41.5,130.6406 41.4688,130.5156 41.4063,130.1094 C41.3125,129.7031 41.1406,129.4844 40.6563,129.2031 C40.1875,128.9531 39.5781,128.7969 39,128.7969 C37.2656,128.7969 36.0156,130.1094 36.0156,131.8906 L36.0156,132.9844 C36.0156,134.6875 37.3125,135.7813 39.3594,135.7813 C40.125,135.7813 40.8125,135.6563 41.2344,135.3906 C41.4219,135.2969 41.4219,135.2969 41.875,134.8125 C42.0625,134.625 42.2656,134.5469 42.4844,134.5469 C42.9531,134.5469 43.3438,134.9375 43.3438,135.3906 C43.3438,135.7813 43.0156,136.2344 42.4375,136.6406 C41.6875,137.1875 40.5313,137.4844 39.3125,137.4844 C36.4219,137.4844 34.3125,135.5938 34.3125,133.0156 L34.3125,131.8906 C34.3125,129.1719 36.3125,127.0938 38.9375,127.0938 C39.8125,127.0938 40.4063,127.2344 41.3438,127.6719 Z "/><text fill="#000000" font-family="sans-serif" font-size="12" lengthAdjust="spacingAndGlyphs" textLength="30" x="57" y="136.1543">Note</text><line style="stroke: #A80036; stroke-width: 1.5;" x1="7" x2="107" y1="148" y2="148"/><text fill="#000000" font-family="sans-serif" font-size="11" lengthAdjust="spacingAndGlyphs" textLength="73" x="12" y="162.2104">name: Name</text><text fill="#000000" font-family="sans-serif" font-size="11" lengthAdjust="spacingAndGlyphs" textLength="90" x="12" y="175.0151">rhythm: Rhythm</text><line style="stroke: #A80036; stroke-width: 1.5;" x1="7" x2="107" y1="181.6094" y2="181.6094"/><rect fill="#FEFECE" filter="url(#f1)" height="60.8047" style="stroke: #A80036; stroke-width: 1.5;" width="95" x="143.5" y="122.5"/><ellipse cx="174.25" cy="138.5" fill="#ADD1B2" rx="11" ry="11" style="stroke: #A80036; stroke-width: 1.0;"/><path d="M176.5938,134.1719 L176.7656,134.25 C176.9844,133.9375 177.1875,133.8438 177.4844,133.8438 C177.7813,133.8438 178.0625,133.9844 178.2188,134.25 C178.3125,134.4063 178.3281,134.5313 178.3281,134.9688 L178.3281,136.3906 C178.3281,136.8125 178.2969,137 178.1875,137.1563 C178.0156,137.375 177.75,137.5156 177.4844,137.5156 C177.2656,137.5156 177.0313,137.4063 176.8906,137.2656 C176.75,137.1406 176.7188,137.0156 176.6563,136.6094 C176.5625,136.2031 176.3906,135.9844 175.9063,135.7031 C175.4375,135.4531 174.8281,135.2969 174.25,135.2969 C172.5156,135.2969 171.2656,136.6094 171.2656,138.3906 L171.2656,139.4844 C171.2656,141.1875 172.5625,142.2813 174.6094,142.2813 C175.375,142.2813 176.0625,142.1563 176.4844,141.8906 C176.6719,141.7969 176.6719,141.7969 177.125,141.3125 C177.3125,141.125 177.5156,141.0469 177.7344,141.0469 C178.2031,141.0469 178.5938,141.4375 178.5938,141.8906 C178.5938,142.2813 178.2656,142.7344 177.6875,143.1406 C176.9375,143.6875 175.7813,143.9844 174.5625,143.9844 C171.6719,143.9844 169.5625,142.0938 169.5625,139.5156 L169.5625,138.3906 C169.5625,135.6719 171.5625,133.5938 174.1875,133.5938 C175.0625,133.5938 175.6563,133.7344 176.5938,134.1719 Z "/><text fill="#000000" font-family="sans-serif" font-size="12" lengthAdjust="spacingAndGlyphs" textLength="28" x="191.75" y="142.6543">Rest</text><line style="stroke: #A80036; stroke-width: 1.5;" x1="144.5" x2="237.5" y1="154.5" y2="154.5"/><text fill="#000000" font-family="sans-serif" font-size="11" lengthAdjust="spacingAndGlyphs" textLength="83" x="149.5" y="168.7104">rhythm: Rhytm</text><line style="stroke: #A80036; stroke-width: 1.5;" x1="144.5" x2="237.5" y1="175.3047" y2="175.3047"/><path d="M100.8674,74.086 C93.2475,87.62 84.8336,102.5641 77.4299,115.714 " fill="none" style="stroke: #A80036; stroke-width: 1.0;"/><polygon fill="none" points="95.0108,70.22,110.923,56.227,107.21,77.089,95.0108,70.22" style="stroke: #A80036; stroke-width: 1.0;"/><path d="M146.954,73.769 C155.964,89.772 166.107,107.7878 174.387,122.4935 " fill="none" style="stroke: #A80036; stroke-width: 1.0;"/><polygon fill="none" points="140.79,77.089,137.077,56.227,152.989,70.22,140.79,77.089" style="stroke: #A80036; stroke-width: 1.0;"/></g></svg>