<?xml version="1.0" encoding="UTF-8" standalone="yes"?><svg xmlns="http://www.w3.org/2000/svg" xmlns:xlink="http://www.w3.org/1999/xlink" height="237px" style="width:399px;height:237px;" version="1.1" viewBox="0 0 399 237" width="399px"><defs><filter height="300%" id="f1" width="300%" x="-1" y="-1"><feGaussianBlur result="blurOut" stdDeviation="2.0"/><feColorMatrix in="blurOut" result="blurOut2" type="matrix" values="0 0 0 0 0 0 0 0 0 0 0 0 0 0 0 0 0 0 .4 0"/><feOffset dx="4.0" dy="4.0" in="blurOut2" result="blurOut3"/><feBlend in="SourceGraphic" in2="blurOut3" mode="normal"/></filter></defs><g><rect fill="#FEFECE" filter="url(#f1)" height="60.8047" style="stroke: #A80036; stroke-width: 1.5;" width="136" x="91" y="14.5"/><ellipse cx="132.55" cy="30.5" fill="#A9DCDF" rx="11" ry="11" style="stroke: #A80036; stroke-width: 1.0;"/><path d="M134.1281,32.3125 L130.0813,32.3125 L129.6906,33.2969 L130.0813,33.2969 C130.5344,33.2969 130.675,33.3281 130.8469,33.4531 C131.0656,33.625 131.1906,33.875 131.1906,34.1563 C131.1906,34.4375 131.05,34.7344 130.7844,34.875 C130.6594,34.9688 130.4406,35 130.0813,35 L127.8156,35 C127.0656,35 126.6906,34.7188 126.6906,34.1563 C126.6906,33.8594 126.8469,33.5781 127.0969,33.4219 C127.2531,33.3125 127.4094,33.2969 127.8313,33.2969 L130.4719,26.7813 L129.3938,26.7813 C128.9563,26.7813 128.7844,26.75 128.6125,26.6406 C128.3938,26.4688 128.2531,26.2188 128.2531,25.9375 C128.2531,25.6563 128.4094,25.375 128.6594,25.2031 C128.8156,25.1094 128.9406,25.0938 129.3938,25.0938 L133.0656,25.0938 L136.4563,33.2969 C136.925,33.2969 137.0813,33.3281 137.2531,33.4688 C137.4719,33.625 137.6125,33.875 137.6125,34.1563 C137.6125,34.4375 137.4563,34.7344 137.2063,34.875 C137.0656,34.9688 136.8469,35 136.4875,35 L134.1281,35 C133.7063,35 133.5031,34.9531 133.3625,34.8281 C133.1438,34.6719 133.0031,34.4219 133.0031,34.1563 C133.0031,33.8594 133.1594,33.5781 133.4094,33.4219 C133.5656,33.3125 133.675,33.2969 134.1281,33.2969 L134.5188,33.2969 Z M133.425,30.6094 L132.0969,27.3438 L130.7531,30.6094 Z "/><text fill="#000000" font-family="sans-serif" font-size="12" font-style="italic" lengthAdjust="spacingAndGlyphs" textLength="45" x="152.45" y="34.6543">Symbol</text><line style="stroke: #A80036; stroke-width: 1.5;" x1="92" x2="226" y1="46.5" y2="46.5"/><line style="stroke: #A80036; stroke-width: 1.5;" x1="92" x2="226" y1="54.5" y2="54.5"/><text fill="#000000" font-family="sans-serif" font-size="11" font-style="italic" lengthAdjust="spacingAndGlyphs" textLength="124" x="97" y="68.7104">accept(visitor: Visitor)</text><rect fill="#FEFECE" filter="url(#f1)" height="86.4141" style="stroke: #A80036; stroke-width: 1.5;" width="136" x="6" y="142"/><ellipse cx="54.75" cy="158" fill="#ADD1B2" rx="11" ry="11" style="stroke: #A80036; stroke-width: 1.0;"/><path d="M57.0938,153.6719 L57.2656,153.75 C57.4844,153.4375 57.6875,153.3438 57.9844,153.3438 C58.2813,153.3438 58.5625,153.4844 58.7188,153.75 C58.8125,153.9063 58.8281,154.0313 58.8281,154.4688 L58.8281,155.8906 C58.8281,156.3125 58.7969,156.5 58.6875,156.6563 C58.5156,156.875 58.25,157.0156 57.9844,157.0156 C57.7656,157.0156 57.5313,156.9063 57.3906,156.7656 C57.25,156.6406 57.2188,156.5156 57.1563,156.1094 C57.0625,155.7031 56.8906,155.4844 56.4063,155.2031 C55.9375,154.9531 55.3281,154.7969 54.75,154.7969 C53.0156,154.7969 51.7656,156.1094 51.7656,157.8906 L51.7656,158.9844 C51.7656,160.6875 53.0625,161.7813 55.1094,161.7813 C55.875,161.7813 56.5625,161.6563 56.9844,161.3906 C57.1719,161.2969 57.1719,161.2969 57.625,160.8125 C57.8125,160.625 58.0156,160.5469 58.2344,160.5469 C58.7031,160.5469 59.0938,160.9375 59.0938,161.3906 C59.0938,161.7813 58.7656,162.2344 58.1875,162.6406 C57.4375,163.1875 56.2813,163.4844 55.0625,163.4844 C52.1719,163.4844 50.0625,161.5938 50.0625,159.0156 L50.0625,157.8906 C50.0625,155.1719 52.0625,153.0938 54.6875,153.0938 C55.5625,153.0938 56.1563,153.2344 57.0938,153.6719 Z "/><text fill="#000000" font-family="sans-serif" font-size="12" lengthAdjust="spacingAndGlyphs" textLength="30" x="75.25" y="162.1543">Note</text><line style="stroke: #A80036; stroke-width: 1.5;" x1="7" x2="141" y1="174" y2="174"/><text fill="#000000" font-family="sans-serif" font-size="11" lengthAdjust="spacingAndGlyphs" textLength="73" x="12" y="188.2104">name: Name</text><text fill="#000000" font-family="sans-serif" font-size="11" lengthAdjust="spacingAndGlyphs" textLength="90" x="12" y="201.0151">rhythm: Rhythm</text><line style="stroke: #A80036; stroke-width: 1.5;" x1="7" x2="141" y1="207.6094" y2="207.6094"/><text fill="#000000" font-family="sans-serif" font-size="11" lengthAdjust="spacingAndGlyphs" textLength="124" x="12" y="221.8198">accept(visitor: Visitor)</text><rect fill="#FEFECE" filter="url(#f1)" height="73.6094" style="stroke: #A80036; stroke-width: 1.5;" width="136" x="177" y="148"/><ellipse cx="226.75" cy="164" fill="#ADD1B2" rx="11" ry="11" style="stroke: #A80036; stroke-width: 1.0;"/><path d="M229.0938,159.6719 L229.2656,159.75 C229.4844,159.4375 229.6875,159.3438 229.9844,159.3438 C230.2813,159.3438 230.5625,159.4844 230.7188,159.75 C230.8125,159.9063 230.8281,160.0313 230.8281,160.4688 L230.8281,161.8906 C230.8281,162.3125 230.7969,162.5 230.6875,162.6563 C230.5156,162.875 230.25,163.0156 229.9844,163.0156 C229.7656,163.0156 229.5313,162.9063 229.3906,162.7656 C229.25,162.6406 229.2188,162.5156 229.1563,162.1094 C229.0625,161.7031 228.8906,161.4844 228.4063,161.2031 C227.9375,160.9531 227.3281,160.7969 226.75,160.7969 C225.0156,160.7969 223.7656,162.1094 223.7656,163.8906 L223.7656,164.9844 C223.7656,166.6875 225.0625,167.7813 227.1094,167.7813 C227.875,167.7813 228.5625,167.6563 228.9844,167.3906 C229.1719,167.2969 229.1719,167.2969 229.625,166.8125 C229.8125,166.625 230.0156,166.5469 230.2344,166.5469 C230.7031,166.5469 231.0938,166.9375 231.0938,167.3906 C231.0938,167.7813 230.7656,168.2344 230.1875,168.6406 C229.4375,169.1875 228.2813,169.4844 227.0625,169.4844 C224.1719,169.4844 222.0625,167.5938 222.0625,165.0156 L222.0625,163.8906 C222.0625,161.1719 224.0625,159.0938 226.6875,159.0938 C227.5625,159.0938 228.1563,159.2344 229.0938,159.6719 Z "/><text fill="#000000" font-family="sans-serif" font-size="12" lengthAdjust="spacingAndGlyphs" textLength="28" x="247.25" y="168.1543">Rest</text><line style="stroke: #A80036; stroke-width: 1.5;" x1="178" x2="312" y1="180" y2="180"/><text fill="#000000" font-family="sans-serif" font-size="11" lengthAdjust="spacingAndGlyphs" textLength="83" x="183" y="194.2104">rhythm: Rhytm</text><line style="stroke: #A80036; stroke-width: 1.5;" x1="178" x2="312" y1="200.8047" y2="200.8047"/><text fill="#000000" font-family="sans-serif" font-size="11" lengthAdjust="spacingAndGlyphs" textLength="124" x="183" y="215.0151">accept(visitor: Visitor)</text><rect fill="#FEFECE" filter="url(#f1)" height="73.6094" style="stroke: #A80036; stroke-width: 1.5;" width="128" x="262" y="8"/><ellipse cx="303.1" cy="24" fill="#B4A7E5" rx="11" ry="11" style="stroke: #A80036; stroke-width: 1.0;"/><path d="M304.0531,20.7813 L304.0531,27.2969 L305.7719,27.2969 C306.225,27.2969 306.3656,27.3281 306.5375,27.4531 C306.7719,27.625 306.8813,27.875 306.8813,28.1563 C306.8813,28.7188 306.5219,29 305.7719,29 L300.6313,29 C300.225,29 300.0219,28.9531 299.8656,28.8281 C299.6469,28.6719 299.5063,28.4063 299.5063,28.1563 C299.5063,27.8594 299.6625,27.5781 299.9125,27.4219 C300.0688,27.3125 300.1938,27.2969 300.6313,27.2969 L302.35,27.2969 L302.35,20.7813 L300.6313,20.7813 C300.2094,20.7813 300.0219,20.75 299.8656,20.6406 C299.6469,20.4688 299.5063,20.2188 299.5063,19.9375 C299.5063,19.6563 299.6625,19.3594 299.9125,19.2031 C300.0688,19.1094 300.1938,19.0938 300.6313,19.0938 L305.7719,19.0938 C306.225,19.0938 306.3656,19.125 306.5375,19.2344 C306.7719,19.4063 306.8813,19.6719 306.8813,19.9375 C306.8813,20.2344 306.7406,20.5156 306.475,20.6719 C306.35,20.75 306.1625,20.7813 305.7719,20.7813 Z "/><text fill="#000000" font-family="sans-serif" font-size="12" font-style="italic" lengthAdjust="spacingAndGlyphs" textLength="38" x="322.9" y="28.1543">Visitor</text><line style="stroke: #A80036; stroke-width: 1.5;" x1="263" x2="389" y1="40" y2="40"/><line style="stroke: #A80036; stroke-width: 1.5;" x1="263" x2="389" y1="48" y2="48"/><text fill="#000000" font-family="sans-serif" font-size="11" lengthAdjust="spacingAndGlyphs" textLength="116" x="268" y="62.2104">visitNote(note: Note)</text><text fill="#000000" font-family="sans-serif" font-size="11" lengthAdjust="spacingAndGlyphs" textLength="112" x="268" y="75.0151">visitRest(rest: Rest)</text><path d="M130.275,92.636 C120.454,108.58 109.533,126.311 99.9448,141.8779 " fill="none" style="stroke: #A80036; stroke-width: 1.0;"/><polygon fill="none" points="124.316,88.962,140.765,75.604,136.237,96.305,124.316,88.962" style="stroke: #A80036; stroke-width: 1.0;"/><path d="M188.068,92.645 C199.292,110.655 211.936,130.9441 222.452,147.8189 " fill="none" style="stroke: #A80036; stroke-width: 1.0;"/><polygon fill="none" points="182.086,96.281,177.449,75.604,193.968,88.876,182.086,96.281" style="stroke: #A80036; stroke-width: 1.0;"/></g></svg>