<svg version="1.1" viewBox="0.0 0.0 600.0 371.0" fill="none" stroke="none" stroke-linecap="square" stroke-miterlimit="10" width="600" height="371" xmlns:xlink="http://www.w3.org/1999/xlink" xmlns="http://www.w3.org/2000/svg"><path fill="#ffffff" fill-opacity="0.0" d="M0 0L600.0 0L600.0 371.0L0 371.0L0 0Z" fill-rule="nonzero"/><path fill="#ffffff" d="M18.55 18.55L581.45 18.55L581.45 325.0833L18.55 325.0833L18.55 18.55Z" fill-rule="nonzero"/><path stroke="#cccccc" stroke-width="1.0" stroke-linecap="butt" d="M300.0 172.0C300.0 172.0 300.0 172.0 300.0 172.0C300.0 172.0 300.0 172.0 300.0 172.0C300.0 172.0 300.0 172.0 300.0 172.0C300.0 172.0 300.0 172.0 300.0 172.0" fill-rule="nonzero"/><path fill="#000000" d="M280.0625 165.35938Q280.0625 167.26562 279.40625 168.20312Q278.76562 169.125 277.375 169.125Q276.01562 169.125 275.35938 168.21875Q274.70312 167.3125 274.67188 165.5L274.67188 164.0625Q274.67188 162.17188 275.3125 161.26562Q275.96875 160.34375 277.35938 160.34375Q278.73438 160.34375 279.39062 161.23438Q280.04688 162.10938 280.0625 163.95312L280.0625 165.35938ZM278.96875 163.875Q278.96875 162.5 278.57812 161.875Q278.20312 161.23438 277.35938 161.23438Q276.53125 161.23438 276.14062 161.875Q275.76562 162.5 275.76562 163.79688L275.76562 165.53125Q275.76562 166.90625 276.15625 167.57812Q276.5625 168.23438 277.375 168.23438Q278.17188 168.23438 278.5625 167.60938Q278.95312 166.98438 278.96875 165.65625L278.96875 163.875ZM281.84375 168.4375Q281.84375 168.15625 282.0 167.96875Q282.17188 167.78125 282.5 167.78125Q282.84375 167.78125 283.01562 167.96875Q283.1875 168.15625 283.1875 168.4375Q283.1875 168.70312 283.01562 168.89062Q282.84375 169.0625 282.5 169.0625Q282.17188 169.0625 282.0 168.89062Q281.84375 168.70312 281.84375 168.4375ZM290.0625 165.35938Q290.0625 167.26562 289.40625 168.20312Q288.76562 169.125 287.375 169.125Q286.01562 169.125 285.35938 168.21875Q284.70312 167.3125 284.67188 165.5L284.67188 164.0625Q284.67188 162.17188 285.3125 161.26562Q285.96875 160.34375 287.35938 160.34375Q288.73438 160.34375 289.39062 161.23438Q290.04688 162.10938 290.0625 163.95312L290.0625 165.35938ZM288.96875 163.875Q288.96875 162.5 288.57812 161.875Q288.20312 161.23438 287.35938 161.23438Q286.53125 161.23438 286.14062 161.875Q285.76562 162.5 285.76562 163.79688L285.76562 165.53125Q285.76562 166.90625 286.15625 167.57812Q286.5625 168.23438 287.375 168.23438Q288.17188 168.23438 288.5625 167.60938Q288.95312 166.98438 288.96875 165.65625L288.96875 163.875ZM297.0625 165.35938Q297.0625 167.26562 296.40625 168.20312Q295.76562 169.125 294.375 169.125Q293.01562 169.125 292.35938 168.21875Q291.70312 167.3125 291.67188 165.5L291.67188 164.0625Q291.67188 162.17188 292.3125 161.26562Q292.96875 160.34375 294.35938 160.34375Q295.73438 160.34375 296.39062 161.23438Q297.04688 162.10938 297.0625 163.95312L297.0625 165.35938ZM295.96875 163.875Q295.96875 162.5 295.57812 161.875Q295.20312 161.23438 294.35938 161.23438Q293.53125 161.23438 293.14062 161.875Q292.76562 162.5 292.76562 163.79688L292.76562 165.53125Q292.76562 166.90625 293.15625 167.57812Q293.5625 168.23438 294.375 168.23438Q295.17188 168.23438 295.5625 167.60938Q295.95312 166.98438 295.96875 165.65625L295.96875 163.875Z" fill-rule="nonzero"/><path stroke="#cccccc" stroke-width="1.0" stroke-linecap="butt" d="M330.31668 172.0C330.31668 155.25656 316.74344 141.68333 300.0 141.68333C283.25656 141.68333 269.68332 155.25656 269.68332 172.0C269.68332 188.74344 283.25656 202.31667 300.0 202.31667C316.74344 202.31667 330.31668 188.74344 330.31668 172.0" fill-rule="nonzero"/><path fill="#000000" d="M280.0625 135.04271Q280.0625 136.94896 279.40625 137.88646Q278.76562 138.80833 277.375 138.80833Q276.01562 138.80833 275.35938 137.90208Q274.70312 136.99583 274.67188 135.18333L274.67188 133.74583Q274.67188 131.85521 275.3125 130.94896Q275.96875 130.02708 277.35938 130.02708Q278.73438 130.02708 279.39062 130.91771Q280.04688 131.79271 280.0625 133.63646L280.0625 135.04271ZM278.96875 133.55833Q278.96875 132.18333 278.57812 131.55833Q278.20312 130.91771 277.35938 130.91771Q276.53125 130.91771 276.14062 131.55833Q275.76562 132.18333 275.76562 133.48021L275.76562 135.21458Q275.76562 136.58958 276.15625 137.26146Q276.5625 137.91771 277.375 137.91771Q278.17188 137.91771 278.5625 137.29271Q278.95312 136.66771 278.96875 135.33958L278.96875 133.55833ZM281.84375 138.12083Q281.84375 137.83958 282.0 137.65208Q282.17188 137.46458 282.5 137.46458Q282.84375 137.46458 283.01562 137.65208Q283.1875 137.83958 283.1875 138.12083Q283.1875 138.38646 283.01562 138.57396Q282.84375 138.74583 282.5 138.74583Q282.17188 138.74583 282.0 138.57396Q281.84375 138.38646 281.84375 138.12083ZM290.29688 138.68333L284.70312 138.68333L284.70312 137.90208L287.65625 134.62083Q288.3125 133.87083 288.5625 133.41771Q288.8125 132.94896 288.8125 132.44896Q288.8125 131.77708 288.40625 131.35521Q288.01562 130.91771 287.32812 130.91771Q286.53125 130.91771 286.07812 131.38646Q285.625 131.83958 285.625 132.66771L284.54688 132.66771Q284.54688 131.48021 285.29688 130.76146Q286.0625 130.02708 287.32812 130.02708Q288.53125 130.02708 289.21875 130.65208Q289.90625 131.27708 289.90625 132.32396Q289.90625 133.57396 288.29688 135.32396L286.01562 137.79271L290.29688 137.79271L290.29688 138.68333ZM292.20312 134.40208L292.64062 130.15208L297.01562 130.15208L297.01562 131.15208L293.5625 131.15208L293.29688 133.48021Q293.9375 133.10521 294.73438 133.10521Q295.89062 133.10521 296.57812 133.88646Q297.26562 134.65208 297.26562 135.96458Q297.26562 137.27708 296.54688 138.04271Q295.84375 138.80833 294.5625 138.80833Q293.4375 138.80833 292.71875 138.18333Q292.0 137.54271 291.90625 136.43333L292.92188 136.43333Q293.03125 137.16771 293.45312 137.54271Q293.875 137.91771 294.5625 137.91771Q295.3125 137.91771 295.75 137.40208Q296.1875 136.88646 296.1875 135.98021Q296.1875 135.12083 295.71875 134.60521Q295.25 134.08958 294.46875 134.08958Q293.76562 134.08958 293.35938 134.38646L293.07812 134.62083L292.20312 134.40208Z" fill-rule="nonzero"/><path stroke="#cccccc" stroke-width="1.0" stroke-linecap="butt" d="M360.63333 172.0C360.63333 138.51314 333.48688 111.36667 300.0 111.36667C266.51312 111.36667 239.36667 138.51314 239.36667 172.0C239.36667 205.48686 266.51312 232.63333 300.0 232.63333C333.48688 232.63333 360.63333 205.48686 360.63333 172.0" fill-rule="nonzero"/><path fill="#000000" d="M280.0625 104.72604Q280.0625 106.63229 279.40625 107.56979Q278.76562 108.49167 277.375 108.49167Q276.01562 108.49167 275.35938 107.58542Q274.70312 106.67917 274.67188 104.86667L274.67188 103.42917Q274.67188 101.53854 275.3125 100.63229Q275.96875 99.71042 277.35938 99.71042Q278.73438 99.71042 279.39062 100.60104Q280.04688 101.47604 280.0625 103.31979L280.0625 104.72604ZM278.96875 103.24167Q278.96875 101.86667 278.57812 101.24167Q278.20312 100.60104 277.35938 100.60104Q276.53125 100.60104 276.14062 101.24167Q275.76562 101.86667 275.76562 103.16354L275.76562 104.89792Q275.76562 106.27292 276.15625 106.94479Q276.5625 107.60104 277.375 107.60104Q278.17188 107.60104 278.5625 106.97604Q278.95312 106.35104 278.96875 105.02292L278.96875 103.24167ZM281.84375 107.80417Q281.84375 107.52292 282.0 107.33542Q282.17188 107.14792 282.5 107.14792Q282.84375 107.14792 283.01562 107.33542Q283.1875 107.52292 283.1875 107.80417Q283.1875 108.06979 283.01562 108.25729Q282.84375 108.42917 282.5 108.42917Q282.17188 108.42917 282.0 108.25729Q281.84375 108.06979 281.84375 107.80417ZM285.20312 104.08542L285.64062 99.83542L290.01562 99.83542L290.01562 100.83542L286.5625 100.83542L286.29688 103.16354Q286.9375 102.78854 287.73438 102.78854Q288.89062 102.78854 289.57812 103.56979Q290.26562 104.33542 290.26562 105.64792Q290.26562 106.96042 289.54688 107.72604Q288.84375 108.49167 287.5625 108.49167Q286.4375 108.49167 285.71875 107.86667Q285.0 107.22604 284.90625 106.11667L285.92188 106.11667Q286.03125 106.85104 286.45312 107.22604Q286.875 107.60104 287.5625 107.60104Q288.3125 107.60104 288.75 107.08542Q289.1875 106.56979 289.1875 105.66354Q289.1875 104.80417 288.71875 104.28854Q288.25 103.77292 287.46875 103.77292Q286.76562 103.77292 286.35938 104.06979L286.07812 104.30417L285.20312 104.08542ZM297.0625 104.72604Q297.0625 106.63229 296.40625 107.56979Q295.76562 108.49167 294.375 108.49167Q293.01562 108.49167 292.35938 107.58542Q291.70312 106.67917 291.67188 104.86667L291.67188 103.42917Q291.67188 101.53854 292.3125 100.63229Q292.96875 99.71042 294.35938 99.71042Q295.73438 99.71042 296.39062 100.60104Q297.04688 101.47604 297.0625 103.31979L297.0625 104.72604ZM295.96875 103.24167Q295.96875 101.86667 295.57812 101.24167Q295.20312 100.60104 294.35938 100.60104Q293.53125 100.60104 293.14062 101.24167Q292.76562 101.86667 292.76562 103.16354L292.76562 104.89792Q292.76562 106.27292 293.15625 106.94479Q293.5625 107.60104 294.375 107.60104Q295.17188 107.60104 295.5625 106.97604Q295.95312 106.35104 295.96875 105.02292L295.96875 103.24167Z" fill-rule="nonzero"/><path stroke="#cccccc" stroke-width="1.0" stroke-linecap="butt" d="M390.95 172.0C390.95 121.7697 350.2303 81.05 300.0 81.05C249.7697 81.05 209.05 121.7697 209.05 172.0C209.05 222.2303 249.7697 262.95 300.0 262.95C350.2303 262.95 390.95 222.2303 390.95 172.0" fill-rule="nonzero"/><path fill="#000000" d="M280.0625 74.40938Q280.0625 76.31563 279.40625 77.25313Q278.76562 78.175 277.375 78.175Q276.01562 78.175 275.35938 77.26875Q274.70312 76.3625 274.67188 74.55L274.67188 73.1125Q274.67188 71.22188 275.3125 70.31563Q275.96875 69.39375 277.35938 69.39375Q278.73438 69.39375 279.39062 70.28438Q280.04688 71.15938 280.0625 73.00313L280.0625 74.40938ZM278.96875 72.925Q278.96875 71.55 278.57812 70.925Q278.20312 70.28438 277.35938 70.28438Q276.53125 70.28438 276.14062 70.925Q275.76562 71.55 275.76562 72.84688L275.76562 74.58125Q275.76562 75.95625 276.15625 76.62813Q276.5625 77.28438 277.375 77.28438Q278.17188 77.28438 278.5625 76.65938Q278.95312 76.03438 278.96875 74.70625L278.96875 72.925ZM281.84375 77.4875Q281.84375 77.20625 282.0 77.01875Q282.17188 76.83125 282.5 76.83125Q282.84375 76.83125 283.01562 77.01875Q283.1875 77.20625 283.1875 77.4875Q283.1875 77.75313 283.01562 77.94063Q282.84375 78.1125 282.5 78.1125Q282.17188 78.1125 282.0 77.94063Q281.84375 77.75313 281.84375 77.4875ZM290.21875 70.12813L286.6875 78.05L285.54688 78.05L289.0625 70.40938L284.45312 70.40938L284.45312 69.51875L290.21875 69.51875L290.21875 70.12813ZM292.20312 73.76875L292.64062 69.51875L297.01562 69.51875L297.01562 70.51875L293.5625 70.51875L293.29688 72.84688Q293.9375 72.47188 294.73438 72.47188Q295.89062 72.47188 296.57812 73.25313Q297.26562 74.01875 297.26562 75.33125Q297.26562 76.64375 296.54688 77.40938Q295.84375 78.175 294.5625 78.175Q293.4375 78.175 292.71875 77.55Q292.0 76.90938 291.90625 75.8L292.92188 75.8Q293.03125 76.53438 293.45312 76.90938Q293.875 77.28438 294.5625 77.28438Q295.3125 77.28438 295.75 76.76875Q296.1875 76.25313 296.1875 75.34688Q296.1875 74.4875 295.71875 73.97188Q295.25 73.45625 294.46875 73.45625Q293.76562 73.45625 293.35938 73.75313L293.07812 73.9875L292.20312 73.76875Z" fill-rule="nonzero"/><path stroke="#cccccc" stroke-width="1.0" stroke-linecap="butt" d="M421.26666 172.0C421.26666 105.02627 366.97372 50.733334 300.0 50.733334C233.02628 50.733334 178.73334 105.02627 178.73334 172.0C178.73334 238.97372 233.02628 293.26666 300.0 293.26666C366.97372 293.26666 421.26666 238.97372 421.26666 172.0" fill-rule="nonzero"/><path fill="#000000" d="M278.26562 47.733334L277.1875 47.733334L277.1875 40.514584L275.0 41.31146L275.0 40.327084L278.10938 39.15521L278.26562 39.15521L278.26562 47.733334ZM281.84375 47.170834Q281.84375 46.889584 282.0 46.702084Q282.17188 46.514584 282.5 46.514584Q282.84375 46.514584 283.01562 46.702084Q283.1875 46.889584 283.1875 47.170834Q283.1875 47.43646 283.01562 47.62396Q282.84375 47.795834 282.5 47.795834Q282.17188 47.795834 282.0 47.62396Q281.84375 47.43646 281.84375 47.170834ZM290.0625 44.09271Q290.0625 45.99896 289.40625 46.93646Q288.76562 47.858334 287.375 47.858334Q286.01562 47.858334 285.35938 46.952084Q284.70312 46.045834 284.67188 44.233334L284.67188 42.795834Q284.67188 40.90521 285.3125 39.99896Q285.96875 39.077084 287.35938 39.077084Q288.73438 39.077084 289.39062 39.96771Q290.04688 40.84271 290.0625 42.68646L290.0625 44.09271ZM288.96875 42.608334Q288.96875 41.233334 288.57812 40.608334Q288.20312 39.96771 287.35938 39.96771Q286.53125 39.96771 286.14062 40.608334Q285.76562 41.233334 285.76562 42.53021L285.76562 44.264584Q285.76562 45.639584 286.15625 46.31146Q286.5625 46.96771 287.375 46.96771Q288.17188 46.96771 288.5625 46.34271Q288.95312 45.71771 288.96875 44.389584L288.96875 42.608334ZM297.0625 44.09271Q297.0625 45.99896 296.40625 46.93646Q295.76562 47.858334 294.375 47.858334Q293.01562 47.858334 292.35938 46.952084Q291.70312 46.045834 291.67188 44.233334L291.67188 42.795834Q291.67188 40.90521 292.3125 39.99896Q292.96875 39.077084 294.35938 39.077084Q295.73438 39.077084 296.39062 39.96771Q297.04688 40.84271 297.0625 42.68646L297.0625 44.09271ZM295.96875 42.608334Q295.96875 41.233334 295.57812 40.608334Q295.20312 39.96771 294.35938 39.96771Q293.53125 39.96771 293.14062 40.608334Q292.76562 41.233334 292.76562 42.53021L292.76562 44.264584Q292.76562 45.639584 293.15625 46.31146Q293.5625 46.96771 294.375 46.96771Q295.17188 46.96771 295.5625 46.34271Q295.95312 45.71771 295.96875 44.389584L295.96875 42.608334Z" fill-rule="nonzero"/><path stroke="#cccccc" stroke-width="1.0" stroke-linecap="butt" d="M300.0 172.0L300.0 51.0" fill-rule="nonzero"/><path fill="#000000" d="M277.0 19.703125Q275.5625 19.28125 274.89062 18.671875Q274.23438 18.0625 274.23438 17.171875Q274.23438 16.171875 275.03125 15.515625Q275.84375 14.84375 277.14062 14.84375Q278.01562 14.84375 278.70312 15.1875Q279.39062 15.53125 279.76562 16.125Q280.15625 16.71875 280.15625 17.4375L279.01562 17.4375Q279.01562 16.65625 278.51562 16.21875Q278.03125 15.78125 277.14062 15.78125Q276.3125 15.78125 275.84375 16.15625Q275.375 16.515625 275.375 17.15625Q275.375 17.6875 275.8125 18.046875Q276.26562 18.40625 277.32812 18.703125Q278.39062 19.0 278.98438 19.359375Q279.59375 19.71875 279.875 20.203125Q280.17188 20.6875 280.17188 21.328125Q280.17188 22.375 279.35938 23.0Q278.54688 23.625 277.20312 23.625Q276.3125 23.625 275.54688 23.28125Q274.79688 22.9375 274.375 22.359375Q273.96875 21.765625 273.96875 21.03125L275.09375 21.03125Q275.09375 21.796875 275.67188 22.25Q276.25 22.703125 277.20312 22.703125Q278.09375 22.703125 278.5625 22.34375Q279.03125 21.96875 279.03125 21.34375Q279.03125 20.71875 278.59375 20.375Q278.15625 20.03125 277.0 19.703125ZM282.5 23.5L281.42188 23.5L281.42188 17.15625L282.5 17.15625L282.5 23.5ZM281.32812 15.484375Q281.32812 15.21875 281.48438 15.03125Q281.65625 14.84375 281.96875 14.84375Q282.28125 14.84375 282.4375 15.03125Q282.60938 15.21875 282.60938 15.484375Q282.60938 15.734375 282.4375 15.921875Q282.28125 16.09375 281.96875 16.09375Q281.65625 16.09375 281.48438 15.921875Q281.32812 15.734375 281.32812 15.484375ZM285.34375 17.15625L285.375 17.859375Q286.0625 17.046875 287.25 17.046875Q288.57812 17.046875 289.0625 18.0625Q289.375 17.609375 289.875 17.328125Q290.39062 17.046875 291.07812 17.046875Q293.17188 17.046875 293.20312 19.25L293.20312 23.5L292.125 23.5L292.125 19.3125Q292.125 18.640625 291.8125 18.3125Q291.5 17.96875 290.76562 17.96875Q290.15625 17.96875 289.75 18.328125Q289.35938 18.6875 289.29688 19.296875L289.29688 23.5L288.21875 23.5L288.21875 19.34375Q288.21875 17.96875 286.85938 17.96875Q285.79688 17.96875 285.40625 18.875L285.40625 23.5L284.3125 23.5L284.3125 17.15625L285.34375 17.15625ZM300.67188 20.40625Q300.67188 21.84375 300.01562 22.734375Q299.35938 23.625 298.21875 23.625Q297.0625 23.625 296.40625 22.890625L296.40625 25.9375L295.32812 25.9375L295.32812 17.15625L296.3125 17.15625L296.35938 17.859375Q297.03125 17.046875 298.20312 17.046875Q299.34375 17.046875 300.0 17.90625Q300.67188 18.765625 300.67188 20.296875L300.67188 20.40625ZM299.59375 20.28125Q299.59375 19.203125 299.125 18.59375Q298.67188 17.96875 297.875 17.96875Q296.89062 17.96875 296.40625 18.828125L296.40625 21.859375Q296.89062 22.734375 297.89062 22.734375Q298.67188 22.734375 299.125 22.125Q299.59375 21.5 299.59375 20.28125ZM303.5 23.5L302.42188 23.5L302.42188 14.5L303.5 14.5L303.5 23.5ZM306.5 23.5L305.42188 23.5L305.42188 17.15625L306.5 17.15625L306.5 23.5ZM305.32812 15.484375Q305.32812 15.21875 305.48438 15.03125Q305.65625 14.84375 305.96875 14.84375Q306.28125 14.84375 306.4375 15.03125Q306.60938 15.21875 306.60938 15.484375Q306.60938 15.734375 306.4375 15.921875Q306.28125 16.09375 305.96875 16.09375Q305.65625 16.09375 305.48438 15.921875Q305.32812 15.734375 305.32812 15.484375ZM310.85938 22.734375Q311.4375 22.734375 311.875 22.390625Q312.3125 22.03125 312.35938 21.5L313.39062 21.5Q313.35938 22.046875 313.0 22.546875Q312.65625 23.03125 312.07812 23.328125Q311.51562 23.625 310.85938 23.625Q309.5625 23.625 308.79688 22.765625Q308.04688 21.890625 308.04688 20.390625L308.04688 20.203125Q308.04688 19.28125 308.375 18.5625Q308.71875 17.84375 309.34375 17.453125Q309.98438 17.046875 310.85938 17.046875Q311.92188 17.046875 312.625 17.6875Q313.34375 18.3125 313.39062 19.34375L312.35938 19.34375Q312.3125 18.71875 311.89062 18.328125Q311.46875 17.9375 310.85938 17.9375Q310.03125 17.9375 309.57812 18.53125Q309.125 19.125 309.125 20.25L309.125 20.453125Q309.125 21.546875 309.57812 22.140625Q310.03125 22.734375 310.85938 22.734375ZM315.5 23.5L314.42188 23.5L314.42188 17.15625L315.5 17.15625L315.5 23.5ZM314.32812 15.484375Q314.32812 15.21875 314.48438 15.03125Q314.65625 14.84375 314.96875 14.84375Q315.28125 14.84375 315.4375 15.03125Q315.60938 15.21875 315.60938 15.484375Q315.60938 15.734375 315.4375 15.921875Q315.28125 16.09375 314.96875 16.09375Q314.65625 16.09375 314.48438 15.921875Q314.32812 15.734375 314.32812 15.484375ZM318.79688 15.625L318.79688 17.15625L319.96875 17.15625L319.96875 18.0L318.79688 18.0L318.79688 21.921875Q318.79688 22.3125 318.95312 22.5Q319.10938 22.6875 319.48438 22.6875Q319.67188 22.6875 320.0 22.625L320.0 23.5Q319.57812 23.625 319.17188 23.625Q318.45312 23.625 318.07812 23.1875Q317.70312 22.734375 317.70312 21.921875L317.70312 18.0L316.54688 18.0L316.54688 17.15625L317.70312 17.15625L317.70312 15.625L318.79688 15.625ZM323.39062 21.90625L324.875 17.15625L326.03125 17.15625L323.48438 24.484375Q322.89062 26.0625 321.60938 26.0625L321.39062 26.046875L321.0 25.96875L321.0 25.09375L321.28125 25.109375Q321.84375 25.109375 322.14062 24.890625Q322.45312 24.671875 322.65625 24.078125L322.89062 23.421875L320.625 17.15625L321.8125 17.15625L323.39062 21.90625Z" fill-rule="nonzero"/><path stroke="#cccccc" stroke-width="1.0" stroke-linecap="butt" d="M300.0 172.0L421.0 172.0" fill-rule="nonzero"/><path fill="#000000" d="M428.39062 168.89062L425.64062 168.89062L425.64062 176.5L424.53125 176.5L424.53125 168.89062L421.78125 168.89062L421.78125 167.96875L428.39062 167.96875L428.39062 168.89062ZM431.39062 174.90625L432.875 170.15625L434.03125 170.15625L431.48438 177.48438Q430.89062 179.0625 429.60938 179.0625L429.39062 179.04688L429.0 178.96875L429.0 178.09375L429.28125 178.10938Q429.84375 178.10938 430.14062 177.89062Q430.45312 177.67188 430.65625 177.07812L430.89062 176.42188L428.625 170.15625L429.8125 170.15625L431.39062 174.90625ZM440.67188 173.40625Q440.67188 174.84375 440.01562 175.73438Q439.35938 176.625 438.21875 176.625Q437.0625 176.625 436.40625 175.89062L436.40625 178.9375L435.32812 178.9375L435.32812 170.15625L436.3125 170.15625L436.35938 170.85938Q437.03125 170.04688 438.20312 170.04688Q439.34375 170.04688 440.0 170.90625Q440.67188 171.76562 440.67188 173.29688L440.67188 173.40625ZM439.59375 173.28125Q439.59375 172.20312 439.125 171.59375Q438.67188 170.96875 437.875 170.96875Q436.89062 170.96875 436.40625 171.82812L436.40625 174.85938Q436.89062 175.73438 437.89062 175.73438Q438.67188 175.73438 439.125 175.125Q439.59375 174.5 439.59375 173.28125ZM444.95312 176.625Q443.65625 176.625 442.84375 175.78125Q442.04688 174.92188 442.04688 173.5L442.04688 173.3125Q442.04688 172.35938 442.40625 171.625Q442.76562 170.875 443.40625 170.46875Q444.0625 170.04688 444.8125 170.04688Q446.04688 170.04688 446.73438 170.85938Q447.42188 171.67188 447.42188 173.1875L447.42188 173.64062L443.125 173.64062Q443.15625 174.57812 443.67188 175.15625Q444.20312 175.73438 445.01562 175.73438Q445.57812 175.73438 445.96875 175.5Q446.375 175.26562 446.6875 174.875L447.34375 175.39062Q446.54688 176.625 444.95312 176.625ZM444.8125 170.9375Q444.15625 170.9375 443.70312 171.42188Q443.26562 171.89062 443.17188 172.75L446.34375 172.75L446.34375 172.67188Q446.29688 171.84375 445.89062 171.39062Q445.5 170.9375 444.8125 170.9375ZM454.0 172.70312Q452.5625 172.28125 451.89062 171.67188Q451.23438 171.0625 451.23438 170.17188Q451.23438 169.17188 452.03125 168.51562Q452.84375 167.84375 454.14062 167.84375Q455.01562 167.84375 455.70312 168.1875Q456.39062 168.53125 456.76562 169.125Q457.15625 169.71875 457.15625 170.4375L456.01562 170.4375Q456.01562 169.65625 455.51562 169.21875Q455.03125 168.78125 454.14062 168.78125Q453.3125 168.78125 452.84375 169.15625Q452.375 169.51562 452.375 170.15625Q452.375 170.6875 452.8125 171.04688Q453.26562 171.40625 454.32812 171.70312Q455.39062 172.0 455.98438 172.35938Q456.59375 172.71875 456.875 173.20312Q457.17188 173.6875 457.17188 174.32812Q457.17188 175.375 456.35938 176.0Q455.54688 176.625 454.20312 176.625Q453.3125 176.625 452.54688 176.28125Q451.79688 175.9375 451.375 175.35938Q450.96875 174.76562 450.96875 174.03125L452.09375 174.03125Q452.09375 174.79688 452.67188 175.25Q453.25 175.70312 454.20312 175.70312Q455.09375 175.70312 455.5625 175.34375Q456.03125 174.96875 456.03125 174.34375Q456.03125 173.71875 455.59375 173.375Q455.15625 173.03125 454.0 172.70312ZM462.23438 176.5Q462.14062 176.3125 462.07812 175.82812Q461.32812 176.625 460.28125 176.625Q459.34375 176.625 458.73438 176.09375Q458.14062 175.5625 458.14062 174.73438Q458.14062 173.75 458.89062 173.20312Q459.64062 172.65625 461.01562 172.65625L462.0625 172.65625L462.0625 172.15625Q462.0625 171.59375 461.71875 171.26562Q461.39062 170.92188 460.71875 170.92188Q460.14062 170.92188 459.75 171.21875Q459.35938 171.5 459.35938 171.92188L458.26562 171.92188Q458.26562 171.4375 458.59375 171.0Q458.9375 170.5625 459.51562 170.3125Q460.09375 170.04688 460.78125 170.04688Q461.89062 170.04688 462.5 170.59375Q463.125 171.14062 463.15625 172.09375L463.15625 175.01562Q463.15625 175.89062 463.375 176.40625L463.375 176.5L462.23438 176.5ZM460.4375 175.67188Q460.95312 175.67188 461.40625 175.40625Q461.85938 175.14062 462.0625 174.71875L462.0625 173.42188L461.21875 173.42188Q459.21875 173.42188 459.21875 174.59375Q459.21875 175.09375 459.5625 175.39062Q459.90625 175.67188 460.4375 175.67188ZM465.85938 176.5L465.85938 171.0L464.85938 171.0L464.85938 170.15625L465.85938 170.15625L465.85938 169.51562Q465.85938 168.48438 466.39062 167.9375Q466.9375 167.375 467.9375 167.375Q468.3125 167.375 468.6875 167.46875L468.625 168.35938Q468.34375 168.29688 468.04688 168.29688Q467.51562 168.29688 467.21875 168.60938Q466.9375 168.92188 466.9375 169.48438L466.9375 170.15625L468.29688 170.15625L468.29688 171.0L466.9375 171.0L466.9375 176.5L465.85938 176.5ZM471.95312 176.625Q470.65625 176.625 469.84375 175.78125Q469.04688 174.92188 469.04688 173.5L469.04688 173.3125Q469.04688 172.35938 469.40625 171.625Q469.76562 170.875 470.40625 170.46875Q471.0625 170.04688 471.8125 170.04688Q473.04688 170.04688 473.73438 170.85938Q474.42188 171.67188 474.42188 173.1875L474.42188 173.64062L470.125 173.64062Q470.15625 174.57812 470.67188 175.15625Q471.20312 175.73438 472.01562 175.73438Q472.57812 175.73438 472.96875 175.5Q473.375 175.26562 473.6875 174.875L474.34375 175.39062Q473.54688 176.625 471.95312 176.625ZM471.8125 170.9375Q471.15625 170.9375 470.70312 171.42188Q470.26562 171.89062 470.17188 172.75L473.34375 172.75L473.34375 172.67188Q473.29688 171.84375 472.89062 171.39062Q472.5 170.9375 471.8125 170.9375ZM476.79688 168.625L476.79688 170.15625L477.96875 170.15625L477.96875 171.0L476.79688 171.0L476.79688 174.92188Q476.79688 175.3125 476.95312 175.5Q477.10938 175.6875 477.48438 175.6875Q477.67188 175.6875 478.0 175.625L478.0 176.5Q477.57812 176.625 477.17188 176.625Q476.45312 176.625 476.07812 176.1875Q475.70312 175.73438 475.70312 174.92188L475.70312 171.0L474.54688 171.0L474.54688 170.15625L475.70312 170.15625L475.70312 168.625L476.79688 168.625ZM481.39062 174.90625L482.875 170.15625L484.03125 170.15625L481.48438 177.48438Q480.89062 179.0625 479.60938 179.0625L479.39062 179.04688L479.0 178.96875L479.0 178.09375L479.28125 178.10938Q479.84375 178.10938 480.14062 177.89062Q480.45312 177.67188 480.65625 177.07812L480.89062 176.42188L478.625 170.15625L479.8125 170.15625L481.39062 174.90625Z" fill-rule="nonzero"/><path stroke="#cccccc" stroke-width="1.0" stroke-linecap="butt" d="M300.0 172.0L300.0 293.0" fill-rule="nonzero"/><path fill="#000000" d="M270.04688 329.5L268.92188 329.5L268.92188 325.5625L264.60938 325.5625L264.60938 329.5L263.48438 329.5L263.48438 320.96875L264.60938 320.96875L264.60938 324.64062L268.92188 324.64062L268.92188 320.96875L270.04688 320.96875L270.04688 329.5ZM274.95312 329.625Q273.65625 329.625 272.84375 328.78125Q272.04688 327.92188 272.04688 326.5L272.04688 326.3125Q272.04688 325.35938 272.40625 324.625Q272.76562 323.875 273.40625 323.46875Q274.0625 323.04688 274.8125 323.04688Q276.04688 323.04688 276.73438 323.85938Q277.42188 324.67188 277.42188 326.1875L277.42188 326.64062L273.125 326.64062Q273.15625 327.57812 273.67188 328.15625Q274.20312 328.73438 275.01562 328.73438Q275.57812 328.73438 275.96875 328.5Q276.375 328.26562 276.6875 327.875L277.34375 328.39062Q276.54688 329.625 274.95312 329.625ZM274.8125 323.9375Q274.15625 323.9375 273.70312 324.42188Q273.26562 324.89062 273.17188 325.75L276.34375 325.75L276.34375 325.67188Q276.29688 324.84375 275.89062 324.39062Q275.5 323.9375 274.8125 323.9375ZM279.79688 321.625L279.79688 323.15625L280.96875 323.15625L280.96875 324.0L279.79688 324.0L279.79688 327.92188Q279.79688 328.3125 279.95312 328.5Q280.10938 328.6875 280.48438 328.6875Q280.67188 328.6875 281.0 328.625L281.0 329.5Q280.57812 329.625 280.17188 329.625Q279.45312 329.625 279.07812 329.1875Q278.70312 328.73438 278.70312 327.92188L278.70312 324.0L277.54688 324.0L277.54688 323.15625L278.70312 323.15625L278.70312 321.625L279.79688 321.625ZM284.95312 329.625Q283.65625 329.625 282.84375 328.78125Q282.04688 327.92188 282.04688 326.5L282.04688 326.3125Q282.04688 325.35938 282.40625 324.625Q282.76562 323.875 283.40625 323.46875Q284.0625 323.04688 284.8125 323.04688Q286.04688 323.04688 286.73438 323.85938Q287.42188 324.67188 287.42188 326.1875L287.42188 326.64062L283.125 326.64062Q283.15625 327.57812 283.67188 328.15625Q284.20312 328.73438 285.01562 328.73438Q285.57812 328.73438 285.96875 328.5Q286.375 328.26562 286.6875 327.875L287.34375 328.39062Q286.54688 329.625 284.95312 329.625ZM284.8125 323.9375Q284.15625 323.9375 283.70312 324.42188Q283.26562 324.89062 283.17188 325.75L286.34375 325.75L286.34375 325.67188Q286.29688 324.84375 285.89062 324.39062Q285.5 323.9375 284.8125 323.9375ZM291.39062 324.125Q291.14062 324.09375 290.85938 324.09375Q289.78125 324.09375 289.40625 325.0L289.40625 329.5L288.32812 329.5L288.32812 323.15625L289.375 323.15625L289.39062 323.89062Q289.92188 323.04688 290.90625 323.04688Q291.21875 323.04688 291.39062 323.125L291.39062 324.125ZM292.03125 326.26562Q292.03125 325.34375 292.39062 324.59375Q292.76562 323.84375 293.42188 323.45312Q294.07812 323.04688 294.90625 323.04688Q296.20312 323.04688 297.0 323.9375Q297.8125 324.82812 297.8125 326.32812L297.8125 326.40625Q297.8125 327.32812 297.45312 328.0625Q297.09375 328.79688 296.4375 329.21875Q295.78125 329.625 294.92188 329.625Q293.64062 329.625 292.82812 328.73438Q292.03125 327.82812 292.03125 326.34375L292.03125 326.26562ZM293.125 326.40625Q293.125 327.45312 293.60938 328.09375Q294.10938 328.73438 294.92188 328.73438Q295.75 328.73438 296.23438 328.09375Q296.71875 327.4375 296.71875 326.26562Q296.71875 325.23438 296.21875 324.59375Q295.73438 323.9375 294.90625 323.9375Q294.10938 323.9375 293.60938 324.57812Q293.125 325.20312 293.125 326.40625ZM299.0625 326.28125Q299.0625 324.79688 299.75 323.92188Q300.4375 323.04688 301.5625 323.04688Q302.71875 323.04688 303.375 323.85938L303.42188 323.15625L304.42188 323.15625L304.42188 329.34375Q304.42188 330.57812 303.6875 331.28125Q302.95312 332.0 301.73438 332.0Q301.04688 332.0 300.39062 331.70312Q299.73438 331.40625 299.39062 330.90625L299.95312 330.25Q300.64062 331.10938 301.65625 331.10938Q302.4375 331.10938 302.875 330.65625Q303.32812 330.21875 303.32812 329.40625L303.32812 328.85938Q302.67188 329.625 301.54688 329.625Q300.4375 329.625 299.75 328.73438Q299.0625 327.82812 299.0625 326.28125ZM300.15625 326.40625Q300.15625 327.46875 300.59375 328.09375Q301.03125 328.70312 301.82812 328.70312Q302.84375 328.70312 303.32812 327.76562L303.32812 324.875Q302.82812 323.96875 301.82812 323.96875Q301.04688 323.96875 300.59375 324.57812Q300.15625 325.1875 300.15625 326.40625ZM308.95312 329.625Q307.65625 329.625 306.84375 328.78125Q306.04688 327.92188 306.04688 326.5L306.04688 326.3125Q306.04688 325.35938 306.40625 324.625Q306.76562 323.875 307.40625 323.46875Q308.0625 323.04688 308.8125 323.04688Q310.04688 323.04688 310.73438 323.85938Q311.42188 324.67188 311.42188 326.1875L311.42188 326.64062L307.125 326.64062Q307.15625 327.57812 307.67188 328.15625Q308.20312 328.73438 309.01562 328.73438Q309.57812 328.73438 309.96875 328.5Q310.375 328.26562 310.6875 327.875L311.34375 328.39062Q310.54688 329.625 308.95312 329.625ZM308.8125 323.9375Q308.15625 323.9375 307.70312 324.42188Q307.26562 324.89062 307.17188 325.75L310.34375 325.75L310.34375 325.67188Q310.29688 324.84375 309.89062 324.39062Q309.5 323.9375 308.8125 323.9375ZM313.34375 323.15625L313.375 323.95312Q314.10938 323.04688 315.28125 323.04688Q317.29688 323.04688 317.3125 325.3125L317.3125 329.5L316.21875 329.5L316.21875 325.29688Q316.21875 324.625 315.90625 324.29688Q315.60938 323.96875 314.95312 323.96875Q314.42188 323.96875 314.01562 324.25Q313.625 324.53125 313.40625 324.98438L313.40625 329.5L312.32812 329.5L312.32812 323.15625L313.34375 323.15625ZM321.95312 329.625Q320.65625 329.625 319.84375 328.78125Q319.04688 327.92188 319.04688 326.5L319.04688 326.3125Q319.04688 325.35938 319.40625 324.625Q319.76562 323.875 320.40625 323.46875Q321.0625 323.04688 321.8125 323.04688Q323.04688 323.04688 323.73438 323.85938Q324.42188 324.67188 324.42188 326.1875L324.42188 326.64062L320.125 326.64062Q320.15625 327.57812 320.67188 328.15625Q321.20312 328.73438 322.01562 328.73438Q322.57812 328.73438 322.96875 328.5Q323.375 328.26562 323.6875 327.875L324.34375 328.39062Q323.54688 329.625 321.95312 329.625ZM321.8125 323.9375Q321.15625 323.9375 320.70312 324.42188Q320.26562 324.89062 320.17188 325.75L323.34375 325.75L323.34375 325.67188Q323.29688 324.84375 322.89062 324.39062Q322.5 323.9375 321.8125 323.9375ZM326.5 329.5L325.42188 329.5L325.42188 323.15625L326.5 323.15625L326.5 329.5ZM325.32812 321.48438Q325.32812 321.21875 325.48438 321.03125Q325.65625 320.84375 325.96875 320.84375Q326.28125 320.84375 326.4375 321.03125Q326.60938 321.21875 326.60938 321.48438Q326.60938 321.73438 326.4375 321.92188Q326.28125 322.09375 325.96875 322.09375Q325.65625 322.09375 325.48438 321.92188Q325.32812 321.73438 325.32812 321.48438ZM329.79688 321.625L329.79688 323.15625L330.96875 323.15625L330.96875 324.0L329.79688 324.0L329.79688 327.92188Q329.79688 328.3125 329.95312 328.5Q330.10938 328.6875 330.48438 328.6875Q330.67188 328.6875 331.0 328.625L331.0 329.5Q330.57812 329.625 330.17188 329.625Q329.45312 329.625 329.07812 329.1875Q328.70312 328.73438 328.70312 327.92188L328.70312 324.0L327.54688 324.0L327.54688 323.15625L328.70312 323.15625L328.70312 321.625L329.79688 321.625ZM334.39062 327.90625L335.875 323.15625L337.03125 323.15625L334.48438 330.48438Q333.89062 332.0625 332.60938 332.0625L332.39062 332.04688L332.0 331.96875L332.0 331.09375L332.28125 331.10938Q332.84375 331.10938 333.14062 330.89062Q333.45312 330.67188 333.65625 330.07812L333.89062 329.42188L331.625 323.15625L332.8125 323.15625L334.39062 327.90625Z" fill-rule="nonzero"/><path stroke="#cccccc" stroke-width="1.0" stroke-linecap="butt" d="M300.0 172.0L179.0 172.0" fill-rule="nonzero"/><path fill="#000000" d="M130.625 175.57812L134.67188 175.57812L134.67188 176.5L129.48438 176.5L129.48438 167.96875L130.625 167.96875L130.625 175.57812ZM136.5 176.5L135.42188 176.5L135.42188 170.15625L136.5 170.15625L136.5 176.5ZM135.32812 168.48438Q135.32812 168.21875 135.48438 168.03125Q135.65625 167.84375 135.96875 167.84375Q136.28125 167.84375 136.4375 168.03125Q136.60938 168.21875 136.60938 168.48438Q136.60938 168.73438 136.4375 168.92188Q136.28125 169.09375 135.96875 169.09375Q135.65625 169.09375 135.48438 168.92188Q135.32812 168.73438 135.32812 168.48438ZM143.6875 173.40625Q143.6875 174.85938 143.01562 175.75Q142.35938 176.625 141.23438 176.625Q140.03125 176.625 139.375 175.76562L139.3125 176.5L138.32812 176.5L138.32812 167.5L139.40625 167.5L139.40625 170.85938Q140.0625 170.04688 141.21875 170.04688Q142.375 170.04688 143.03125 170.92188Q143.6875 171.78125 143.6875 173.3125L143.6875 173.40625ZM142.60938 173.28125Q142.60938 172.17188 142.17188 171.57812Q141.75 170.96875 140.95312 170.96875Q139.875 170.96875 139.40625 171.95312L139.40625 174.70312Q139.90625 175.70312 140.95312 175.70312Q141.73438 175.70312 142.17188 175.09375Q142.60938 174.48438 142.60938 173.28125ZM148.39062 171.125Q148.14062 171.09375 147.85938 171.09375Q146.78125 171.09375 146.40625 172.0L146.40625 176.5L145.32812 176.5L145.32812 170.15625L146.375 170.15625L146.39062 170.89062Q146.92188 170.04688 147.90625 170.04688Q148.21875 170.04688 148.39062 170.125L148.39062 171.125ZM153.23438 176.5Q153.14062 176.3125 153.07812 175.82812Q152.32812 176.625 151.28125 176.625Q150.34375 176.625 149.73438 176.09375Q149.14062 175.5625 149.14062 174.73438Q149.14062 173.75 149.89062 173.20312Q150.64062 172.65625 152.01562 172.65625L153.0625 172.65625L153.0625 172.15625Q153.0625 171.59375 152.71875 171.26562Q152.39062 170.92188 151.71875 170.92188Q151.14062 170.92188 150.75 171.21875Q150.35938 171.5 150.35938 171.92188L149.26562 171.92188Q149.26562 171.4375 149.59375 171.0Q149.9375 170.5625 150.51562 170.3125Q151.09375 170.04688 151.78125 170.04688Q152.89062 170.04688 153.5 170.59375Q154.125 171.14062 154.15625 172.09375L154.15625 175.01562Q154.15625 175.89062 154.375 176.40625L154.375 176.5L153.23438 176.5ZM151.4375 175.67188Q151.95312 175.67188 152.40625 175.40625Q152.85938 175.14062 153.0625 174.71875L153.0625 173.42188L152.21875 173.42188Q150.21875 173.42188 150.21875 174.59375Q150.21875 175.09375 150.5625 175.39062Q150.90625 175.67188 151.4375 175.67188ZM159.39062 171.125Q159.14062 171.09375 158.85938 171.09375Q157.78125 171.09375 157.40625 172.0L157.40625 176.5L156.32812 176.5L156.32812 170.15625L157.375 170.15625L157.39062 170.89062Q157.92188 170.04688 158.90625 170.04688Q159.21875 170.04688 159.39062 170.125L159.39062 171.125ZM162.39062 174.90625L163.875 170.15625L165.03125 170.15625L162.48438 177.48438Q161.89062 179.0625 160.60938 179.0625L160.39062 179.04688L160.0 178.96875L160.0 178.09375L160.28125 178.10938Q160.84375 178.10938 161.14062 177.89062Q161.45312 177.67188 161.65625 177.07812L161.89062 176.42188L159.625 170.15625L160.8125 170.15625L162.39062 174.90625Z" fill-rule="nonzero"/><path stroke="#cccccc" stroke-width="1.0" stroke-linecap="butt" d="M300.0 172.0L300.0 51.0" fill-rule="nonzero"/><path stroke="#4285f4" stroke-width="2.0" stroke-linecap="butt" stroke-dasharray="8.0,6.0" d="M300.0 51.0C357.0 74.0 391.0 119.0 397.0 172.0C356.0 204.0 316.0 200.0 300.0 172.0C280.0 207.0 230.0 212.0 179.0 172.0C195.0 111.0 239.0 67.0 300.0 51.0Z" fill-rule="nonzero"/><path stroke="#db4437" stroke-width="2.0" stroke-linecap="butt" stroke-dasharray="8.0,6.0,2.0,6.0" d="M300.0 99.0C344.0 95.0 391.0 119.0 421.0 172.0C370.0 212.0 320.0 207.0 300.0 172.0C280.0 207.0 230.0 212.0 179.0 172.0C209.0 119.0 256.0 95.0 300.0 99.0Z" fill-rule="nonzero"/><path stroke="#f4b400" stroke-width="2.0" stroke-linecap="butt" stroke-dasharray="8.0,6.0" d="M300.0 172.0C300.0 172.0 300.0 172.0 300.0 172.0C335.0 192.0 340.0 242.0 300.0 293.0C239.0 277.0 195.0 233.0 179.0 172.0C230.0 132.0 280.0 137.0 300.0 172.0Z" fill-rule="nonzero"/><path stroke="#0f9d58" stroke-width="2.0" stroke-linecap="butt" stroke-dasharray="8.0,6.0" d="M300.0 51.0C361.0 67.0 405.0 111.0 421.0 172.0C405.0 233.0 361.0 277.0 300.0 293.0C260.0 242.0 265.0 192.0 300.0 172.0C265.0 152.0 260.0 102.0 300.0 51.0Z" fill-rule="nonzero"/><path stroke="#ff6d00" stroke-width="2.0" stroke-linecap="butt" stroke-dasharray="8.0,6.0,2.0,6.0" d="M300.0 51.0C361.0 67.0 405.0 111.0 421.0 172.0C388.0 223.0 340.0 242.0 300.0 233.0C280.0 207.0 282.0 182.0 300.0 172.0C265.0 152.0 260.0 102.0 300.0 51.0Z" fill-rule="nonzero"/><path stroke="#4285f4" stroke-width="4.0" stroke-linecap="butt" stroke-dasharray="13.0,9.0" d="M31.0 344.95L66.0 344.95" fill-rule="nonzero"/><path fill="#757575" d="M78.5625 340.91876L79.703125 340.91876L79.703125 346.96564Q79.703125 348.1844 78.953125 348.8875Q78.21875 349.575 77.0 349.575Q75.734375 349.575 75.015625 348.91876Q74.3125 348.2625 74.3125 347.09064L75.4375 347.09064Q75.4375 347.825 75.828125 348.2469Q76.234375 348.65314 77.0 348.65314Q77.703125 348.65314 78.125 348.21564Q78.5625 347.7625 78.5625 346.98126L78.5625 340.91876ZM85.734375 349.45Q85.640625 349.2625 85.578125 348.77814Q84.828125 349.575 83.78125 349.575Q82.84375 349.575 82.234375 349.04376Q81.640625 348.5125 81.640625 347.6844Q81.640625 346.7 82.390625 346.15314Q83.140625 345.60626 84.515625 345.60626L85.5625 345.60626L85.5625 345.10626Q85.5625 344.54376 85.21875 344.21564Q84.890625 343.8719 84.21875 343.8719Q83.640625 343.8719 83.25 344.16876Q82.859375 344.45 82.859375 344.8719L81.765625 344.8719Q81.765625 344.3875 82.09375 343.95Q82.4375 343.5125 83.015625 343.2625Q83.59375 342.9969 84.28125 342.9969Q85.390625 342.9969 86.0 343.54376Q86.625 344.09064 86.65625 345.04376L86.65625 347.96564Q86.65625 348.84064 86.875 349.35626L86.875 349.45L85.734375 349.45ZM83.9375 348.6219Q84.453125 348.6219 84.90625 348.35626Q85.359375 348.09064 85.5625 347.66876L85.5625 346.3719L84.71875 346.3719Q82.71875 346.3719 82.71875 347.54376Q82.71875 348.04376 83.0625 348.34064Q83.40625 348.6219 83.9375 348.6219ZM90.90625 347.98126L92.484375 343.10626L93.59375 343.10626L91.3125 349.45L90.484375 349.45L88.1875 343.10626L89.296875 343.10626L90.90625 347.98126ZM98.734375 349.45Q98.640625 349.2625 98.578125 348.77814Q97.828125 349.575 96.78125 349.575Q95.84375 349.575 95.234375 349.04376Q94.640625 348.5125 94.640625 347.6844Q94.640625 346.7 95.390625 346.15314Q96.140625 345.60626 97.515625 345.60626L98.5625 345.60626L98.5625 345.10626Q98.5625 344.54376 98.21875 344.21564Q97.890625 343.8719 97.21875 343.8719Q96.640625 343.8719 96.25 344.16876Q95.859375 344.45 95.859375 344.8719L94.765625 344.8719Q94.765625 344.3875 95.09375 343.95Q95.4375 343.5125 96.015625 343.2625Q96.59375 342.9969 97.28125 342.9969Q98.390625 342.9969 99.0 343.54376Q99.625 344.09064 99.65625 345.04376L99.65625 347.96564Q99.65625 348.84064 99.875 349.35626L99.875 349.45L98.734375 349.45ZM96.9375 348.6219Q97.453125 348.6219 97.90625 348.35626Q98.359375 348.09064 98.5625 347.66876L98.5625 346.3719L97.71875 346.3719Q95.71875 346.3719 95.71875 347.54376Q95.71875 348.04376 96.0625 348.34064Q96.40625 348.6219 96.9375 348.6219ZM108.125 345.9969L106.109375 345.9969L106.109375 349.45L104.984375 349.45L104.984375 340.91876L107.8125 340.91876Q109.25 340.91876 110.015625 341.575Q110.796875 342.23126 110.796875 343.48126Q110.796875 344.27814 110.359375 344.8719Q109.9375 345.46564 109.171875 345.7625L111.171875 349.3719L111.171875 349.45L109.96875 349.45L108.125 345.9969ZM106.109375 345.075L107.84375 345.075Q108.6875 345.075 109.171875 344.65314Q109.671875 344.21564 109.671875 343.48126Q109.671875 342.7 109.203125 342.27814Q108.734375 341.85626 107.84375 341.84064L106.109375 341.84064L106.109375 345.075ZM113.4375 340.91876L116.234375 347.8719L119.015625 340.91876L120.484375 340.91876L120.484375 349.45L119.359375 349.45L119.359375 346.1219L119.46875 342.54376L116.65625 349.45L115.796875 349.45L113.0 342.5594L113.109375 346.1219L113.109375 349.45L111.984375 349.45L111.984375 340.91876L113.4375 340.91876ZM123.203125 349.45L122.078125 349.45L122.078125 340.91876L123.203125 340.91876L123.203125 349.45Z" fill-rule="nonzero"/><path stroke="#db4437" stroke-width="4.0" stroke-linecap="butt" stroke-dasharray="13.0,9.0,4.0,9.0" d="M140.0 344.95L166.0 344.95" fill-rule="nonzero"/><path fill="#757575" d="M179.70312 347.21564L176.125 347.21564L175.32812 349.45L174.17188 349.45L177.42188 340.91876L178.40625 340.91876L181.67188 349.45L180.51562 349.45L179.70312 347.21564ZM176.46875 346.29376L179.375 346.29376L177.92188 342.3094L176.46875 346.29376ZM184.59375 346.5125L183.90625 347.21564L183.90625 349.45L182.82812 349.45L182.82812 340.45L183.90625 340.45L183.90625 345.8875L184.48438 345.2L186.46875 343.10626L187.78125 343.10626L185.3125 345.7625L188.07812 349.45L186.79688 349.45L184.59375 346.5125ZM190.59375 346.5125L189.90625 347.21564L189.90625 349.45L188.82812 349.45L188.82812 340.45L189.90625 340.45L189.90625 345.8875L190.48438 345.2L192.46875 343.10626L193.78125 343.10626L191.3125 345.7625L194.07812 349.45L192.79688 349.45L190.59375 346.5125ZM198.73438 349.45Q198.64062 349.2625 198.57812 348.77814Q197.82812 349.575 196.78125 349.575Q195.84375 349.575 195.23438 349.04376Q194.64062 348.5125 194.64062 347.6844Q194.64062 346.7 195.39062 346.15314Q196.14062 345.60626 197.51562 345.60626L198.5625 345.60626L198.5625 345.10626Q198.5625 344.54376 198.21875 344.21564Q197.89062 343.8719 197.21875 343.8719Q196.64062 343.8719 196.25 344.16876Q195.85938 344.45 195.85938 344.8719L194.76562 344.8719Q194.76562 344.3875 195.09375 343.95Q195.4375 343.5125 196.01562 343.2625Q196.59375 342.9969 197.28125 342.9969Q198.39062 342.9969 199.0 343.54376Q199.625 344.09064 199.65625 345.04376L199.65625 347.96564Q199.65625 348.84064 199.875 349.35626L199.875 349.45L198.73438 349.45ZM196.9375 348.6219Q197.45312 348.6219 197.90625 348.35626Q198.35938 348.09064 198.5625 347.66876L198.5625 346.3719L197.71875 346.3719Q195.71875 346.3719 195.71875 347.54376Q195.71875 348.04376 196.0625 348.34064Q196.40625 348.6219 196.9375 348.6219Z" fill-rule="nonzero"/><path stroke="#f4b400" stroke-width="4.0" stroke-linecap="butt" stroke-dasharray="13.0,9.0" d="M217.0 344.95L252.0 344.95" fill-rule="nonzero"/><path fill="#757575" d="M267.54688 349.45L266.42188 349.45L262.125 342.8719L262.125 349.45L260.98438 349.45L260.98438 340.91876L262.125 340.91876L266.42188 347.52814L266.42188 340.91876L267.54688 340.91876L267.54688 349.45ZM273.73438 349.45Q273.64062 349.2625 273.57812 348.77814Q272.82812 349.575 271.78125 349.575Q270.84375 349.575 270.23438 349.04376Q269.64062 348.5125 269.64062 347.6844Q269.64062 346.7 270.39062 346.15314Q271.14062 345.60626 272.51562 345.60626L273.5625 345.60626L273.5625 345.10626Q273.5625 344.54376 273.21875 344.21564Q272.89062 343.8719 272.21875 343.8719Q271.64062 343.8719 271.25 344.16876Q270.85938 344.45 270.85938 344.8719L269.76562 344.8719Q269.76562 344.3875 270.09375 343.95Q270.4375 343.5125 271.01562 343.2625Q271.59375 342.9969 272.28125 342.9969Q273.39062 342.9969 274.0 343.54376Q274.625 344.09064 274.65625 345.04376L274.65625 347.96564Q274.65625 348.84064 274.875 349.35626L274.875 349.45L273.73438 349.45ZM271.9375 348.6219Q272.45312 348.6219 272.90625 348.35626Q273.35938 348.09064 273.5625 347.66876L273.5625 346.3719L272.71875 346.3719Q270.71875 346.3719 270.71875 347.54376Q270.71875 348.04376 271.0625 348.34064Q271.40625 348.6219 271.9375 348.6219ZM278.0 349.45L276.92188 349.45L276.92188 343.10626L278.0 343.10626L278.0 349.45ZM276.82812 341.4344Q276.82812 341.16876 276.98438 340.98126Q277.15625 340.79376 277.46875 340.79376Q277.78125 340.79376 277.9375 340.98126Q278.10938 341.16876 278.10938 341.4344Q278.10938 341.6844 277.9375 341.8719Q277.78125 342.04376 277.46875 342.04376Q277.15625 342.04376 276.98438 341.8719Q276.82812 341.6844 276.82812 341.4344ZM281.90625 347.98126L283.48438 343.10626L284.59375 343.10626L282.3125 349.45L281.48438 349.45L279.1875 343.10626L280.29688 343.10626L281.90625 347.98126ZM288.45312 349.575Q287.15625 349.575 286.34375 348.73126Q285.54688 347.8719 285.54688 346.45L285.54688 346.2625Q285.54688 345.3094 285.90625 344.575Q286.26562 343.825 286.90625 343.41876Q287.5625 342.9969 288.3125 342.9969Q289.54688 342.9969 290.23438 343.8094Q290.92188 344.6219 290.92188 346.1375L290.92188 346.59064L286.625 346.59064Q286.65625 347.52814 287.17188 348.10626Q287.70312 348.6844 288.51562 348.6844Q289.07812 348.6844 289.46875 348.45Q289.875 348.21564 290.1875 347.825L290.84375 348.34064Q290.04688 349.575 288.45312 349.575ZM288.3125 343.8875Q287.65625 343.8875 287.20312 344.3719Q286.76562 344.84064 286.67188 345.7L289.84375 345.7L289.84375 345.6219Q289.79688 344.79376 289.39062 344.34064Q289.0 343.8875 288.3125 343.8875ZM301.54688 349.45L300.42188 349.45L300.42188 345.5125L296.10938 345.5125L296.10938 349.45L294.98438 349.45L294.98438 340.91876L296.10938 340.91876L296.10938 344.59064L300.42188 344.59064L300.42188 340.91876L301.54688 340.91876L301.54688 349.45ZM309.89062 341.84064L307.14062 341.84064L307.14062 349.45L306.03125 349.45L306.03125 341.84064L303.28125 341.84064L303.28125 340.91876L309.89062 340.91876L309.89062 341.84064ZM316.89062 341.84064L314.14062 341.84064L314.14062 349.45L313.03125 349.45L313.03125 341.84064L310.28125 341.84064L310.28125 340.91876L316.89062 340.91876L316.89062 341.84064ZM319.10938 346.10626L319.10938 349.45L317.98438 349.45L317.98438 340.91876L321.14062 340.91876Q322.53125 340.91876 323.32812 341.6375Q324.125 342.34064 324.125 343.52814Q324.125 344.7625 323.34375 345.4344Q322.57812 346.10626 321.125 346.10626L319.10938 346.10626ZM319.10938 345.1844L321.14062 345.1844Q322.04688 345.1844 322.51562 344.7625Q323.0 344.34064 323.0 343.54376Q323.0 342.77814 322.51562 342.325Q322.04688 341.85626 321.20312 341.84064L319.10938 341.84064L319.10938 345.1844Z" fill-rule="nonzero"/><path stroke="#0f9d58" stroke-width="4.0" stroke-linecap="butt" stroke-dasharray="13.0,9.0" d="M341.0 344.95L376.0 344.95" fill-rule="nonzero"/><path fill="#757575" d="M384.5625 346.23126Q384.5625 344.7469 385.25 343.8719Q385.9375 342.9969 387.0625 342.9969Q388.21875 342.9969 388.875 343.8094L388.92188 343.10626L389.92188 343.10626L389.92188 349.29376Q389.92188 350.52814 389.1875 351.23126Q388.45312 351.95 387.23438 351.95Q386.54688 351.95 385.89062 351.65314Q385.23438 351.35626 384.89062 350.85626L385.45312 350.2Q386.14062 351.0594 387.15625 351.0594Q387.9375 351.0594 388.375 350.60626Q388.82812 350.16876 388.82812 349.35626L388.82812 348.8094Q388.17188 349.575 387.04688 349.575Q385.9375 349.575 385.25 348.6844Q384.5625 347.77814 384.5625 346.23126ZM385.65625 346.35626Q385.65625 347.41876 386.09375 348.04376Q386.53125 348.65314 387.32812 348.65314Q388.34375 348.65314 388.82812 347.71564L388.82812 344.825Q388.32812 343.91876 387.32812 343.91876Q386.54688 343.91876 386.09375 344.52814Q385.65625 345.1375 385.65625 346.35626ZM395.125 345.9969L393.10938 345.9969L393.10938 349.45L391.98438 349.45L391.98438 340.91876L394.8125 340.91876Q396.25 340.91876 397.01562 341.575Q397.79688 342.23126 397.79688 343.48126Q397.79688 344.27814 397.35938 344.8719Q396.9375 345.46564 396.17188 345.7625L398.17188 349.3719L398.17188 349.45L396.96875 349.45L395.125 345.9969ZM393.10938 345.075L394.84375 345.075Q395.6875 345.075 396.17188 344.65314Q396.67188 344.21564 396.67188 343.48126Q396.67188 342.7 396.20312 342.27814Q395.73438 341.85626 394.84375 341.84064L393.10938 341.84064L393.10938 345.075ZM400.10938 346.10626L400.10938 349.45L398.98438 349.45L398.98438 340.91876L402.14062 340.91876Q403.53125 340.91876 404.32812 341.6375Q405.125 342.34064 405.125 343.52814Q405.125 344.7625 404.34375 345.4344Q403.57812 346.10626 402.125 346.10626L400.10938 346.10626ZM400.10938 345.1844L402.14062 345.1844Q403.04688 345.1844 403.51562 344.7625Q404.0 344.34064 404.0 343.54376Q404.0 342.77814 403.51562 342.325Q403.04688 341.85626 402.20312 341.84064L400.10938 341.84064L400.10938 345.1844ZM413.26562 346.7469Q413.10938 348.09064 412.26562 348.84064Q411.42188 349.575 410.03125 349.575Q408.51562 349.575 407.60938 348.4969Q406.70312 347.40314 406.70312 345.575L406.70312 344.7625Q406.70312 343.575 407.125 342.66876Q407.54688 341.7625 408.32812 341.27814Q409.10938 340.79376 410.125 340.79376Q411.48438 340.79376 412.29688 341.5594Q413.125 342.325 413.26562 343.65314L412.14062 343.65314Q411.98438 342.6375 411.5 342.1844Q411.01562 341.73126 410.125 341.73126Q409.04688 341.73126 408.4375 342.52814Q407.82812 343.325 407.82812 344.79376L407.82812 345.6219Q407.82812 347.0125 408.40625 347.84064Q408.98438 348.65314 410.03125 348.65314Q410.96875 348.65314 411.46875 348.23126Q411.96875 347.79376 412.14062 346.7469L413.26562 346.7469Z" fill-rule="nonzero"/><path stroke="#ff6d00" stroke-width="4.0" stroke-linecap="butt" stroke-dasharray="13.0,9.0,4.0,9.0" d="M430.0 344.95L456.0 344.95" fill-rule="nonzero"/><path fill="#757575" d="M466.4375 340.91876L469.23438 347.8719L472.01562 340.91876L473.48438 340.91876L473.48438 349.45L472.35938 349.45L472.35938 346.1219L472.46875 342.54376L469.65625 349.45L468.79688 349.45L466.0 342.5594L466.10938 346.1219L466.10938 349.45L464.98438 349.45L464.98438 340.91876L466.4375 340.91876ZM477.45312 349.575Q476.15625 349.575 475.34375 348.73126Q474.54688 347.8719 474.54688 346.45L474.54688 346.2625Q474.54688 345.3094 474.90625 344.575Q475.26562 343.825 475.90625 343.41876Q476.5625 342.9969 477.3125 342.9969Q478.54688 342.9969 479.23438 343.8094Q479.92188 344.6219 479.92188 346.1375L479.92188 346.59064L475.625 346.59064Q475.65625 347.52814 476.17188 348.10626Q476.70312 348.6844 477.51562 348.6844Q478.07812 348.6844 478.46875 348.45Q478.875 348.21564 479.1875 347.825L479.84375 348.34064Q479.04688 349.575 477.45312 349.575ZM477.3125 343.8875Q476.65625 343.8875 476.20312 344.3719Q475.76562 344.84064 475.67188 345.7L478.84375 345.7L478.84375 345.6219Q478.79688 344.79376 478.39062 344.34064Q478.0 343.8875 477.3125 343.8875ZM482.29688 341.575L482.29688 343.10626L483.46875 343.10626L483.46875 343.95L482.29688 343.95L482.29688 347.8719Q482.29688 348.2625 482.45312 348.45Q482.60938 348.6375 482.98438 348.6375Q483.17188 348.6375 483.5 348.575L483.5 349.45Q483.07812 349.575 482.67188 349.575Q481.95312 349.575 481.57812 349.1375Q481.20312 348.6844 481.20312 347.8719L481.20312 343.95L480.04688 343.95L480.04688 343.10626L481.20312 343.10626L481.20312 341.575L482.29688 341.575ZM488.73438 349.45Q488.64062 349.2625 488.57812 348.77814Q487.82812 349.575 486.78125 349.575Q485.84375 349.575 485.23438 349.04376Q484.64062 348.5125 484.64062 347.6844Q484.64062 346.7 485.39062 346.15314Q486.14062 345.60626 487.51562 345.60626L488.5625 345.60626L488.5625 345.10626Q488.5625 344.54376 488.21875 344.21564Q487.89062 343.8719 487.21875 343.8719Q486.64062 343.8719 486.25 344.16876Q485.85938 344.45 485.85938 344.8719L484.76562 344.8719Q484.76562 344.3875 485.09375 343.95Q485.4375 343.5125 486.01562 343.2625Q486.59375 342.9969 487.28125 342.9969Q488.39062 342.9969 489.0 343.54376Q489.625 344.09064 489.65625 345.04376L489.65625 347.96564Q489.65625 348.84064 489.875 349.35626L489.875 349.45L488.73438 349.45ZM486.9375 348.6219Q487.45312 348.6219 487.90625 348.35626Q488.35938 348.09064 488.5625 347.66876L488.5625 346.3719L487.71875 346.3719Q485.71875 346.3719 485.71875 347.54376Q485.71875 348.04376 486.0625 348.34064Q486.40625 348.6219 486.9375 348.6219ZM494.07812 346.2625L491.21875 346.2625L491.21875 345.3875L494.07812 345.3875L494.07812 346.2625ZM500.17188 346.35626Q500.17188 347.79376 499.51562 348.6844Q498.85938 349.575 497.71875 349.575Q496.5625 349.575 495.90625 348.84064L495.90625 351.8875L494.82812 351.8875L494.82812 343.10626L495.8125 343.10626L495.85938 343.8094Q496.53125 342.9969 497.70312 342.9969Q498.84375 342.9969 499.5 343.85626Q500.17188 344.71564 500.17188 346.2469L500.17188 346.35626ZM499.09375 346.23126Q499.09375 345.15314 498.625 344.54376Q498.17188 343.91876 497.375 343.91876Q496.39062 343.91876 495.90625 344.77814L495.90625 347.8094Q496.39062 348.6844 497.39062 348.6844Q498.17188 348.6844 498.625 348.075Q499.09375 347.45 499.09375 346.23126ZM504.89062 344.075Q504.64062 344.04376 504.35938 344.04376Q503.28125 344.04376 502.90625 344.95L502.90625 349.45L501.82812 349.45L501.82812 343.10626L502.875 343.10626L502.89062 343.84064Q503.42188 342.9969 504.40625 342.9969Q504.71875 342.9969 504.89062 343.075L504.89062 344.075ZM505.53125 346.21564Q505.53125 345.29376 505.89062 344.54376Q506.26562 343.79376 506.92188 343.40314Q507.57812 342.9969 508.40625 342.9969Q509.70312 342.9969 510.5 343.8875Q511.3125 344.77814 511.3125 346.27814L511.3125 346.35626Q511.3125 347.27814 510.95312 348.0125Q510.59375 348.7469 509.9375 349.16876Q509.28125 349.575 508.42188 349.575Q507.14062 349.575 506.32812 348.6844Q505.53125 347.77814 505.53125 346.29376L505.53125 346.21564ZM506.625 346.35626Q506.625 347.40314 507.10938 348.04376Q507.60938 348.6844 508.42188 348.6844Q509.25 348.6844 509.73438 348.04376Q510.21875 347.3875 510.21875 346.21564Q510.21875 345.1844 509.71875 344.54376Q509.23438 343.8875 508.40625 343.8875Q507.60938 343.8875 507.10938 344.52814Q506.625 345.15314 506.625 346.35626ZM512.5625 346.23126Q512.5625 344.7469 513.25 343.8719Q513.9375 342.9969 515.0625 342.9969Q516.21875 342.9969 516.875 343.8094L516.9219 343.10626L517.9219 343.10626L517.9219 349.29376Q517.9219 350.52814 517.1875 351.23126Q516.4531 351.95 515.2344 351.95Q514.5469 351.95 513.8906 351.65314Q513.2344 351.35626 512.8906 350.85626L513.4531 350.2Q514.1406 351.0594 515.15625 351.0594Q515.9375 351.0594 516.375 350.60626Q516.8281 350.16876 516.8281 349.35626L516.8281 348.8094Q516.1719 349.575 515.0469 349.575Q513.9375 349.575 513.25 348.6844Q512.5625 347.77814 512.5625 346.23126ZM513.65625 346.35626Q513.65625 347.41876 514.09375 348.04376Q514.53125 348.65314 515.3281 348.65314Q516.34375 348.65314 516.8281 347.71564L516.8281 344.825Q516.3281 343.91876 515.3281 343.91876Q514.5469 343.91876 514.09375 344.52814Q513.65625 345.1375 513.65625 346.35626ZM522.8906 344.075Q522.6406 344.04376 522.3594 344.04376Q521.28125 344.04376 520.90625 344.95L520.90625 349.45L519.8281 349.45L519.8281 343.10626L520.875 343.10626L520.8906 343.84064Q521.4219 342.9969 522.40625 342.9969Q522.71875 342.9969 522.8906 343.075L522.8906 344.075ZM527.7344 349.45Q527.6406 349.2625 527.5781 348.77814Q526.8281 349.575 525.78125 349.575Q524.84375 349.575 524.2344 349.04376Q523.6406 348.5125 523.6406 347.6844Q523.6406 346.7 524.3906 346.15314Q525.1406 345.60626 526.5156 345.60626L527.5625 345.60626L527.5625 345.10626Q527.5625 344.54376 527.21875 344.21564Q526.8906 343.8719 526.21875 343.8719Q525.6406 343.8719 525.25 344.16876Q524.8594 344.45 524.8594 344.8719L523.7656 344.8719Q523.7656 344.3875 524.09375 343.95Q524.4375 343.5125 525.0156 343.2625Q525.59375 342.9969 526.28125 342.9969Q527.3906 342.9969 528.0 343.54376Q528.625 344.09064 528.65625 345.04376L528.65625 347.96564Q528.65625 348.84064 528.875 349.35626L528.875 349.45L527.7344 349.45ZM525.9375 348.6219Q526.4531 348.6219 526.90625 348.35626Q527.3594 348.09064 527.5625 347.66876L527.5625 346.3719L526.71875 346.3719Q524.71875 346.3719 524.71875 347.54376Q524.71875 348.04376 525.0625 348.34064Q525.40625 348.6219 525.9375 348.6219ZM531.84375 343.10626L531.875 343.8094Q532.5625 342.9969 533.75 342.9969Q535.0781 342.9969 535.5625 344.0125Q535.875 343.5594 536.375 343.27814Q536.8906 342.9969 537.5781 342.9969Q539.6719 342.9969 539.7031 345.2L539.7031 349.45L538.625 349.45L538.625 345.2625Q538.625 344.59064 538.3125 344.2625Q538.0 343.91876 537.2656 343.91876Q536.65625 343.91876 536.25 344.27814Q535.8594 344.6375 535.7969 345.2469L535.7969 349.45L534.71875 349.45L534.71875 345.29376Q534.71875 343.91876 533.3594 343.91876Q532.2969 343.91876 531.90625 344.825L531.90625 349.45L530.8125 349.45L530.8125 343.10626L531.84375 343.10626ZM542.84375 343.10626L542.875 343.8094Q543.5625 342.9969 544.75 342.9969Q546.0781 342.9969 546.5625 344.0125Q546.875 343.5594 547.375 343.27814Q547.8906 342.9969 548.5781 342.9969Q550.6719 342.9969 550.7031 345.2L550.7031 349.45L549.625 349.45L549.625 345.2625Q549.625 344.59064 549.3125 344.2625Q549.0 343.91876 548.2656 343.91876Q547.65625 343.91876 547.25 344.27814Q546.8594 344.6375 546.7969 345.2469L546.7969 349.45L545.71875 349.45L545.71875 345.29376Q545.71875 343.91876 544.3594 343.91876Q543.2969 343.91876 542.90625 344.825L542.90625 349.45L541.8125 349.45L541.8125 343.10626L542.84375 343.10626ZM554.0 349.45L552.9219 349.45L552.9219 343.10626L554.0 343.10626L554.0 349.45ZM552.8281 341.4344Q552.8281 341.16876 552.9844 340.98126Q553.15625 340.79376 553.46875 340.79376Q553.78125 340.79376 553.9375 340.98126Q554.1094 341.16876 554.1094 341.4344Q554.1094 341.6844 553.9375 341.8719Q553.78125 342.04376 553.46875 342.04376Q553.15625 342.04376 552.9844 341.8719Q552.8281 341.6844 552.8281 341.4344ZM556.84375 343.10626L556.875 343.90314Q557.6094 342.9969 558.78125 342.9969Q560.7969 342.9969 560.8125 345.2625L560.8125 349.45L559.71875 349.45L559.71875 345.2469Q559.71875 344.575 559.40625 344.2469Q559.1094 343.91876 558.4531 343.91876Q557.9219 343.91876 557.5156 344.2Q557.125 344.48126 556.90625 344.9344L556.90625 349.45L555.8281 349.45L555.8281 343.10626L556.84375 343.10626ZM562.5625 346.23126Q562.5625 344.7469 563.25 343.8719Q563.9375 342.9969 565.0625 342.9969Q566.21875 342.9969 566.875 343.8094L566.9219 343.10626L567.9219 343.10626L567.9219 349.29376Q567.9219 350.52814 567.1875 351.23126Q566.4531 351.95 565.2344 351.95Q564.5469 351.95 563.8906 351.65314Q563.2344 351.35626 562.8906 350.85626L563.4531 350.2Q564.1406 351.0594 565.15625 351.0594Q565.9375 351.0594 566.375 350.60626Q566.8281 350.16876 566.8281 349.35626L566.8281 348.8094Q566.1719 349.575 565.0469 349.575Q563.9375 349.575 563.25 348.6844Q562.5625 347.77814 562.5625 346.23126ZM563.65625 346.35626Q563.65625 347.41876 564.09375 348.04376Q564.53125 348.65314 565.3281 348.65314Q566.34375 348.65314 566.8281 347.71564L566.8281 344.825Q566.3281 343.91876 565.3281 343.91876Q564.5469 343.91876 564.09375 344.52814Q563.65625 345.1375 563.65625 346.35626Z" fill-rule="nonzero"/></svg>