<svg version="1.1" viewBox="0.0 0.0 425.40682414698165 279.7034120734908" fill="none" stroke="none" stroke-linecap="square" stroke-miterlimit="10" xmlns:xlink="http://www.w3.org/1999/xlink" xmlns="http://www.w3.org/2000/svg"><clipPath id="p.0"><path d="m0 0l425.40683 0l0 279.7034l-425.40683 0l0 -279.7034z" clip-rule="nonzero"/></clipPath><g clip-path="url(#p.0)"><path fill="#000000" fill-opacity="0.0" d="m0 0l425.40683 0l0 279.7034l-425.40683 0z" fill-rule="evenodd"/><path fill="#cfe2f3" d="m15.95538 27.653755l0 0c0 -5.8737583 4.7616243 -10.635382 10.635383 -10.635382l80.83948 0c2.8206787 0 5.5258255 1.1205101 7.5203476 3.1150303c1.9945221 1.9945221 3.115036 4.6996727 3.115036 7.5203514l0 42.54026c0 5.8737564 -4.761627 10.635384 -10.635384 10.635384l-80.83948 0c-5.8737583 0 -10.635383 -4.761627 -10.635383 -10.635384z" fill-rule="evenodd"/><path stroke="#000000" stroke-width="1.0" stroke-linejoin="round" stroke-linecap="butt" d="m15.95538 27.653755l0 0c0 -5.8737583 4.7616243 -10.635382 10.635383 -10.635382l80.83948 0c2.8206787 0 5.5258255 1.1205101 7.5203476 3.1150303c1.9945221 1.9945221 3.115036 4.6996727 3.115036 7.5203514l0 42.54026c0 5.8737564 -4.761627 10.635384 -10.635384 10.635384l-80.83948 0c-5.8737583 0 -10.635383 -4.761627 -10.635383 -10.635384z" fill-rule="evenodd"/><path fill="#000000" d="m34.322998 44.956383l2.421875 0l0.109375 2.53125q0.6875 -0.8125 1.328125 -1.34375q0.640625 -0.546875 1.25 -0.875q0.625 -0.328125 1.265625 -0.453125q0.640625 -0.140625 1.328125 -0.140625q2.421875 0 3.65625 1.4375q1.25 1.421875 1.25 4.296875l0 10.234375l-2.71875 0l0 -10.015625q0 -1.84375 -0.6875 -2.71875q-0.6875 -0.890625 -2.046875 -0.890625q-0.5 0 -0.984375 0.15625q-0.46875 0.140625 -0.984375 0.515625q-0.515625 0.359375 -1.125 0.984375q-0.59375 0.625 -1.34375 1.5625l0 10.40625l-2.71875 0l0 -15.6875zm31.25 7.71875q0 1.828125 -0.515625 3.359375q-0.515625 1.515625 -1.484375 2.609375q-0.96875 1.078125 -2.359375 1.6875q-1.390625 0.59375 -3.15625 0.59375q-1.6875 0 -3.03125 -0.515625q-1.328125 -0.53125 -2.265625 -1.546875q-0.921875 -1.015625 -1.421875 -2.515625q-0.484375 -1.5 -0.484375 -3.453125q0 -1.828125 0.515625 -3.328125q0.515625 -1.515625 1.484375 -2.59375q0.96875 -1.09375 2.359375 -1.6875q1.390625 -0.609375 3.15625 -0.609375q1.6875 0 3.015625 0.53125q1.34375 0.515625 2.265625 1.53125q0.9375 1.0 1.421875 2.5q0.5 1.5 0.5 3.4375zm-2.78125 0.125q0 -1.453125 -0.328125 -2.53125q-0.3125 -1.09375 -0.90625 -1.8125q-0.59375 -0.734375 -1.453125 -1.09375q-0.84375 -0.375 -1.890625 -0.375q-1.21875 0 -2.09375 0.484375q-0.859375 0.46875 -1.421875 1.265625q-0.546875 0.796875 -0.8125 1.859375q-0.25 1.046875 -0.25 2.203125q0 1.453125 0.3125 2.546875q0.328125 1.09375 0.921875 1.828125q0.59375 0.71875 1.4375 1.09375q0.84375 0.359375 1.90625 0.359375q1.21875 0 2.078125 -0.46875q0.875 -0.484375 1.421875 -1.28125q0.5625 -0.796875 0.8125 -1.84375q0.265625 -1.0625 0.265625 -2.234375zm5.921875 0.328125q0 -2.0 0.546875 -3.546875q0.546875 -1.5625 1.546875 -2.625q1.015625 -1.078125 2.421875 -1.625q1.421875 -0.5625 3.15625 -0.5625q0.75 0 1.46875 0.09375q0.734375 0.09375 1.4375 0.296875l0 -6.59375l2.734375 0l0 22.078125l-2.4375 0l-0.09375 -2.96875q-1.140625 1.65625 -2.46875 2.453125q-1.328125 0.796875 -2.875 0.796875q-1.34375 0 -2.375 -0.5625q-1.015625 -0.5625 -1.703125 -1.578125q-0.671875 -1.03125 -1.015625 -2.46875q-0.34375 -1.4375 -0.34375 -3.1875zm2.78125 -0.171875q0 2.84375 0.828125 4.25q0.84375 1.390625 2.375 1.390625q1.03125 0 2.171875 -0.921875q1.15625 -0.921875 2.421875 -2.734375l0 -7.28125q-0.671875 -0.3125 -1.484375 -0.46875q-0.8125 -0.171875 -1.609375 -0.171875q-2.21875 0 -3.46875 1.4375q-1.234375 1.4375 -1.234375 4.5zm28.859383 -0.984375q0 0.578125 -0.015625 0.96875q-0.015625 0.390625 -0.046875 0.734375l-11.015625 0q0 2.40625 1.34375 3.703125q1.34375 1.28125 3.875 1.28125q0.6875 0 1.375 -0.046875q0.6875 -0.0625 1.328125 -0.15625q0.640625 -0.09375 1.21875 -0.203125q0.59375 -0.125 1.09375 -0.265625l0 2.234375q-1.109375 0.3125 -2.515625 0.5q-1.390625 0.203125 -2.890625 0.203125q-2.015625 0 -3.46875 -0.546875q-1.453125 -0.546875 -2.390625 -1.578125q-0.921875 -1.046875 -1.375 -2.546875q-0.4375 -1.515625 -0.4375 -3.421875q0 -1.65625 0.46875 -3.125q0.484375 -1.484375 1.390625 -2.59375q0.921875 -1.125 2.25 -1.78125q1.328125 -0.65625 3.015625 -0.65625q1.640625 0 2.90625 0.515625q1.265625 0.515625 2.125 1.46875q0.875 0.9375 1.3125 2.296875q0.453125 1.34375 0.453125 3.015625zm-2.828125 -0.390625q0.046875 -1.046875 -0.203125 -1.90625q-0.25 -0.875 -0.78125 -1.5q-0.515625 -0.625 -1.296875 -0.96875q-0.78125 -0.359375 -1.8125 -0.359375q-0.890625 0 -1.625 0.34375q-0.734375 0.34375 -1.265625 0.96875q-0.53125 0.625 -0.859375 1.5q-0.328125 0.875 -0.40625 1.921875l8.25 0z" fill-rule="nonzero"/><path fill="#cfe2f3" d="m90.44882 206.85585l0 0c0 -5.873749 4.7616196 -10.635376 10.635384 -10.635376l80.83947 0c2.8206787 0 5.525833 1.1205139 7.520355 3.115036c1.9945068 1.9945221 3.1150208 4.6996613 3.1150208 7.52034l0 42.540268c0 5.873749 -4.761627 10.635376 -10.635376 10.635376l-80.83947 0c-5.873764 0 -10.635384 -4.761627 -10.635384 -10.635376z" fill-rule="evenodd"/><path stroke="#000000" stroke-width="1.0" stroke-linejoin="round" stroke-linecap="butt" d="m90.44882 206.85585l0 0c0 -5.873749 4.7616196 -10.635376 10.635384 -10.635376l80.83947 0c2.8206787 0 5.525833 1.1205139 7.520355 3.115036c1.9945068 1.9945221 3.1150208 4.6996613 3.1150208 7.52034l0 42.540268c0 5.873749 -4.761627 10.635376 -10.635376 10.635376l-80.83947 0c-5.873764 0 -10.635384 -4.761627 -10.635384 -10.635376z" fill-rule="evenodd"/><path fill="#000000" d="m108.81644 224.15848l2.421875 0l0.109375 2.53125q0.6875 -0.8125 1.328125 -1.34375q0.640625 -0.546875 1.25 -0.875q0.625 -0.328125 1.265625 -0.453125q0.640625 -0.140625 1.328125 -0.140625q2.421875 0 3.65625 1.4375q1.25 1.421875 1.25 4.296875l0 10.234375l-2.71875 0l0 -10.015625q0 -1.84375 -0.6875 -2.71875q-0.6875 -0.890625 -2.046875 -0.890625q-0.5 0 -0.984375 0.15625q-0.46875 0.140625 -0.984375 0.515625q-0.515625 0.359375 -1.125 0.984375q-0.59375 0.625 -1.34375 1.5625l0 10.40625l-2.71875 0l0 -15.6875zm31.25 7.71875q0 1.828125 -0.515625 3.359375q-0.515625 1.515625 -1.484375 2.609375q-0.96875 1.078125 -2.359375 1.6875q-1.390625 0.59375 -3.15625 0.59375q-1.6875 0 -3.03125 -0.515625q-1.328125 -0.53125 -2.265625 -1.546875q-0.921875 -1.015625 -1.421875 -2.515625q-0.484375 -1.5 -0.484375 -3.453125q0 -1.828125 0.515625 -3.328125q0.515625 -1.515625 1.484375 -2.59375q0.96875 -1.09375 2.359375 -1.6875q1.390625 -0.609375 3.15625 -0.609375q1.6875 0 3.015625 0.53125q1.34375 0.515625 2.265625 1.53125q0.9375 1.0 1.421875 2.5q0.5 1.5 0.5 3.4375zm-2.78125 0.125q0 -1.453125 -0.328125 -2.53125q-0.3125 -1.09375 -0.90625 -1.8125q-0.59375 -0.734375 -1.453125 -1.09375q-0.84375 -0.375 -1.890625 -0.375q-1.21875 0 -2.09375 0.484375q-0.859375 0.46875 -1.421875 1.265625q-0.546875 0.796875 -0.8125 1.859375q-0.25 1.046875 -0.25 2.203125q0 1.453125 0.3125 2.546875q0.328125 1.09375 0.921875 1.828125q0.59375 0.71875 1.4375 1.09375q0.84375 0.359375 1.90625 0.359375q1.21875 0 2.078125 -0.46875q0.875 -0.484375 1.421875 -1.28125q0.5625 -0.796875 0.8125 -1.84375q0.265625 -1.0625 0.265625 -2.234375zm5.921875 0.328125q0 -2.0 0.546875 -3.546875q0.546875 -1.5625 1.546875 -2.625q1.015625 -1.078125 2.421875 -1.625q1.421875 -0.5625 3.15625 -0.5625q0.75 0 1.46875 0.09375q0.734375 0.09375 1.4375 0.296875l0 -6.59375l2.734375 0l0 22.078125l-2.4375 0l-0.09375 -2.96875q-1.140625 1.65625 -2.46875 2.453125q-1.328125 0.796875 -2.875 0.796875q-1.34375 0 -2.375 -0.5625q-1.015625 -0.5625 -1.703125 -1.578125q-0.671875 -1.03125 -1.015625 -2.46875q-0.34375 -1.4375 -0.34375 -3.1875zm2.78125 -0.171875q0 2.84375 0.828125 4.25q0.84375 1.390625 2.375 1.390625q1.03125 0 2.171875 -0.921875q1.15625 -0.921875 2.421875 -2.734375l0 -7.28125q-0.671875 -0.3125 -1.484375 -0.46875q-0.8125 -0.171875 -1.609375 -0.171875q-2.21875 0 -3.46875 1.4375q-1.234375 1.4375 -1.234375 4.5zm28.859375 -0.984375q0 0.578125 -0.015625 0.96875q-0.015625 0.390625 -0.046875 0.734375l-11.015625 0q0 2.40625 1.34375 3.703125q1.34375 1.28125 3.875 1.28125q0.6875 0 1.375 -0.046875q0.6875 -0.0625 1.328125 -0.15625q0.640625 -0.09375 1.21875 -0.203125q0.59375 -0.125 1.09375 -0.265625l0 2.234375q-1.109375 0.3125 -2.515625 0.5q-1.390625 0.203125 -2.890625 0.203125q-2.015625 0 -3.46875 -0.546875q-1.453125 -0.546875 -2.390625 -1.578125q-0.921875 -1.046875 -1.375 -2.546875q-0.4375 -1.515625 -0.4375 -3.421875q0 -1.65625 0.46875 -3.125q0.484375 -1.484375 1.390625 -2.59375q0.921875 -1.125 2.25 -1.78125q1.328125 -0.65625 3.015625 -0.65625q1.640625 0 2.90625 0.515625q1.265625 0.515625 2.125 1.46875q0.875 0.9375 1.3125 2.296875q0.453125 1.34375 0.453125 3.015625zm-2.828125 -0.390625q0.046875 -1.046875 -0.203125 -1.90625q-0.25 -0.875 -0.78125 -1.5q-0.515625 -0.625 -1.296875 -0.96875q-0.78125 -0.359375 -1.8125 -0.359375q-0.890625 0 -1.625 0.34375q-0.734375 0.34375 -1.265625 0.96875q-0.53125 0.625 -0.859375 1.5q-0.328125 0.875 -0.40625 1.921875l8.25 0z" fill-rule="nonzero"/><path fill="#cfe2f3" d="m305.32547 106.44903l0 0c0 -5.8737564 4.761627 -10.635376 10.635376 -10.635376l80.83948 0c2.8206787 0 5.525818 1.1205063 7.520355 3.1150284c1.9945068 1.9945221 3.1150208 4.699669 3.1150208 7.5203476l0 42.54026c0 5.873764 -4.761627 10.635376 -10.635376 10.635376l-80.83948 0c-5.873749 0 -10.635376 -4.761612 -10.635376 -10.635376z" fill-rule="evenodd"/><path stroke="#000000" stroke-width="1.0" stroke-linejoin="round" stroke-linecap="butt" d="m305.32547 106.44903l0 0c0 -5.8737564 4.761627 -10.635376 10.635376 -10.635376l80.83948 0c2.8206787 0 5.525818 1.1205063 7.520355 3.1150284c1.9945068 1.9945221 3.1150208 4.699669 3.1150208 7.5203476l0 42.54026c0 5.873764 -4.761627 10.635376 -10.635376 10.635376l-80.83948 0c-5.873749 0 -10.635376 -4.761612 -10.635376 -10.635376z" fill-rule="evenodd"/><path fill="#000000" d="m323.69308 123.751656l2.421875 0l0.109375 2.53125q0.6875 -0.8125 1.328125 -1.34375q0.640625 -0.546875 1.25 -0.875q0.625 -0.328125 1.265625 -0.453125q0.640625 -0.140625 1.328125 -0.140625q2.421875 0 3.65625 1.4375q1.25 1.421875 1.25 4.2968826l0 10.234375l-2.71875 0l0 -10.015625q0 -1.8437576 -0.6875 -2.7187576q-0.6875 -0.890625 -2.046875 -0.890625q-0.5 0 -0.984375 0.15625q-0.46875 0.140625 -0.984375 0.515625q-0.515625 0.359375 -1.125 0.984375q-0.59375 0.6250076 -1.34375 1.5625076l0 10.40625l-2.71875 0l0 -15.687508zm31.25 7.7187576q0 1.828125 -0.515625 3.359375q-0.515625 1.515625 -1.484375 2.609375q-0.96875 1.078125 -2.359375 1.6875q-1.390625 0.59375 -3.15625 0.59375q-1.6875 0 -3.03125 -0.515625q-1.328125 -0.53125 -2.265625 -1.546875q-0.921875 -1.015625 -1.421875 -2.515625q-0.484375 -1.5 -0.484375 -3.453125q0 -1.828125 0.515625 -3.328125q0.515625 -1.5156326 1.484375 -2.5937576q0.96875 -1.09375 2.359375 -1.6875q1.390625 -0.609375 3.15625 -0.609375q1.6875 0 3.015625 0.53125q1.34375 0.515625 2.265625 1.53125q0.9375 1.0 1.421875 2.5000076q0.5 1.5 0.5 3.4375zm-2.78125 0.125q0 -1.453125 -0.328125 -2.53125q-0.3125 -1.0937576 -0.90625 -1.8125076q-0.59375 -0.734375 -1.453125 -1.09375q-0.84375 -0.375 -1.890625 -0.375q-1.21875 0 -2.09375 0.484375q-0.859375 0.46875 -1.421875 1.265625q-0.546875 0.7968826 -0.8125 1.8593826q-0.25 1.046875 -0.25 2.203125q0 1.453125 0.3125 2.546875q0.328125 1.09375 0.921875 1.828125q0.59375 0.71875 1.4375 1.09375q0.84375 0.359375 1.90625 0.359375q1.21875 0 2.078125 -0.46875q0.875 -0.484375 1.421875 -1.28125q0.5625 -0.796875 0.8125 -1.84375q0.265625 -1.0625 0.265625 -2.234375zm5.921875 0.328125q0 -2.0 0.546875 -3.546875q0.546875 -1.5625076 1.546875 -2.6250076q1.015625 -1.078125 2.421875 -1.625q1.421875 -0.5625 3.15625 -0.5625q0.75 0 1.46875 0.09375q0.734375 0.09375 1.4375 0.296875l0 -6.59375l2.734375 0l0 22.078133l-2.4375 0l-0.09375 -2.96875q-1.140625 1.65625 -2.46875 2.453125q-1.328125 0.796875 -2.875 0.796875q-1.34375 0 -2.375 -0.5625q-1.015625 -0.5625 -1.703125 -1.578125q-0.671875 -1.03125 -1.015625 -2.46875q-0.34375 -1.4375 -0.34375 -3.1875zm2.78125 -0.171875q0 2.84375 0.828125 4.25q0.84375 1.390625 2.375 1.390625q1.03125 0 2.171875 -0.921875q1.15625 -0.921875 2.421875 -2.734375l0 -7.2812576q-0.671875 -0.3125 -1.484375 -0.46875q-0.8125 -0.171875 -1.609375 -0.171875q-2.21875 0 -3.46875 1.4375q-1.234375 1.4375076 -1.234375 4.5000076zm28.859375 -0.984375q0 0.578125 -0.015625 0.96875q-0.015625 0.390625 -0.046875 0.734375l-11.015625 0q0 2.40625 1.34375 3.703125q1.34375 1.28125 3.875 1.28125q0.6875 0 1.375 -0.046875q0.6875 -0.0625 1.328125 -0.15625q0.640625 -0.09375 1.21875 -0.203125q0.59375 -0.125 1.09375 -0.265625l0 2.234375q-1.109375 0.3125 -2.515625 0.5q-1.390625 0.203125 -2.890625 0.203125q-2.015625 0 -3.46875 -0.546875q-1.453125 -0.546875 -2.390625 -1.578125q-0.921875 -1.046875 -1.375 -2.546875q-0.4375 -1.515625 -0.4375 -3.421875q0 -1.65625 0.46875 -3.125q0.484375 -1.4843826 1.390625 -2.5937576q0.921875 -1.125 2.25 -1.78125q1.328125 -0.65625 3.015625 -0.65625q1.640625 0 2.90625 0.515625q1.265625 0.515625 2.125 1.46875q0.875 0.9375 1.3125 2.296875q0.453125 1.3437576 0.453125 3.0156326zm-2.828125 -0.390625q0.046875 -1.046875 -0.203125 -1.90625q-0.25 -0.8750076 -0.78125 -1.5000076q-0.515625 -0.625 -1.296875 -0.96875q-0.78125 -0.359375 -1.8125 -0.359375q-0.890625 0 -1.625 0.34375q-0.734375 0.34375 -1.265625 0.96875q-0.53125 0.625 -0.859375 1.5000076q-0.328125 0.875 -0.40625 1.921875l8.25 0z" fill-rule="nonzero"/><path fill="#000000" fill-opacity="0.0" d="m305.32547 127.71916c-46.80728 0 -70.20906 -19.70079 -93.61456 -39.401573c-23.405518 -19.70079 -46.814774 -39.401577 -93.62954 -39.401577" fill-rule="evenodd"/><path stroke="#000000" stroke-width="1.0" stroke-linejoin="round" stroke-linecap="butt" d="m305.32547 127.71916c-46.80728 0 -70.20906 -19.70079 -93.61456 -39.401573c-23.405518 -19.70079 -46.814774 -39.401577 -93.62954 -39.401577" fill-rule="evenodd"/><path fill="#000000" fill-opacity="0.0" d="m192.55905 228.12599c28.191803 0 42.28911 -25.102371 56.38359 -50.204727c14.094498 -25.102371 28.186172 -50.204727 56.37233 -50.204727" fill-rule="evenodd"/><path stroke="#000000" stroke-width="1.0" stroke-linejoin="round" stroke-linecap="butt" d="m192.55905 228.12599c28.191803 0 42.28911 -25.102371 56.38359 -50.204727c14.094498 -25.102371 28.186172 -50.204727 56.37233 -50.204727" fill-rule="evenodd"/><path fill="#000000" fill-opacity="0.0" d="m67.0105 80.8294c0 28.847504 18.622047 43.26982 37.244095 57.695015c18.622047 14.425201 37.244095 28.853271 37.244095 57.70656" fill-rule="evenodd"/><path stroke="#000000" stroke-width="1.0" stroke-linejoin="round" stroke-linecap="butt" d="m67.0105 80.8294c0 28.847504 18.622047 43.26982 37.244095 57.695015c18.622047 14.425201 37.244095 28.853271 37.244095 57.70656" fill-rule="evenodd"/></g></svg>