<svg version="1.1" viewBox="0.0 0.0 505.29396325459317 331.6482939632546" fill="none" stroke="none" stroke-linecap="square" stroke-miterlimit="10" xmlns:xlink="http://www.w3.org/1999/xlink" xmlns="http://www.w3.org/2000/svg"><clipPath id="p.0"><path d="m0 0l505.29398 0l0 331.6483l-505.29398 0l0 -331.6483z" clip-rule="nonzero"/></clipPath><g clip-path="url(#p.0)"><path fill="#000000" fill-opacity="0.0" d="m0 0l505.29398 0l0 331.6483l-505.29398 0z" fill-rule="evenodd"/><path fill="#cfe2f3" d="m71.19423 21.073671l0 0c0 -4.9663143 4.0259857 -8.992307 8.992302 -8.992307l236.44058 0c2.3849182 0 4.6721497 0.94740105 6.3585205 2.6337852c1.6864014 1.6863852 2.633789 3.9736128 2.633789 6.3585215l0 35.968147c0 4.9663124 -4.0259705 8.992302 -8.99231 8.992302l-236.44058 0c-4.966316 0 -8.992302 -4.0259895 -8.992302 -8.992302z" fill-rule="evenodd"/><path stroke="#000000" stroke-width="1.0" stroke-linejoin="round" stroke-linecap="butt" d="m71.19423 21.073671l0 0c0 -4.9663143 4.0259857 -8.992307 8.992302 -8.992307l236.44058 0c2.3849182 0 4.6721497 0.94740105 6.3585205 2.6337852c1.6864014 1.6863852 2.633789 3.9736128 2.633789 6.3585215l0 35.968147c0 4.9663124 -4.0259705 8.992302 -8.99231 8.992302l-236.44058 0c-4.966316 0 -8.992302 -4.0259895 -8.992302 -8.992302z" fill-rule="evenodd"/><path fill="#000000" d="m95.684166 47.597744l-0.046875 -1.578125q-0.96875 0.9375 -1.953125 1.375q-0.984375 0.421875 -2.078125 0.421875q-1.015625 0 -1.734375 -0.265625q-0.703125 -0.265625 -1.171875 -0.703125q-0.453125 -0.453125 -0.671875 -1.0625q-0.21875 -0.609375 -0.21875 -1.328125q0 -1.765625 1.3125 -2.765625q1.328125 -1.015625 3.90625 -1.015625l2.4375 0l0 -1.03125q0 -1.03125 -0.671875 -1.65625q-0.671875 -0.640625 -2.046875 -0.640625q-0.984375 0 -1.953125 0.234375q-0.96875 0.21875 -2.0 0.625l0 -1.84375q0.390625 -0.140625 0.859375 -0.265625q0.46875 -0.140625 1.0 -0.234375q0.53125 -0.109375 1.09375 -0.171875q0.578125 -0.078125 1.171875 -0.078125q1.0625 0 1.921875 0.234375q0.859375 0.234375 1.4375 0.71875q0.59375 0.484375 0.90625 1.21875q0.328125 0.71875 0.328125 1.703125l0 8.109375l-1.828125 0zm-0.21875 -5.359375l-2.59375 0q-0.765625 0 -1.3125 0.15625q-0.546875 0.15625 -0.90625 0.4375q-0.34375 0.28125 -0.515625 0.671875q-0.171875 0.390625 -0.171875 0.875q0 0.34375 0.09375 0.65625q0.109375 0.3125 0.34375 0.5625q0.234375 0.234375 0.609375 0.375q0.375 0.140625 0.921875 0.140625q0.703125 0 1.609375 -0.421875q0.90625 -0.4375 1.921875 -1.359375l0 -2.09375zm9.8671875 -9.53125l-3.484375 0l0 -1.671875l5.546875 0l0 14.859375l3.5 0l0 1.703125l-9.4375 0l0 -1.703125l3.875 0l0 -13.1875zm17.648438 4.78125q0.328125 0.421875 0.515625 0.96875q0.1875 0.53125 0.1875 1.171875q0 0.90625 -0.34375 1.671875q-0.328125 0.75 -0.9375 1.296875q-0.609375 0.53125 -1.46875 0.828125q-0.84375 0.296875 -1.859375 0.296875q-0.734375 0 -1.390625 -0.15625q-0.640625 -0.15625 -1.015625 -0.390625q-0.21875 0.328125 -0.375 0.625q-0.15625 0.296875 -0.15625 0.65625q0 0.4375 0.421875 0.734375q0.4375 0.296875 1.140625 0.3125l3.09375 0.125q0.875 0.015625 1.625 0.21875q0.75 0.203125 1.28125 0.578125q0.53125 0.375 0.828125 0.9375q0.296875 0.546875 0.296875 1.265625q0 0.78125 -0.34375 1.484375q-0.328125 0.703125 -1.046875 1.234375q-0.703125 0.546875 -1.796875 0.859375q-1.09375 0.3125 -2.59375 0.3125q-1.421875 0 -2.421875 -0.234375q-1.0 -0.21875 -1.65625 -0.625q-0.640625 -0.40625 -0.9375 -0.96875q-0.28125 -0.546875 -0.28125 -1.21875q0 -0.859375 0.390625 -1.5q0.40625 -0.640625 1.234375 -1.25q-0.3125 -0.140625 -0.53125 -0.34375q-0.21875 -0.21875 -0.359375 -0.46875q-0.140625 -0.25 -0.21875 -0.53125q-0.0625 -0.28125 -0.0625 -0.546875q0 -0.765625 0.359375 -1.390625q0.359375 -0.640625 0.84375 -1.203125q-0.21875 -0.265625 -0.390625 -0.515625q-0.171875 -0.265625 -0.296875 -0.5625q-0.125 -0.296875 -0.1875 -0.640625q-0.0625 -0.359375 -0.0625 -0.796875q0 -0.921875 0.328125 -1.671875q0.34375 -0.75 0.9375 -1.28125q0.609375 -0.546875 1.453125 -0.84375q0.859375 -0.3125 1.890625 -0.3125q0.4375 0 0.828125 0.0625q0.40625 0.0625 0.703125 0.15625l4.265625 0l0 1.65625l-1.890625 0zm-7.078125 11.8125q0 0.828125 0.859375 1.203125q0.875 0.390625 2.421875 0.390625q0.984375 0 1.640625 -0.1875q0.65625 -0.171875 1.0625 -0.453125q0.40625 -0.28125 0.578125 -0.65625q0.1875 -0.375 0.1875 -0.75q0 -0.71875 -0.59375 -1.0625q-0.578125 -0.34375 -1.796875 -0.40625l-3.0625 -0.09375q-0.390625 0.25 -0.640625 0.5q-0.25 0.25 -0.390625 0.5q-0.140625 0.25 -0.203125 0.5q-0.0625 0.25 -0.0625 0.515625zm0.625 -9.625q0 0.5625 0.1875 1.03125q0.1875 0.46875 0.53125 0.796875q0.34375 0.328125 0.796875 0.515625q0.46875 0.171875 1.03125 0.171875q0.609375 0 1.078125 -0.203125q0.484375 -0.203125 0.796875 -0.546875q0.328125 -0.359375 0.5 -0.8125q0.171875 -0.46875 0.171875 -0.953125q0 -0.5625 -0.1875 -1.03125q-0.1875 -0.46875 -0.53125 -0.796875q-0.34375 -0.328125 -0.8125 -0.5q-0.453125 -0.1875 -1.015625 -0.1875q-0.609375 0 -1.09375 0.21875q-0.46875 0.203125 -0.796875 0.546875q-0.3125 0.34375 -0.484375 0.796875q-0.171875 0.453125 -0.171875 0.953125zm21.117195 1.421875q0 0.421875 -0.015625 0.71875q0 0.296875 -0.03125 0.546875l-8.265625 0q0 1.8125 1.0 2.78125q1.015625 0.96875 2.921875 0.96875q0.515625 0 1.03125 -0.046875q0.515625 -0.046875 0.984375 -0.109375q0.484375 -0.078125 0.921875 -0.15625q0.453125 -0.09375 0.828125 -0.203125l0 1.6875q-0.84375 0.234375 -1.890625 0.375q-1.046875 0.15625 -2.171875 0.15625q-1.515625 0 -2.609375 -0.40625q-1.078125 -0.421875 -1.78125 -1.203125q-0.6875076 -0.78125 -1.0312576 -1.90625q-0.328125 -1.140625 -0.328125 -2.5625q0 -1.25 0.359375 -2.34375q0.359375 -1.109375 1.0312576 -1.953125q0.6875 -0.84375 1.6875 -1.328125q1.0 -0.5 2.265625 -0.5q1.234375 0 2.171875 0.390625q0.953125 0.390625 1.59375 1.109375q0.65625 0.703125 0.984375 1.71875q0.34375 1.0 0.34375 2.265625zm-2.125 -0.296875q0.046875 -0.78125 -0.140625 -1.4375q-0.1875 -0.65625 -0.59375 -1.125q-0.390625 -0.46875 -0.984375 -0.71875q-0.578125 -0.265625 -1.34375 -0.265625q-0.671875 0 -1.21875 0.265625q-0.546875 0.25 -0.953125 0.71875q-0.390625 0.46875 -0.640625 1.125q-0.25 0.65625 -0.3125 1.4375l6.1875 0zm15.4453125 0.703125q0 1.46875 -0.40625 2.625q-0.40625 1.140625 -1.15625 1.953125q-0.734375 0.796875 -1.8125 1.234375q-1.0625 0.421875 -2.390625 0.421875q-1.046875 0 -2.140625 -0.203125q-1.09375 -0.203125 -2.15625 -0.625l0 -15.875l2.046875 0l0 4.5625l-0.09375 2.171875q0.875 -1.171875 1.875 -1.65625q1.0 -0.5 2.15625 -0.5q1.0 0 1.765625 0.421875q0.765625 0.421875 1.28125 1.203125q0.515625 0.765625 0.765625 1.84375q0.265625 1.078125 0.265625 2.421875zm-2.09375 0.09375q0 -0.921875 -0.140625 -1.6875q-0.125 -0.78125 -0.421875 -1.328125q-0.296875 -0.5625 -0.75 -0.875q-0.453125 -0.3125 -1.09375 -0.3125q-0.375 0 -0.78125 0.125q-0.390625 0.125 -0.828125 0.421875q-0.421875 0.28125 -0.90625 0.765625q-0.46875 0.46875 -1.0 1.171875l0 5.703125q0.59375 0.234375 1.203125 0.375q0.625 0.125 1.1875 0.125q0.703125 0 1.34375 -0.21875q0.640625 -0.21875 1.125 -0.734375q0.484375 -0.53125 0.765625 -1.390625q0.296875 -0.859375 0.296875 -2.140625zm5.7109375 -5.765625l1.859375 0l0.0625 2.171875q1.046875 -1.265625 2.046875 -1.828125q1.015625 -0.5625 2.046875 -0.5625q1.828125 0 2.765625 1.1875q0.953125 1.1875 0.890625 3.515625l-2.0625 0q0.03125 -1.546875 -0.453125 -2.234375q-0.484375 -0.703125 -1.421875 -0.703125q-0.421875 0 -0.84375 0.15625q-0.40625 0.140625 -0.84375 0.46875q-0.4375 0.3125 -0.9375 0.8125q-0.484375 0.5 -1.046875 1.21875l0 7.5625l-2.0625 0l0 -11.765625zm20.273438 11.765625l-0.046875 -1.578125q-0.96875 0.9375 -1.953125 1.375q-0.984375 0.421875 -2.078125 0.421875q-1.015625 0 -1.734375 -0.265625q-0.703125 -0.265625 -1.171875 -0.703125q-0.453125 -0.453125 -0.671875 -1.0625q-0.21875 -0.609375 -0.21875 -1.328125q0 -1.765625 1.3125 -2.765625q1.328125 -1.015625 3.90625 -1.015625l2.4375 0l0 -1.03125q0 -1.03125 -0.671875 -1.65625q-0.671875 -0.640625 -2.046875 -0.640625q-0.984375 0 -1.953125 0.234375q-0.96875 0.21875 -2.0 0.625l0 -1.84375q0.390625 -0.140625 0.859375 -0.265625q0.46875 -0.140625 1.0 -0.234375q0.53125 -0.109375 1.09375 -0.171875q0.578125 -0.078125 1.171875 -0.078125q1.0625 0 1.921875 0.234375q0.859375 0.234375 1.4375 0.71875q0.59375 0.484375 0.90625 1.21875q0.328125 0.71875 0.328125 1.703125l0 8.109375l-1.828125 0zm-0.21875 -5.359375l-2.59375 0q-0.765625 0 -1.3125 0.15625q-0.546875 0.15625 -0.90625 0.4375q-0.34375 0.28125 -0.515625 0.671875q-0.171875 0.390625 -0.171875 0.875q0 0.34375 0.09375 0.65625q0.109375 0.3125 0.34375 0.5625q0.234375 0.234375 0.609375 0.375q0.375 0.140625 0.921875 0.140625q0.703125 0 1.609375 -0.421875q0.90625 -0.4375 1.921875 -1.359375l0 -2.09375zm10.4765625 1.671875q0.40625 0 0.765625 0.15625q0.359375 0.140625 0.609375 0.421875q0.265625 0.265625 0.421875 0.625q0.15625 0.34375 0.15625 0.765625q0 0.390625 -0.15625 0.75q-0.15625 0.34375 -0.421875 0.609375q-0.25 0.265625 -0.609375 0.421875q-0.359375 0.15625 -0.765625 0.15625q-0.40625 0 -0.765625 -0.15625q-0.34375 -0.15625 -0.609375 -0.421875q-0.265625 -0.265625 -0.421875 -0.609375q-0.140625 -0.359375 -0.140625 -0.75q0 -0.421875 0.140625 -0.765625q0.15625 -0.359375 0.421875 -0.625q0.265625 -0.28125 0.609375 -0.421875q0.359375 -0.15625 0.765625 -0.15625zm17.757812 3.6875l-8.703125 0l0 -15.3125l8.703125 0l0 1.75l-6.625 0l0 4.75l6.375 0l0 1.75l-6.375 0l0 5.28125l6.625 0l0 1.78125zm4.0078125 -11.765625l1.8125 0l0.09375 1.890625q0.515625 -0.609375 0.984375 -1.0q0.484375 -0.40625 0.9375 -0.65625q0.46875 -0.25 0.953125 -0.34375q0.484375 -0.109375 1.0 -0.109375q1.8125 0 2.734375 1.078125q0.9375 1.078125 0.9375 3.234375l0 7.671875l-2.03125 0l0 -7.515625q0 -1.375 -0.515625 -2.03125q-0.515625 -0.671875 -1.53125 -0.671875q-0.375 0 -0.734375 0.109375q-0.359375 0.109375 -0.75 0.390625q-0.390625 0.265625 -0.84375 0.734375q-0.4375 0.46875 -1.0 1.171875l0 7.8125l-2.046875 0l0 -11.765625zm12.6015625 6.125q0 -1.5 0.40625 -2.65625q0.40625 -1.171875 1.15625 -1.96875q0.765625 -0.8125 1.828125 -1.21875q1.0625 -0.421875 2.359375 -0.421875q0.5625 0 1.109375 0.078125q0.546875 0.0625 1.078125 0.21875l0 -4.953125l2.046875 0l0 16.5625l-1.828125 0l-0.078125 -2.234375q-0.84375 1.25 -1.84375 1.859375q-1.0 0.59375 -2.15625 0.59375q-1.015625 0 -1.78125 -0.421875q-0.765625 -0.4375 -1.28125 -1.203125q-0.5 -0.765625 -0.765625 -1.84375q-0.25 -1.078125 -0.25 -2.390625zm2.078125 -0.125q0 2.125 0.625 3.1875q0.640625 1.046875 1.78125 1.046875q0.78125 0 1.640625 -0.6875q0.859375 -0.703125 1.8125 -2.0625l0 -5.453125q-0.515625 -0.234375 -1.125 -0.359375q-0.609375 -0.125 -1.203125 -0.125q-1.65625 0 -2.59375 1.078125q-0.9375 1.078125 -0.9375 3.375zm21.773438 -0.328125q0 1.5625 -0.453125 2.734375q-0.4375 1.171875 -1.21875 1.953125q-0.765625 0.765625 -1.828125 1.15625q-1.046875 0.390625 -2.265625 0.390625q-0.5625 0 -1.125 -0.0625q-0.5625 -0.046875 -1.125 -0.203125l0 4.9375l-2.046875 0l0 -16.578125l1.8125 0l0.140625 1.96875q0.875 -1.203125 1.859375 -1.6875q1.0 -0.5 2.171875 -0.5q1.0 0 1.765625 0.421875q0.765625 0.421875 1.28125 1.203125q0.515625 0.765625 0.765625 1.84375q0.265625 1.078125 0.265625 2.421875zm-2.09375 0.09375q0 -0.921875 -0.140625 -1.6875q-0.125 -0.78125 -0.421875 -1.328125q-0.296875 -0.5625 -0.75 -0.875q-0.453125 -0.3125 -1.09375 -0.3125q-0.375 0 -0.78125 0.125q-0.390625 0.125 -0.828125 0.421875q-0.421875 0.28125 -0.90625 0.765625q-0.46875 0.46875 -1.0 1.171875l0 5.703125q0.5625 0.234375 1.171875 0.375q0.625 0.125 1.21875 0.125q1.65625 0 2.59375 -1.109375q0.9375 -1.125 0.9375 -3.375zm15.4765625 0.015625q0 1.375 -0.390625 2.515625q-0.390625 1.140625 -1.125 1.96875q-0.71875 0.8125 -1.765625 1.265625q-1.03125 0.453125 -2.359375 0.453125q-1.265625 0 -2.265625 -0.390625q-1.0 -0.40625 -1.703125 -1.15625q-0.703125 -0.765625 -1.078125 -1.890625q-0.359375 -1.125 -0.359375 -2.59375q0 -1.375 0.390625 -2.5q0.390625 -1.140625 1.109375 -1.953125q0.734375 -0.8125 1.765625 -1.265625q1.046875 -0.453125 2.375 -0.453125q1.265625 0 2.265625 0.40625q1.0 0.390625 1.6875 1.140625q0.703125 0.75 1.078125 1.875q0.375 1.125 0.375 2.578125zm-2.09375 0.09375q0 -1.078125 -0.25 -1.890625q-0.234375 -0.828125 -0.6875 -1.359375q-0.4375 -0.546875 -1.078125 -0.828125q-0.625 -0.28125 -1.421875 -0.28125q-0.90625 0 -1.5625 0.359375q-0.640625 0.359375 -1.0625 0.96875q-0.421875 0.59375 -0.609375 1.390625q-0.1875 0.78125 -0.1875 1.640625q0 1.09375 0.234375 1.921875q0.234375 0.8125 0.671875 1.359375q0.453125 0.546875 1.078125 0.828125q0.640625 0.265625 1.4375 0.265625q0.921875 0 1.5625 -0.359375q0.65625 -0.359375 1.0625 -0.953125q0.421875 -0.59375 0.609375 -1.375q0.203125 -0.796875 0.203125 -1.6875zm9.0546875 -4.1875l-3.484375 0l0 -1.6875l5.546875 0l0 10.0625l3.5 0l0 1.703125l-9.4375 0l0 -1.703125l3.875 0l0 -8.375zm0.703125 -6.625q0.34375 0 0.640625 0.125q0.296875 0.125 0.5 0.34375q0.21875 0.21875 0.34375 0.515625q0.125 0.28125 0.125 0.625q0 0.328125 -0.125 0.625q-0.125 0.28125 -0.34375 0.515625q-0.203125 0.21875 -0.5 0.34375q-0.296875 0.125 -0.640625 0.125q-0.328125 0 -0.625 -0.125q-0.296875 -0.125 -0.515625 -0.34375q-0.21875 -0.234375 -0.34375 -0.515625q-0.109375 -0.296875 -0.109375 -0.625q0 -0.34375 0.109375 -0.625q0.125 -0.296875 0.34375 -0.515625q0.21875 -0.21875 0.515625 -0.34375q0.296875 -0.125 0.625 -0.125zm8.4765625 4.9375l1.8125 0l0.09375 1.890625q0.515625 -0.609375 0.984375 -1.0q0.484375 -0.40625 0.9375 -0.65625q0.46875 -0.25 0.953125 -0.34375q0.484375 -0.109375 1.0 -0.109375q1.8125 0 2.734375 1.078125q0.9375 1.078125 0.9375 3.234375l0 7.671875l-2.03125 0l0 -7.515625q0 -1.375 -0.515625 -2.03125q-0.515625 -0.671875 -1.53125 -0.671875q-0.375 0 -0.734375 0.109375q-0.359375 0.109375 -0.75 0.390625q-0.390625 0.265625 -0.84375 0.734375q-0.4375 0.46875 -1.0 1.171875l0 7.8125l-2.046875 0l0 -11.765625zm22.679688 11.59375q-0.6875 0.1875 -1.4375 0.265625q-0.734375 0.078125 -1.5 0.078125q-2.203125 0 -3.296875 -1.0q-1.09375 -1.015625 -1.09375 -3.09375l0 -6.140625l-3.296875 0l0 -1.703125l3.296875 0l0 -3.234375l2.046875 -0.53125l0 3.765625l5.28125 0l0 1.703125l-5.28125 0l0 5.984375q0 1.265625 0.671875 1.890625q0.671875 0.625 1.984375 0.625q0.5625 0 1.21875 -0.078125q0.671875 -0.09375 1.40625 -0.28125l0 1.75zm13.0234375 -3.046875q0 0.625 -0.21875 1.125q-0.203125 0.484375 -0.5625 0.875q-0.359375 0.375 -0.84375 0.640625q-0.484375 0.265625 -1.03125 0.453125q-0.53125 0.171875 -1.109375 0.25q-0.578125 0.09375 -1.125 0.09375q-1.203125 0 -2.203125 -0.109375q-1.0 -0.109375 -1.953125 -0.34375l0 -1.875q1.03125 0.296875 2.046875 0.453125q1.015625 0.140625 2.03125 0.140625q1.453125 0 2.15625 -0.390625q0.703125 -0.40625 0.703125 -1.140625q0 -0.3125 -0.109375 -0.5625q-0.109375 -0.265625 -0.40625 -0.484375q-0.28125 -0.234375 -0.90625 -0.46875q-0.609375 -0.25 -1.671875 -0.578125q-0.796875 -0.234375 -1.484375 -0.53125q-0.671875 -0.296875 -1.171875 -0.703125q-0.484375 -0.40625 -0.765625 -0.953125q-0.28125 -0.5625 -0.28125 -1.3125q0 -0.484375 0.234375 -1.0625q0.234375 -0.59375 0.78125 -1.09375q0.546875 -0.515625 1.484375 -0.84375q0.9375 -0.34375 2.34375 -0.34375q0.6875 0 1.53125 0.078125q0.84375 0.078125 1.765625 0.265625l0 1.8125q-0.96875 -0.234375 -1.828125 -0.34375q-0.859375 -0.109375 -1.484375 -0.109375q-0.765625 0 -1.296875 0.125q-0.515625 0.109375 -0.84375 0.3125q-0.3125 0.203125 -0.453125 0.484375q-0.140625 0.28125 -0.140625 0.59375q0 0.3125 0.125 0.578125q0.125 0.25 0.453125 0.5q0.328125 0.234375 0.921875 0.484375q0.609375 0.234375 1.5625 0.515625q1.046875 0.296875 1.765625 0.640625q0.71875 0.328125 1.15625 0.734375q0.453125 0.40625 0.640625 0.921875q0.1875 0.515625 0.1875 1.171875z" fill-rule="nonzero"/><path fill="#000000" fill-opacity="0.0" d="m324.19946 120.56711l0 0c0 -4.966316 4.026001 -8.992302 8.99231 -8.992302l127.779175 0c2.3849182 0 4.6721497 0.9473953 6.3585205 2.6337814c1.6863708 1.6863861 2.633789 3.97361 2.633789 6.3585205l0 35.96814c0 4.966324 -4.026001 8.99231 -8.99231 8.99231l-127.779175 0c-4.9663086 0 -8.99231 -4.0259857 -8.99231 -8.99231z" fill-rule="evenodd"/><path stroke="#000000" stroke-width="1.0" stroke-linejoin="round" stroke-linecap="butt" d="m324.19946 120.56711l0 0c0 -4.966316 4.026001 -8.992302 8.99231 -8.992302l127.779175 0c2.3849182 0 4.6721497 0.9473953 6.3585205 2.6337814c1.6863708 1.6863861 2.633789 3.97361 2.633789 6.3585205l0 35.96814c0 4.966324 -4.026001 8.99231 -8.99231 8.99231l-127.779175 0c-4.9663086 0 -8.99231 -4.0259857 -8.99231 -8.99231z" fill-rule="evenodd"/><path fill="#000000" d="m355.31573 146.65369q-0.796875 0.3125 -1.640625 0.453125q-0.828125 0.15625 -1.71875 0.15625q-2.796875 0 -4.296875 -1.515625q-1.5 -1.515625 -1.5 -4.421875q0 -1.390625 0.421875 -2.53125q0.4375 -1.140625 1.21875 -1.9375q0.796875 -0.8125 1.875 -1.25q1.09375 -0.453125 2.40625 -0.453125q0.921875 0 1.71875 0.140625q0.796875 0.125 1.515625 0.421875l0 1.9375q-0.765625 -0.390625 -1.5625 -0.578125q-0.78125 -0.1875 -1.625 -0.1875q-0.78125 0 -1.484375 0.3125q-0.6875 0.296875 -1.21875 0.859375q-0.53125 0.5625 -0.84375 1.375q-0.296875 0.796875 -0.296875 1.8125q0 2.140625 1.03125 3.203125q1.046875 1.0625 2.890625 1.0625q0.828125 0 1.609375 -0.1875q0.78125 -0.1875 1.5 -0.5625l0 1.890625zm14.3046875 -5.546875q0 1.375 -0.390625 2.515625q-0.390625 1.140625 -1.125 1.96875q-0.71875 0.8125 -1.765625 1.265625q-1.03125 0.453125 -2.359375 0.453125q-1.265625 0 -2.265625 -0.390625q-1.0 -0.40625 -1.703125 -1.15625q-0.703125 -0.765625 -1.078125 -1.890625q-0.359375 -1.125 -0.359375 -2.59375q0 -1.375 0.390625 -2.5q0.390625 -1.140625 1.109375 -1.953125q0.734375 -0.8125 1.765625 -1.265625q1.046875 -0.453125 2.375 -0.453125q1.265625 0 2.265625 0.40625q1.0 0.390625 1.6875 1.140625q0.703125 0.75 1.078125 1.875q0.375 1.125 0.375 2.578125zm-2.09375 0.09375q0 -1.078125 -0.25 -1.890625q-0.234375 -0.828125 -0.6875 -1.359375q-0.4375 -0.546875 -1.078125 -0.828125q-0.625 -0.28125 -1.421875 -0.28125q-0.90625 0 -1.5625 0.359375q-0.640625 0.359375 -1.0625 0.96875q-0.421875 0.59375 -0.609375 1.390625q-0.1875 0.78125 -0.1875 1.640625q0 1.09375 0.234375 1.921875q0.234375 0.8125 0.671875 1.359375q0.453125 0.546875 1.078125 0.828125q0.640625 0.265625 1.4375 0.265625q0.921875 0 1.5625 -0.359375q0.65625 -0.359375 1.0625 -0.953125q0.421875 -0.59375 0.609375 -1.375q0.203125 -0.796875 0.203125 -1.6875zm13.4296875 5.890625l0 -8.453125q0 -0.546875 -0.046875 -0.890625q-0.03125 -0.359375 -0.125 -0.5625q-0.078125 -0.203125 -0.21875 -0.28125q-0.140625 -0.09375 -0.328125 -0.09375q-0.234375 0 -0.4375 0.140625q-0.203125 0.140625 -0.4375 0.46875q-0.21875 0.3125 -0.5 0.828125q-0.265625 0.515625 -0.640625 1.28125l0 7.5625l-1.875 0l0 -8.234375q0 -0.640625 -0.046875 -1.03125q-0.03125 -0.40625 -0.125 -0.625q-0.078125 -0.21875 -0.21875 -0.296875q-0.140625 -0.09375 -0.34375 -0.09375q-0.203125 0 -0.390625 0.125q-0.1875 0.109375 -0.421875 0.421875q-0.234375 0.296875 -0.515625 0.828125q-0.28125 0.53125 -0.65625 1.34375l0 7.5625l-1.875 0l0 -11.765625l1.546875 0l0.09375 2.234375q0.3125 -0.671875 0.59375 -1.140625q0.296875 -0.46875 0.59375 -0.75q0.3125 -0.28125 0.65625 -0.421875q0.34375 -0.140625 0.765625 -0.140625q0.953125 0 1.4375 0.625q0.5 0.625 0.5 1.921875q0.28125 -0.609375 0.546875 -1.078125q0.265625 -0.484375 0.578125 -0.796875q0.3125 -0.328125 0.6875 -0.5q0.375 -0.171875 0.859375 -0.171875q2.21875 0 2.21875 3.421875l0 8.5625l-1.875 0zm9.4296875 -3.6875q0.40625 0 0.765625 0.15625q0.359375 0.140625 0.609375 0.421875q0.265625 0.265625 0.421875 0.625q0.15625 0.34375 0.15625 0.765625q0 0.390625 -0.15625 0.75q-0.15625 0.34375 -0.421875 0.609375q-0.25 0.265625 -0.609375 0.421875q-0.359375 0.15625 -0.765625 0.15625q-0.40625 0 -0.765625 -0.15625q-0.34375 -0.15625 -0.609375 -0.421875q-0.265625 -0.265625 -0.421875 -0.609375q-0.140625 -0.359375 -0.140625 -0.75q0 -0.421875 0.140625 -0.765625q0.15625 -0.359375 0.421875 -0.625q0.265625 -0.28125 0.609375 -0.421875q0.359375 -0.15625 0.765625 -0.15625zm19.773438 3.6875l-2.265625 0l-1.078125 -3.34375l-6.375 0l-1.078125 3.34375l-2.15625 0l5.078125 -15.3125l2.859375 0l5.015625 15.3125zm-3.9375 -5.203125l-2.59375 -8.1875l-2.578125 8.1875l5.171875 0zm15.3828125 5.203125l-1.828125 0l-0.0625 -1.90625q-0.53125 0.609375 -1.015625 1.015625q-0.46875 0.40625 -0.9375 0.65625q-0.46875 0.25 -0.9375 0.34375q-0.46875 0.109375 -1.0 0.109375q-1.8125 0 -2.75 -1.0625q-0.921875 -1.078125 -0.921875 -3.234375l0 -7.6875l2.046875 0l0 7.515625q0 2.71875 2.03125 2.71875q0.375 0 0.734375 -0.109375q0.359375 -0.125 0.75 -0.390625q0.390625 -0.28125 0.84375 -0.75q0.453125 -0.46875 1.015625 -1.1875l0 -7.796875l2.03125 0l0 11.765625zm13.2265625 -0.171875q-0.6875 0.1875 -1.4375 0.265625q-0.734375 0.078125 -1.5 0.078125q-2.203125 0 -3.296875 -1.0q-1.09375 -1.015625 -1.09375 -3.09375l0 -6.140625l-3.296875 0l0 -1.703125l3.296875 0l0 -3.234375l2.046875 -0.53125l0 3.765625l5.28125 0l0 1.703125l-5.28125 0l0 5.984375q0 1.265625 0.671875 1.890625q0.671875 0.625 1.984375 0.625q0.5625 0 1.21875 -0.078125q0.671875 -0.09375 1.40625 -0.28125l0 1.75zm13.1640625 0.171875l-2.03125 0l0 -7.515625q0 -1.359375 -0.515625 -2.03125q-0.5 -0.671875 -1.453125 -0.671875q-0.40625 0 -0.765625 0.109375q-0.359375 0.109375 -0.75 0.390625q-0.390625 0.265625 -0.84375 0.734375q-0.453125 0.46875 -1.046875 1.171875l0 7.8125l-2.046875 0l0 -16.5625l2.046875 0l0 4.796875l-0.078125 1.84375q0.484375 -0.5625 0.9375 -0.953125q0.46875 -0.40625 0.921875 -0.640625q0.46875 -0.25 0.953125 -0.359375q0.484375 -0.109375 1.0 -0.109375q1.75 0 2.703125 1.078125q0.96875 1.078125 0.96875 3.234375l0 7.671875z" fill-rule="nonzero"/><path fill="#cfe2f3" d="m14.624672 172.84007l0 0c0 -4.9663086 4.0259933 -8.99231 8.992306 -8.99231l236.44058 0c2.3849182 0 4.6721497 0.94740295 6.3585205 2.633789c1.6864014 1.6863861 2.633789 3.9736176 2.633789 6.3585205l0 35.96814c0 4.966324 -4.026001 8.99231 -8.99231 8.99231l-236.44058 0c-4.9663124 0 -8.992306 -4.0259857 -8.992306 -8.99231z" fill-rule="evenodd"/><path stroke="#000000" stroke-width="1.0" stroke-linejoin="round" stroke-linecap="butt" d="m14.624672 172.84007l0 0c0 -4.9663086 4.0259933 -8.99231 8.992306 -8.99231l236.44058 0c2.3849182 0 4.6721497 0.94740295 6.3585205 2.633789c1.6864014 1.6863861 2.633789 3.9736176 2.633789 6.3585205l0 35.96814c0 4.966324 -4.026001 8.99231 -8.99231 8.99231l-236.44058 0c-4.9663124 0 -8.992306 -4.0259857 -8.992306 -8.99231z" fill-rule="evenodd"/><path fill="#000000" d="m47.46227 196.1454q0 0.625 -0.21875 1.125q-0.203125 0.484375 -0.5625 0.875q-0.359375 0.375 -0.84375 0.640625q-0.484375 0.265625 -1.03125 0.453125q-0.53125 0.171875 -1.109375 0.25q-0.578125 0.09375 -1.125 0.09375q-1.203125 0 -2.203125 -0.109375q-1.0 -0.109375 -1.953125 -0.34375l0 -1.875q1.03125 0.296875 2.046875 0.453125q1.015625 0.140625 2.03125 0.140625q1.453125 0 2.15625 -0.390625q0.703125 -0.40625 0.703125 -1.140625q0 -0.3125 -0.109375 -0.5625q-0.109375 -0.265625 -0.40625 -0.484375q-0.28125 -0.234375 -0.90625 -0.46875q-0.609375 -0.25 -1.671875 -0.578125q-0.796875 -0.234375 -1.484375 -0.53125q-0.671875 -0.296875 -1.171875 -0.703125q-0.484375 -0.40625 -0.765625 -0.953125q-0.28125 -0.5625 -0.28125 -1.3125q0 -0.484375 0.234375 -1.0625q0.234375 -0.59375 0.78125 -1.09375q0.546875 -0.515625 1.484375 -0.84375q0.9375 -0.34375 2.34375 -0.34375q0.6875 0 1.53125 0.078125q0.84375 0.078125 1.765625 0.265625l0 1.8125q-0.96875 -0.234375 -1.828125 -0.34375q-0.859375 -0.109375 -1.484375 -0.109375q-0.765625 0 -1.296875 0.125q-0.515625 0.109375 -0.84375 0.3125q-0.3125 0.203125 -0.453125 0.484375q-0.140625 0.28125 -0.140625 0.59375q0 0.3125 0.125 0.578125q0.125 0.25 0.453125 0.5q0.328125 0.234375 0.921875 0.484375q0.609375 0.234375 1.5625 0.515625q1.046875 0.296875 1.765625 0.640625q0.71875 0.328125 1.15625 0.734375q0.453125 0.40625 0.640625 0.921875q0.1875 0.515625 0.1875 1.171875zm13.8203125 -3.28125q0 0.421875 -0.015625 0.71875q0 0.296875 -0.03125 0.546875l-8.265625 0q0 1.8125 1.0 2.78125q1.015625 0.96875 2.921875 0.96875q0.515625 0 1.03125 -0.046875q0.515625 -0.046875 0.984375 -0.109375q0.484375 -0.078125 0.921875 -0.15625q0.453125 -0.09375 0.828125 -0.203125l0 1.6875q-0.84375 0.234375 -1.890625 0.375q-1.046875 0.15625 -2.171875 0.15625q-1.515625 0 -2.609375 -0.40625q-1.078125 -0.421875 -1.78125 -1.203125q-0.6875 -0.78125 -1.03125 -1.90625q-0.328125 -1.140625 -0.328125 -2.5625q0 -1.25 0.359375 -2.34375q0.359375 -1.109375 1.03125 -1.953125q0.6875 -0.84375 1.6875 -1.328125q1.0 -0.5 2.265625 -0.5q1.234375 0 2.171875 0.390625q0.953125 0.390625 1.59375 1.109375q0.65625 0.703125 0.984375 1.71875q0.34375 1.0 0.34375 2.265625zm-2.125 -0.296875q0.046875 -0.78125 -0.140625 -1.4375q-0.1875 -0.65625 -0.59375 -1.125q-0.390625 -0.46875 -0.984375 -0.71875q-0.578125 -0.265625 -1.34375 -0.265625q-0.671875 0 -1.21875 0.265625q-0.546875 0.25 -0.953125 0.71875q-0.390625 0.46875 -0.640625 1.125q-0.25 0.65625 -0.3125 1.4375l6.1875 0zm5.8671913 -4.96875l1.859375 0l0.0625 2.171875q1.046875 -1.265625 2.046875 -1.828125q1.015625 -0.5625 2.046875 -0.5625q1.828125 0 2.765625 1.1875q0.953125 1.1875 0.890625 3.515625l-2.0625 0q0.03125 -1.546875 -0.453125 -2.234375q-0.484375 -0.703125 -1.421875 -0.703125q-0.421875 0 -0.84375 0.15625q-0.40625 0.140625 -0.84375 0.46875q-0.4375 0.3125 -0.9375 0.8125q-0.484375 0.5 -1.046875 1.21875l0 7.5625l-2.0625 0l0 -11.765625zm11.6171875 0l2.3125 0l2.890625 7.78125l0.609375 1.890625l0.65625 -1.9375l2.859375 -7.734375l2.234375 0l-4.625 11.765625l-2.34375 0l-4.59375 -11.765625zm24.226562 5.265625q0 0.421875 -0.015625 0.71875q0 0.296875 -0.03125 0.546875l-8.265625 0q0 1.8125 1.0 2.78125q1.015625 0.96875 2.921875 0.96875q0.515625 0 1.03125 -0.046875q0.515625 -0.046875 0.984375 -0.109375q0.484375 -0.078125 0.921875 -0.15625q0.453125 -0.09375 0.828125 -0.203125l0 1.6875q-0.84375 0.234375 -1.890625 0.375q-1.046875 0.15625 -2.171875 0.15625q-1.515625 0 -2.609375 -0.40625q-1.078125 -0.421875 -1.78125 -1.203125q-0.6875 -0.78125 -1.03125 -1.90625q-0.328125 -1.140625 -0.328125 -2.5625q0 -1.25 0.359375 -2.34375q0.359375 -1.109375 1.03125 -1.953125q0.6875 -0.84375 1.6875 -1.328125q1.0 -0.5 2.265625 -0.5q1.234375 0 2.171875 0.390625q0.953125 0.390625 1.59375 1.109375q0.65625 0.703125 0.984375 1.71875q0.34375 1.0 0.34375 2.265625zm-2.125 -0.296875q0.046875 -0.78125 -0.140625 -1.4375q-0.1875 -0.65625 -0.59375 -1.125q-0.390625 -0.46875 -0.984375 -0.71875q-0.578125 -0.265625 -1.34375 -0.265625q-0.671875 0 -1.21875 0.265625q-0.546875 0.25 -0.953125 0.71875q-0.390625 0.46875 -0.640625 1.125q-0.25 0.65625 -0.3125 1.4375l6.1875 0zm5.8671875 -4.96875l1.859375 0l0.0625 2.171875q1.046875 -1.265625 2.046875 -1.828125q1.015625 -0.5625 2.046875 -0.5625q1.828125 0 2.765625 1.1875q0.953125 1.1875 0.890625 3.515625l-2.0625 0q0.03125 -1.546875 -0.453125 -2.234375q-0.484375 -0.703125 -1.421875 -0.703125q-0.421875 0 -0.84375 0.15625q-0.40625 0.140625 -0.84375 0.46875q-0.4375 0.3125 -0.9375 0.8125q-0.484375 0.5 -1.046875 1.21875l0 7.5625l-2.0625 0l0 -11.765625zm17.335938 8.078125q0.40625 0 0.765625 0.15625q0.359375 0.140625 0.609375 0.421875q0.265625 0.265625 0.421875 0.625q0.15625 0.34375 0.15625 0.765625q0 0.390625 -0.15625 0.75q-0.15625 0.34375 -0.421875 0.609375q-0.25 0.265625 -0.609375 0.421875q-0.359375 0.15625 -0.765625 0.15625q-0.40625 0 -0.765625 -0.15625q-0.34375 -0.15625 -0.609375 -0.421875q-0.265625 -0.265625 -0.421875 -0.609375q-0.140625 -0.359375 -0.140625 -0.75q0 -0.421875 0.140625 -0.765625q0.15625 -0.359375 0.421875 -0.625q0.265625 -0.28125 0.609375 -0.421875q0.359375 -0.15625 0.765625 -0.15625zm17.757805 3.6875l-8.703125 0l0 -15.3125l8.703125 0l0 1.75l-6.625 0l0 4.75l6.375 0l0 1.75l-6.375 0l0 5.28125l6.625 0l0 1.78125zm4.0078125 -11.765625l1.8125 0l0.09375 1.890625q0.515625 -0.609375 0.984375 -1.0q0.484375 -0.40625 0.9375 -0.65625q0.46875 -0.25 0.953125 -0.34375q0.484375 -0.109375 1.0 -0.109375q1.8125 0 2.734375 1.078125q0.9375 1.078125 0.9375 3.234375l0 7.671875l-2.03125 0l0 -7.515625q0 -1.375 -0.515625 -2.03125q-0.515625 -0.671875 -1.53125 -0.671875q-0.375 0 -0.734375 0.109375q-0.359375 0.109375 -0.75 0.390625q-0.390625 0.265625 -0.84375 0.734375q-0.4375 0.46875 -1.0 1.171875l0 7.8125l-2.046875 0l0 -11.765625zm12.6015625 6.125q0 -1.5 0.40625 -2.65625q0.40625 -1.171875 1.15625 -1.96875q0.765625 -0.8125 1.828125 -1.21875q1.0625 -0.421875 2.359375 -0.421875q0.5625 0 1.109375 0.078125q0.546875 0.0625 1.078125 0.21875l0 -4.953125l2.046875 0l0 16.5625l-1.828125 0l-0.078125 -2.234375q-0.84375 1.25 -1.84375 1.859375q-1.0 0.59375 -2.15625 0.59375q-1.015625 0 -1.78125 -0.421875q-0.765625 -0.4375 -1.28125 -1.203125q-0.5 -0.765625 -0.765625 -1.84375q-0.25 -1.078125 -0.25 -2.390625zm2.078125 -0.125q0 2.125 0.625 3.1875q0.640625 1.046875 1.78125 1.046875q0.78125 0 1.640625 -0.6875q0.859375 -0.703125 1.8125 -2.0625l0 -5.453125q-0.515625 -0.234375 -1.125 -0.359375q-0.609375 -0.125 -1.203125 -0.125q-1.65625 0 -2.59375 1.078125q-0.9375 1.078125 -0.9375 3.375zm21.773438 -0.328125q0 1.5625 -0.453125 2.734375q-0.4375 1.171875 -1.21875 1.953125q-0.765625 0.765625 -1.828125 1.15625q-1.046875 0.390625 -2.265625 0.390625q-0.5625 0 -1.125 -0.0625q-0.5625 -0.046875 -1.125 -0.203125l0 4.9375l-2.046875 0l0 -16.578125l1.8125 0l0.140625 1.96875q0.875 -1.203125 1.859375 -1.6875q1.0 -0.5 2.171875 -0.5q1.0 0 1.765625 0.421875q0.765625 0.421875 1.28125 1.203125q0.515625 0.765625 0.765625 1.84375q0.265625 1.078125 0.265625 2.421875zm-2.09375 0.09375q0 -0.921875 -0.140625 -1.6875q-0.125 -0.78125 -0.421875 -1.328125q-0.296875 -0.5625 -0.75 -0.875q-0.453125 -0.3125 -1.09375 -0.3125q-0.375 0 -0.78125 0.125q-0.390625 0.125 -0.828125 0.421875q-0.421875 0.28125 -0.90625 0.765625q-0.46875 0.46875 -1.0 1.171875l0 5.703125q0.5625 0.234375 1.171875 0.375q0.625 0.125 1.21875 0.125q1.65625 0 2.59375 -1.109375q0.9375 -1.125 0.9375 -3.375zm15.4765625 0.015625q0 1.375 -0.390625 2.515625q-0.390625 1.140625 -1.125 1.96875q-0.71875 0.8125 -1.765625 1.265625q-1.03125 0.453125 -2.359375 0.453125q-1.265625 0 -2.265625 -0.390625q-1.0 -0.40625 -1.703125 -1.15625q-0.703125 -0.765625 -1.078125 -1.890625q-0.359375 -1.125 -0.359375 -2.59375q0 -1.375 0.390625 -2.5q0.390625 -1.140625 1.109375 -1.953125q0.734375 -0.8125 1.765625 -1.265625q1.046875 -0.453125 2.375 -0.453125q1.265625 0 2.265625 0.40625q1.0 0.390625 1.6875 1.140625q0.703125 0.75 1.078125 1.875q0.375 1.125 0.375 2.578125zm-2.09375 0.09375q0 -1.078125 -0.25 -1.890625q-0.234375 -0.828125 -0.6875 -1.359375q-0.4375 -0.546875 -1.078125 -0.828125q-0.625 -0.28125 -1.421875 -0.28125q-0.90625 0 -1.5625 0.359375q-0.640625 0.359375 -1.0625 0.96875q-0.421875 0.59375 -0.609375 1.390625q-0.1875 0.78125 -0.1875 1.640625q0 1.09375 0.234375 1.921875q0.234375 0.8125 0.671875 1.359375q0.453125 0.546875 1.078125 0.828125q0.640625 0.265625 1.4375 0.265625q0.921875 0 1.5625 -0.359375q0.65625 -0.359375 1.0625 -0.953125q0.421875 -0.59375 0.609375 -1.375q0.203125 -0.796875 0.203125 -1.6875zm9.0546875 -4.1875l-3.484375 0l0 -1.6875l5.546875 0l0 10.0625l3.5 0l0 1.703125l-9.4375 0l0 -1.703125l3.875 0l0 -8.375zm0.703125 -6.625q0.34375 0 0.640625 0.125q0.296875 0.125 0.5 0.34375q0.21875 0.21875 0.34375 0.515625q0.125 0.28125 0.125 0.625q0 0.328125 -0.125 0.625q-0.125 0.28125 -0.34375 0.515625q-0.203125 0.21875 -0.5 0.34375q-0.296875 0.125 -0.640625 0.125q-0.328125 0 -0.625 -0.125q-0.296875 -0.125 -0.515625 -0.34375q-0.21875 -0.234375 -0.34375 -0.515625q-0.109375 -0.296875 -0.109375 -0.625q0 -0.34375 0.109375 -0.625q0.125 -0.296875 0.34375 -0.515625q0.21875 -0.21875 0.515625 -0.34375q0.296875 -0.125 0.625 -0.125zm8.4765625 4.9375l1.8125 0l0.09375 1.890625q0.515625 -0.609375 0.984375 -1.0q0.484375 -0.40625 0.9375 -0.65625q0.46875 -0.25 0.953125 -0.34375q0.484375 -0.109375 1.0 -0.109375q1.8125 0 2.734375 1.078125q0.9375 1.078125 0.9375 3.234375l0 7.671875l-2.03125 0l0 -7.515625q0 -1.375 -0.515625 -2.03125q-0.515625 -0.671875 -1.53125 -0.671875q-0.375 0 -0.734375 0.109375q-0.359375 0.109375 -0.75 0.390625q-0.390625 0.265625 -0.84375 0.734375q-0.4375 0.46875 -1.0 1.171875l0 7.8125l-2.046875 0l0 -11.765625zm22.679688 11.59375q-0.6875 0.1875 -1.4375 0.265625q-0.734375 0.078125 -1.5 0.078125q-2.203125 0 -3.296875 -1.0q-1.09375 -1.015625 -1.09375 -3.09375l0 -6.140625l-3.296875 0l0 -1.703125l3.296875 0l0 -3.234375l2.046875 -0.53125l0 3.765625l5.28125 0l0 1.703125l-5.28125 0l0 5.984375q0 1.265625 0.671875 1.890625q0.671875 0.625 1.984375 0.625q0.5625 0 1.21875 -0.078125q0.671875 -0.09375 1.40625 -0.28125l0 1.75zm13.0234375 -3.046875q0 0.625 -0.21875 1.125q-0.203125 0.484375 -0.5625 0.875q-0.359375 0.375 -0.84375 0.640625q-0.484375 0.265625 -1.03125 0.453125q-0.53125 0.171875 -1.109375 0.25q-0.578125 0.09375 -1.125 0.09375q-1.203125 0 -2.203125 -0.109375q-1.0 -0.109375 -1.953125 -0.34375l0 -1.875q1.03125 0.296875 2.046875 0.453125q1.015625 0.140625 2.03125 0.140625q1.453125 0 2.15625 -0.390625q0.703125 -0.40625 0.703125 -1.140625q0 -0.3125 -0.109375 -0.5625q-0.109375 -0.265625 -0.40625 -0.484375q-0.28125 -0.234375 -0.90625 -0.46875q-0.609375 -0.25 -1.671875 -0.578125q-0.796875 -0.234375 -1.484375 -0.53125q-0.671875 -0.296875 -1.171875 -0.703125q-0.484375 -0.40625 -0.765625 -0.953125q-0.28125 -0.5625 -0.28125 -1.3125q0 -0.484375 0.234375 -1.0625q0.234375 -0.59375 0.78125 -1.09375q0.546875 -0.515625 1.484375 -0.84375q0.9375 -0.34375 2.34375 -0.34375q0.6875 0 1.53125 0.078125q0.84375 0.078125 1.765625 0.265625l0 1.8125q-0.96875 -0.234375 -1.828125 -0.34375q-0.859375 -0.109375 -1.484375 -0.109375q-0.765625 0 -1.296875 0.125q-0.515625 0.109375 -0.84375 0.3125q-0.3125 0.203125 -0.453125 0.484375q-0.140625 0.28125 -0.140625 0.59375q0 0.3125 0.125 0.578125q0.125 0.25 0.453125 0.5q0.328125 0.234375 0.921875 0.484375q0.609375 0.234375 1.5625 0.515625q1.046875 0.296875 1.765625 0.640625q0.71875 0.328125 1.15625 0.734375q0.453125 0.40625 0.640625 0.921875q0.1875 0.515625 0.1875 1.171875z" fill-rule="nonzero"/><path fill="#000000" fill-opacity="0.0" d="m249.29921 269.03693l0 0c0 -4.9663086 4.026001 -8.99231 8.992294 -8.99231l221.41699 0c2.3848877 0 4.672119 0.9474182 6.3585205 2.633789c1.6863708 1.6863708 2.6337585 3.9736023 2.6337585 6.3585205l0 35.96814c0 4.9663086 -4.0259705 8.99231 -8.992279 8.99231l-221.41699 0c-4.9662933 0 -8.992294 -4.026001 -8.992294 -8.99231z" fill-rule="evenodd"/><path stroke="#000000" stroke-width="1.0" stroke-linejoin="round" stroke-linecap="butt" d="m249.29921 269.03693l0 0c0 -4.9663086 4.026001 -8.99231 8.992294 -8.99231l221.41699 0c2.3848877 0 4.672119 0.9474182 6.3585205 2.633789c1.6863708 1.6863708 2.6337585 3.9736023 2.6337585 6.3585205l0 35.96814c0 4.9663086 -4.0259705 8.99231 -8.992279 8.99231l-221.41699 0c-4.9662933 0 -8.992294 -4.026001 -8.992294 -8.99231z" fill-rule="evenodd"/><path fill="#000000" d="m281.05078 295.1235q-0.796875 0.3125 -1.640625 0.453125q-0.828125 0.15625 -1.71875 0.15625q-2.796875 0 -4.296875 -1.515625q-1.5 -1.515625 -1.5 -4.421875q0 -1.390625 0.421875 -2.53125q0.4375 -1.140625 1.21875 -1.9375q0.796875 -0.8125 1.875 -1.25q1.09375 -0.453125 2.40625 -0.453125q0.921875 0 1.71875 0.140625q0.796875 0.125 1.515625 0.421875l0 1.9375q-0.765625 -0.390625 -1.5625 -0.578125q-0.78125 -0.1875 -1.625 -0.1875q-0.78125 0 -1.484375 0.3125q-0.6875 0.296875 -1.21875 0.859375q-0.53125 0.5625 -0.84375 1.375q-0.296875 0.796875 -0.296875 1.8125q0 2.140625 1.03125 3.203125q1.046875 1.0625 2.890625 1.0625q0.828125 0 1.609375 -0.1875q0.78125 -0.1875 1.5 -0.5625l0 1.890625zm14.3046875 -5.546875q0 1.375 -0.390625 2.515625q-0.390625 1.140625 -1.125 1.96875q-0.71875 0.8125 -1.765625 1.265625q-1.03125 0.453125 -2.359375 0.453125q-1.265625 0 -2.265625 -0.390625q-1.0 -0.40625 -1.703125 -1.15625q-0.703125 -0.765625 -1.078125 -1.890625q-0.359375 -1.125 -0.359375 -2.59375q0 -1.375 0.390625 -2.5q0.390625 -1.140625 1.109375 -1.953125q0.734375 -0.8125 1.765625 -1.265625q1.046875 -0.453125 2.375 -0.453125q1.265625 0 2.265625 0.40625q1.0 0.390625 1.6875 1.140625q0.703125 0.75 1.078125 1.875q0.375 1.125 0.375 2.578125zm-2.09375 0.09375q0 -1.078125 -0.25 -1.890625q-0.234375 -0.828125 -0.6875 -1.359375q-0.4375 -0.546875 -1.078125 -0.828125q-0.625 -0.28125 -1.421875 -0.28125q-0.90625 0 -1.5625 0.359375q-0.640625 0.359375 -1.0625 0.96875q-0.421875 0.59375 -0.609375 1.390625q-0.1875 0.78125 -0.1875 1.640625q0 1.09375 0.234375 1.921875q0.234375 0.8125 0.671875 1.359375q0.453125 0.546875 1.078125 0.828125q0.640625 0.265625 1.4375 0.265625q0.921875 0 1.5625 -0.359375q0.65625 -0.359375 1.0625 -0.953125q0.421875 -0.59375 0.609375 -1.375q0.203125 -0.796875 0.203125 -1.6875zm13.4296875 5.890625l0 -8.453125q0 -0.546875 -0.046875 -0.890625q-0.03125 -0.359375 -0.125 -0.5625q-0.078125 -0.203125 -0.21875 -0.28125q-0.140625 -0.09375 -0.328125 -0.09375q-0.234375 0 -0.4375 0.140625q-0.203125 0.140625 -0.4375 0.46875q-0.21875 0.3125 -0.5 0.828125q-0.265625 0.515625 -0.640625 1.28125l0 7.5625l-1.875 0l0 -8.234375q0 -0.640625 -0.046875 -1.03125q-0.03125 -0.40625 -0.125 -0.625q-0.078125 -0.21875 -0.21875 -0.296875q-0.140625 -0.09375 -0.34375 -0.09375q-0.203125 0 -0.390625 0.125q-0.1875 0.109375 -0.421875 0.421875q-0.234375 0.296875 -0.515625 0.828125q-0.28125 0.53125 -0.65625 1.34375l0 7.5625l-1.875 0l0 -11.765625l1.546875 0l0.09375 2.234375q0.3125 -0.671875 0.59375 -1.140625q0.296875 -0.46875 0.59375 -0.75q0.3125 -0.28125 0.65625 -0.421875q0.34375 -0.140625 0.765625 -0.140625q0.953125 0 1.4375 0.625q0.5 0.625 0.5 1.921875q0.28125 -0.609375 0.546875 -1.078125q0.265625 -0.484375 0.578125 -0.796875q0.3125 -0.328125 0.6875 -0.5q0.375 -0.171875 0.859375 -0.171875q2.21875 0 2.21875 3.421875l0 8.5625l-1.875 0zm9.4296875 -3.6875q0.40625 0 0.765625 0.15625q0.359375 0.140625 0.609375 0.421875q0.265625 0.265625 0.421875 0.625q0.15625 0.34375 0.15625 0.765625q0 0.390625 -0.15625 0.75q-0.15625 0.34375 -0.421875 0.609375q-0.25 0.265625 -0.609375 0.421875q-0.359375 0.15625 -0.765625 0.15625q-0.40625 0 -0.765625 -0.15625q-0.34375 -0.15625 -0.609375 -0.421875q-0.265625 -0.265625 -0.421875 -0.609375q-0.140625 -0.359375 -0.140625 -0.75q0 -0.421875 0.140625 -0.765625q0.15625 -0.359375 0.421875 -0.625q0.265625 -0.28125 0.609375 -0.421875q0.359375 -0.15625 0.765625 -0.15625zm17.882812 0.46875q0 0.625 -0.21875 1.125q-0.203125 0.484375 -0.5625 0.875q-0.359375 0.375 -0.84375 0.640625q-0.484375 0.265625 -1.03125 0.453125q-0.53125 0.171875 -1.109375 0.25q-0.578125 0.09375 -1.125 0.09375q-1.203125 0 -2.203125 -0.109375q-1.0 -0.109375 -1.953125 -0.34375l0 -1.875q1.03125 0.296875 2.046875 0.453125q1.015625 0.140625 2.03125 0.140625q1.453125 0 2.15625 -0.390625q0.703125 -0.40625 0.703125 -1.140625q0 -0.3125 -0.109375 -0.5625q-0.109375 -0.265625 -0.40625 -0.484375q-0.28125 -0.234375 -0.90625 -0.46875q-0.609375 -0.25 -1.671875 -0.578125q-0.796875 -0.234375 -1.484375 -0.53125q-0.671875 -0.296875 -1.171875 -0.703125q-0.484375 -0.40625 -0.765625 -0.953125q-0.28125 -0.5625 -0.28125 -1.3125q0 -0.484375 0.234375 -1.0625q0.234375 -0.59375 0.78125 -1.09375q0.546875 -0.515625 1.484375 -0.84375q0.9375 -0.34375 2.34375 -0.34375q0.6875 0 1.53125 0.078125q0.84375 0.078125 1.765625 0.265625l0 1.8125q-0.96875 -0.234375 -1.828125 -0.34375q-0.859375 -0.109375 -1.484375 -0.109375q-0.765625 0 -1.296875 0.125q-0.515625 0.109375 -0.84375 0.3125q-0.3125 0.203125 -0.453125 0.484375q-0.140625 0.28125 -0.140625 0.59375q0 0.3125 0.125 0.578125q0.125 0.25 0.453125 0.5q0.328125 0.234375 0.921875 0.484375q0.609375 0.234375 1.5625 0.515625q1.046875 0.296875 1.765625 0.640625q0.71875 0.328125 1.15625 0.734375q0.453125 0.40625 0.640625 0.921875q0.1875 0.515625 0.1875 1.171875zm13.8203125 -3.28125q0 0.421875 -0.015625 0.71875q0 0.296875 -0.03125 0.546875l-8.265625 0q0 1.8125 1.0 2.78125q1.015625 0.96875 2.921875 0.96875q0.515625 0 1.03125 -0.046875q0.515625 -0.046875 0.984375 -0.109375q0.484375 -0.078125 0.921875 -0.15625q0.453125 -0.09375 0.828125 -0.203125l0 1.6875q-0.84375 0.234375 -1.890625 0.375q-1.046875 0.15625 -2.171875 0.15625q-1.515625 0 -2.609375 -0.40625q-1.078125 -0.421875 -1.78125 -1.203125q-0.6875 -0.78125 -1.03125 -1.90625q-0.328125 -1.140625 -0.328125 -2.5625q0 -1.25 0.359375 -2.34375q0.359375 -1.109375 1.03125 -1.953125q0.6875 -0.84375 1.6875 -1.328125q1.0 -0.5 2.265625 -0.5q1.234375 0 2.171875 0.390625q0.953125 0.390625 1.59375 1.109375q0.65625 0.703125 0.984375 1.71875q0.34375 1.0 0.34375 2.265625zm-2.125 -0.296875q0.046875 -0.78125 -0.140625 -1.4375q-0.1875 -0.65625 -0.59375 -1.125q-0.390625 -0.46875 -0.984375 -0.71875q-0.578125 -0.265625 -1.34375 -0.265625q-0.671875 0 -1.21875 0.265625q-0.546875 0.25 -0.953125 0.71875q-0.390625 0.46875 -0.640625 1.125q-0.25 0.65625 -0.3125 1.4375l6.1875 0zm5.8671875 -4.96875l1.859375 0l0.0625 2.171875q1.046875 -1.265625 2.046875 -1.828125q1.015625 -0.5625 2.046875 -0.5625q1.828125 0 2.765625 1.1875q0.953125 1.1875 0.890625 3.515625l-2.0625 0q0.03125 -1.546875 -0.453125 -2.234375q-0.484375 -0.703125 -1.421875 -0.703125q-0.421875 0 -0.84375 0.15625q-0.40625 0.140625 -0.84375 0.46875q-0.4375 0.3125 -0.9375 0.8125q-0.484375 0.5 -1.046875 1.21875l0 7.5625l-2.0625 0l0 -11.765625zm11.6171875 0l2.3125 0l2.890625 7.78125l0.609375 1.890625l0.65625 -1.9375l2.859375 -7.734375l2.234375 0l-4.625 11.765625l-2.34375 0l-4.59375 -11.765625zm24.226562 5.265625q0 0.421875 -0.015625 0.71875q0 0.296875 -0.03125 0.546875l-8.265625 0q0 1.8125 1.0 2.78125q1.015625 0.96875 2.921875 0.96875q0.515625 0 1.03125 -0.046875q0.515625 -0.046875 0.984375 -0.109375q0.484375 -0.078125 0.921875 -0.15625q0.453125 -0.09375 0.828125 -0.203125l0 1.6875q-0.84375 0.234375 -1.890625 0.375q-1.046875 0.15625 -2.171875 0.15625q-1.515625 0 -2.609375 -0.40625q-1.078125 -0.421875 -1.78125 -1.203125q-0.6875 -0.78125 -1.03125 -1.90625q-0.328125 -1.140625 -0.328125 -2.5625q0 -1.25 0.359375 -2.34375q0.359375 -1.109375 1.03125 -1.953125q0.6875 -0.84375 1.6875 -1.328125q1.0 -0.5 2.265625 -0.5q1.234375 0 2.171875 0.390625q0.953125 0.390625 1.59375 1.109375q0.65625 0.703125 0.984375 1.71875q0.34375 1.0 0.34375 2.265625zm-2.125 -0.296875q0.046875 -0.78125 -0.140625 -1.4375q-0.1875 -0.65625 -0.59375 -1.125q-0.390625 -0.46875 -0.984375 -0.71875q-0.578125 -0.265625 -1.34375 -0.265625q-0.671875 0 -1.21875 0.265625q-0.546875 0.25 -0.953125 0.71875q-0.390625 0.46875 -0.640625 1.125q-0.25 0.65625 -0.3125 1.4375l6.1875 0zm5.8671875 -4.96875l1.859375 0l0.0625 2.171875q1.046875 -1.265625 2.046875 -1.828125q1.015625 -0.5625 2.046875 -0.5625q1.828125 0 2.765625 1.1875q0.953125 1.1875 0.890625 3.515625l-2.0625 0q0.03125 -1.546875 -0.453125 -2.234375q-0.484375 -0.703125 -1.421875 -0.703125q-0.421875 0 -0.84375 0.15625q-0.40625 0.140625 -0.84375 0.46875q-0.4375 0.3125 -0.9375 0.8125q-0.484375 0.5 -1.046875 1.21875l0 7.5625l-2.0625 0l0 -11.765625zm17.335938 8.078125q0.40625 0 0.765625 0.15625q0.359375 0.140625 0.609375 0.421875q0.265625 0.265625 0.421875 0.625q0.15625 0.34375 0.15625 0.765625q0 0.390625 -0.15625 0.75q-0.15625 0.34375 -0.421875 0.609375q-0.25 0.265625 -0.609375 0.421875q-0.359375 0.15625 -0.765625 0.15625q-0.40625 0 -0.765625 -0.15625q-0.34375 -0.15625 -0.609375 -0.421875q-0.265625 -0.265625 -0.421875 -0.609375q-0.140625 -0.359375 -0.140625 -0.75q0 -0.421875 0.140625 -0.765625q0.15625 -0.359375 0.421875 -0.625q0.265625 -0.28125 0.609375 -0.421875q0.359375 -0.15625 0.765625 -0.15625zm19.773438 3.6875l-2.265625 0l-1.078125 -3.34375l-6.375 0l-1.078125 3.34375l-2.15625 0l5.078125 -15.3125l2.859375 0l5.015625 15.3125zm-3.9375 -5.203125l-2.59375 -8.1875l-2.578125 8.1875l5.171875 0zm15.3828125 5.203125l-1.828125 0l-0.0625 -1.90625q-0.53125 0.609375 -1.015625 1.015625q-0.46875 0.40625 -0.9375 0.65625q-0.46875 0.25 -0.9375 0.34375q-0.46875 0.109375 -1.0 0.109375q-1.8125 0 -2.75 -1.0625q-0.921875 -1.078125 -0.921875 -3.234375l0 -7.6875l2.046875 0l0 7.515625q0 2.71875 2.03125 2.71875q0.375 0 0.734375 -0.109375q0.359375 -0.125 0.75 -0.390625q0.390625 -0.28125 0.84375 -0.75q0.453125 -0.46875 1.015625 -1.1875l0 -7.796875l2.03125 0l0 11.765625zm13.2265625 -0.171875q-0.6875 0.1875 -1.4375 0.265625q-0.734375 0.078125 -1.5 0.078125q-2.203125 0 -3.296875 -1.0q-1.09375 -1.015625 -1.09375 -3.09375l0 -6.140625l-3.296875 0l0 -1.703125l3.296875 0l0 -3.234375l2.046875 -0.53125l0 3.765625l5.28125 0l0 1.703125l-5.28125 0l0 5.984375q0 1.265625 0.671875 1.890625q0.671875 0.625 1.984375 0.625q0.5625 0 1.21875 -0.078125q0.671875 -0.09375 1.40625 -0.28125l0 1.75zm13.1640625 0.171875l-2.03125 0l0 -7.515625q0 -1.359375 -0.515625 -2.03125q-0.5 -0.671875 -1.453125 -0.671875q-0.40625 0 -0.765625 0.109375q-0.359375 0.109375 -0.75 0.390625q-0.390625 0.265625 -0.84375 0.734375q-0.453125 0.46875 -1.046875 1.171875l0 7.8125l-2.046875 0l0 -16.5625l2.046875 0l0 4.796875l-0.078125 1.84375q0.484375 -0.5625 0.9375 -0.953125q0.46875 -0.40625 0.921875 -0.640625q0.46875 -0.25 0.953125 -0.359375q0.484375 -0.109375 1.0 -0.109375q1.75 0 2.703125 1.078125q0.96875 1.078125 0.96875 3.234375l0 7.671875z" fill-rule="nonzero"/><path fill="#000000" fill-opacity="0.0" d="m141.83727 163.84776c0 -24.453262 14.141739 -36.678185 28.283463 -48.906532c14.141739 -12.228348 28.283478 -24.460114 28.283478 -48.920235" fill-rule="evenodd"/><path stroke="#000000" stroke-width="2.0" stroke-linejoin="round" stroke-linecap="butt" d="m141.83727 163.84776c0 -24.453262 14.141739 -36.678185 28.283463 -48.906532c7.070877 -6.114174 14.141739 -12.22921 19.444885 -19.873207c2.6515808 -3.821991 4.8612213 -8.0262375 6.4079742 -12.803734c0.38668823 -1.1943817 0.7319641 -2.4245834 1.0323181 -3.6936035c0.03755188 -0.15862274 0.0743866 -0.31785583 0.11051941 -0.4777069l0.03050232 -0.138031" fill-rule="evenodd"/><path stroke="#000000" stroke-width="2.0" stroke-linecap="butt" d="m200.43219 78.30106l-2.3343353 -9.372353l-4.2362213 8.680122z" fill-rule="evenodd"/><path fill="#000000" fill-opacity="0.0" d="m397.08136 111.57481c0 -11.385147 -49.66928 -17.077377 -99.33859 -22.770287c-49.66928 -5.692917 -99.33856 -11.386513 -99.33856 -22.773026" fill-rule="evenodd"/><path stroke="#000000" stroke-width="2.0" stroke-linejoin="round" stroke-linecap="butt" d="m397.08136 111.57481c0 -11.385139 -49.66928 -17.077377 -99.33859 -22.770294c-24.834625 -2.8464584 -49.66928 -5.6930847 -68.29526 -9.251411c-4.656494 -0.8895798 -8.924957 -1.8236389 -12.708359 -2.813301c-1.8917084 -0.4948349 -3.66214 -1.0035629 -5.2991943 -1.5275879c-0.8185272 -0.26200104 -1.6036835 -0.52783966 -2.3540192 -0.79766846c-0.37513733 -0.13491058 -0.7415924 -0.27082825 -1.0991211 -0.40776062l-0.46011353 -0.1791153" fill-rule="evenodd"/><path stroke="#000000" stroke-width="2.0" stroke-linecap="butt" d="m209.67288 71.316345l-9.04599 -3.3853073l4.753601 8.407944z" fill-rule="evenodd"/><path fill="#000000" fill-opacity="0.0" d="m369.0 260.04462c0 -23.62944 7.0236206 -35.44394 14.047241 -47.258896c7.0236206 -11.814957 14.047241 -23.630386 14.047241 -47.260788" fill-rule="evenodd"/><path stroke="#000000" stroke-width="2.0" stroke-linejoin="round" stroke-linecap="butt" d="m369.0 260.04462c0 -23.62944 7.0236206 -35.44394 14.047241 -47.258896c3.5118103 -5.907486 7.0236206 -11.815079 9.657471 -19.1996c1.3169556 -3.692276 2.4143677 -7.753769 3.1825867 -12.369095c0.19204712 -1.1538239 0.3635254 -2.34227 0.51272583 -3.568222l0.016601562 -0.14302063" fill-rule="evenodd"/><path stroke="#000000" stroke-width="2.0" stroke-linecap="butt" d="m399.7148 177.69238l-2.785492 -9.248306l-3.8108826 8.875092z" fill-rule="evenodd"/><path fill="#000000" fill-opacity="0.0" d="m369.0 260.04462c0 -10.560959 -56.787415 -15.842377 -113.5748 -21.121902c-56.7874 -5.279541 -113.574814 -10.557159 -113.574814 -21.114319" fill-rule="evenodd"/><path stroke="#000000" stroke-width="2.0" stroke-linejoin="round" stroke-linecap="butt" d="m369.0 260.04462c0 -10.560959 -56.787415 -15.842377 -113.5748 -21.121902c-28.393707 -2.6397552 -56.7874 -5.2790527 -78.08269 -8.578049c-10.647629 -1.6494904 -19.52066 -3.4639282 -25.731781 -5.5257874l-0.016967773 -0.005722046" fill-rule="evenodd"/><path stroke="#000000" stroke-width="2.0" stroke-linecap="butt" d="m153.52211 222.1309l-9.297745 -2.615799l5.441086 7.9802856z" fill-rule="evenodd"/></g></svg>