<svg version="1.1" viewBox="0.0 0.0 174.33333333333334 103.9737532808399" fill="none" stroke="none" stroke-linecap="square" stroke-miterlimit="10" xmlns:xlink="http://www.w3.org/1999/xlink" xmlns="http://www.w3.org/2000/svg"><clipPath id="p.0"><path d="m0 0l174.33333 0l0 103.973755l-174.33333 0l0 -103.973755z" clip-rule="nonzero"/></clipPath><g clip-path="url(#p.0)"><path fill="#000000" fill-opacity="0.0" d="m0 0l174.33333 0l0 103.973755l-174.33333 0z" fill-rule="evenodd"/><path fill="#cfe2f3" d="m19.459318 27.758747l0 0c0 -6.004223 4.867384 -10.871609 10.871609 -10.871609l106.31977 0c2.8833313 0 5.648575 1.1453991 7.687393 3.1842213c2.0388184 2.0388222 3.1842194 4.804058 3.1842194 7.6873875l0 43.485126c0 6.0042267 -4.867386 10.871613 -10.871613 10.871613l-106.31977 0c-6.004225 0 -10.871609 -4.867386 -10.871609 -10.871613z" fill-rule="evenodd"/><path stroke="#000000" stroke-width="1.0" stroke-linejoin="round" stroke-linecap="butt" d="m19.459318 27.758747l0 0c0 -6.004223 4.867384 -10.871609 10.871609 -10.871609l106.31977 0c2.8833313 0 5.648575 1.1453991 7.687393 3.1842213c2.0388184 2.0388222 3.1842194 4.804058 3.1842194 7.6873875l0 43.485126c0 6.0042267 -4.867386 10.871613 -10.871613 10.871613l-106.31977 0c-6.004225 0 -10.871609 -4.867386 -10.871609 -10.871613z" fill-rule="evenodd"/><path fill="#000000" d="m69.678314 61.22131l-0.0625 -2.109375q-1.28125 1.265625 -2.609375 1.828125q-1.3125 0.5625 -2.765625 0.5625q-1.3437538 0 -2.2968788 -0.34375q-0.953125 -0.34375 -1.578125 -0.9375q-0.609375 -0.609375 -0.90625 -1.421875q-0.28125 -0.8125 -0.28125 -1.765625q0 -2.359375 1.75 -3.6875q1.765625 -1.34375 5.203129 -1.34375l3.25 0l0 -1.375q0 -1.390625 -0.890625 -2.21875q-0.890625 -0.84375 -2.71875 -0.84375q-1.328125 0 -2.6250038 0.296875q-1.28125 0.296875 -2.65625 0.84375l0 -2.453125q0.515625 -0.1875 1.140625 -0.359375q0.640625 -0.1875 1.34375 -0.328125q0.703125 -0.140625 1.4687538 -0.21875q0.765625 -0.09375 1.546875 -0.09375q1.421875 0 2.5625 0.3125q1.140625 0.3125 1.921875 0.953125q0.796875 0.640625 1.21875 1.609375q0.421875 0.96875 0.421875 2.28125l0 10.8125l-2.4375 0zm-0.296875 -7.140625l-3.453125 0q-1.015625 0 -1.75 0.203125q-0.7343788 0.203125 -1.2031288 0.578125q-0.46875 0.375 -0.703125 0.90625q-0.21875 0.515625 -0.21875 1.171875q0 0.453125 0.140625 0.875q0.140625 0.40625 0.453125 0.734375q0.3125 0.3125 0.8125 0.5q0.5 0.1875 1.2187538 0.1875q0.9375 0 2.140625 -0.5625q1.21875 -0.578125 2.5625 -1.8125l0 -2.78125zm21.218742 -0.984375q0 2.09375 -0.59375 3.65625q-0.578125 1.5625 -1.609375 2.59375q-1.03125 1.03125 -2.4374924 1.546875q-1.40625 0.515625 -3.046875 0.515625q-0.75 0 -1.5 -0.078125q-0.734375 -0.078125 -1.5 -0.265625l0 6.562504l-2.71875 0l0 -22.093754l2.421875 0l0.171875 2.625q1.171875 -1.609375 2.5 -2.25q1.328125 -0.65625 2.875 -0.65625q1.34375 0 2.3593674 0.5625q1.015625 0.5625 1.703125 1.59375q0.6875 1.015625 1.03125 2.46875q0.34375 1.4375 0.34375 3.21875zm-2.78125 0.125q0 -1.234375 -0.1875 -2.265625q-0.171875 -1.03125 -0.5625 -1.765625q-0.390625 -0.734375 -0.9999924 -1.140625q-0.609375 -0.421875 -1.453125 -0.421875q-0.515625 0 -1.046875 0.171875q-0.53125 0.15625 -1.109375 0.546875q-0.5625 0.375 -1.203125 1.015625q-0.625 0.625 -1.34375 1.5625l0 7.609375q0.75 0.3125 1.578125 0.5q0.828125 0.171875 1.625 0.171875q2.203125 0 3.453125 -1.484375q1.2499924 -1.5 1.2499924 -4.5zm20.375 -0.125q0 2.09375 -0.59375 3.65625q-0.578125 1.5625 -1.609375 2.59375q-1.03125 1.03125 -2.4375 1.546875q-1.40625 0.515625 -3.046875 0.515625q-0.75 0 -1.5 -0.078125q-0.734375 -0.078125 -1.5 -0.265625l0 6.562504l-2.71875 0l0 -22.093754l2.421875 0l0.171875 2.625q1.171875 -1.609375 2.5 -2.25q1.328125 -0.65625 2.875 -0.65625q1.34375 0 2.359375 0.5625q1.015625 0.5625 1.703125 1.59375q0.6875 1.015625 1.03125 2.46875q0.34375 1.4375 0.34375 3.21875zm-2.78125 0.125q0 -1.234375 -0.1875 -2.265625q-0.171875 -1.03125 -0.5625 -1.765625q-0.390625 -0.734375 -1.0 -1.140625q-0.609375 -0.421875 -1.453125 -0.421875q-0.515625 0 -1.046875 0.171875q-0.53125 0.15625 -1.109375 0.546875q-0.5625 0.375 -1.203125 1.015625q-0.625 0.625 -1.34375 1.5625l0 7.609375q0.75 0.3125 1.578125 0.5q0.828125 0.171875 1.625 0.171875q2.203125 0 3.453125 -1.484375q1.25 -1.5 1.25 -4.5z" fill-rule="nonzero"/></g></svg>