<?xml version="1.0" encoding="UTF-8"?>
<!DOCTYPE svg PUBLIC "-//W3C//DTD SVG 1.1//EN"
    "http://www.w3.org/Graphics/SVG/1.1/DTD/svg11.dtd"><svg xmlns="http://www.w3.org/2000/svg" xmlns:xlink="http://www.w3.org/1999/xlink" version="1.1" viewBox="0 0 150 130"><path stroke-width="1" fill="none" stroke="#999999" stroke-dasharray="none" font-family="Arial" font-size="10pt" font-weight="normal" font-style="normal" d="M20 40L200 40"></path><path stroke-width="1" fill="none" stroke="#999999" stroke-dasharray="none" font-family="Arial" font-size="10pt" font-weight="normal" font-style="normal" d="M20 50L200 50"></path><path stroke-width="1" fill="none" stroke="#999999" stroke-dasharray="none" font-family="Arial" font-size="10pt" font-weight="normal" font-style="normal" d="M20 60L200 60"></path><path stroke-width="1" fill="none" stroke="#999999" stroke-dasharray="none" font-family="Arial" font-size="10pt" font-weight="normal" font-style="normal" d="M20 70L200 70"></path><path stroke-width="1" fill="none" stroke="#999999" stroke-dasharray="none" font-family="Arial" font-size="10pt" font-weight="normal" font-style="normal" d="M20 80L200 80"></path><rect stroke-width="0.3" fill="black" stroke="black" stroke-dasharray="none" font-family="Arial" font-size="10pt" font-weight="normal" font-style="normal" x="20" y="39.5" width="1" height="41"></rect><rect stroke-width="0.3" fill="black" stroke="black" stroke-dasharray="none" font-family="Arial" font-size="10pt" font-weight="normal" font-style="normal" x="200" y="39.5" width="1" height="41"></rect><path stroke-width="0.3" fill="black" stroke="none" stroke-dasharray="none" font-family="Arial" font-size="10pt" font-weight="normal" font-style="normal" x="200" y="39.5" width="1" height="41" d="M25 70M39.0544 26.8288C39.112 26.800000000000004,39.1696 26.800000000000004,39.256 26.800000000000004C39.6016 26.800000000000004,40.0048 27.088,40.580799999999996 27.808C42.9136 30.486400000000003,44.5552 35.152,44.5552 38.9536C44.5552 39.241600000000005,44.4976 39.472,44.4976 39.760000000000005C44.2384 44.2816,42.3952 47.9968,38.7376 51.510400000000004L37.7584 52.4608L37.4128 52.8352L37.4128 52.9504L37.6144 53.8144L37.931200000000004 55.3696L38.248 56.8096C38.68 58.768,38.8528 59.775999999999996,38.8528 59.775999999999996C38.8528 59.775999999999996,38.8528 59.775999999999996,38.8528 59.775999999999996C38.8528 59.775999999999996,38.968 59.775999999999996,39.112 59.7472C39.256 59.7472,39.7168 59.6896,40.2064 59.6896C40.552 59.6896,40.8976 59.7472,41.0704 59.7472C45.1312 60.2656,48.270399999999995 63.1744,49.1632 67.264C49.336 67.9264,49.3936 68.6464,49.3936 69.3664C49.3936 73.2544,47.0608 76.9696,43.172799999999995 78.7264C42.9424 78.8704,42.855999999999995 78.89920000000001,42.855999999999995 78.89920000000001L42.855999999999995 78.928C42.855999999999995 78.928,43.028800000000004 79.5904,43.172799999999995 80.3392L43.6048 82.528L44.007999999999996 84.2848C44.2384 85.408,44.3536 86.2144,44.3536 86.9344C44.3536 87.568,44.2672 88.144,44.1232 88.8064C43.144 92.8096,39.6592 95.2,36.0304 95.2C34.2448 95.2,32.4016 94.624,30.788800000000002 93.328C29.3488 92.11840000000001,28.7152 91.024,28.7152 89.584C28.7152 87.0496,30.759999999999998 85.264,32.8912 85.264C33.64 85.264,34.3888 85.4944,35.1088 85.9264C36.3184 86.7616,36.8656 88.0288,36.8656 89.2672C36.8656 91.168,35.5408 93.03999999999999,33.2656 93.184L33.0352 93.184L33.208 93.2992C34.1584 93.7024,35.1088 93.904,36.0304 93.904C38.3632 93.904,40.552 92.72319999999999,41.8768 90.6784C42.6256 89.5264,43.028800000000004 88.1728,43.028800000000004 86.8192C43.028800000000004 86.3008,42.9424 85.7824,42.827200000000005 85.2064C42.827200000000005 85.1488,42.7408 84.688,42.6256 84.256C41.992000000000004 81.1456,41.617599999999996 79.3312,41.617599999999996 79.3312C41.617599999999996 79.3312,41.617599999999996 79.3312,41.617599999999996 79.3312C41.56 79.3312,41.4448 79.3312,41.3584 79.3888C41.0704 79.4464,40.4656 79.5904,40.2064 79.6192C39.5728 79.7056,38.968 79.7344,38.391999999999996 79.7344C32.7472 79.7344,27.5056 75.9328,25.6912 70.3168C25.2304 68.8192,24.9712 67.3216,24.9712 65.824C24.9712 62.8288,25.9216 59.8912,27.7648 57.2704C29.7808 54.419200000000004,31.7968 51.971199999999996,34.2736 49.436800000000005L35.1376 48.544L34.936 47.4784L34.5616 45.7216L34.072 43.4752C33.928 42.64,33.7552 41.833600000000004,33.7264 41.6608C33.5824 40.7104,33.496 39.7888,33.496 38.8384C33.496 35.2096,34.6768 31.724800000000002,36.8944 28.931200000000004C37.556799999999996 28.0672,38.7376 26.9152,39.0544 26.8288M40.8112 32.5312C40.7536 32.5312,40.6672 32.5312,40.580799999999996 32.5312C39.4 32.5312,37.873599999999996 33.6256,36.8368 35.2384C35.7712 36.8224,35.224000000000004 38.924800000000005,35.224000000000004 41.0848C35.224000000000004 41.6608,35.2528 42.2656,35.3392 42.870400000000004C35.4256 43.302400000000006,35.4544 43.5904,35.684799999999996 44.6272L36.088 46.4416C36.203199999999995 46.9888,36.2896 47.4208,36.2896 47.4784L36.2896 47.4784C36.3184 47.4784,37.2112 46.4992,37.4992 46.1536C40.3792 42.8992,42.1072 39.472,42.4816 36.448C42.510400000000004 36.160000000000004,42.510400000000004 35.9296,42.510400000000004 35.641600000000004C42.510400000000004 34.7488,42.3952 33.8848,42.1936 33.424C41.9632 32.9632,41.4448 32.5888,40.8112 32.5312M36.4624 54.7936C36.4048 54.3904,36.3184 54.0736,36.3184 54.016C36.3184 54.016,36.3184 54.016,36.2896 54.016C36.232 54.016,34.9936 55.456,34.129599999999996 56.464C32.6608 58.2496,31.1056 60.3808,30.472 61.4176C29.2624 63.4624,28.6576 65.7376,28.6576 67.984C28.6576 69.4528,28.9456 70.864,29.464 72.2176C31.019199999999998 76.2208,34.5904 78.7264,38.4784 78.7264C38.9392 78.7264,39.4576 78.6976,39.947199999999995 78.6112C40.580799999999996 78.496,41.3584 78.2656,41.3584 78.1792L41.3584 78.1792C41.3584 78.1792,41.300799999999995 77.8912,41.2144 77.5744L40.3792 73.456L39.7168 70.3744L39.2848 68.2432L38.824 66.1696C38.5936 64.9312,38.5072 64.6144,38.5072 64.6144C38.5072 64.6144,38.5072 64.5856,38.4784 64.5856C38.3056 64.5856,37.384 65.0464,36.9808 65.3344C35.4832 66.3712,34.705600000000004 68.0128,34.705600000000004 69.6256C34.705600000000004 71.152,35.4544 72.6784,36.8944 73.5712C37.2112 73.7728,37.3264 73.9456,37.3264 74.1472C37.3264 74.176,37.3264 74.2624,37.3264 74.2912C37.2688 74.6368,37.0672 74.7808,36.7792 74.7808C36.664 74.7808,36.519999999999996 74.752,36.3472 74.6656C33.6976 73.5136,31.912 70.7776,31.912 67.7824L31.912 67.7824C31.912 64.3264,34.072 61.3312,37.384 60.1504L37.556799999999996 60.0928L37.2688 58.6528L36.4624 54.7936M40.782399999999996 64.4128C40.552 64.384,40.321600000000004 64.384,40.1488 64.384C40.0912 64.384,40.0048 64.384,39.947199999999995 64.384L39.803200000000004 64.384L39.9184 64.9024L40.5232 67.7248L40.8976 69.568L41.300799999999995 71.3824L42.1072 75.3856L42.424 76.912C42.5392 77.3152,42.5968 77.6608,42.6256 77.6608C42.6256 77.6608,42.6256 77.6608,42.6256 77.6608C42.654399999999995 77.6608,43.144 77.3728,43.4608 77.1424C44.9296 76.1056,46.024 74.4928,46.4272 72.8224C46.571200000000005 72.2752,46.6288 71.6992,46.6288 71.152C46.6288 67.8112,44.152 64.7872,40.782399999999996 64.4128"></path><rect stroke-width="0.3" fill="black" stroke="black" stroke-dasharray="none" font-family="Arial" font-size="10pt" font-weight="normal" font-style="normal" x="79.40335999999999" y="90" width="23.381519999999995" height="1"></rect><rect stroke-width="0.3" fill="black" stroke="black" stroke-dasharray="none" font-family="Arial" font-size="10pt" font-weight="normal" font-style="normal" x="79.40335999999999" y="100" width="23.381519999999995" height="1"></rect><g class="vf-stavenote" id="vf-auto3446"><g class="vf-note" pointer-events="bounding-box"><g class="vf-notehead" pointer-events="bounding-box"><rect stroke-width="0.3" fill="black" stroke="black" stroke-dasharray="none" font-family="Arial" font-size="10pt" font-weight="normal" font-style="normal" x="79.40335999999999" y="100" width="23.381520000000002" height="1"></rect><path stroke-width="0.3" fill="black" stroke="none" stroke-dasharray="none" font-family="Arial" font-size="10pt" font-weight="normal" font-style="normal" x="79.40335999999999" y="100" width="23.381520000000002" height="1" d="M82.40335999999999 100M90.09728 94.83328C90.40616 94.77712,90.71503999999999 94.77712,91.02391999999999 94.77712C95.46055999999999 94.77712,99.16712 96.74272,99.70063999999999 99.38224C99.72872 99.63496,99.78487999999999 99.8596,99.78487999999999 100.02808C99.78487999999999 102.92032,95.966 105.25096,91.05199999999999 105.25096C86.13799999999999 105.25096,82.40335999999999 102.86416,82.40335999999999 100.02808C82.40335999999999 99.69112,82.43144 99.35416,82.54375999999999 98.98912C83.21767999999999 96.7708,86.36264 95.05792,90.09728 94.83328M90.51848 95.47912C90.37808 95.45104,90.18151999999999 95.45104,90.04111999999999 95.45104C88.27207999999999 95.45104,87.20504 96.96736,87.20504 98.84872C87.20504 99.8596,87.51392 100.95472,88.15975999999999 102.04984C89.2268 103.73464,90.7712 104.57704,92.09096 104.57704C93.21415999999999 104.57704,94.19695999999999 103.98736,94.64623999999999 102.75184C94.8428 102.2464,94.92703999999999 101.74096,94.92703999999999 101.20744C94.92703999999999 98.68024,92.98952 95.87224,90.51848 95.47912"></path></g><g class="vf-notehead" pointer-events="bounding-box"><path stroke-width="0.3" fill="black" stroke="none" stroke-dasharray="none" font-family="Arial" font-size="10pt" font-weight="normal" font-style="normal" x="79.40335999999999" y="100" width="23.381520000000002" height="1" d="M82.40335999999999 80M90.09728 74.83328C90.40616 74.77712,90.71503999999999 74.77712,91.02391999999999 74.77712C95.46055999999999 74.77712,99.16712 76.74272,99.70063999999999 79.38224C99.72872 79.63496,99.78487999999999 79.8596,99.78487999999999 80.02808C99.78487999999999 82.92032,95.966 85.25096,91.05199999999999 85.25096C86.13799999999999 85.25096,82.40335999999999 82.86416,82.40335999999999 80.02808C82.40335999999999 79.69112,82.43144 79.35416,82.54375999999999 78.98912C83.21767999999999 76.7708,86.36264 75.05792,90.09728 74.83328M90.51848 75.47912C90.37808 75.45104,90.18151999999999 75.45104,90.04111999999999 75.45104C88.27207999999999 75.45104,87.20504 76.96736,87.20504 78.84872C87.20504 79.8596,87.51392 80.95472,88.15975999999999 82.04984C89.2268 83.73464,90.7712 84.57704,92.09096 84.57704C93.21415999999999 84.57704,94.19695999999999 83.98736,94.64623999999999 82.75184C94.8428 82.2464,94.92703999999999 81.74096,94.92703999999999 81.20744C94.92703999999999 78.68024,92.98952 75.87224,90.51848 75.47912"></path></g><g class="vf-notehead" pointer-events="bounding-box"><path stroke-width="0.3" fill="black" stroke="none" stroke-dasharray="none" font-family="Arial" font-size="10pt" font-weight="normal" font-style="normal" x="79.40335999999999" y="100" width="23.381520000000002" height="1" d="M82.40335999999999 55M90.09728 49.83328C90.40616 49.77712,90.71503999999999 49.77712,91.02391999999999 49.77712C95.46055999999999 49.77712,99.16712 51.74272,99.70063999999999 54.38224C99.72872 54.63496,99.78487999999999 54.8596,99.78487999999999 55.02808C99.78487999999999 57.920320000000004,95.966 60.25096,91.05199999999999 60.25096C86.13799999999999 60.25096,82.40335999999999 57.86416,82.40335999999999 55.02808C82.40335999999999 54.69112,82.43144 54.35416,82.54375999999999 53.98912C83.21767999999999 51.7708,86.36264 50.05792,90.09728 49.83328M90.51848 50.47912C90.37808 50.45104,90.18151999999999 50.45104,90.04111999999999 50.45104C88.27207999999999 50.45104,87.20504 51.96736,87.20504 53.84872C87.20504 54.8596,87.51392 55.95472,88.15975999999999 57.04984C89.2268 58.73464,90.7712 59.57704,92.09096 59.57704C93.21415999999999 59.57704,94.19695999999999 58.98736,94.64623999999999 57.75184C94.8428 57.2464,94.92703999999999 56.74096,94.92703999999999 56.20744C94.92703999999999 53.68024,92.98952 50.87224,90.51848 50.47912"></path></g></g><g class="vf-modifiers"><path stroke-width="0.3" fill="black" stroke="none" stroke-dasharray="none" font-family="Arial" font-size="10pt" font-weight="normal" font-style="normal" x="79.40335999999999" y="100" width="23.381520000000002" height="1" d="M72.53599999999999 100M72.31711999999999 82.73584C72.37183999999999 82.70848000000001,72.42655999999998 82.70848000000001,72.50863999999999 82.70848000000001C72.75487999999999 82.70848000000001,72.97375999999998 82.81792,73.05583999999999 83.0368C73.08319999999999 83.14624,73.08319999999999 83.14624,73.08319999999999 89.52112L73.08319999999999 95.95072L73.11055999999999 95.86864C74.15023999999998 94.99312,75.24463999999999 94.55536000000001,76.28431999999998 94.55536000000001C76.69471999999999 94.55536000000001,77.10511999999999 94.61008,77.51551999999998 94.77424C78.74671999999998 95.18464,79.40335999999999 96.33376,79.40335999999999 97.70176000000001C79.40335999999999 98.41312,79.18448 99.20656,78.77407999999998 100C78.17215999999999 101.0944,77.40607999999999 101.96992,75.27199999999999 103.88512L73.16527999999998 105.8824C72.78223999999999 106.26544,72.70015999999998 106.26544,72.53599999999999 106.26544C72.28975999999999 106.26544,72.07087999999999 106.12864,71.98879999999998 105.90976L71.96143999999998 105.80032L71.96143999999998 94.50064L71.96143999999998 83.14624L71.98879999999998 83.0368C72.07087999999999 82.92736,72.18031999999998 82.7632,72.31711999999999 82.73584M75.5456 96.41584C75.43615999999999 96.36112,75.27199999999999 96.36112,75.16255999999998 96.36112C75.08048 96.36112,75.02575999999999 96.36112,74.97103999999999 96.36112C74.25967999999999 96.47056,73.63039999999998 96.90832,73.19263999999998 97.61968L73.08319999999999 97.8112L73.08319999999999 101.01232L73.08319999999999 104.26816L73.16527999999998 104.15872C75.16255999999998 101.96992,76.47583999999999 99.4528,76.47583999999999 97.78384L76.47583999999999 97.72912C76.47583999999999 96.90832,76.20223999999999 96.55264,75.5456 96.41584"></path><path stroke-width="0.3" fill="black" stroke="none" stroke-dasharray="none" font-family="Arial" font-size="10pt" font-weight="normal" font-style="normal" x="79.40335999999999" y="100" width="23.381520000000002" height="1" d="M62.422399999999996 80M62.696 67.4144C62.778079999999996 67.35968,62.80544 67.35968,62.96959999999999 67.35968C63.18848 67.35968,63.379999999999995 67.46912,63.489439999999995 67.71536L63.516799999999996 67.79744L63.516799999999996 71.08064C63.516799999999996 72.91376,63.516799999999996 74.3912,63.516799999999996 74.3912C63.516799999999996 74.3912,64.6112 74.1176,65.89712 73.78928C67.78496 73.32416,68.25008 73.18736,68.4416 73.18736C68.55104 73.18736,68.5784 73.21472,68.63311999999999 73.24208C68.74256 73.2968,68.85199999999999 73.40624,68.93408 73.51568L68.96144 73.62512L68.96144 82.90016L68.96144 92.25728L68.93408 92.33936C68.82464 92.55824,68.5784 92.66768,68.41423999999999 92.66768C68.16799999999999 92.66768,67.94912 92.55824,67.83968 92.33936L67.81232 92.25728L67.81232 88.86464C67.81232 86.78528,67.81232 85.49936,67.81232 85.49936C67.78496 85.49936,66.71791999999999 85.7456,65.432 86.10128C63.57151999999999 86.5664,63.07904 86.7032,62.887519999999995 86.7032C62.778079999999996 86.7032,62.778079999999996 86.67584,62.696 86.62112C62.58656 86.59376,62.47712 86.48432,62.422399999999996 86.37488L62.422399999999996 86.2928L62.422399999999996 77.04512L62.422399999999996 67.79744L62.422399999999996 67.71536C62.47712 67.60592,62.58656 67.46912,62.696 67.4144M67.81232 79.39808C67.81232 78.87824,67.81232 78.41312,67.81232 78.0848C67.81232 76.90832,67.81232 76.82624,67.78496 76.82624L67.78496 76.82624C67.78496 76.82624,66.8 77.09984,65.65088 77.34608L63.516799999999996 77.89328L63.516799999999996 80.49248C63.516799999999996 81.88784,63.516799999999996 83.06432,63.516799999999996 83.06432L65.67824 82.54448L67.81232 81.99728L67.81232 79.39808"></path><path stroke-width="0.3" fill="black" stroke="none" stroke-dasharray="none" font-family="Arial" font-size="10pt" font-weight="normal" font-style="normal" x="79.40335999999999" y="100" width="23.381520000000002" height="1" d="M72.86431999999999 55M73.13792 42.4144C73.22 42.35968,73.24735999999999 42.35968,73.41152 42.35968C73.6304 42.35968,73.82191999999999 42.469120000000004,73.93136 42.715360000000004L73.95871999999999 42.79744L73.95871999999999 46.08064C73.95871999999999 47.913759999999996,73.95871999999999 49.3912,73.95871999999999 49.3912C73.95871999999999 49.3912,75.05311999999999 49.1176,76.33904 48.78928C78.22688 48.32416,78.692 48.18736,78.88351999999999 48.18736C78.99296 48.18736,79.02032 48.21472,79.07503999999999 48.24208C79.18448 48.2968,79.29391999999999 48.40624,79.37599999999999 48.51568L79.40335999999999 48.62512L79.40335999999999 57.90016L79.40335999999999 67.25728L79.37599999999999 67.33936C79.26656 67.55824,79.02032 67.66768,78.85615999999999 67.66768C78.60991999999999 67.66768,78.39103999999999 67.55824,78.2816 67.33936L78.25424 67.25728L78.25424 63.86464C78.25424 61.78528,78.25424 60.499359999999996,78.25424 60.499359999999996C78.22688 60.499359999999996,77.15983999999999 60.745599999999996,75.87392 61.10128C74.01343999999999 61.5664,73.52095999999999 61.7032,73.32943999999999 61.7032C73.22 61.7032,73.22 61.67584,73.13792 61.62112C73.02847999999999 61.59376,72.91904 61.48432,72.86431999999999 61.37488L72.86431999999999 61.2928L72.86431999999999 52.04512L72.86431999999999 42.79744L72.86431999999999 42.715360000000004C72.91904 42.60592,73.02847999999999 42.469120000000004,73.13792 42.4144M78.25424 54.39808C78.25424 53.87824,78.25424 53.41312,78.25424 53.0848C78.25424 51.90832,78.25424 51.82624,78.22688 51.82624L78.22688 51.82624C78.22688 51.82624,77.24192 52.09984,76.0928 52.34608L73.95871999999999 52.89328L73.95871999999999 55.49248C73.95871999999999 56.88784,73.95871999999999 58.06432,73.95871999999999 58.06432L76.12016 57.54448L78.25424 56.99728L78.25424 54.39808"></path></g></g></svg>
