<?xml version="1.0" encoding="UTF-8" standalone="no"?><svg xmlns="http://www.w3.org/2000/svg" xmlns:xlink="http://www.w3.org/1999/xlink" contentScriptType="application/ecmascript" contentStyleType="text/css" height="186px" preserveAspectRatio="none" style="width:343px;height:186px;" version="1.1" viewBox="0 0 343 186" width="343px" zoomAndPan="magnify"><defs><filter height="300%" id="fwtvp32yguaed" width="300%" x="-1" y="-1"><feGaussianBlur result="blurOut" stdDeviation="2.0"/><feColorMatrix in="blurOut" result="blurOut2" type="matrix" values="0 0 0 0 0 0 0 0 0 0 0 0 0 0 0 0 0 0 .4 0"/><feOffset dx="4.0" dy="4.0" in="blurOut2" result="blurOut3"/><feBlend in="SourceGraphic" in2="blurOut3" mode="normal"/></filter></defs><g><!--class Comparable--><rect fill="#FEFECE" filter="url(#fwtvp32yguaed)" height="60.8047" id="Comparable" style="stroke: #A80036; stroke-width: 1.5;" width="182" x="6" y="8"/><ellipse cx="49.35" cy="24" fill="#B4A7E5" rx="11" ry="11" style="stroke: #A80036; stroke-width: 1.0;"/><path d="M45.2719,19.7656 L45.2719,17.6094 L52.6625,17.6094 L52.6625,19.7656 L50.1938,19.7656 L50.1938,27.8438 L52.6625,27.8438 L52.6625,30 L45.2719,30 L45.2719,27.8438 L47.7406,27.8438 L47.7406,19.7656 L45.2719,19.7656 Z "/><text fill="#000000" font-family="sans-serif" font-size="12" font-style="italic" lengthAdjust="spacingAndGlyphs" textLength="75" x="69.65" y="28.1543">Comparable</text><rect fill="#FFFFFF" height="15.9688" style="stroke: #000000; stroke-width: 1.0; stroke-dasharray: 2.0,2.0;" width="10" x="181" y="5"/><text fill="#000000" font-family="sans-serif" font-size="12" font-style="italic" lengthAdjust="spacingAndGlyphs" textLength="8" x="182" y="17.1387">A</text><line style="stroke: #A80036; stroke-width: 1.5;" x1="7" x2="187" y1="40" y2="40"/><line style="stroke: #A80036; stroke-width: 1.5;" x1="7" x2="187" y1="48" y2="48"/><text fill="#000000" font-family="sans-serif" font-size="11" font-style="italic" lengthAdjust="spacingAndGlyphs" textLength="170" x="12" y="62.2104">greaterThan(that: A): Boolean</text><!--class Note--><rect fill="#FEFECE" filter="url(#fwtvp32yguaed)" height="48" id="Note" style="stroke: #A80036; stroke-width: 1.5;" width="62" x="85" y="129"/><ellipse cx="100" cy="145" fill="#ADD1B2" rx="11" ry="11" style="stroke: #A80036; stroke-width: 1.0;"/><path d="M102.9688,150.6406 Q102.3906,150.9375 101.75,151.0859 Q101.1094,151.2344 100.4063,151.2344 Q97.9063,151.2344 96.5859,149.5859 Q95.2656,147.9375 95.2656,144.8125 Q95.2656,141.6875 96.5859,140.0313 Q97.9063,138.375 100.4063,138.375 Q101.1094,138.375 101.7578,138.5313 Q102.4063,138.6875 102.9688,138.9844 L102.9688,141.7031 Q102.3438,141.125 101.75,140.8516 Q101.1563,140.5781 100.5313,140.5781 Q99.1875,140.5781 98.5,141.6484 Q97.8125,142.7188 97.8125,144.8125 Q97.8125,146.9063 98.5,147.9766 Q99.1875,149.0469 100.5313,149.0469 Q101.1563,149.0469 101.75,148.7734 Q102.3438,148.5 102.9688,147.9219 L102.9688,150.6406 Z "/><text fill="#000000" font-family="sans-serif" font-size="12" lengthAdjust="spacingAndGlyphs" textLength="30" x="114" y="149.1543">Note</text><line style="stroke: #A80036; stroke-width: 1.5;" x1="86" x2="146" y1="161" y2="161"/><line style="stroke: #A80036; stroke-width: 1.5;" x1="86" x2="146" y1="169" y2="169"/><!--class Rhythm--><rect fill="#FEFECE" filter="url(#fwtvp32yguaed)" height="48" id="Rhythm" style="stroke: #A80036; stroke-width: 1.5;" width="78" x="220" y="129"/><ellipse cx="235" cy="145" fill="#ADD1B2" rx="11" ry="11" style="stroke: #A80036; stroke-width: 1.0;"/><path d="M237.9688,150.6406 Q237.3906,150.9375 236.75,151.0859 Q236.1094,151.2344 235.4063,151.2344 Q232.9063,151.2344 231.5859,149.5859 Q230.2656,147.9375 230.2656,144.8125 Q230.2656,141.6875 231.5859,140.0313 Q232.9063,138.375 235.4063,138.375 Q236.1094,138.375 236.7578,138.5313 Q237.4063,138.6875 237.9688,138.9844 L237.9688,141.7031 Q237.3438,141.125 236.75,140.8516 Q236.1563,140.5781 235.5313,140.5781 Q234.1875,140.5781 233.5,141.6484 Q232.8125,142.7188 232.8125,144.8125 Q232.8125,146.9063 233.5,147.9766 Q234.1875,149.0469 235.5313,149.0469 Q236.1563,149.0469 236.75,148.7734 Q237.3438,148.5 237.9688,147.9219 L237.9688,150.6406 Z "/><text fill="#000000" font-family="sans-serif" font-size="12" lengthAdjust="spacingAndGlyphs" textLength="46" x="249" y="149.1543">Rhythm</text><line style="stroke: #A80036; stroke-width: 1.5;" x1="221" x2="297" y1="161" y2="161"/><line style="stroke: #A80036; stroke-width: 1.5;" x1="221" x2="297" y1="169" y2="169"/><!--class MusicSymbol--><rect fill="#FEFECE" filter="url(#fwtvp32yguaed)" height="48" id="MusicSymbol" style="stroke: #A80036; stroke-width: 1.5;" width="111" x="223.5" y="14.5"/><ellipse cx="238.5" cy="30.5" fill="#ADD1B2" rx="11" ry="11" style="stroke: #A80036; stroke-width: 1.0;"/><path d="M241.4688,36.1406 Q240.8906,36.4375 240.25,36.5859 Q239.6094,36.7344 238.9063,36.7344 Q236.4063,36.7344 235.0859,35.0859 Q233.7656,33.4375 233.7656,30.3125 Q233.7656,27.1875 235.0859,25.5313 Q236.4063,23.875 238.9063,23.875 Q239.6094,23.875 240.2578,24.0313 Q240.9063,24.1875 241.4688,24.4844 L241.4688,27.2031 Q240.8438,26.625 240.25,26.3516 Q239.6563,26.0781 239.0313,26.0781 Q237.6875,26.0781 237,27.1484 Q236.3125,28.2188 236.3125,30.3125 Q236.3125,32.4063 237,33.4766 Q237.6875,34.5469 239.0313,34.5469 Q239.6563,34.5469 240.25,34.2734 Q240.8438,34 241.4688,33.4219 L241.4688,36.1406 Z "/><text fill="#000000" font-family="sans-serif" font-size="12" lengthAdjust="spacingAndGlyphs" textLength="79" x="252.5" y="34.6543">MusicSymbol</text><line style="stroke: #A80036; stroke-width: 1.5;" x1="224.5" x2="333.5" y1="46.5" y2="46.5"/><line style="stroke: #A80036; stroke-width: 1.5;" x1="224.5" x2="333.5" y1="54.5" y2="54.5"/><!--link Comparable to Note--><path d="M105.378,89.1067 C107.704,102.8764 110.12,117.1847 112.06,128.6686 " fill="none" id="Comparable-Note" style="stroke: #A80036; stroke-width: 1.0;"/><polygon fill="none" points="98.4205,89.9445,101.992,69.058,112.225,87.613,98.4205,89.9445" style="stroke: #A80036; stroke-width: 1.0;"/><!--link Comparable to Rhythm--><path d="M156.047,80.5046 C179.499,96.791 205.607,114.9216 225.664,128.8498 " fill="none" id="Comparable-Rhythm" style="stroke: #A80036; stroke-width: 1.0;"/><polygon fill="none" points="151.998,86.2156,139.564,69.058,159.984,74.716,151.998,86.2156" style="stroke: #A80036; stroke-width: 1.0;"/><!--link MusicSymbol to Note--><path d="M228.99,74.016 C202.287,92.4461 170.254,114.5549 147.125,130.5178 " fill="none" id="MusicSymbol-Note" style="stroke: #A80036; stroke-width: 1.0;"/><polygon fill="none" points="225.185,68.137,245.621,62.538,233.137,79.6592,225.185,68.137" style="stroke: #A80036; stroke-width: 1.0;"/><!--link MusicSymbol to Rhythm--><path d="M271.378,82.3761 C268.56,98.2245 265.475,115.5765 263.09,128.9933 " fill="none" id="MusicSymbol-Rhythm" style="stroke: #A80036; stroke-width: 1.0;"/><polygon fill="none" points="264.512,81.0035,274.904,62.538,278.296,83.454,264.512,81.0035" style="stroke: #A80036; stroke-width: 1.0;"/><!--
@startuml
interface Comparable<A> {
  {abstract} greaterThan(that: A): Boolean
}
Comparable <|- - Note
Comparable <|- - Rhythm
MusicSymbol <|- - Note
MusicSymbol <|- - Rhythm
@enduml

PlantUML version 1.2017.12(Wed Apr 26 18:06:36 CEST 2017)
(GPL source distribution)
Java Runtime: OpenJDK Runtime Environment
JVM: OpenJDK 64-Bit Server VM
Java Version: 1.8.0_131-8u131-b11-0ubuntu1.16.04.2-b11
Operating System: Linux
OS Version: 4.4.0-78-generic
Default Encoding: UTF-8
Language: en
Country: US
--></g></svg>