<?xml version="1.0" encoding="UTF-8" standalone="no"?><svg xmlns="http://www.w3.org/2000/svg" xmlns:xlink="http://www.w3.org/1999/xlink" contentScriptType="application/ecmascript" contentStyleType="text/css" height="186px" preserveAspectRatio="none" style="width:354px;height:186px;" version="1.1" viewBox="0 0 354 186" width="354px" zoomAndPan="magnify"><defs><filter height="300%" id="f1q71ch7ofpk2w" width="300%" x="-1" y="-1"><feGaussianBlur result="blurOut" stdDeviation="2.0"/><feColorMatrix in="blurOut" result="blurOut2" type="matrix" values="0 0 0 0 0 0 0 0 0 0 0 0 0 0 0 0 0 0 .4 0"/><feOffset dx="4.0" dy="4.0" in="blurOut2" result="blurOut3"/><feBlend in="SourceGraphic" in2="blurOut3" mode="normal"/></filter></defs><g><!--class Ordering--><rect fill="#FEFECE" filter="url(#f1q71ch7ofpk2w)" height="60.8047" id="Ordering" style="stroke: #A80036; stroke-width: 1.5;" width="158" x="6" y="8"/><ellipse cx="48.45" cy="24" fill="#B4A7E5" rx="11" ry="11" style="stroke: #A80036; stroke-width: 1.0;"/><path d="M44.3719,19.7656 L44.3719,17.6094 L51.7625,17.6094 L51.7625,19.7656 L49.2938,19.7656 L49.2938,27.8438 L51.7625,27.8438 L51.7625,30 L44.3719,30 L44.3719,27.8438 L46.8406,27.8438 L46.8406,19.7656 L44.3719,19.7656 Z "/><text fill="#000000" font-family="sans-serif" font-size="12" font-style="italic" lengthAdjust="spacingAndGlyphs" textLength="53" x="68.55" y="28.1543">Ordering</text><rect fill="#FFFFFF" height="15.9688" style="stroke: #000000; stroke-width: 1.0; stroke-dasharray: 2.0,2.0;" width="10" x="157" y="5"/><text fill="#000000" font-family="sans-serif" font-size="12" font-style="italic" lengthAdjust="spacingAndGlyphs" textLength="8" x="158" y="17.1387">A</text><line style="stroke: #A80036; stroke-width: 1.5;" x1="7" x2="163" y1="40" y2="40"/><line style="stroke: #A80036; stroke-width: 1.5;" x1="7" x2="163" y1="48" y2="48"/><text fill="#000000" font-family="sans-serif" font-size="11" lengthAdjust="spacingAndGlyphs" textLength="146" x="12" y="62.2104">compare(a1: A, a2: A): Int</text><!--class MusicSymbol--><rect fill="#FEFECE" filter="url(#f1q71ch7ofpk2w)" height="48" id="MusicSymbol" style="stroke: #A80036; stroke-width: 1.5;" width="111" x="198.5" y="14.5"/><ellipse cx="213.5" cy="30.5" fill="#ADD1B2" rx="11" ry="11" style="stroke: #A80036; stroke-width: 1.0;"/><path d="M216.4688,36.1406 Q215.8906,36.4375 215.25,36.5859 Q214.6094,36.7344 213.9063,36.7344 Q211.4063,36.7344 210.0859,35.0859 Q208.7656,33.4375 208.7656,30.3125 Q208.7656,27.1875 210.0859,25.5313 Q211.4063,23.875 213.9063,23.875 Q214.6094,23.875 215.2578,24.0313 Q215.9063,24.1875 216.4688,24.4844 L216.4688,27.2031 Q215.8438,26.625 215.25,26.3516 Q214.6563,26.0781 214.0313,26.0781 Q212.6875,26.0781 212,27.1484 Q211.3125,28.2188 211.3125,30.3125 Q211.3125,32.4063 212,33.4766 Q212.6875,34.5469 214.0313,34.5469 Q214.6563,34.5469 215.25,34.2734 Q215.8438,34 216.4688,33.4219 L216.4688,36.1406 Z "/><text fill="#000000" font-family="sans-serif" font-size="12" lengthAdjust="spacingAndGlyphs" textLength="79" x="227.5" y="34.6543">MusicSymbol</text><line style="stroke: #A80036; stroke-width: 1.5;" x1="199.5" x2="308.5" y1="46.5" y2="46.5"/><line style="stroke: #A80036; stroke-width: 1.5;" x1="199.5" x2="308.5" y1="54.5" y2="54.5"/><!--class Note--><rect fill="#FEFECE" filter="url(#f1q71ch7ofpk2w)" height="48" id="Note" style="stroke: #A80036; stroke-width: 1.5;" width="62" x="170" y="129"/><ellipse cx="185" cy="145" fill="#ADD1B2" rx="11" ry="11" style="stroke: #A80036; stroke-width: 1.0;"/><path d="M187.9688,150.6406 Q187.3906,150.9375 186.75,151.0859 Q186.1094,151.2344 185.4063,151.2344 Q182.9063,151.2344 181.5859,149.5859 Q180.2656,147.9375 180.2656,144.8125 Q180.2656,141.6875 181.5859,140.0313 Q182.9063,138.375 185.4063,138.375 Q186.1094,138.375 186.7578,138.5313 Q187.4063,138.6875 187.9688,138.9844 L187.9688,141.7031 Q187.3438,141.125 186.75,140.8516 Q186.1563,140.5781 185.5313,140.5781 Q184.1875,140.5781 183.5,141.6484 Q182.8125,142.7188 182.8125,144.8125 Q182.8125,146.9063 183.5,147.9766 Q184.1875,149.0469 185.5313,149.0469 Q186.1563,149.0469 186.75,148.7734 Q187.3438,148.5 187.9688,147.9219 L187.9688,150.6406 Z "/><text fill="#000000" font-family="sans-serif" font-size="12" lengthAdjust="spacingAndGlyphs" textLength="30" x="199" y="149.1543">Note</text><line style="stroke: #A80036; stroke-width: 1.5;" x1="171" x2="231" y1="161" y2="161"/><line style="stroke: #A80036; stroke-width: 1.5;" x1="171" x2="231" y1="169" y2="169"/><!--class Rhythm--><rect fill="#FEFECE" filter="url(#f1q71ch7ofpk2w)" height="48" id="Rhythm" style="stroke: #A80036; stroke-width: 1.5;" width="78" x="267" y="129"/><ellipse cx="282" cy="145" fill="#ADD1B2" rx="11" ry="11" style="stroke: #A80036; stroke-width: 1.0;"/><path d="M284.9688,150.6406 Q284.3906,150.9375 283.75,151.0859 Q283.1094,151.2344 282.4063,151.2344 Q279.9063,151.2344 278.5859,149.5859 Q277.2656,147.9375 277.2656,144.8125 Q277.2656,141.6875 278.5859,140.0313 Q279.9063,138.375 282.4063,138.375 Q283.1094,138.375 283.7578,138.5313 Q284.4063,138.6875 284.9688,138.9844 L284.9688,141.7031 Q284.3438,141.125 283.75,140.8516 Q283.1563,140.5781 282.5313,140.5781 Q281.1875,140.5781 280.5,141.6484 Q279.8125,142.7188 279.8125,144.8125 Q279.8125,146.9063 280.5,147.9766 Q281.1875,149.0469 282.5313,149.0469 Q283.1563,149.0469 283.75,148.7734 Q284.3438,148.5 284.9688,147.9219 L284.9688,150.6406 Z "/><text fill="#000000" font-family="sans-serif" font-size="12" lengthAdjust="spacingAndGlyphs" textLength="46" x="296" y="149.1543">Rhythm</text><line style="stroke: #A80036; stroke-width: 1.5;" x1="268" x2="344" y1="161" y2="161"/><line style="stroke: #A80036; stroke-width: 1.5;" x1="268" x2="344" y1="169" y2="169"/><!--link MusicSymbol to Note--><path d="M234.557,80.7698 C226.891,97.0436 218.374,115.1217 211.839,128.9933 " fill="none" id="MusicSymbol-Note" style="stroke: #A80036; stroke-width: 1.0;"/><polygon fill="none" points="228.291,77.647,243.147,62.538,240.955,83.6136,228.291,77.647" style="stroke: #A80036; stroke-width: 1.0;"/><!--link MusicSymbol to Rhythm--><path d="M273.076,80.7698 C280.598,97.0436 288.954,115.1217 295.366,128.9933 " fill="none" id="MusicSymbol-Rhythm" style="stroke: #A80036; stroke-width: 1.0;"/><polygon fill="none" points="266.686,83.629,264.648,62.538,279.394,77.755,266.686,83.629" style="stroke: #A80036; stroke-width: 1.0;"/><!--
@startuml
interface Ordering<A> {
  compare(a1: A, a2: A): Int
}

MusicSymbol <|- - Note
MusicSymbol <|- - Rhythm


@enduml

PlantUML version 1.2017.12(Wed Apr 26 18:06:36 CEST 2017)
(GPL source distribution)
Java Runtime: OpenJDK Runtime Environment
JVM: OpenJDK 64-Bit Server VM
Java Version: 1.8.0_131-8u131-b11-0ubuntu1.16.04.2-b11
Operating System: Linux
OS Version: 4.4.0-78-generic
Default Encoding: UTF-8
Language: en
Country: US
--></g></svg>