<?xml version="1.0" encoding="UTF-8" standalone="no"?><svg xmlns="http://www.w3.org/2000/svg" xmlns:xlink="http://www.w3.org/1999/xlink" contentScriptType="application/ecmascript" contentStyleType="text/css" height="415px" preserveAspectRatio="none" style="width:271px;height:415px;" version="1.1" viewBox="0 0 271 415" width="271px" zoomAndPan="magnify"><defs><filter height="300%" id="f9otdr4raobw7" width="300%" x="-1" y="-1"><feGaussianBlur result="blurOut" stdDeviation="2.0"/><feColorMatrix in="blurOut" result="blurOut2" type="matrix" values="0 0 0 0 0 0 0 0 0 0 0 0 0 0 0 0 0 0 .4 0"/><feOffset dx="4.0" dy="4.0" in="blurOut2" result="blurOut3"/><feBlend in="SourceGraphic" in2="blurOut3" mode="normal"/></filter></defs><g><!--class Plot--><rect fill="#FEFECE" filter="url(#f9otdr4raobw7)" height="73.6094" id="Plot" style="stroke: #A80036; stroke-width: 1.5;" width="207" x="28.5" y="8"/><ellipse cx="116.25" cy="24" fill="#B4A7E5" rx="11" ry="11" style="stroke: #A80036; stroke-width: 1.0;"/><path d="M112.1719,19.7656 L112.1719,17.6094 L119.5625,17.6094 L119.5625,19.7656 L117.0938,19.7656 L117.0938,27.8438 L119.5625,27.8438 L119.5625,30 L112.1719,30 L112.1719,27.8438 L114.6406,27.8438 L114.6406,19.7656 L112.1719,19.7656 Z "/><text fill="#000000" font-family="sans-serif" font-size="12" font-style="italic" lengthAdjust="spacingAndGlyphs" textLength="23" x="136.75" y="28.1543">Plot</text><line style="stroke: #A80036; stroke-width: 1.5;" x1="29.5" x2="234.5" y1="40" y2="40"/><line style="stroke: #A80036; stroke-width: 1.5;" x1="29.5" x2="234.5" y1="48" y2="48"/><text fill="#000000" font-family="sans-serif" font-size="11" lengthAdjust="spacingAndGlyphs" textLength="122" x="34.5" y="62.2104">getDataset(): Dataset</text><text fill="#000000" font-family="sans-serif" font-size="11" lengthAdjust="spacingAndGlyphs" textLength="195" x="34.5" y="75.0151">setDataset(dataset: Dataset): Unit</text><!--class Dataset--><rect fill="#FEFECE" filter="url(#f9otdr4raobw7)" height="48" id="Dataset" style="stroke: #A80036; stroke-width: 1.5;" width="81" x="91.5" y="250"/><ellipse cx="106.5" cy="266" fill="#B4A7E5" rx="11" ry="11" style="stroke: #A80036; stroke-width: 1.0;"/><path d="M102.4219,261.7656 L102.4219,259.6094 L109.8125,259.6094 L109.8125,261.7656 L107.3438,261.7656 L107.3438,269.8438 L109.8125,269.8438 L109.8125,272 L102.4219,272 L102.4219,269.8438 L104.8906,269.8438 L104.8906,261.7656 L102.4219,261.7656 Z "/><text fill="#000000" font-family="sans-serif" font-size="12" font-style="italic" lengthAdjust="spacingAndGlyphs" textLength="49" x="120.5" y="270.1543">Dataset</text><line style="stroke: #A80036; stroke-width: 1.5;" x1="92.5" x2="171.5" y1="282" y2="282"/><line style="stroke: #A80036; stroke-width: 1.5;" x1="92.5" x2="171.5" y1="290" y2="290"/><!--class XYPlot--><rect fill="#FEFECE" filter="url(#f9otdr4raobw7)" height="48" id="XYPlot" style="stroke: #A80036; stroke-width: 1.5;" width="70" x="6" y="142"/><ellipse cx="21" cy="158" fill="#ADD1B2" rx="11" ry="11" style="stroke: #A80036; stroke-width: 1.0;"/><path d="M23.9688,163.6406 Q23.3906,163.9375 22.75,164.0859 Q22.1094,164.2344 21.4063,164.2344 Q18.9063,164.2344 17.5859,162.5859 Q16.2656,160.9375 16.2656,157.8125 Q16.2656,154.6875 17.5859,153.0313 Q18.9063,151.375 21.4063,151.375 Q22.1094,151.375 22.7578,151.5313 Q23.4063,151.6875 23.9688,151.9844 L23.9688,154.7031 Q23.3438,154.125 22.75,153.8516 Q22.1563,153.5781 21.5313,153.5781 Q20.1875,153.5781 19.5,154.6484 Q18.8125,155.7188 18.8125,157.8125 Q18.8125,159.9063 19.5,160.9766 Q20.1875,162.0469 21.5313,162.0469 Q22.1563,162.0469 22.75,161.7734 Q23.3438,161.5 23.9688,160.9219 L23.9688,163.6406 Z "/><text fill="#000000" font-family="sans-serif" font-size="12" lengthAdjust="spacingAndGlyphs" textLength="38" x="35" y="162.1543">XYPlot</text><line style="stroke: #A80036; stroke-width: 1.5;" x1="7" x2="75" y1="174" y2="174"/><line style="stroke: #A80036; stroke-width: 1.5;" x1="7" x2="75" y1="182" y2="182"/><!--class PiePlot--><rect fill="#FEFECE" filter="url(#f9otdr4raobw7)" height="48" id="PiePlot" style="stroke: #A80036; stroke-width: 1.5;" width="75" x="186.5" y="142"/><ellipse cx="201.5" cy="158" fill="#ADD1B2" rx="11" ry="11" style="stroke: #A80036; stroke-width: 1.0;"/><path d="M204.4688,163.6406 Q203.8906,163.9375 203.25,164.0859 Q202.6094,164.2344 201.9063,164.2344 Q199.4063,164.2344 198.0859,162.5859 Q196.7656,160.9375 196.7656,157.8125 Q196.7656,154.6875 198.0859,153.0313 Q199.4063,151.375 201.9063,151.375 Q202.6094,151.375 203.2578,151.5313 Q203.9063,151.6875 204.4688,151.9844 L204.4688,154.7031 Q203.8438,154.125 203.25,153.8516 Q202.6563,153.5781 202.0313,153.5781 Q200.6875,153.5781 200,154.6484 Q199.3125,155.7188 199.3125,157.8125 Q199.3125,159.9063 200,160.9766 Q200.6875,162.0469 202.0313,162.0469 Q202.6563,162.0469 203.25,161.7734 Q203.8438,161.5 204.4688,160.9219 L204.4688,163.6406 Z "/><text fill="#000000" font-family="sans-serif" font-size="12" lengthAdjust="spacingAndGlyphs" textLength="43" x="215.5" y="162.1543">PiePlot</text><line style="stroke: #A80036; stroke-width: 1.5;" x1="187.5" x2="260.5" y1="174" y2="174"/><line style="stroke: #A80036; stroke-width: 1.5;" x1="187.5" x2="260.5" y1="182" y2="182"/><!--class XYDataset--><rect fill="#FEFECE" filter="url(#f9otdr4raobw7)" height="48" id="XYDataset" style="stroke: #A80036; stroke-width: 1.5;" width="96" x="17" y="358"/><ellipse cx="32" cy="374" fill="#ADD1B2" rx="11" ry="11" style="stroke: #A80036; stroke-width: 1.0;"/><path d="M34.9688,379.6406 Q34.3906,379.9375 33.75,380.0859 Q33.1094,380.2344 32.4063,380.2344 Q29.9063,380.2344 28.5859,378.5859 Q27.2656,376.9375 27.2656,373.8125 Q27.2656,370.6875 28.5859,369.0313 Q29.9063,367.375 32.4063,367.375 Q33.1094,367.375 33.7578,367.5313 Q34.4063,367.6875 34.9688,367.9844 L34.9688,370.7031 Q34.3438,370.125 33.75,369.8516 Q33.1563,369.5781 32.5313,369.5781 Q31.1875,369.5781 30.5,370.6484 Q29.8125,371.7188 29.8125,373.8125 Q29.8125,375.9063 30.5,376.9766 Q31.1875,378.0469 32.5313,378.0469 Q33.1563,378.0469 33.75,377.7734 Q34.3438,377.5 34.9688,376.9219 L34.9688,379.6406 Z "/><text fill="#000000" font-family="sans-serif" font-size="12" lengthAdjust="spacingAndGlyphs" textLength="64" x="46" y="378.1543">XYDataset</text><line style="stroke: #A80036; stroke-width: 1.5;" x1="18" x2="112" y1="390" y2="390"/><line style="stroke: #A80036; stroke-width: 1.5;" x1="18" x2="112" y1="398" y2="398"/><!--class PieDataset--><rect fill="#FEFECE" filter="url(#f9otdr4raobw7)" height="48" id="PieDataset" style="stroke: #A80036; stroke-width: 1.5;" width="101" x="161.5" y="358"/><ellipse cx="176.5" cy="374" fill="#ADD1B2" rx="11" ry="11" style="stroke: #A80036; stroke-width: 1.0;"/><path d="M179.4688,379.6406 Q178.8906,379.9375 178.25,380.0859 Q177.6094,380.2344 176.9063,380.2344 Q174.4063,380.2344 173.0859,378.5859 Q171.7656,376.9375 171.7656,373.8125 Q171.7656,370.6875 173.0859,369.0313 Q174.4063,367.375 176.9063,367.375 Q177.6094,367.375 178.2578,367.5313 Q178.9063,367.6875 179.4688,367.9844 L179.4688,370.7031 Q178.8438,370.125 178.25,369.8516 Q177.6563,369.5781 177.0313,369.5781 Q175.6875,369.5781 175,370.6484 Q174.3125,371.7188 174.3125,373.8125 Q174.3125,375.9063 175,376.9766 Q175.6875,378.0469 177.0313,378.0469 Q177.6563,378.0469 178.25,377.7734 Q178.8438,377.5 179.4688,376.9219 L179.4688,379.6406 Z "/><text fill="#000000" font-family="sans-serif" font-size="12" lengthAdjust="spacingAndGlyphs" textLength="69" x="190.5" y="378.1543">PieDataset</text><line style="stroke: #A80036; stroke-width: 1.5;" x1="162.5" x2="261.5" y1="390" y2="390"/><line style="stroke: #A80036; stroke-width: 1.5;" x1="162.5" x2="261.5" y1="398" y2="398"/><!--link Plot to XYPlot--><path d="M92.1165,98.155 C80.4316,113.436 68.2448,129.372 58.7026,141.85 " fill="none" id="Plot-XYPlot" style="stroke: #A80036; stroke-width: 1.0;"/><polygon fill="none" points="86.7405,93.662,104.45,82.027,97.8615,102.166,86.7405,93.662" style="stroke: #A80036; stroke-width: 1.0;"/><!--link Plot to PiePlot--><path d="M172.322,98.155 C184.135,113.436 196.456,129.372 206.103,141.85 " fill="none" id="Plot-PiePlot" style="stroke: #A80036; stroke-width: 1.0;"/><polygon fill="none" points="166.547,102.131,159.853,82.027,177.623,93.568,166.547,102.131" style="stroke: #A80036; stroke-width: 1.0;"/><!--link Dataset to XYDataset--><path d="M106.632,315.134 C97.5524,329.4992 87.6241,345.2066 79.741,357.6784 " fill="none" id="Dataset-XYDataset" style="stroke: #A80036; stroke-width: 1.0;"/><polygon fill="none" points="100.859,311.1664,117.462,298,112.693,318.6465,100.859,311.1664" style="stroke: #A80036; stroke-width: 1.0;"/><!--link Dataset to PieDataset--><path d="M161.569,314.1784 C172.603,328.7995 184.777,344.9295 194.399,357.6784 " fill="none" id="Dataset-PieDataset" style="stroke: #A80036; stroke-width: 1.0;"/><polygon fill="none" points="155.82,318.1811,149.359,298,166.994,309.7474,155.82,318.1811" style="stroke: #A80036; stroke-width: 1.0;"/><!--link XYPlot to XYDataset--><path d="M43.6141,190.309 C48.0504,229.866 57.0367,309.9938 61.8264,352.702 " fill="none" id="XYPlot-XYDataset" style="stroke: #A80036; stroke-width: 1.0; stroke-dasharray: 7.0,7.0;"/><polygon fill="#A80036" points="62.3891,357.7196,65.3611,348.3298,61.8318,352.7508,57.4109,349.2215,62.3891,357.7196" style="stroke: #A80036; stroke-width: 1.0;"/><!--link PiePlot to PieDataset--><path d="M222.693,190.309 C220.475,229.866 215.982,309.9938 213.587,352.702 " fill="none" id="PiePlot-PieDataset" style="stroke: #A80036; stroke-width: 1.0; stroke-dasharray: 7.0,7.0;"/><polygon fill="#A80036" points="213.305,357.7196,217.8029,348.9578,213.5851,352.7275,209.8155,348.5097,213.305,357.7196" style="stroke: #A80036; stroke-width: 1.0;"/><!--link Plot to Dataset--><path d="M132,82.22 C132,127.354 132,203.538 132,244.653 " fill="none" id="Plot-Dataset" style="stroke: #A80036; stroke-width: 1.0; stroke-dasharray: 7.0,7.0;"/><polygon fill="#A80036" points="132,249.731,136,240.731,132,244.731,128,240.731,132,249.731" style="stroke: #A80036; stroke-width: 1.0;"/><!--
@startuml
interface Plot {
  getDataset(): Dataset
  setDataset(dataset: Dataset): Unit
}

interface Dataset

Plot <|- - XYPlot
Plot <|- - PiePlot

Dataset <|- - XYDataset
Dataset <|- - PieDataset

XYPlot -.-> XYDataset
PiePlot -.-> PieDataset
Plot -.-> Dataset

@enduml

PlantUML version 1.2017.12(Wed Apr 26 18:06:36 CEST 2017)
(GPL source distribution)
Java Runtime: OpenJDK Runtime Environment
JVM: OpenJDK 64-Bit Server VM
Java Version: 1.8.0_131-8u131-b11-0ubuntu1.16.04.2-b11
Operating System: Linux
OS Version: 4.4.0-78-generic
Default Encoding: UTF-8
Language: en
Country: US
--></g></svg>