<?xml version="1.0" encoding="UTF-8"?>
<!DOCTYPE svg PUBLIC "-//W3C//DTD SVG 1.1//EN"
    "http://www.w3.org/Graphics/SVG/1.1/DTD/svg11.dtd"><svg xmlns="http://www.w3.org/2000/svg" xmlns:xlink="http://www.w3.org/1999/xlink" version="1.1" viewBox="0 150 310 100"><path stroke-width="1" fill="none" stroke="#999999" stroke-dasharray="none" font-family="Arial" font-size="10pt" font-weight="normal" font-style="normal" d="M20 80L373 80"></path><rect stroke-width="0.3" fill="black" stroke="black" stroke-dasharray="none" font-family="Arial" font-size="10pt" font-weight="normal" font-style="normal" x="20" y="59.5" width="1" height="41"></rect><rect stroke-width="0.3" fill="black" stroke="black" stroke-dasharray="none" font-family="Arial" font-size="10pt" font-weight="normal" font-style="normal" x="373" y="59.5" width="1" height="41"></rect><path stroke-width="0.3" fill="black" stroke="none" stroke-dasharray="none" font-family="Arial" font-size="10pt" font-weight="normal" font-style="normal" x="373" y="59.5" width="1" height="41" d="M25 80M25 80L25 70.0064L27.1888 70.0064L29.406399999999998 70.0064L29.406399999999998 80L29.406399999999998 90.0224L27.1888 90.0224L25 90.0224L25 80M33.870400000000004 80.0288L33.870400000000004 70.0064L36.1168 70.0064L38.3632 70.0064L38.3632 80.0288L38.3632 90.0224L36.1168 90.0224L33.870400000000004 90.0224L33.870400000000004 80.0288"></path><path stroke-width="0.3" fill="black" stroke="none" stroke-dasharray="none" font-family="Arial" font-size="10pt" font-weight="normal" font-style="normal" x="373" y="59.5" width="1" height="41" d="M53.492799999999995 81M59.166399999999996 62.3376C59.2816 62.3376,59.4832 62.3376,59.71359999999999 62.3376C60.17439999999999 62.3376,60.779199999999996 62.3376,60.923199999999994 62.3952C63.08319999999999 62.654399999999995,64.8112 63.7488,65.56 65.2752C65.8192 65.7936,65.9344 66.3408,65.9344 66.9168C65.9344 68.328,65.15679999999999 69.9408,63.745599999999996 71.1504C62.7664 71.9856,61.7872 72.504,60.260799999999996 72.9936C58.273599999999995 73.6272,56.5744 74.7504,55.48 76.104C55.48 76.104,55.48 76.1328,55.48 76.1328C55.48 76.1328,55.48 76.1328,55.48 76.1328C55.48 76.1328,55.566399999999994 76.104,55.623999999999995 76.0176C56.718399999999995 75.1248,58.1872 74.6064,59.51199999999999 74.6064C60.606399999999994 74.6064,61.38399999999999 74.80799999999999,62.42079999999999 75.384C63.054399999999994 75.7008,63.630399999999995 75.8448,64.1776 75.8448C64.408 75.8448,64.63839999999999 75.8448,64.8976 75.7872C65.27199999999999 75.7008,65.67519999999999 75.4128,65.8192 75.1824C65.90559999999999 74.9808,66.0496 74.8944,66.2224 74.8944C66.4528 74.8944,66.6832 75.0672,66.6832 75.3264C66.6832 75.528,66.42399999999999 76.248,66.19359999999999 76.7376C65.27199999999999 78.5808,63.6592 79.7328,62.104 79.7328C61.9888 79.7328,61.90239999999999 79.7328,61.7872 79.704C61.38399999999999 79.704,61.2112 79.5888,60.6928 79.2432C59.5984 78.5232,58.215999999999994 78.1488,57.00639999999999 78.1488C56.48799999999999 78.1488,56.02719999999999 78.2064,55.5952 78.3792C55.0192 78.5808,54.471999999999994 78.9264,54.2992 79.1856C54.212799999999994 79.3872,54.068799999999996 79.4448,53.895999999999994 79.4448C53.751999999999995 79.4448,53.608 79.3872,53.52159999999999 79.2144L53.464 79.128L53.464 78.7248C53.464 78.3792,53.492799999999995 78.264,53.492799999999995 78.1488C53.52159999999999 78.0624,53.550399999999996 77.8896,53.550399999999996 77.7456C54.068799999999996 75.3264,55.825599999999994 73.1664,58.215999999999994 72.10079999999999C60.17439999999999 71.1792,61.4704 69.5376,61.700799999999994 67.464C61.758399999999995 67.2912,61.758399999999995 67.1472,61.758399999999995 66.9744C61.758399999999995 65.1312,60.376 63.864000000000004,58.41759999999999 63.864000000000004C58.273599999999995 63.864000000000004,58.10079999999999 63.864000000000004,57.956799999999994 63.864000000000004C57.6688 63.8928,57.58239999999999 63.8928,57.58239999999999 63.9504C57.58239999999999 63.9504,57.58239999999999 63.9792,57.6688 64.0368C58.331199999999995 64.41120000000001,58.647999999999996 65.1312,58.647999999999996 65.8224C58.647999999999996 66.7152,58.1872 67.5504,57.294399999999996 67.896C57.00639999999999 67.9824,56.718399999999995 68.0112,56.48799999999999 68.0112C55.2784 68.0112,54.270399999999995 66.9744,54.270399999999995 65.736C54.270399999999995 65.5056,54.270399999999995 65.2752,54.327999999999996 65.016C54.76 63.6912,56.80479999999999 62.5968,59.166399999999996 62.3376M60.0592 81.0288L60.1168 81.0288L60.03039999999999 81.0288L60.0592 81.0288M60.0592 61.617599999999996L60.1168 61.617599999999996L60.03039999999999 61.617599999999996L60.0592 61.617599999999996"></path><path stroke-width="0.3" fill="black" stroke="none" stroke-dasharray="none" font-family="Arial" font-size="10pt" font-weight="normal" font-style="normal" x="373" y="59.5" width="1" height="41" d="M53.3632 101M58.3744 82.6544C58.4032 82.6256,58.8064 82.6256,60.044799999999995 82.6256C60.4192 82.6256,60.8224 82.6256,61.3408 82.6256L64.2496 82.6256L64.336 82.712C64.48 82.7984,64.5664 82.94239999999999,64.5664 83.05760000000001C64.5664 83.2304,64.48 83.3456,64.3648 83.4608C64.336 83.5472,64.07679999999999 83.7776,63.903999999999996 84.0368L62.3776 85.7936L60.4192 88.0112L59.3824 89.19200000000001L57.8272 90.9776L55.782399999999996 93.3104C55.4368 93.7424,55.0624 94.088,55.0624 94.088C55.0624 94.088,55.0624 94.088,55.0624 94.088C55.0624 94.1456,55.3216 94.1456,57.711999999999996 94.1456L60.3328 94.1456L60.3328 92.2736C60.3328 90.3728,60.3328 90.344,60.361599999999996 90.3152C60.4192 90.2288,60.678399999999996 89.912,61.6864 88.7312L62.0896 88.2992L62.4928 87.8672L63.0976 87.0896L63.7312 86.4272L64.048 86.024C64.1632 85.8512,64.336 85.8224,64.48 85.8224C64.6528 85.8224,64.7968 85.9088,64.8832 86.0528C64.912 86.1392,64.912 86.1968,64.912 88.328C64.912 88.8176,64.912 89.4224,64.912 90.1424L64.912 94.1456L65.632 94.1456C66.2944 94.1456,66.3232 94.1456,66.4096 94.1744C66.64 94.2608,66.7552 94.4912,66.7552 94.7504C66.7552 94.8944,66.7264 95.0672,66.6112 95.1824C66.4384 95.3264,66.4096 95.3264,65.632 95.3264L64.912 95.3264L64.912 95.816C64.9408 97.2848,65.22879999999999 97.8608,66.352 98.4656C66.7552 98.6672,66.8416 98.7248,66.8416 99.0128C66.8416 99.2144,66.78399999999999 99.3008,66.64 99.416L66.5536 99.4448L62.608 99.4448L58.6912 99.4448L58.6048 99.416C58.432 99.3008,58.4032 99.2144,58.4032 99.0128C58.4032 98.7248,58.432 98.6672,58.864 98.4656C59.9872 97.8608,60.2752 97.2848,60.2752 95.816L60.2752 95.3264L56.9632 95.3264C56.358399999999996 95.384,55.8688 95.384,55.4656 95.384C53.651199999999996 95.384,53.6224 95.3264,53.5936 95.3264C53.4208 95.2688,53.3632 95.096,53.3632 94.8944C53.3632 94.8944,53.3632 94.8944,53.3632 94.8944C53.3632 94.6928,53.3632 94.6928,53.9392 94.0304C56.358399999999996 91.0928,58.0576 86.8304,58.0576 83.432C58.0576 82.9136,58.144 82.74080000000001,58.3744 82.6544M60.102399999999996 101.0288L60.1312 101.0288L60.044799999999995 101.0288L60.102399999999996 101.0288M60.102399999999996 81.6176L60.1312 81.6176L60.044799999999995 81.6176L60.102399999999996 81.6176"></path><g class="vf-stavenote" id="vf-auto1010"><g class="vf-note" pointer-events="bounding-box"><g class="vf-notehead" pointer-events="bounding-box"><path stroke-width="0.3" fill="black" stroke="none" stroke-dasharray="none" font-family="Arial" font-size="10pt" font-weight="normal" font-style="normal" x="373" y="59.5" width="1" height="41" d="M78.8416 80M86.19856 74.77712C86.31088 74.77712,86.47936 74.77712,86.50744 74.77712C86.50744 74.77712,86.53552 74.77712,86.53552 74.77712C86.53552 74.77712,86.704 74.77712,86.84440000000001 74.77712C89.3716 74.91752,90.85984 76.57424,90.85984 78.65216C90.85984 79.66304,90.52288 80.81432,89.68048 81.90944C88.07992 84.0716,85.46848 85.25096,83.194 85.25096C81.42496 85.25096,79.90864 84.54896,79.17856 83.11688C78.95392 82.55528,78.8416 82.02176,78.8416 81.43208C78.8416 78.37136,82.26736 74.97368,86.19856 74.77712"></path></g></g><g class="vf-modifiers"><path stroke-width="0.3" fill="black" stroke="none" stroke-dasharray="none" font-family="Arial" font-size="10pt" font-weight="normal" font-style="normal" x="373" y="59.5" width="1" height="41" d="M97.85984 75 A2 2 0 0 0 93.85984 75M0 0M93.85984 75 A2 2 0 0 0 97.85984 75M0 0"></path></g></g><g class="vf-stavenote" id="vf-auto1018"><g class="vf-note" pointer-events="bounding-box"><g class="vf-notehead" pointer-events="bounding-box"><path stroke-width="0.3" fill="black" stroke="none" stroke-dasharray="none" font-family="Arial" font-size="10pt" font-weight="normal" font-style="normal" x="373" y="59.5" width="1" height="41" d="M184.64188000000001 80M191.99884 74.77712C192.11116 74.77712,192.27964000000003 74.77712,192.30772000000002 74.77712C192.30772000000002 74.77712,192.3358 74.77712,192.3358 74.77712C192.3358 74.77712,192.50428000000002 74.77712,192.64468000000002 74.77712C195.17188000000002 74.91752,196.66012 76.57424,196.66012 78.65216C196.66012 79.66304,196.32316000000003 80.81432,195.48076 81.90944C193.8802 84.0716,191.26876000000001 85.25096,188.99428 85.25096C187.22524 85.25096,185.70892 84.54896,184.97884000000002 83.11688C184.75420000000003 82.55528,184.64188000000001 82.02176,184.64188000000001 81.43208C184.64188000000001 78.37136,188.06764 74.97368,191.99884 74.77712"></path></g></g><g class="vf-modifiers"></g></g><g class="vf-stavenote" id="vf-auto1025"><g class="vf-note" pointer-events="bounding-box"><g class="vf-notehead" pointer-events="bounding-box"><path stroke-width="0.3" fill="black" stroke="none" stroke-dasharray="none" font-family="Arial" font-size="10pt" font-weight="normal" font-style="normal" x="373" y="59.5" width="1" height="41" d="M229.9208 80M237.27776 74.77712C237.39008 74.77712,237.55856 74.77712,237.58664000000002 74.77712C237.58664000000002 74.77712,237.61472 74.77712,237.61472 74.77712C237.61472 74.77712,237.78320000000002 74.77712,237.92360000000002 74.77712C240.45080000000002 74.91752,241.93904 76.57424,241.93904 78.65216C241.93904 79.66304,241.60208 80.81432,240.75968 81.90944C239.15912 84.0716,236.54768 85.25096,234.2732 85.25096C232.50416 85.25096,230.98784 84.54896,230.25776000000002 83.11688C230.03312000000003 82.55528,229.9208 82.02176,229.9208 81.43208C229.9208 78.37136,233.34656 74.97368,237.27776 74.77712"></path></g></g><g class="vf-modifiers"></g></g><g class="vf-stavenote" id="vf-auto1032"><g class="vf-note" pointer-events="bounding-box"><g class="vf-notehead" pointer-events="bounding-box"><path stroke-width="0.3" fill="black" stroke="none" stroke-dasharray="none" font-family="Arial" font-size="10pt" font-weight="normal" font-style="normal" x="373" y="59.5" width="1" height="41" d="M302.46040000000005 80M309.81736000000006 74.77712C309.9296800000001 74.77712,310.09816000000006 74.77712,310.12624000000005 74.77712C310.12624000000005 74.77712,310.15432000000004 74.77712,310.15432000000004 74.77712C310.15432000000004 74.77712,310.32280000000003 74.77712,310.46320000000003 74.77712C312.9904 74.91752,314.47864000000004 76.57424,314.47864000000004 78.65216C314.47864000000004 79.66304,314.14168000000006 80.81432,313.29928000000007 81.90944C311.69872000000004 84.0716,309.0872800000001 85.25096,306.81280000000004 85.25096C305.0437600000001 85.25096,303.52744000000007 84.54896,302.79736 83.11688C302.57272000000006 82.55528,302.46040000000005 82.02176,302.46040000000005 81.43208C302.46040000000005 78.37136,305.8861600000001 74.97368,309.81736000000006 74.77712"></path></g></g><g class="vf-modifiers"></g></g><path stroke-width="1.5" fill="none" stroke="black" stroke-dasharray="none" font-family="Arial" font-size="10pt" font-weight="normal" font-style="normal" x="373" y="59.5" width="1" height="41" d="M90.10984 80L90.10984 45.75"></path><path stroke-width="1.5" fill="none" stroke="black" stroke-dasharray="none" font-family="Arial" font-size="10pt" font-weight="normal" font-style="normal" x="373" y="59.5" width="1" height="41" d="M195.91012 80L195.91012 45.74999999999999"></path><path stroke-width="0.3" fill="black" stroke="none" stroke-dasharray="none" font-family="Arial" font-size="10pt" font-weight="normal" font-style="normal" x="373" y="59.5" width="1" height="41" d="M89.35984 45L89.35984 50L196.16012 49.99999999999999L196.16012 44.99999999999999Z"></path><path stroke-width="0.3" fill="black" stroke="none" stroke-dasharray="none" font-family="Arial" font-size="10pt" font-weight="normal" font-style="normal" x="373" y="59.5" width="1" height="41" d="M195.16012 52.49999999999999L195.16012 57.49999999999999L186.16012 57.5L186.16012 52.5Z"></path><path stroke-width="1.5" fill="none" stroke="black" stroke-dasharray="none" font-family="Arial" font-size="10pt" font-weight="normal" font-style="normal" x="373" y="59.5" width="1" height="41" d="M241.18904 80L241.18904 45.75"></path><path stroke-width="1.5" fill="none" stroke="black" stroke-dasharray="none" font-family="Arial" font-size="10pt" font-weight="normal" font-style="normal" x="373" y="59.5" width="1" height="41" d="M313.72864000000004 80L313.72864000000004 45.75"></path><path stroke-width="0.3" fill="black" stroke="none" stroke-dasharray="none" font-family="Arial" font-size="10pt" font-weight="normal" font-style="normal" x="373" y="59.5" width="1" height="41" d="M240.43904 45L240.43904 50L313.97864000000004 50L313.97864000000004 45Z"></path><path stroke-width="1" fill="none" stroke="#999999" stroke-dasharray="none" font-family="Arial" font-size="10pt" font-weight="normal" font-style="normal" x="373" y="59.5" width="1" height="41" d="M373 80L524 80"></path><rect stroke-width="0.3" fill="black" stroke="black" stroke-dasharray="none" font-family="Arial" font-size="10pt" font-weight="normal" font-style="normal" x="373" y="59.5" width="1" height="41"></rect><rect stroke-width="0.3" fill="black" stroke="black" stroke-dasharray="none" font-family="Arial" font-size="10pt" font-weight="normal" font-style="normal" x="524" y="59.5" width="1" height="41"></rect><g class="vf-stavenote" id="vf-auto1174"><g class="vf-note" pointer-events="bounding-box"><g class="vf-stem" pointer-events="bounding-box"><path stroke-width="1.5" fill="none" stroke="black" stroke-dasharray="none" font-family="Arial" font-size="10pt" font-weight="normal" font-style="normal" x="524" y="59.5" width="1" height="41" d="M401.26824 80L401.26824 45"></path></g><g class="vf-notehead" pointer-events="bounding-box"><path stroke-width="0.3" fill="black" stroke="none" stroke-dasharray="none" font-family="Arial" font-size="10pt" font-weight="normal" font-style="normal" x="524" y="59.5" width="1" height="41" d="M390 80M397.35696 74.77712C397.46928 74.77712,397.63776 74.77712,397.66584 74.77712C397.66584 74.77712,397.69392 74.77712,397.69392 74.77712C397.69392 74.77712,397.8624 74.77712,398.0028 74.77712C400.53 74.91752,402.01824 76.57424,402.01824 78.65216C402.01824 79.66304,401.68128 80.81432,400.83888 81.90944C399.23832 84.0716,396.62688 85.25096,394.3524 85.25096C392.58336 85.25096,391.06704 84.54896,390.33696 83.11688C390.11232 82.55528,390 82.02176,390 81.43208C390 78.37136,393.42576 74.97368,397.35696 74.77712M400.27728 76.32152C400.16496 76.26536,400.02456 76.23728,399.88416 76.23728C399.01368 76.23728,397.55352 76.7708,396.14952 77.72552C393.53808 79.35416,391.404 81.74096,391.31976 83.11688C391.31976 83.11688,391.31976 83.14496,391.31976 83.14496C391.31976 83.62232,391.62864 83.81888000000001,392.16216 83.81888000000001C393.31344 83.81888000000001,395.44752 82.83608,397.41312 81.2636C399.43488 79.66304,400.72656 77.86592,400.72656 76.93928C400.72656 76.6304,400.58616 76.37768,400.27728 76.32152"></path></g></g><g class="vf-modifiers"></g></g><g class="vf-stavenote" id="vf-auto1180"><g class="vf-note" pointer-events="bounding-box"><g class="vf-notehead" pointer-events="bounding-box"><path stroke-width="0.3" fill="black" stroke="none" stroke-dasharray="none" font-family="Arial" font-size="10pt" font-weight="normal" font-style="normal" x="524" y="59.5" width="1" height="41" d="M477.05674666666664 80M478.43266666666665 65.8196C478.46074666666664 65.8196,478.4888266666666 65.79152,478.54498666666666 65.79152C478.68538666666666 65.79152,478.7977066666666 65.87576,479.02234666666664 66.07232C479.10658666666666 66.18464,479.24698666666666 66.29696,479.3312266666666 66.3812L479.7524266666666 66.71816L480.1736266666666 67.11128L480.48250666666667 67.39207999999999L480.81946666666664 67.70096L482.16730666666666 68.88032L484.2171466666666 70.7336C485.25610666666665 71.63216,485.25610666666665 71.63216,485.25610666666665 71.82872L485.25610666666665 71.85679999999999L485.25610666666665 72.02528L485.00338666666664 72.4184C483.62746666666663 74.46824,482.92546666666664 76.82696,482.92546666666664 78.98912C482.92546666666664 81.23552,483.6555466666666 83.34152,485.14378666666664 84.7736C485.3403466666666 85.02632,485.45266666666663 85.08248,485.45266666666663 85.16672C485.4807466666666 85.25096,485.4807466666666 85.27904,485.4807466666666 85.36328C485.4807466666666 85.58792,485.31226666666663 85.78448,485.0595466666666 85.78448C485.00338666666664 85.78448,484.94722666666667 85.78448,484.9191466666666 85.78448C484.6383466666666 85.67216,484.32946666666663 85.64408,483.99250666666666 85.64408C483.31858666666665 85.64408,482.58850666666666 85.84064000000001,481.9988266666666 86.23376C480.8756266666666 86.99192,480.25786666666664 88.19936,480.25786666666664 89.5472C480.25786666666664 90.78272,480.81946666666664 92.15864,481.88650666666666 93.22568C482.16730666666666 93.50648,482.2515466666666 93.67496,482.2515466666666 93.81536C482.2515466666666 93.92768,482.19538666666665 94.01192,482.1392266666666 94.09616C481.9988266666666 94.1804,481.94266666666664 94.26464,481.8584266666666 94.26464C481.7180266666666 94.26464,481.54954666666663 94.12424,481.32490666666666 93.98384C478.88194666666664 92.01824,477.3937066666666 89.88416,477.05674666666664 87.97472C477.05674666666664 87.80624,477.05674666666664 87.5816,477.05674666666664 87.3008C477.05674666666664 87.07616,477.05674666666664 86.79536,477.08482666666663 86.68304C477.5060266666666 84.97015999999999,479.10658666666666 83.9312,481.21258666666665 83.9312C481.74610666666666 83.9312,482.36386666666664 83.98736,482.92546666666664 84.15584C483.00970666666666 84.15584,483.0939466666666 84.18392,483.0939466666666 84.18392C483.0939466666666 84.18392,483.0939466666666 84.18392,483.0939466666666 84.18392L483.0939466666666 84.18392C483.0939466666666 84.15584,482.92546666666664 83.98736,482.7008266666666 83.81888000000001L481.46530666666666 82.72376L479.7524266666666 81.15128C477.6464266666666 79.32608,477.5341066666666 79.18568,477.5341066666666 79.04528C477.5341066666666 78.98912,477.5341066666666 78.98912,477.5341066666666 78.96104C477.5341066666666 78.96104,477.5341066666666 78.93296,477.5341066666666 78.93296C477.5341066666666 78.76448,477.5341066666666 78.76448,477.75874666666664 78.42752C479.3312266666666 76.32152,480.14554666666663 73.85048,480.14554666666663 71.63216C480.14554666666663 69.69463999999999,479.52778666666666 67.89752,478.3484266666666 66.69008C478.17994666666664 66.5216,478.12378666666666 66.32504,478.12378666666666 66.21272C478.12378666666666 66.01616,478.2361066666666 65.90384,478.43266666666665 65.8196"></path></g></g><g class="vf-modifiers"></g></g><rect stroke-width="0.3" fill="black" stroke="black" stroke-dasharray="none" font-family="Arial" font-size="10pt" font-weight="normal" font-style="normal" x="385" y="32" width="43.607573333333306" height="1"></rect><rect stroke-width="0.3" fill="black" stroke="black" stroke-dasharray="none" font-family="Arial" font-size="10pt" font-weight="normal" font-style="normal" x="446.8731733333333" y="32" width="43.607573333333306" height="1"></rect><rect stroke-width="0.3" fill="black" stroke="black" stroke-dasharray="none" font-family="Arial" font-size="10pt" font-weight="normal" font-style="normal" x="385" y="32" width="1" height="10"></rect><rect stroke-width="0.3" fill="black" stroke="black" stroke-dasharray="none" font-family="Arial" font-size="10pt" font-weight="normal" font-style="normal" x="490.4807466666666" y="32" width="1" height="10"></rect><path stroke-width="0.3" fill="black" stroke="none" stroke-dasharray="none" font-family="Arial" font-size="10pt" font-weight="normal" font-style="normal" x="490.4807466666666" y="32" width="1" height="10" d="M433.60757333333333 39.333333333333336M437.1154133333333 26.269653333333338C437.15573333333333 26.269653333333338,437.29685333333333 26.269653333333338,437.4581333333333 26.269653333333338C437.72021333333333 26.269653333333338,438.04277333333334 26.269653333333338,438.14357333333334 26.269653333333338C439.9982933333333 26.471253333333337,441.44981333333334 27.479253333333336,441.7118933333333 28.789653333333334C441.7522133333333 28.910613333333337,441.7522133333333 29.051733333333335,441.7522133333333 29.192853333333336C441.7522133333333 29.354133333333337,441.7522133333333 29.495253333333338,441.7118933333333 29.575893333333333C441.44981333333334 30.523413333333338,440.3410133333333 31.390293333333336,438.92981333333336 31.813653333333335C438.8290133333333 31.853973333333336,438.78869333333336 31.853973333333336,438.78869333333336 31.874133333333337C438.78869333333336 31.874133333333337,438.78869333333336 31.874133333333337,438.78869333333336 31.874133333333337C438.80885333333333 31.874133333333337,438.8693333333333 31.894293333333337,438.92981333333336 31.894293333333337C440.8450133333333 32.599893333333334,441.8530133333333 33.95061333333334,441.8530133333333 35.26101333333334C441.8530133333333 36.26901333333333,441.28853333333336 37.236693333333335,440.01845333333335 37.881813333333334C439.27253333333334 38.28501333333334,438.4459733333333 38.466453333333334,437.6395733333333 38.466453333333334C436.3090133333333 38.466453333333334,434.9986133333333 37.962453333333336,434.07125333333335 37.05525333333333C433.72853333333336 36.73269333333334,433.60757333333333 36.32949333333333,433.60757333333333 35.926293333333334C433.60757333333333 35.09973333333333,434.1922133333333 34.313493333333334,435.15989333333334 34.313493333333334L435.15989333333334 34.313493333333334C436.1275733333333 34.313493333333334,436.67189333333334 35.05941333333334,436.67189333333334 35.825493333333334C436.67189333333334 36.410133333333334,436.3694933333333 36.994773333333335,435.68405333333334 37.277013333333336C435.68405333333334 37.277013333333336,435.68405333333334 37.277013333333336,435.68405333333334 37.277013333333336C435.68405333333334 37.29717333333333,436.2686933333333 37.41813333333334,436.57109333333335 37.438293333333334C436.61141333333336 37.438293333333334,436.6517333333333 37.438293333333334,436.6920533333333 37.438293333333334C438.0226133333333 37.438293333333334,438.94997333333333 36.49077333333334,438.94997333333333 35.180373333333335C438.94997333333333 35.039253333333335,438.94997333333333 34.91829333333334,438.92981333333336 34.77717333333334C438.70805333333334 33.30549333333334,437.72021333333333 32.21685333333333,436.57109333333335 32.17653333333334C436.28885333333335 32.156373333333335,436.14773333333335 32.03541333333334,436.14773333333335 31.853973333333336C436.14773333333335 31.612053333333336,436.2686933333333 31.511253333333336,436.57109333333335 31.511253333333336C437.55893333333336 31.450773333333334,438.40565333333336 30.785493333333335,438.7282133333333 29.777493333333336C438.80885333333333 29.575893333333333,438.8290133333333 29.374293333333334,438.8290133333333 29.213013333333336C438.8290133333333 28.366293333333335,438.2040533333333 27.600213333333336,437.27669333333336 27.398613333333337C437.13557333333335 27.338133333333335,436.95413333333335 27.338133333333335,436.75253333333336 27.338133333333335C436.47029333333336 27.338133333333335,436.20821333333333 27.358293333333336,435.92597333333333 27.398613333333337L435.8453333333333 27.418773333333334L435.92597333333333 27.479253333333336C436.4501333333333 27.761493333333334,436.67189333333334 28.265493333333335,436.67189333333334 28.769493333333337C436.67189333333334 29.434773333333336,436.2283733333333 30.100053333333335,435.4622933333333 30.281493333333337C435.3614933333333 30.301653333333334,435.24053333333336 30.301653333333334,435.1397333333333 30.301653333333334C434.25269333333335 30.301653333333334,433.58741333333336 29.495253333333338,433.58741333333336 28.648533333333333C433.58741333333336 28.285653333333336,433.7083733333333 27.922773333333335,434.01077333333336 27.620373333333333C434.7163733333333 26.854293333333334,435.78485333333333 26.410773333333335,437.1154133333333 26.269653333333338M437.72021333333333 39.35349333333333L437.7403733333333 39.35349333333333L437.6798933333333 39.35349333333333L437.72021333333333 39.35349333333333M437.72021333333333 25.765653333333333L437.7403733333333 25.765653333333333L437.6798933333333 25.765653333333333L437.72021333333333 25.765653333333333"></path><path stroke-width="1" fill="none" stroke="#999999" stroke-dasharray="none" font-family="Arial" font-size="10pt" font-weight="normal" font-style="normal" x="490.4807466666666" y="32" width="1" height="10" d="M524 80L979 80"></path><rect stroke-width="0.3" fill="black" stroke="black" stroke-dasharray="none" font-family="Arial" font-size="10pt" font-weight="normal" font-style="normal" x="524" y="59.5" width="1" height="41"></rect><rect stroke-width="0.3" fill="black" stroke="black" stroke-dasharray="none" font-family="Arial" font-size="10pt" font-weight="normal" font-style="normal" x="979" y="59.5" width="1" height="41"></rect><g class="vf-stavenote" id="vf-auto1200"><g class="vf-note" pointer-events="bounding-box"><g class="vf-notehead" pointer-events="bounding-box"><path stroke-width="0.3" fill="black" stroke="none" stroke-dasharray="none" font-family="Arial" font-size="10pt" font-weight="normal" font-style="normal" x="979" y="59.5" width="1" height="41" d="M541 80M548.35696 74.77712C548.46928 74.77712,548.63776 74.77712,548.66584 74.77712C548.66584 74.77712,548.69392 74.77712,548.69392 74.77712C548.69392 74.77712,548.8624 74.77712,549.0028 74.77712C551.53 74.91752,553.01824 76.57424,553.01824 78.65216C553.01824 79.66304,552.68128 80.81432,551.83888 81.90944C550.23832 84.0716,547.62688 85.25096,545.3524 85.25096C543.58336 85.25096,542.06704 84.54896,541.33696 83.11688C541.11232 82.55528,541 82.02176,541 81.43208C541 78.37136,544.42576 74.97368,548.35696 74.77712"></path></g></g><g class="vf-modifiers"></g></g><g class="vf-stavenote" id="vf-auto1207"><g class="vf-note" pointer-events="bounding-box"><g class="vf-notehead" pointer-events="bounding-box"><path stroke-width="0.3" fill="black" stroke="none" stroke-dasharray="none" font-family="Arial" font-size="10pt" font-weight="normal" font-style="normal" x="979" y="59.5" width="1" height="41" d="M585.1742666666667 80M592.5312266666666 74.77712C592.6435466666667 74.77712,592.8120266666666 74.77712,592.8401066666667 74.77712C592.8401066666667 74.77712,592.8681866666667 74.77712,592.8681866666667 74.77712C592.8681866666667 74.77712,593.0366666666666 74.77712,593.1770666666666 74.77712C595.7042666666666 74.91752,597.1925066666666 76.57424,597.1925066666666 78.65216C597.1925066666666 79.66304,596.8555466666667 80.81432,596.0131466666667 81.90944C594.4125866666667 84.0716,591.8011466666667 85.25096,589.5266666666666 85.25096C587.7576266666666 85.25096,586.2413066666667 84.54896,585.5112266666666 83.11688C585.2865866666666 82.55528,585.1742666666667 82.02176,585.1742666666667 81.43208C585.1742666666667 78.37136,588.6000266666666 74.97368,592.5312266666666 74.77712"></path></g></g><g class="vf-modifiers"></g></g><g class="vf-stavenote" id="vf-auto1214"><g class="vf-note" pointer-events="bounding-box"><g class="vf-notehead" pointer-events="bounding-box"><path stroke-width="0.3" fill="black" stroke="none" stroke-dasharray="none" font-family="Arial" font-size="10pt" font-weight="normal" font-style="normal" x="979" y="59.5" width="1" height="41" d="M629.3485333333333 80M636.7054933333333 74.77712C636.8178133333333 74.77712,636.9862933333333 74.77712,637.0143733333333 74.77712C637.0143733333333 74.77712,637.0424533333334 74.77712,637.0424533333334 74.77712C637.0424533333334 74.77712,637.2109333333333 74.77712,637.3513333333333 74.77712C639.8785333333333 74.91752,641.3667733333333 76.57424,641.3667733333333 78.65216C641.3667733333333 79.66304,641.0298133333333 80.81432,640.1874133333333 81.90944C638.5868533333334 84.0716,635.9754133333333 85.25096,633.7009333333333 85.25096C631.9318933333333 85.25096,630.4155733333333 84.54896,629.6854933333333 83.11688C629.4608533333333 82.55528,629.3485333333333 82.02176,629.3485333333333 81.43208C629.3485333333333 78.37136,632.7742933333333 74.97368,636.7054933333333 74.77712"></path></g></g><g class="vf-modifiers"></g></g><g class="vf-stavenote" id="vf-auto1221"><g class="vf-note" pointer-events="bounding-box"><g class="vf-stem" pointer-events="bounding-box"><path stroke-width="1.5" fill="none" stroke="black" stroke-dasharray="none" font-family="Arial" font-size="10pt" font-weight="normal" font-style="normal" x="979" y="59.5" width="1" height="41" d="M684.79104 80L684.79104 45"></path></g><g class="vf-notehead" pointer-events="bounding-box"><path stroke-width="0.3" fill="black" stroke="none" stroke-dasharray="none" font-family="Arial" font-size="10pt" font-weight="normal" font-style="normal" x="979" y="59.5" width="1" height="41" d="M673.5228 80M680.8797599999999 74.77712C680.99208 74.77712,681.1605599999999 74.77712,681.18864 74.77712C681.18864 74.77712,681.21672 74.77712,681.21672 74.77712C681.21672 74.77712,681.3851999999999 74.77712,681.5255999999999 74.77712C684.0527999999999 74.91752,685.54104 76.57424,685.54104 78.65216C685.54104 79.66304,685.20408 80.81432,684.36168 81.90944C682.76112 84.0716,680.14968 85.25096,677.8752 85.25096C676.1061599999999 85.25096,674.58984 84.54896,673.8597599999999 83.11688C673.6351199999999 82.55528,673.5228 82.02176,673.5228 81.43208C673.5228 78.37136,676.9485599999999 74.97368,680.8797599999999 74.77712"></path></g></g><g class="vf-modifiers"></g></g><g class="vf-stavenote" id="vf-auto1227"><g class="vf-note" pointer-events="bounding-box"><g class="vf-notehead" pointer-events="bounding-box"><path stroke-width="0.3" fill="black" stroke="none" stroke-dasharray="none" font-family="Arial" font-size="10pt" font-weight="normal" font-style="normal" x="979" y="59.5" width="1" height="41" d="M848.4772 80M855.83416 74.77712C855.9464800000001 74.77712,856.11496 74.77712,856.14304 74.77712C856.14304 74.77712,856.1711200000001 74.77712,856.1711200000001 74.77712C856.1711200000001 74.77712,856.3396 74.77712,856.48 74.77712C859.0072 74.91752,860.49544 76.57424,860.49544 78.65216C860.49544 79.66304,860.15848 80.81432,859.31608 81.90944C857.7155200000001 84.0716,855.1040800000001 85.25096,852.8296 85.25096C851.06056 85.25096,849.5442400000001 84.54896,848.81416 83.11688C848.58952 82.55528,848.4772 82.02176,848.4772 81.43208C848.4772 78.37136,851.90296 74.97368,855.83416 74.77712"></path></g></g><g class="vf-modifiers"></g></g><g class="vf-stavenote" id="vf-auto1234"><g class="vf-note" pointer-events="bounding-box"><g class="vf-notehead" pointer-events="bounding-box"><path stroke-width="0.3" fill="black" stroke="none" stroke-dasharray="none" font-family="Arial" font-size="10pt" font-weight="normal" font-style="normal" x="979" y="59.5" width="1" height="41" d="M892.6514666666667 80M900.0084266666667 74.77712C900.1207466666667 74.77712,900.2892266666667 74.77712,900.3173066666667 74.77712C900.3173066666667 74.77712,900.3453866666667 74.77712,900.3453866666667 74.77712C900.3453866666667 74.77712,900.5138666666667 74.77712,900.6542666666667 74.77712C903.1814666666667 74.91752,904.6697066666667 76.57424,904.6697066666667 78.65216C904.6697066666667 79.66304,904.3327466666667 80.81432,903.4903466666667 81.90944C901.8897866666667 84.0716,899.2783466666667 85.25096,897.0038666666667 85.25096C895.2348266666667 85.25096,893.7185066666667 84.54896,892.9884266666667 83.11688C892.7637866666666 82.55528,892.6514666666667 82.02176,892.6514666666667 81.43208C892.6514666666667 78.37136,896.0772266666667 74.97368,900.0084266666667 74.77712"></path></g></g><g class="vf-modifiers"></g></g><g class="vf-stavenote" id="vf-auto1241"><g class="vf-note" pointer-events="bounding-box"><g class="vf-notehead" pointer-events="bounding-box"><path stroke-width="0.3" fill="black" stroke="none" stroke-dasharray="none" font-family="Arial" font-size="10pt" font-weight="normal" font-style="normal" x="979" y="59.5" width="1" height="41" d="M936.8257333333333 80M944.1826933333333 74.77712C944.2950133333334 74.77712,944.4634933333333 74.77712,944.4915733333333 74.77712C944.4915733333333 74.77712,944.5196533333334 74.77712,944.5196533333334 74.77712C944.5196533333334 74.77712,944.6881333333333 74.77712,944.8285333333333 74.77712C947.3557333333333 74.91752,948.8439733333333 76.57424,948.8439733333333 78.65216C948.8439733333333 79.66304,948.5070133333334 80.81432,947.6646133333334 81.90944C946.0640533333334 84.0716,943.4526133333334 85.25096,941.1781333333333 85.25096C939.4090933333333 85.25096,937.8927733333334 84.54896,937.1626933333333 83.11688C936.9380533333333 82.55528,936.8257333333333 82.02176,936.8257333333333 81.43208C936.8257333333333 78.37136,940.2514933333333 74.97368,944.1826933333333 74.77712"></path></g></g><g class="vf-modifiers"></g></g><path stroke-width="1.5" fill="none" stroke="black" stroke-dasharray="none" font-family="Arial" font-size="10pt" font-weight="normal" font-style="normal" x="979" y="59.5" width="1" height="41" d="M552.26824 80L552.26824 45.75"></path><path stroke-width="1.5" fill="none" stroke="black" stroke-dasharray="none" font-family="Arial" font-size="10pt" font-weight="normal" font-style="normal" x="979" y="59.5" width="1" height="41" d="M596.4425066666666 80L596.4425066666666 45.75"></path><path stroke-width="1.5" fill="none" stroke="black" stroke-dasharray="none" font-family="Arial" font-size="10pt" font-weight="normal" font-style="normal" x="979" y="59.5" width="1" height="41" d="M640.6167733333333 80L640.6167733333333 45.75"></path><path stroke-width="0.3" fill="black" stroke="none" stroke-dasharray="none" font-family="Arial" font-size="10pt" font-weight="normal" font-style="normal" x="979" y="59.5" width="1" height="41" d="M551.51824 45L551.51824 50L640.8667733333333 50L640.8667733333333 45Z"></path><path stroke-width="0.3" fill="black" stroke="none" stroke-dasharray="none" font-family="Arial" font-size="10pt" font-weight="normal" font-style="normal" x="979" y="59.5" width="1" height="41" d="M551.51824 52.5L551.51824 57.5L640.8667733333333 57.5L640.8667733333333 52.5Z"></path><path stroke-width="1.5" fill="none" stroke="black" stroke-dasharray="none" font-family="Arial" font-size="10pt" font-weight="normal" font-style="normal" x="979" y="59.5" width="1" height="41" d="M859.74544 80L859.74544 45.75"></path><path stroke-width="1.5" fill="none" stroke="black" stroke-dasharray="none" font-family="Arial" font-size="10pt" font-weight="normal" font-style="normal" x="979" y="59.5" width="1" height="41" d="M903.9197066666667 80L903.9197066666667 45.75"></path><path stroke-width="1.5" fill="none" stroke="black" stroke-dasharray="none" font-family="Arial" font-size="10pt" font-weight="normal" font-style="normal" x="979" y="59.5" width="1" height="41" d="M948.0939733333333 80L948.0939733333333 45.75"></path><path stroke-width="0.3" fill="black" stroke="none" stroke-dasharray="none" font-family="Arial" font-size="10pt" font-weight="normal" font-style="normal" x="979" y="59.5" width="1" height="41" d="M858.99544 45L858.99544 50L948.3439733333333 50L948.3439733333333 45Z"></path><path stroke-width="0.3" fill="black" stroke="none" stroke-dasharray="none" font-family="Arial" font-size="10pt" font-weight="normal" font-style="normal" x="979" y="59.5" width="1" height="41" d="M858.99544 52.5L858.99544 57.5L948.3439733333333 57.5L948.3439733333333 52.5Z"></path><path stroke-width="0.3" fill="black" stroke="none" stroke-dasharray="none" font-family="Arial" font-size="10pt" font-weight="normal" font-style="normal" x="979" y="59.5" width="1" height="41" d="M592.3097066666667 39.333333333333336M595.8175466666667 26.269653333333338C595.8578666666667 26.269653333333338,595.9989866666667 26.269653333333338,596.1602666666666 26.269653333333338C596.4223466666667 26.269653333333338,596.7449066666667 26.269653333333338,596.8457066666666 26.269653333333338C598.7004266666667 26.471253333333337,600.1519466666666 27.479253333333336,600.4140266666667 28.789653333333334C600.4543466666667 28.910613333333337,600.4543466666667 29.051733333333335,600.4543466666667 29.192853333333336C600.4543466666667 29.354133333333337,600.4543466666667 29.495253333333338,600.4140266666667 29.575893333333333C600.1519466666666 30.523413333333338,599.0431466666666 31.390293333333336,597.6319466666666 31.813653333333335C597.5311466666667 31.853973333333336,597.4908266666666 31.853973333333336,597.4908266666666 31.874133333333337C597.4908266666666 31.874133333333337,597.4908266666666 31.874133333333337,597.4908266666666 31.874133333333337C597.5109866666667 31.874133333333337,597.5714666666667 31.894293333333337,597.6319466666666 31.894293333333337C599.5471466666667 32.599893333333334,600.5551466666667 33.95061333333334,600.5551466666667 35.26101333333334C600.5551466666667 36.26901333333333,599.9906666666667 37.236693333333335,598.7205866666667 37.881813333333334C597.9746666666666 38.28501333333334,597.1481066666666 38.466453333333334,596.3417066666667 38.466453333333334C595.0111466666667 38.466453333333334,593.7007466666666 37.962453333333336,592.7733866666666 37.05525333333333C592.4306666666666 36.73269333333334,592.3097066666667 36.32949333333333,592.3097066666667 35.926293333333334C592.3097066666667 35.09973333333333,592.8943466666667 34.313493333333334,593.8620266666667 34.313493333333334L593.8620266666667 34.313493333333334C594.8297066666667 34.313493333333334,595.3740266666666 35.05941333333334,595.3740266666666 35.825493333333334C595.3740266666666 36.410133333333334,595.0716266666667 36.994773333333335,594.3861866666666 37.277013333333336C594.3861866666666 37.277013333333336,594.3861866666666 37.277013333333336,594.3861866666666 37.277013333333336C594.3861866666666 37.29717333333333,594.9708266666667 37.41813333333334,595.2732266666667 37.438293333333334C595.3135466666666 37.438293333333334,595.3538666666667 37.438293333333334,595.3941866666667 37.438293333333334C596.7247466666666 37.438293333333334,597.6521066666667 36.49077333333334,597.6521066666667 35.180373333333335C597.6521066666667 35.039253333333335,597.6521066666667 34.91829333333334,597.6319466666666 34.77717333333334C597.4101866666666 33.30549333333334,596.4223466666667 32.21685333333333,595.2732266666667 32.17653333333334C594.9909866666667 32.156373333333335,594.8498666666667 32.03541333333334,594.8498666666667 31.853973333333336C594.8498666666667 31.612053333333336,594.9708266666667 31.511253333333336,595.2732266666667 31.511253333333336C596.2610666666667 31.450773333333334,597.1077866666667 30.785493333333335,597.4303466666667 29.777493333333336C597.5109866666667 29.575893333333333,597.5311466666667 29.374293333333334,597.5311466666667 29.213013333333336C597.5311466666667 28.366293333333335,596.9061866666667 27.600213333333336,595.9788266666667 27.398613333333337C595.8377066666667 27.338133333333335,595.6562666666666 27.338133333333335,595.4546666666666 27.338133333333335C595.1724266666666 27.338133333333335,594.9103466666667 27.358293333333336,594.6281066666667 27.398613333333337L594.5474666666667 27.418773333333334L594.6281066666667 27.479253333333336C595.1522666666667 27.761493333333334,595.3740266666666 28.265493333333335,595.3740266666666 28.769493333333337C595.3740266666666 29.434773333333336,594.9305066666667 30.100053333333335,594.1644266666667 30.281493333333337C594.0636266666667 30.301653333333334,593.9426666666667 30.301653333333334,593.8418666666666 30.301653333333334C592.9548266666667 30.301653333333334,592.2895466666666 29.495253333333338,592.2895466666666 28.648533333333333C592.2895466666666 28.285653333333336,592.4105066666667 27.922773333333335,592.7129066666666 27.620373333333333C593.4185066666666 26.854293333333334,594.4869866666667 26.410773333333335,595.8175466666667 26.269653333333338M596.4223466666667 39.35349333333333L596.4425066666666 39.35349333333333L596.3820266666667 39.35349333333333L596.4223466666667 39.35349333333333M596.4223466666667 25.765653333333333L596.4425066666666 25.765653333333333L596.3820266666667 25.765653333333333L596.4223466666667 25.765653333333333"></path><path stroke-width="0.3" fill="black" stroke="none" stroke-dasharray="none" font-family="Arial" font-size="10pt" font-weight="normal" font-style="normal" x="979" y="59.5" width="1" height="41" d="M899.7869066666667 39.333333333333336M903.2947466666667 26.269653333333338C903.3350666666668 26.269653333333338,903.4761866666668 26.269653333333338,903.6374666666667 26.269653333333338C903.8995466666668 26.269653333333338,904.2221066666667 26.269653333333338,904.3229066666667 26.269653333333338C906.1776266666667 26.471253333333337,907.6291466666667 27.479253333333336,907.8912266666667 28.789653333333334C907.9315466666667 28.910613333333337,907.9315466666667 29.051733333333335,907.9315466666667 29.192853333333336C907.9315466666667 29.354133333333337,907.9315466666667 29.495253333333338,907.8912266666667 29.575893333333333C907.6291466666667 30.523413333333338,906.5203466666667 31.390293333333336,905.1091466666667 31.813653333333335C905.0083466666667 31.853973333333336,904.9680266666667 31.853973333333336,904.9680266666667 31.874133333333337C904.9680266666667 31.874133333333337,904.9680266666667 31.874133333333337,904.9680266666667 31.874133333333337C904.9881866666667 31.874133333333337,905.0486666666667 31.894293333333337,905.1091466666667 31.894293333333337C907.0243466666667 32.599893333333334,908.0323466666667 33.95061333333334,908.0323466666667 35.26101333333334C908.0323466666667 36.26901333333333,907.4678666666667 37.236693333333335,906.1977866666667 37.881813333333334C905.4518666666667 38.28501333333334,904.6253066666667 38.466453333333334,903.8189066666667 38.466453333333334C902.4883466666668 38.466453333333334,901.1779466666667 37.962453333333336,900.2505866666667 37.05525333333333C899.9078666666667 36.73269333333334,899.7869066666667 36.32949333333333,899.7869066666667 35.926293333333334C899.7869066666667 35.09973333333333,900.3715466666667 34.313493333333334,901.3392266666667 34.313493333333334L901.3392266666667 34.313493333333334C902.3069066666667 34.313493333333334,902.8512266666667 35.05941333333334,902.8512266666667 35.825493333333334C902.8512266666667 36.410133333333334,902.5488266666667 36.994773333333335,901.8633866666667 37.277013333333336C901.8633866666667 37.277013333333336,901.8633866666667 37.277013333333336,901.8633866666667 37.277013333333336C901.8633866666667 37.29717333333333,902.4480266666667 37.41813333333334,902.7504266666667 37.438293333333334C902.7907466666667 37.438293333333334,902.8310666666667 37.438293333333334,902.8713866666667 37.438293333333334C904.2019466666667 37.438293333333334,905.1293066666667 36.49077333333334,905.1293066666667 35.180373333333335C905.1293066666667 35.039253333333335,905.1293066666667 34.91829333333334,905.1091466666667 34.77717333333334C904.8873866666667 33.30549333333334,903.8995466666668 32.21685333333333,902.7504266666667 32.17653333333334C902.4681866666667 32.156373333333335,902.3270666666667 32.03541333333334,902.3270666666667 31.853973333333336C902.3270666666667 31.612053333333336,902.4480266666667 31.511253333333336,902.7504266666667 31.511253333333336C903.7382666666667 31.450773333333334,904.5849866666667 30.785493333333335,904.9075466666667 29.777493333333336C904.9881866666667 29.575893333333333,905.0083466666667 29.374293333333334,905.0083466666667 29.213013333333336C905.0083466666667 28.366293333333335,904.3833866666668 27.600213333333336,903.4560266666667 27.398613333333337C903.3149066666667 27.338133333333335,903.1334666666667 27.338133333333335,902.9318666666667 27.338133333333335C902.6496266666667 27.338133333333335,902.3875466666667 27.358293333333336,902.1053066666667 27.398613333333337L902.0246666666667 27.418773333333334L902.1053066666667 27.479253333333336C902.6294666666668 27.761493333333334,902.8512266666667 28.265493333333335,902.8512266666667 28.769493333333337C902.8512266666667 29.434773333333336,902.4077066666667 30.100053333333335,901.6416266666668 30.281493333333337C901.5408266666667 30.301653333333334,901.4198666666667 30.301653333333334,901.3190666666667 30.301653333333334C900.4320266666667 30.301653333333334,899.7667466666667 29.495253333333338,899.7667466666667 28.648533333333333C899.7667466666667 28.285653333333336,899.8877066666668 27.922773333333335,900.1901066666667 27.620373333333333C900.8957066666667 26.854293333333334,901.9641866666667 26.410773333333335,903.2947466666667 26.269653333333338M903.8995466666668 39.35349333333333L903.9197066666667 39.35349333333333L903.8592266666667 39.35349333333333L903.8995466666668 39.35349333333333M903.8995466666668 25.765653333333333L903.9197066666667 25.765653333333333L903.8592266666667 25.765653333333333L903.8995466666668 25.765653333333333"></path><path stroke-width="1" fill="none" stroke="#999999" stroke-dasharray="none" font-family="Arial" font-size="10pt" font-weight="normal" font-style="normal" x="979" y="59.5" width="1" height="41" d="M20 210L555 210"></path><rect stroke-width="0.3" fill="black" stroke="black" stroke-dasharray="none" font-family="Arial" font-size="10pt" font-weight="normal" font-style="normal" x="20" y="189.5" width="1" height="41"></rect><rect stroke-width="0.3" fill="black" stroke="black" stroke-dasharray="none" font-family="Arial" font-size="10pt" font-weight="normal" font-style="normal" x="555" y="189.5" width="1" height="41"></rect><path stroke-width="0.3" fill="black" stroke="none" stroke-dasharray="none" font-family="Arial" font-size="10pt" font-weight="normal" font-style="normal" x="555" y="189.5" width="1" height="41" d="M25 210M25 210L25 200.0064L27.1888 200.0064L29.406399999999998 200.0064L29.406399999999998 210L29.406399999999998 220.0224L27.1888 220.0224L25 220.0224L25 210M33.870400000000004 210.0288L33.870400000000004 200.0064L36.1168 200.0064L38.3632 200.0064L38.3632 210.0288L38.3632 220.0224L36.1168 220.0224L33.870400000000004 220.0224L33.870400000000004 210.0288"></path><g class="vf-stavenote" id="vf-auto1500"><g class="vf-note" pointer-events="bounding-box"><g class="vf-notehead" pointer-events="bounding-box"><path stroke-width="0.3" fill="black" stroke="none" stroke-dasharray="none" font-family="Arial" font-size="10pt" font-weight="normal" font-style="normal" x="555" y="189.5" width="1" height="41" d="M50.3632 210M57.72016 204.77712C57.83248 204.77712,58.00096 204.77712,58.02904 204.77712C58.02904 204.77712,58.05712 204.77712,58.05712 204.77712C58.05712 204.77712,58.2256 204.77712,58.366 204.77712C60.8932 204.91752,62.38144 206.57424,62.38144 208.65216C62.38144 209.66304,62.04448 210.81432,61.202079999999995 211.90944C59.60152 214.0716,56.99008 215.25096,54.7156 215.25096C52.94656 215.25096,51.43024 214.54896,50.70016 213.11688C50.475519999999996 212.55528,50.3632 212.02176,50.3632 211.43208C50.3632 208.37136,53.788959999999996 204.97368,57.72016 204.77712"></path></g></g><g class="vf-modifiers"></g></g><g class="vf-stavenote" id="vf-auto1507"><g class="vf-note" pointer-events="bounding-box"><g class="vf-notehead" pointer-events="bounding-box"><path stroke-width="0.3" fill="black" stroke="none" stroke-dasharray="none" font-family="Arial" font-size="10pt" font-weight="normal" font-style="normal" x="555" y="189.5" width="1" height="41" d="M89.91098 210M97.26794 204.77712C97.38025999999999 204.77712,97.54874 204.77712,97.57682 204.77712C97.57682 204.77712,97.6049 204.77712,97.6049 204.77712C97.6049 204.77712,97.77337999999999 204.77712,97.91378 204.77712C100.44098 204.91752,101.92922 206.57424,101.92922 208.65216C101.92922 209.66304,101.59226 210.81432,100.74986 211.90944C99.1493 214.0716,96.53786 215.25096,94.26338 215.25096C92.49434 215.25096,90.97802 214.54896,90.24794 213.11688C90.02329999999999 212.55528,89.91098 212.02176,89.91098 211.43208C89.91098 208.37136,93.33673999999999 204.97368,97.26794 204.77712"></path></g></g><g class="vf-modifiers"></g></g><g class="vf-stavenote" id="vf-auto1514"><g class="vf-note" pointer-events="bounding-box"><g class="vf-notehead" pointer-events="bounding-box"><path stroke-width="0.3" fill="black" stroke="none" stroke-dasharray="none" font-family="Arial" font-size="10pt" font-weight="normal" font-style="normal" x="555" y="189.5" width="1" height="41" d="M129.45876 210M136.81572 204.77712C136.92804 204.77712,137.09652 204.77712,137.12460000000002 204.77712C137.12460000000002 204.77712,137.15268 204.77712,137.15268 204.77712C137.15268 204.77712,137.32116000000002 204.77712,137.46156000000002 204.77712C139.98876 204.91752,141.477 206.57424,141.477 208.65216C141.477 209.66304,141.14004 210.81432,140.29764 211.90944C138.69708 214.0716,136.08564 215.25096,133.81116 215.25096C132.04212 215.25096,130.5258 214.54896,129.79572000000002 213.11688C129.57108000000002 212.55528,129.45876 212.02176,129.45876 211.43208C129.45876 208.37136,132.88452 204.97368,136.81572 204.77712"></path></g></g><g class="vf-modifiers"></g></g><g class="vf-stavenote" id="vf-auto1521"><g class="vf-note" pointer-events="bounding-box"><g class="vf-notehead" pointer-events="bounding-box"><path stroke-width="0.3" fill="black" stroke="none" stroke-dasharray="none" font-family="Arial" font-size="10pt" font-weight="normal" font-style="normal" x="555" y="189.5" width="1" height="41" d="M169.00654000000003 210M176.36350000000002 204.77712C176.47582000000003 204.77712,176.64430000000004 204.77712,176.67238000000003 204.77712C176.67238000000003 204.77712,176.70046000000002 204.77712,176.70046000000002 204.77712C176.70046000000002 204.77712,176.86894000000004 204.77712,177.00934000000004 204.77712C179.53654000000003 204.91752,181.02478000000002 206.57424,181.02478000000002 208.65216C181.02478000000002 209.66304,180.68782000000004 210.81432,179.84542000000002 211.90944C178.24486000000002 214.0716,175.63342000000003 215.25096,173.35894000000002 215.25096C171.58990000000003 215.25096,170.07358000000002 214.54896,169.34350000000003 213.11688C169.11886000000004 212.55528,169.00654000000003 212.02176,169.00654000000003 211.43208C169.00654000000003 208.37136,172.43230000000003 204.97368,176.36350000000002 204.77712"></path></g></g><g class="vf-modifiers"></g></g><g class="vf-stavenote" id="vf-auto1528"><g class="vf-note" pointer-events="bounding-box"><g class="vf-notehead" pointer-events="bounding-box"><path stroke-width="0.3" fill="black" stroke="none" stroke-dasharray="none" font-family="Arial" font-size="10pt" font-weight="normal" font-style="normal" x="555" y="189.5" width="1" height="41" d="M273.14294 210M280.4999 204.77712C280.61222000000004 204.77712,280.7807 204.77712,280.80878 204.77712C280.80878 204.77712,280.83686 204.77712,280.83686 204.77712C280.83686 204.77712,281.00534 204.77712,281.14574 204.77712C283.67294000000004 204.91752,285.16118 206.57424,285.16118 208.65216C285.16118 209.66304,284.82422 210.81432,283.98182 211.90944C282.38126 214.0716,279.76982 215.25096,277.49534 215.25096C275.72630000000004 215.25096,274.20998000000003 214.54896,273.4799 213.11688C273.25526 212.55528,273.14294 212.02176,273.14294 211.43208C273.14294 208.37136,276.56870000000004 204.97368,280.4999 204.77712"></path></g></g><g class="vf-modifiers"></g></g><g class="vf-stavenote" id="vf-auto1535"><g class="vf-note" pointer-events="bounding-box"><g class="vf-notehead" pointer-events="bounding-box"><path stroke-width="0.3" fill="black" stroke="none" stroke-dasharray="none" font-family="Arial" font-size="10pt" font-weight="normal" font-style="normal" x="555" y="189.5" width="1" height="41" d="M312.69072000000006 210M320.04768000000007 204.77712C320.1600000000001 204.77712,320.32848000000007 204.77712,320.35656000000006 204.77712C320.35656000000006 204.77712,320.38464000000005 204.77712,320.38464000000005 204.77712C320.38464000000005 204.77712,320.55312000000004 204.77712,320.69352000000003 204.77712C323.22072000000003 204.91752,324.70896000000005 206.57424,324.70896000000005 208.65216C324.70896000000005 209.66304,324.37200000000007 210.81432,323.5296000000001 211.90944C321.92904000000004 214.0716,319.3176000000001 215.25096,317.04312000000004 215.25096C315.2740800000001 215.25096,313.7577600000001 214.54896,313.02768000000003 213.11688C312.80304000000007 212.55528,312.69072000000006 212.02176,312.69072000000006 211.43208C312.69072000000006 208.37136,316.1164800000001 204.97368,320.04768000000007 204.77712"></path></g></g><g class="vf-modifiers"></g></g><g class="vf-stavenote" id="vf-auto1542"><g class="vf-note" pointer-events="bounding-box"><g class="vf-notehead" pointer-events="bounding-box"><path stroke-width="0.3" fill="black" stroke="none" stroke-dasharray="none" font-family="Arial" font-size="10pt" font-weight="normal" font-style="normal" x="555" y="189.5" width="1" height="41" d="M373.76804000000004 210M381.12500000000006 204.77712C381.23732000000007 204.77712,381.40580000000006 204.77712,381.43388000000004 204.77712C381.43388000000004 204.77712,381.46196000000003 204.77712,381.46196000000003 204.77712C381.46196000000003 204.77712,381.63044 204.77712,381.77084 204.77712C384.29804 204.91752,385.78628000000003 206.57424,385.78628000000003 208.65216C385.78628000000003 209.66304,385.44932000000006 210.81432,384.60692000000006 211.90944C383.00636000000003 214.0716,380.39492000000007 215.25096,378.12044000000003 215.25096C376.35140000000007 215.25096,374.83508000000006 214.54896,374.105 213.11688C373.88036000000005 212.55528,373.76804000000004 212.02176,373.76804000000004 211.43208C373.76804000000004 208.37136,377.19380000000007 204.97368,381.12500000000006 204.77712"></path></g></g><g class="vf-modifiers"></g></g><g class="vf-stavenote" id="vf-auto1549"><g class="vf-note" pointer-events="bounding-box"><g class="vf-notehead" pointer-events="bounding-box"><path stroke-width="0.3" fill="black" stroke="none" stroke-dasharray="none" font-family="Arial" font-size="10pt" font-weight="normal" font-style="normal" x="555" y="189.5" width="1" height="41" d="M413.31582000000003 210M420.67278000000005 204.77712C420.78510000000006 204.77712,420.95358000000004 204.77712,420.98166000000003 204.77712C420.98166000000003 204.77712,421.00974 204.77712,421.00974 204.77712C421.00974 204.77712,421.17822 204.77712,421.31862 204.77712C423.84582 204.91752,425.33406 206.57424,425.33406 208.65216C425.33406 209.66304,424.99710000000005 210.81432,424.15470000000005 211.90944C422.55414 214.0716,419.94270000000006 215.25096,417.66822 215.25096C415.89918000000006 215.25096,414.38286000000005 214.54896,413.65278 213.11688C413.42814000000004 212.55528,413.31582000000003 212.02176,413.31582000000003 211.43208C413.31582000000003 208.37136,416.74158000000006 204.97368,420.67278000000005 204.77712"></path></g></g><g class="vf-modifiers"></g></g><g class="vf-stavenote" id="vf-auto1556"><g class="vf-note" pointer-events="bounding-box"><g class="vf-notehead" pointer-events="bounding-box"><path stroke-width="0.3" fill="black" stroke="none" stroke-dasharray="none" font-family="Arial" font-size="10pt" font-weight="normal" font-style="normal" x="555" y="189.5" width="1" height="41" d="M452.8636 210M460.22056000000003 204.77712C460.33288000000005 204.77712,460.50136000000003 204.77712,460.52944 204.77712C460.52944 204.77712,460.55752 204.77712,460.55752 204.77712C460.55752 204.77712,460.726 204.77712,460.8664 204.77712C463.3936 204.91752,464.88184 206.57424,464.88184 208.65216C464.88184 209.66304,464.54488000000003 210.81432,463.70248000000004 211.90944C462.10192 214.0716,459.49048000000005 215.25096,457.216 215.25096C455.44696000000005 215.25096,453.93064000000004 214.54896,453.20056 213.11688C452.97592000000003 212.55528,452.8636 212.02176,452.8636 211.43208C452.8636 208.37136,456.28936000000004 204.97368,460.22056000000003 204.77712"></path></g></g><g class="vf-modifiers"></g></g><path stroke-width="1.5" fill="none" stroke="black" stroke-dasharray="none" font-family="Arial" font-size="10pt" font-weight="normal" font-style="normal" x="555" y="189.5" width="1" height="41" d="M61.63144 210L61.63144 166.75"></path><path stroke-width="1.5" fill="none" stroke="black" stroke-dasharray="none" font-family="Arial" font-size="10pt" font-weight="normal" font-style="normal" x="555" y="189.5" width="1" height="41" d="M101.17922 210L101.17922 166.75"></path><path stroke-width="1.5" fill="none" stroke="black" stroke-dasharray="none" font-family="Arial" font-size="10pt" font-weight="normal" font-style="normal" x="555" y="189.5" width="1" height="41" d="M140.727 210L140.727 166.75"></path><path stroke-width="1.5" fill="none" stroke="black" stroke-dasharray="none" font-family="Arial" font-size="10pt" font-weight="normal" font-style="normal" x="555" y="189.5" width="1" height="41" d="M180.27478000000002 210L180.27478000000002 166.75"></path><path stroke-width="1.5" fill="none" stroke="black" stroke-dasharray="none" font-family="Arial" font-size="10pt" font-weight="normal" font-style="normal" x="555" y="189.5" width="1" height="41" d="M284.41118 210L284.41118 166.75"></path><path stroke-width="0.3" fill="black" stroke="none" stroke-dasharray="none" font-family="Arial" font-size="10pt" font-weight="normal" font-style="normal" x="555" y="189.5" width="1" height="41" d="M60.88144 166L60.88144 171L284.66118 171L284.66118 166Z"></path><path stroke-width="0.3" fill="black" stroke="none" stroke-dasharray="none" font-family="Arial" font-size="10pt" font-weight="normal" font-style="normal" x="555" y="189.5" width="1" height="41" d="M60.88144 173.5L60.88144 178.5L140.977 178.5L140.977 173.5Z"></path><path stroke-width="0.3" fill="black" stroke="none" stroke-dasharray="none" font-family="Arial" font-size="10pt" font-weight="normal" font-style="normal" x="555" y="189.5" width="1" height="41" d="M283.66118 173.5L283.66118 178.5L274.66118 178.5L274.66118 173.5Z"></path><path stroke-width="0.3" fill="black" stroke="none" stroke-dasharray="none" font-family="Arial" font-size="10pt" font-weight="normal" font-style="normal" x="555" y="189.5" width="1" height="41" d="M60.88144 181L60.88144 186L140.977 186L140.977 181Z"></path><path stroke-width="0.3" fill="black" stroke="none" stroke-dasharray="none" font-family="Arial" font-size="10pt" font-weight="normal" font-style="normal" x="555" y="189.5" width="1" height="41" d="M283.66118 181L283.66118 186L274.66118 186L274.66118 181Z"></path><path stroke-width="1.5" fill="none" stroke="black" stroke-dasharray="none" font-family="Arial" font-size="10pt" font-weight="normal" font-style="normal" x="555" y="189.5" width="1" height="41" d="M323.95896000000005 210L323.95896000000005 166.75"></path><path stroke-width="1.5" fill="none" stroke="black" stroke-dasharray="none" font-family="Arial" font-size="10pt" font-weight="normal" font-style="normal" x="555" y="189.5" width="1" height="41" d="M385.03628000000003 210L385.03628000000003 166.75"></path><path stroke-width="1.5" fill="none" stroke="black" stroke-dasharray="none" font-family="Arial" font-size="10pt" font-weight="normal" font-style="normal" x="555" y="189.5" width="1" height="41" d="M424.58406 210L424.58406 166.75"></path><path stroke-width="1.5" fill="none" stroke="black" stroke-dasharray="none" font-family="Arial" font-size="10pt" font-weight="normal" font-style="normal" x="555" y="189.5" width="1" height="41" d="M464.13184 210L464.13184 166.75"></path><path stroke-width="0.3" fill="black" stroke="none" stroke-dasharray="none" font-family="Arial" font-size="10pt" font-weight="normal" font-style="normal" x="555" y="189.5" width="1" height="41" d="M323.20896000000005 166L323.20896000000005 171L464.38184 171L464.38184 166Z"></path><path stroke-width="0.3" fill="black" stroke="none" stroke-dasharray="none" font-family="Arial" font-size="10pt" font-weight="normal" font-style="normal" x="555" y="189.5" width="1" height="41" d="M323.20896000000005 173.5L323.20896000000005 178.5L424.83406 178.5L424.83406 173.5Z"></path><path stroke-width="0.3" fill="black" stroke="none" stroke-dasharray="none" font-family="Arial" font-size="10pt" font-weight="normal" font-style="normal" x="555" y="189.5" width="1" height="41" d="M384.28628000000003 181L384.28628000000003 186L424.83406 186L424.83406 181Z"></path></svg>
