<?xml version="1.0" encoding="UTF-8" standalone="no"?><svg xmlns="http://www.w3.org/2000/svg" xmlns:xlink="http://www.w3.org/1999/xlink" contentScriptType="application/ecmascript" contentStyleType="text/css" height="185px" preserveAspectRatio="none" style="width:466px;height:185px;" version="1.1" viewBox="0 0 466 185" width="466px" zoomAndPan="magnify"><defs><filter height="300%" id="f1anhgflcfo5ub" width="300%" x="-1" y="-1"><feGaussianBlur result="blurOut" stdDeviation="2.0"/><feColorMatrix in="blurOut" result="blurOut2" type="matrix" values="0 0 0 0 0 0 0 0 0 0 0 0 0 0 0 0 0 0 .4 0"/><feOffset dx="4.0" dy="4.0" in="blurOut2" result="blurOut3"/><feBlend in="SourceGraphic" in2="blurOut3" mode="normal"/></filter></defs><g><!--class MusicSymbol--><rect fill="#FEFECE" filter="url(#f1anhgflcfo5ub)" height="48" id="MusicSymbol" style="stroke: #A80036; stroke-width: 1.5;" width="111" x="171.5" y="8"/><ellipse cx="186.5" cy="24" fill="#ADD1B2" rx="11" ry="11" style="stroke: #A80036; stroke-width: 1.0;"/><path d="M189.4688,29.6406 Q188.8906,29.9375 188.25,30.0859 Q187.6094,30.2344 186.9063,30.2344 Q184.4063,30.2344 183.0859,28.5859 Q181.7656,26.9375 181.7656,23.8125 Q181.7656,20.6875 183.0859,19.0313 Q184.4063,17.375 186.9063,17.375 Q187.6094,17.375 188.2578,17.5313 Q188.9063,17.6875 189.4688,17.9844 L189.4688,20.7031 Q188.8438,20.125 188.25,19.8516 Q187.6563,19.5781 187.0313,19.5781 Q185.6875,19.5781 185,20.6484 Q184.3125,21.7188 184.3125,23.8125 Q184.3125,25.9063 185,26.9766 Q185.6875,28.0469 187.0313,28.0469 Q187.6563,28.0469 188.25,27.7734 Q188.8438,27.5 189.4688,26.9219 L189.4688,29.6406 Z "/><text fill="#000000" font-family="sans-serif" font-size="12" lengthAdjust="spacingAndGlyphs" textLength="79" x="200.5" y="28.1543">MusicSymbol</text><line style="stroke: #A80036; stroke-width: 1.5;" x1="172.5" x2="281.5" y1="40" y2="40"/><line style="stroke: #A80036; stroke-width: 1.5;" x1="172.5" x2="281.5" y1="48" y2="48"/><!--class Note--><rect fill="#FEFECE" filter="url(#f1anhgflcfo5ub)" height="60.8047" id="Note" style="stroke: #A80036; stroke-width: 1.5;" width="200" x="6" y="116"/><ellipse cx="86.75" cy="132" fill="#ADD1B2" rx="11" ry="11" style="stroke: #A80036; stroke-width: 1.0;"/><path d="M89.7188,137.6406 Q89.1406,137.9375 88.5,138.0859 Q87.8594,138.2344 87.1563,138.2344 Q84.6563,138.2344 83.3359,136.5859 Q82.0156,134.9375 82.0156,131.8125 Q82.0156,128.6875 83.3359,127.0313 Q84.6563,125.375 87.1563,125.375 Q87.8594,125.375 88.5078,125.5313 Q89.1563,125.6875 89.7188,125.9844 L89.7188,128.7031 Q89.0938,128.125 88.5,127.8516 Q87.9063,127.5781 87.2813,127.5781 Q85.9375,127.5781 85.25,128.6484 Q84.5625,129.7188 84.5625,131.8125 Q84.5625,133.9063 85.25,134.9766 Q85.9375,136.0469 87.2813,136.0469 Q87.9063,136.0469 88.5,135.7734 Q89.0938,135.5 89.7188,134.9219 L89.7188,137.6406 Z "/><text fill="#000000" font-family="sans-serif" font-size="12" lengthAdjust="spacingAndGlyphs" textLength="30" x="107.25" y="136.1543">Note</text><line style="stroke: #A80036; stroke-width: 1.5;" x1="7" x2="205" y1="148" y2="148"/><line style="stroke: #A80036; stroke-width: 1.5;" x1="7" x2="205" y1="156" y2="156"/><text fill="#000000" font-family="sans-serif" font-size="11" lengthAdjust="spacingAndGlyphs" textLength="188" x="12" y="170.2104">greaterThan(that: Note): Boolean</text><!--class Rhythm--><rect fill="#FEFECE" filter="url(#f1anhgflcfo5ub)" height="60.8047" id="Rhythm" style="stroke: #A80036; stroke-width: 1.5;" width="216" x="241" y="116"/><ellipse cx="321.75" cy="132" fill="#ADD1B2" rx="11" ry="11" style="stroke: #A80036; stroke-width: 1.0;"/><path d="M324.7188,137.6406 Q324.1406,137.9375 323.5,138.0859 Q322.8594,138.2344 322.1563,138.2344 Q319.6563,138.2344 318.3359,136.5859 Q317.0156,134.9375 317.0156,131.8125 Q317.0156,128.6875 318.3359,127.0313 Q319.6563,125.375 322.1563,125.375 Q322.8594,125.375 323.5078,125.5313 Q324.1563,125.6875 324.7188,125.9844 L324.7188,128.7031 Q324.0938,128.125 323.5,127.8516 Q322.9063,127.5781 322.2813,127.5781 Q320.9375,127.5781 320.25,128.6484 Q319.5625,129.7188 319.5625,131.8125 Q319.5625,133.9063 320.25,134.9766 Q320.9375,136.0469 322.2813,136.0469 Q322.9063,136.0469 323.5,135.7734 Q324.0938,135.5 324.7188,134.9219 L324.7188,137.6406 Z "/><text fill="#000000" font-family="sans-serif" font-size="12" lengthAdjust="spacingAndGlyphs" textLength="46" x="342.25" y="136.1543">Rhythm</text><line style="stroke: #A80036; stroke-width: 1.5;" x1="242" x2="456" y1="148" y2="148"/><line style="stroke: #A80036; stroke-width: 1.5;" x1="242" x2="456" y1="156" y2="156"/><text fill="#000000" font-family="sans-serif" font-size="11" lengthAdjust="spacingAndGlyphs" textLength="204" x="247" y="170.2104">greaterThan(that: Rhythm): Boolean</text><!--link MusicSymbol to Note--><path d="M187.212,69.993 C171.282,84.8036 153.174,101.6396 138.106,115.6497 " fill="none" id="MusicSymbol-Note" style="stroke: #A80036; stroke-width: 1.0;"/><polygon fill="none" points="182.808,64.529,202.222,56.038,192.341,74.782,182.808,64.529" style="stroke: #A80036; stroke-width: 1.0;"/><!--link MusicSymbol to Rhythm--><path d="M267.117,69.993 C283.178,84.8036 301.436,101.6396 316.629,115.6497 " fill="none" id="MusicSymbol-Rhythm" style="stroke: #A80036; stroke-width: 1.0;"/><polygon fill="none" points="261.941,74.742,251.983,56.038,271.431,64.45,261.941,74.742" style="stroke: #A80036; stroke-width: 1.0;"/><!--
@startuml
MusicSymbol <|- - Note
MusicSymbol <|- - Rhythm
class Note {
  greaterThan(that: Note): Boolean
}

class Rhythm {
  greaterThan(that: Rhythm): Boolean
}
@enduml

PlantUML version 1.2017.12(Wed Apr 26 18:06:36 CEST 2017)
(GPL source distribution)
Java Runtime: OpenJDK Runtime Environment
JVM: OpenJDK 64-Bit Server VM
Java Version: 1.8.0_131-8u131-b11-0ubuntu1.16.04.2-b11
Operating System: Linux
OS Version: 4.4.0-78-generic
Default Encoding: UTF-8
Language: en
Country: US
--></g></svg>