<?xml version="1.0" encoding="UTF-8" standalone="no"?><svg xmlns="http://www.w3.org/2000/svg" xmlns:xlink="http://www.w3.org/1999/xlink" contentScriptType="application/ecmascript" contentStyleType="text/css" height="198px" preserveAspectRatio="none" style="width:546px;height:198px;" version="1.1" viewBox="0 0 546 198" width="546px" zoomAndPan="magnify"><defs><filter height="300%" id="f135lkemyk81gx" width="300%" x="-1" y="-1"><feGaussianBlur result="blurOut" stdDeviation="2.0"/><feColorMatrix in="blurOut" result="blurOut2" type="matrix" values="0 0 0 0 0 0 0 0 0 0 0 0 0 0 0 0 0 0 .4 0"/><feOffset dx="4.0" dy="4.0" in="blurOut2" result="blurOut3"/><feBlend in="SourceGraphic" in2="blurOut3" mode="normal"/></filter></defs><g><!--class MusicSymbol--><rect fill="#FEFECE" filter="url(#f135lkemyk81gx)" height="60.8047" id="MusicSymbol" style="stroke: #A80036; stroke-width: 1.5;" width="248" x="147" y="8"/><ellipse cx="227.25" cy="24" fill="#ADD1B2" rx="11" ry="11" style="stroke: #A80036; stroke-width: 1.0;"/><path d="M230.2188,29.6406 Q229.6406,29.9375 229,30.0859 Q228.3594,30.2344 227.6563,30.2344 Q225.1563,30.2344 223.8359,28.5859 Q222.5156,26.9375 222.5156,23.8125 Q222.5156,20.6875 223.8359,19.0313 Q225.1563,17.375 227.6563,17.375 Q228.3594,17.375 229.0078,17.5313 Q229.6563,17.6875 230.2188,17.9844 L230.2188,20.7031 Q229.5938,20.125 229,19.8516 Q228.4063,19.5781 227.7813,19.5781 Q226.4375,19.5781 225.75,20.6484 Q225.0625,21.7188 225.0625,23.8125 Q225.0625,25.9063 225.75,26.9766 Q226.4375,28.0469 227.7813,28.0469 Q228.4063,28.0469 229,27.7734 Q229.5938,27.5 230.2188,26.9219 L230.2188,29.6406 Z "/><text fill="#000000" font-family="sans-serif" font-size="12" lengthAdjust="spacingAndGlyphs" textLength="79" x="247.75" y="28.1543">MusicSymbol</text><line style="stroke: #A80036; stroke-width: 1.5;" x1="148" x2="394" y1="40" y2="40"/><line style="stroke: #A80036; stroke-width: 1.5;" x1="148" x2="394" y1="48" y2="48"/><text fill="#000000" font-family="sans-serif" font-size="11" lengthAdjust="spacingAndGlyphs" textLength="236" x="153" y="62.2104">greaterThan(that: MusicSymbol): Boolean</text><!--class Note--><rect fill="#FEFECE" filter="url(#f135lkemyk81gx)" height="60.8047" id="Note" style="stroke: #A80036; stroke-width: 1.5;" width="248" x="6" y="129"/><ellipse cx="110.75" cy="145" fill="#ADD1B2" rx="11" ry="11" style="stroke: #A80036; stroke-width: 1.0;"/><path d="M113.7188,150.6406 Q113.1406,150.9375 112.5,151.0859 Q111.8594,151.2344 111.1563,151.2344 Q108.6563,151.2344 107.3359,149.5859 Q106.0156,147.9375 106.0156,144.8125 Q106.0156,141.6875 107.3359,140.0313 Q108.6563,138.375 111.1563,138.375 Q111.8594,138.375 112.5078,138.5313 Q113.1563,138.6875 113.7188,138.9844 L113.7188,141.7031 Q113.0938,141.125 112.5,140.8516 Q111.9063,140.5781 111.2813,140.5781 Q109.9375,140.5781 109.25,141.6484 Q108.5625,142.7188 108.5625,144.8125 Q108.5625,146.9063 109.25,147.9766 Q109.9375,149.0469 111.2813,149.0469 Q111.9063,149.0469 112.5,148.7734 Q113.0938,148.5 113.7188,147.9219 L113.7188,150.6406 Z "/><text fill="#000000" font-family="sans-serif" font-size="12" lengthAdjust="spacingAndGlyphs" textLength="30" x="131.25" y="149.1543">Note</text><line style="stroke: #A80036; stroke-width: 1.5;" x1="7" x2="253" y1="161" y2="161"/><line style="stroke: #A80036; stroke-width: 1.5;" x1="7" x2="253" y1="169" y2="169"/><text fill="#000000" font-family="sans-serif" font-size="11" lengthAdjust="spacingAndGlyphs" textLength="236" x="12" y="183.2104">greaterThan(that: MusicSymbol): Boolean</text><!--class Rhythm--><rect fill="#FEFECE" filter="url(#f135lkemyk81gx)" height="60.8047" id="Rhythm" style="stroke: #A80036; stroke-width: 1.5;" width="248" x="289" y="129"/><ellipse cx="385.75" cy="145" fill="#ADD1B2" rx="11" ry="11" style="stroke: #A80036; stroke-width: 1.0;"/><path d="M388.7188,150.6406 Q388.1406,150.9375 387.5,151.0859 Q386.8594,151.2344 386.1563,151.2344 Q383.6563,151.2344 382.3359,149.5859 Q381.0156,147.9375 381.0156,144.8125 Q381.0156,141.6875 382.3359,140.0313 Q383.6563,138.375 386.1563,138.375 Q386.8594,138.375 387.5078,138.5313 Q388.1563,138.6875 388.7188,138.9844 L388.7188,141.7031 Q388.0938,141.125 387.5,140.8516 Q386.9063,140.5781 386.2813,140.5781 Q384.9375,140.5781 384.25,141.6484 Q383.5625,142.7188 383.5625,144.8125 Q383.5625,146.9063 384.25,147.9766 Q384.9375,149.0469 386.2813,149.0469 Q386.9063,149.0469 387.5,148.7734 Q388.0938,148.5 388.7188,147.9219 L388.7188,150.6406 Z "/><text fill="#000000" font-family="sans-serif" font-size="12" lengthAdjust="spacingAndGlyphs" textLength="46" x="406.25" y="149.1543">Rhythm</text><line style="stroke: #A80036; stroke-width: 1.5;" x1="290" x2="536" y1="161" y2="161"/><line style="stroke: #A80036; stroke-width: 1.5;" x1="290" x2="536" y1="169" y2="169"/><text fill="#000000" font-family="sans-serif" font-size="11" lengthAdjust="spacingAndGlyphs" textLength="236" x="295" y="183.2104">greaterThan(that: MusicSymbol): Boolean</text><!--link MusicSymbol to Note--><path d="M220.373,82.228 C202.114,97.6381 181.917,114.6833 165.256,128.7447 " fill="none" id="MusicSymbol-Note" style="stroke: #A80036; stroke-width: 1.0;"/><polygon fill="none" points="215.984,76.772,235.783,69.222,225.014,87.471,215.984,76.772" style="stroke: #A80036; stroke-width: 1.0;"/><!--link MusicSymbol to Rhythm--><path d="M321.986,82.228 C340.375,97.6381 360.715,114.6833 377.494,128.7447 " fill="none" id="MusicSymbol-Rhythm" style="stroke: #A80036; stroke-width: 1.0;"/><polygon fill="none" points="317.299,87.433,306.466,69.222,326.291,76.703,317.299,87.433" style="stroke: #A80036; stroke-width: 1.0;"/><!--
@startuml
MusicSymbol <|- - Note
MusicSymbol <|- - Rhythm

class MusicSymbol {
  greaterThan(that: MusicSymbol): Boolean
}

class Note {
  greaterThan(that: MusicSymbol): Boolean
}

class Rhythm {
  greaterThan(that: MusicSymbol): Boolean
}
@enduml

PlantUML version 1.2017.12(Wed Apr 26 18:06:36 CEST 2017)
(GPL source distribution)
Java Runtime: OpenJDK Runtime Environment
JVM: OpenJDK 64-Bit Server VM
Java Version: 1.8.0_131-8u131-b11-0ubuntu1.16.04.2-b11
Operating System: Linux
OS Version: 4.4.0-78-generic
Default Encoding: UTF-8
Language: en
Country: US
--></g></svg>