<?xml version="1.0" encoding="UTF-8" standalone="no"?><svg xmlns="http://www.w3.org/2000/svg" xmlns:xlink="http://www.w3.org/1999/xlink" contentScriptType="application/ecmascript" contentStyleType="text/css" height="173px" preserveAspectRatio="none" style="width:190px;height:173px;" version="1.1" viewBox="0 0 190 173" width="190px" zoomAndPan="magnify"><defs><filter height="300%" id="f12oa822zsfwy3" width="300%" x="-1" y="-1"><feGaussianBlur result="blurOut" stdDeviation="2.0"/><feColorMatrix in="blurOut" result="blurOut2" type="matrix" values="0 0 0 0 0 0 0 0 0 0 0 0 0 0 0 0 0 0 .4 0"/><feOffset dx="4.0" dy="4.0" in="blurOut2" result="blurOut3"/><feBlend in="SourceGraphic" in2="blurOut3" mode="normal"/></filter></defs><g><!--class MusicSymbol--><rect fill="#FEFECE" filter="url(#f12oa822zsfwy3)" height="48" id="MusicSymbol" style="stroke: #A80036; stroke-width: 1.5;" width="111" x="33.5" y="8"/><ellipse cx="48.5" cy="24" fill="#ADD1B2" rx="11" ry="11" style="stroke: #A80036; stroke-width: 1.0;"/><path d="M51.4688,29.6406 Q50.8906,29.9375 50.25,30.0859 Q49.6094,30.2344 48.9063,30.2344 Q46.4063,30.2344 45.0859,28.5859 Q43.7656,26.9375 43.7656,23.8125 Q43.7656,20.6875 45.0859,19.0313 Q46.4063,17.375 48.9063,17.375 Q49.6094,17.375 50.2578,17.5313 Q50.9063,17.6875 51.4688,17.9844 L51.4688,20.7031 Q50.8438,20.125 50.25,19.8516 Q49.6563,19.5781 49.0313,19.5781 Q47.6875,19.5781 47,20.6484 Q46.3125,21.7188 46.3125,23.8125 Q46.3125,25.9063 47,26.9766 Q47.6875,28.0469 49.0313,28.0469 Q49.6563,28.0469 50.25,27.7734 Q50.8438,27.5 51.4688,26.9219 L51.4688,29.6406 Z "/><text fill="#000000" font-family="sans-serif" font-size="12" lengthAdjust="spacingAndGlyphs" textLength="79" x="62.5" y="28.1543">MusicSymbol</text><line style="stroke: #A80036; stroke-width: 1.5;" x1="34.5" x2="143.5" y1="40" y2="40"/><line style="stroke: #A80036; stroke-width: 1.5;" x1="34.5" x2="143.5" y1="48" y2="48"/><!--class Note--><rect fill="#FEFECE" filter="url(#f12oa822zsfwy3)" height="48" id="Note" style="stroke: #A80036; stroke-width: 1.5;" width="62" x="6" y="116"/><ellipse cx="21" cy="132" fill="#ADD1B2" rx="11" ry="11" style="stroke: #A80036; stroke-width: 1.0;"/><path d="M23.9688,137.6406 Q23.3906,137.9375 22.75,138.0859 Q22.1094,138.2344 21.4063,138.2344 Q18.9063,138.2344 17.5859,136.5859 Q16.2656,134.9375 16.2656,131.8125 Q16.2656,128.6875 17.5859,127.0313 Q18.9063,125.375 21.4063,125.375 Q22.1094,125.375 22.7578,125.5313 Q23.4063,125.6875 23.9688,125.9844 L23.9688,128.7031 Q23.3438,128.125 22.75,127.8516 Q22.1563,127.5781 21.5313,127.5781 Q20.1875,127.5781 19.5,128.6484 Q18.8125,129.7188 18.8125,131.8125 Q18.8125,133.9063 19.5,134.9766 Q20.1875,136.0469 21.5313,136.0469 Q22.1563,136.0469 22.75,135.7734 Q23.3438,135.5 23.9688,134.9219 L23.9688,137.6406 Z "/><text fill="#000000" font-family="sans-serif" font-size="12" lengthAdjust="spacingAndGlyphs" textLength="30" x="35" y="136.1543">Note</text><line style="stroke: #A80036; stroke-width: 1.5;" x1="7" x2="67" y1="148" y2="148"/><line style="stroke: #A80036; stroke-width: 1.5;" x1="7" x2="67" y1="156" y2="156"/><!--class Rhythm--><rect fill="#FEFECE" filter="url(#f12oa822zsfwy3)" height="48" id="Rhythm" style="stroke: #A80036; stroke-width: 1.5;" width="78" x="103" y="116"/><ellipse cx="118" cy="132" fill="#ADD1B2" rx="11" ry="11" style="stroke: #A80036; stroke-width: 1.0;"/><path d="M120.9688,137.6406 Q120.3906,137.9375 119.75,138.0859 Q119.1094,138.2344 118.4063,138.2344 Q115.9063,138.2344 114.5859,136.5859 Q113.2656,134.9375 113.2656,131.8125 Q113.2656,128.6875 114.5859,127.0313 Q115.9063,125.375 118.4063,125.375 Q119.1094,125.375 119.7578,125.5313 Q120.4063,125.6875 120.9688,125.9844 L120.9688,128.7031 Q120.3438,128.125 119.75,127.8516 Q119.1563,127.5781 118.5313,127.5781 Q117.1875,127.5781 116.5,128.6484 Q115.8125,129.7188 115.8125,131.8125 Q115.8125,133.9063 116.5,134.9766 Q117.1875,136.0469 118.5313,136.0469 Q119.1563,136.0469 119.75,135.7734 Q120.3438,135.5 120.9688,134.9219 L120.9688,137.6406 Z "/><text fill="#000000" font-family="sans-serif" font-size="12" lengthAdjust="spacingAndGlyphs" textLength="46" x="132" y="136.1543">Rhythm</text><line style="stroke: #A80036; stroke-width: 1.5;" x1="104" x2="180" y1="148" y2="148"/><line style="stroke: #A80036; stroke-width: 1.5;" x1="104" x2="180" y1="156" y2="156"/><!--link MusicSymbol to Note--><path d="M68.8409,74.0936 C61.9228,88.1958 54.423,103.4838 48.4408,115.6784 " fill="none" id="MusicSymbol-Note" style="stroke: #A80036; stroke-width: 1.0;"/><polygon fill="none" points="62.6237,70.8732,77.7168,56,75.1927,77.0392,62.6237,70.8732" style="stroke: #A80036; stroke-width: 1.0;"/><!--link MusicSymbol to Rhythm--><path d="M109.547,74.0936 C116.598,88.1958 124.242,103.4838 130.339,115.6784 " fill="none" id="MusicSymbol-Rhythm" style="stroke: #A80036; stroke-width: 1.0;"/><polygon fill="none" points="103.1835,77.0195,100.5002,56,115.706,70.7585,103.1835,77.0195" style="stroke: #A80036; stroke-width: 1.0;"/><!--
@startuml
MusicSymbol <|- - Note
MusicSymbol <|- - Rhythm

@enduml

PlantUML version 1.2017.12(Wed Apr 26 18:06:36 CEST 2017)
(GPL source distribution)
Java Runtime: OpenJDK Runtime Environment
JVM: OpenJDK 64-Bit Server VM
Java Version: 1.8.0_131-8u131-b11-0ubuntu1.16.04.2-b11
Operating System: Linux
OS Version: 4.4.0-78-generic
Default Encoding: UTF-8
Language: en
Country: US
--></g></svg>