<?xml version="1.0" encoding="UTF-8" standalone="no"?><svg xmlns="http://www.w3.org/2000/svg" xmlns:xlink="http://www.w3.org/1999/xlink" contentScriptType="application/ecmascript" contentStyleType="text/css" height="499px" preserveAspectRatio="none" style="width:563px;height:499px;" version="1.1" viewBox="0 0 563 499" width="563px" zoomAndPan="magnify"><defs><filter height="300%" id="f1m5pe2tprh5z2" width="300%" x="-1" y="-1"><feGaussianBlur result="blurOut" stdDeviation="2.0"/><feColorMatrix in="blurOut" result="blurOut2" type="matrix" values="0 0 0 0 0 0 0 0 0 0 0 0 0 0 0 0 0 0 .4 0"/><feOffset dx="4.0" dy="4.0" in="blurOut2" result="blurOut3"/><feBlend in="SourceGraphic" in2="blurOut3" mode="normal"/></filter></defs><g><!--class GenIterable--><rect fill="#FEFECE" filter="url(#f1m5pe2tprh5z2)" height="48" id="GenIterable" style="stroke: #A80036; stroke-width: 1.5;" width="97" x="191" y="116"/><ellipse cx="206" cy="132" fill="#ADD1B2" rx="11" ry="11" style="stroke: #A80036; stroke-width: 1.0;"/><path d="M206.0469,127.5 Q205.2031,127.5 204.5156,127.7969 Q203.8281,128.0938 203.3516,128.6484 Q202.875,129.2031 202.6016,130.0313 Q202.3281,130.8594 202.3281,131.9063 Q202.3281,133 202.5859,133.8203 Q202.8438,134.6406 203.3281,135.1875 Q203.8125,135.7344 204.5547,136.0234 Q205.2969,136.3125 206.3281,136.3125 Q207.1094,136.3125 207.8203,136.1406 Q208.5313,135.9688 209.6875,135.5938 L209.6875,137.6406 Q209.0938,137.875 208.7188,137.9766 Q208.3438,138.0781 207.9453,138.1328 Q207.5469,138.1875 207.1016,138.2188 Q206.6563,138.25 206.1094,138.25 Q204.5625,138.25 203.4063,137.7969 Q202.25,137.3438 201.4844,136.4922 Q200.7188,135.6406 200.3594,134.4688 Q200,133.2969 200,131.8906 Q200,130.5 200.3984,129.3438 Q200.7969,128.1875 201.5625,127.3438 Q202.3281,126.5 203.4688,126.0313 Q204.6094,125.5625 206.0625,125.5625 Q207.0156,125.5625 207.9063,125.75 Q208.7969,125.9375 209.8125,126.4844 L208.8125,128.3906 Q207.9844,127.9219 207.3906,127.7109 Q206.7969,127.5 206.0469,127.5 Z "/><text fill="#000000" font-family="sans-serif" font-size="12" lengthAdjust="spacingAndGlyphs" textLength="65" x="220" y="136.1543">GenIterable</text><line style="stroke: #A80036; stroke-width: 1.5;" x1="192" x2="287" y1="148" y2="148"/><line style="stroke: #A80036; stroke-width: 1.5;" x1="192" x2="287" y1="156" y2="156"/><!--class Iterable--><rect fill="#FEFECE" filter="url(#f1m5pe2tprh5z2)" height="48" id="Iterable" style="stroke: #A80036; stroke-width: 1.5;" width="75" x="230" y="224"/><ellipse cx="245" cy="240" fill="#ADD1B2" rx="11" ry="11" style="stroke: #A80036; stroke-width: 1.0;"/><path d="M245.0469,235.5 Q244.2031,235.5 243.5156,235.7969 Q242.8281,236.0938 242.3516,236.6484 Q241.875,237.2031 241.6016,238.0313 Q241.3281,238.8594 241.3281,239.9063 Q241.3281,241 241.5859,241.8203 Q241.8438,242.6406 242.3281,243.1875 Q242.8125,243.7344 243.5547,244.0234 Q244.2969,244.3125 245.3281,244.3125 Q246.1094,244.3125 246.8203,244.1406 Q247.5313,243.9688 248.6875,243.5938 L248.6875,245.6406 Q248.0938,245.875 247.7188,245.9766 Q247.3438,246.0781 246.9453,246.1328 Q246.5469,246.1875 246.1016,246.2188 Q245.6563,246.25 245.1094,246.25 Q243.5625,246.25 242.4063,245.7969 Q241.25,245.3438 240.4844,244.4922 Q239.7188,243.6406 239.3594,242.4688 Q239,241.2969 239,239.8906 Q239,238.5 239.3984,237.3438 Q239.7969,236.1875 240.5625,235.3438 Q241.3281,234.5 242.4688,234.0313 Q243.6094,233.5625 245.0625,233.5625 Q246.0156,233.5625 246.9063,233.75 Q247.7969,233.9375 248.8125,234.4844 L247.8125,236.3906 Q246.9844,235.9219 246.3906,235.7109 Q245.7969,235.5 245.0469,235.5 Z "/><text fill="#000000" font-family="sans-serif" font-size="12" lengthAdjust="spacingAndGlyphs" textLength="43" x="259" y="244.1543">Iterable</text><line style="stroke: #A80036; stroke-width: 1.5;" x1="231" x2="304" y1="256" y2="256"/><line style="stroke: #A80036; stroke-width: 1.5;" x1="231" x2="304" y1="264" y2="264"/><!--class IterableLike--><rect fill="#FEFECE" filter="url(#f1m5pe2tprh5z2)" height="48" id="IterableLike" style="stroke: #A80036; stroke-width: 1.5;" width="97" x="455" y="116"/><ellipse cx="470" cy="132" fill="#ADD1B2" rx="11" ry="11" style="stroke: #A80036; stroke-width: 1.0;"/><path d="M470.0469,127.5 Q469.2031,127.5 468.5156,127.7969 Q467.8281,128.0938 467.3516,128.6484 Q466.875,129.2031 466.6016,130.0313 Q466.3281,130.8594 466.3281,131.9063 Q466.3281,133 466.5859,133.8203 Q466.8438,134.6406 467.3281,135.1875 Q467.8125,135.7344 468.5547,136.0234 Q469.2969,136.3125 470.3281,136.3125 Q471.1094,136.3125 471.8203,136.1406 Q472.5313,135.9688 473.6875,135.5938 L473.6875,137.6406 Q473.0938,137.875 472.7188,137.9766 Q472.3438,138.0781 471.9453,138.1328 Q471.5469,138.1875 471.1016,138.2188 Q470.6563,138.25 470.1094,138.25 Q468.5625,138.25 467.4063,137.7969 Q466.25,137.3438 465.4844,136.4922 Q464.7188,135.6406 464.3594,134.4688 Q464,133.2969 464,131.8906 Q464,130.5 464.3984,129.3438 Q464.7969,128.1875 465.5625,127.3438 Q466.3281,126.5 467.4688,126.0313 Q468.6094,125.5625 470.0625,125.5625 Q471.0156,125.5625 471.9063,125.75 Q472.7969,125.9375 473.8125,126.4844 L472.8125,128.3906 Q471.9844,127.9219 471.3906,127.7109 Q470.7969,127.5 470.0469,127.5 Z "/><text fill="#000000" font-family="sans-serif" font-size="12" lengthAdjust="spacingAndGlyphs" textLength="65" x="484" y="136.1543">IterableLike</text><line style="stroke: #A80036; stroke-width: 1.5;" x1="456" x2="551" y1="148" y2="148"/><line style="stroke: #A80036; stroke-width: 1.5;" x1="456" x2="551" y1="156" y2="156"/><!--class GenIterableLike--><rect fill="#FEFECE" filter="url(#f1m5pe2tprh5z2)" height="48" id="GenIterableLike" style="stroke: #A80036; stroke-width: 1.5;" width="119" x="312" y="8"/><ellipse cx="327" cy="24" fill="#ADD1B2" rx="11" ry="11" style="stroke: #A80036; stroke-width: 1.0;"/><path d="M327.0469,19.5 Q326.2031,19.5 325.5156,19.7969 Q324.8281,20.0938 324.3516,20.6484 Q323.875,21.2031 323.6016,22.0313 Q323.3281,22.8594 323.3281,23.9063 Q323.3281,25 323.5859,25.8203 Q323.8438,26.6406 324.3281,27.1875 Q324.8125,27.7344 325.5547,28.0234 Q326.2969,28.3125 327.3281,28.3125 Q328.1094,28.3125 328.8203,28.1406 Q329.5313,27.9688 330.6875,27.5938 L330.6875,29.6406 Q330.0938,29.875 329.7188,29.9766 Q329.3438,30.0781 328.9453,30.1328 Q328.5469,30.1875 328.1016,30.2188 Q327.6563,30.25 327.1094,30.25 Q325.5625,30.25 324.4063,29.7969 Q323.25,29.3438 322.4844,28.4922 Q321.7188,27.6406 321.3594,26.4688 Q321,25.2969 321,23.8906 Q321,22.5 321.3984,21.3438 Q321.7969,20.1875 322.5625,19.3438 Q323.3281,18.5 324.4688,18.0313 Q325.6094,17.5625 327.0625,17.5625 Q328.0156,17.5625 328.9063,17.75 Q329.7969,17.9375 330.8125,18.4844 L329.8125,20.3906 Q328.9844,19.9219 328.3906,19.7109 Q327.7969,19.5 327.0469,19.5 Z "/><text fill="#000000" font-family="sans-serif" font-size="12" lengthAdjust="spacingAndGlyphs" textLength="87" x="341" y="28.1543">GenIterableLike</text><line style="stroke: #A80036; stroke-width: 1.5;" x1="313" x2="430" y1="40" y2="40"/><line style="stroke: #A80036; stroke-width: 1.5;" x1="313" x2="430" y1="48" y2="48"/><!--class GenericTraversableTemplate--><rect fill="#FEFECE" filter="url(#f1m5pe2tprh5z2)" height="48" id="GenericTraversableTemplate" style="stroke: #A80036; stroke-width: 1.5;" width="191" x="6" y="8"/><ellipse cx="21" cy="24" fill="#ADD1B2" rx="11" ry="11" style="stroke: #A80036; stroke-width: 1.0;"/><path d="M21.0469,19.5 Q20.2031,19.5 19.5156,19.7969 Q18.8281,20.0938 18.3516,20.6484 Q17.875,21.2031 17.6016,22.0313 Q17.3281,22.8594 17.3281,23.9063 Q17.3281,25 17.5859,25.8203 Q17.8438,26.6406 18.3281,27.1875 Q18.8125,27.7344 19.5547,28.0234 Q20.2969,28.3125 21.3281,28.3125 Q22.1094,28.3125 22.8203,28.1406 Q23.5313,27.9688 24.6875,27.5938 L24.6875,29.6406 Q24.0938,29.875 23.7188,29.9766 Q23.3438,30.0781 22.9453,30.1328 Q22.5469,30.1875 22.1016,30.2188 Q21.6563,30.25 21.1094,30.25 Q19.5625,30.25 18.4063,29.7969 Q17.25,29.3438 16.4844,28.4922 Q15.7188,27.6406 15.3594,26.4688 Q15,25.2969 15,23.8906 Q15,22.5 15.3984,21.3438 Q15.7969,20.1875 16.5625,19.3438 Q17.3281,18.5 18.4688,18.0313 Q19.6094,17.5625 21.0625,17.5625 Q22.0156,17.5625 22.9063,17.75 Q23.7969,17.9375 24.8125,18.4844 L23.8125,20.3906 Q22.9844,19.9219 22.3906,19.7109 Q21.7969,19.5 21.0469,19.5 Z "/><text fill="#000000" font-family="sans-serif" font-size="12" lengthAdjust="spacingAndGlyphs" textLength="159" x="35" y="28.1543">GenericTraversableTemplate</text><line style="stroke: #A80036; stroke-width: 1.5;" x1="7" x2="196" y1="40" y2="40"/><line style="stroke: #A80036; stroke-width: 1.5;" x1="7" x2="196" y1="48" y2="48"/><!--class GenSeqLike--><rect fill="#FEFECE" filter="url(#f1m5pe2tprh5z2)" height="48" id="GenSeqLike" style="stroke: #A80036; stroke-width: 1.5;" width="97" x="323" y="116"/><ellipse cx="338" cy="132" fill="#ADD1B2" rx="11" ry="11" style="stroke: #A80036; stroke-width: 1.0;"/><path d="M338.0469,127.5 Q337.2031,127.5 336.5156,127.7969 Q335.8281,128.0938 335.3516,128.6484 Q334.875,129.2031 334.6016,130.0313 Q334.3281,130.8594 334.3281,131.9063 Q334.3281,133 334.5859,133.8203 Q334.8438,134.6406 335.3281,135.1875 Q335.8125,135.7344 336.5547,136.0234 Q337.2969,136.3125 338.3281,136.3125 Q339.1094,136.3125 339.8203,136.1406 Q340.5313,135.9688 341.6875,135.5938 L341.6875,137.6406 Q341.0938,137.875 340.7188,137.9766 Q340.3438,138.0781 339.9453,138.1328 Q339.5469,138.1875 339.1016,138.2188 Q338.6563,138.25 338.1094,138.25 Q336.5625,138.25 335.4063,137.7969 Q334.25,137.3438 333.4844,136.4922 Q332.7188,135.6406 332.3594,134.4688 Q332,133.2969 332,131.8906 Q332,130.5 332.3984,129.3438 Q332.7969,128.1875 333.5625,127.3438 Q334.3281,126.5 335.4688,126.0313 Q336.6094,125.5625 338.0625,125.5625 Q339.0156,125.5625 339.9063,125.75 Q340.7969,125.9375 341.8125,126.4844 L340.8125,128.3906 Q339.9844,127.9219 339.3906,127.7109 Q338.7969,127.5 338.0469,127.5 Z "/><text fill="#000000" font-family="sans-serif" font-size="12" lengthAdjust="spacingAndGlyphs" textLength="65" x="352" y="136.1543">GenSeqLike</text><line style="stroke: #A80036; stroke-width: 1.5;" x1="324" x2="419" y1="148" y2="148"/><line style="stroke: #A80036; stroke-width: 1.5;" x1="324" x2="419" y1="156" y2="156"/><!--class GenSeq--><rect fill="#FEFECE" filter="url(#f1m5pe2tprh5z2)" height="48" id="GenSeq" style="stroke: #A80036; stroke-width: 1.5;" width="75" x="120" y="224"/><ellipse cx="135" cy="240" fill="#ADD1B2" rx="11" ry="11" style="stroke: #A80036; stroke-width: 1.0;"/><path d="M135.0469,235.5 Q134.2031,235.5 133.5156,235.7969 Q132.8281,236.0938 132.3516,236.6484 Q131.875,237.2031 131.6016,238.0313 Q131.3281,238.8594 131.3281,239.9063 Q131.3281,241 131.5859,241.8203 Q131.8438,242.6406 132.3281,243.1875 Q132.8125,243.7344 133.5547,244.0234 Q134.2969,244.3125 135.3281,244.3125 Q136.1094,244.3125 136.8203,244.1406 Q137.5313,243.9688 138.6875,243.5938 L138.6875,245.6406 Q138.0938,245.875 137.7188,245.9766 Q137.3438,246.0781 136.9453,246.1328 Q136.5469,246.1875 136.1016,246.2188 Q135.6563,246.25 135.1094,246.25 Q133.5625,246.25 132.4063,245.7969 Q131.25,245.3438 130.4844,244.4922 Q129.7188,243.6406 129.3594,242.4688 Q129,241.2969 129,239.8906 Q129,238.5 129.3984,237.3438 Q129.7969,236.1875 130.5625,235.3438 Q131.3281,234.5 132.4688,234.0313 Q133.6094,233.5625 135.0625,233.5625 Q136.0156,233.5625 136.9063,233.75 Q137.7969,233.9375 138.8125,234.4844 L137.8125,236.3906 Q136.9844,235.9219 136.3906,235.7109 Q135.7969,235.5 135.0469,235.5 Z "/><text fill="#000000" font-family="sans-serif" font-size="12" lengthAdjust="spacingAndGlyphs" textLength="43" x="149" y="244.1543">GenSeq</text><line style="stroke: #A80036; stroke-width: 1.5;" x1="121" x2="194" y1="256" y2="256"/><line style="stroke: #A80036; stroke-width: 1.5;" x1="121" x2="194" y1="264" y2="264"/><!--class SeqLike--><rect fill="#FEFECE" filter="url(#f1m5pe2tprh5z2)" height="48" id="SeqLike" style="stroke: #A80036; stroke-width: 1.5;" width="75" x="340" y="224"/><ellipse cx="355" cy="240" fill="#ADD1B2" rx="11" ry="11" style="stroke: #A80036; stroke-width: 1.0;"/><path d="M355.0469,235.5 Q354.2031,235.5 353.5156,235.7969 Q352.8281,236.0938 352.3516,236.6484 Q351.875,237.2031 351.6016,238.0313 Q351.3281,238.8594 351.3281,239.9063 Q351.3281,241 351.5859,241.8203 Q351.8438,242.6406 352.3281,243.1875 Q352.8125,243.7344 353.5547,244.0234 Q354.2969,244.3125 355.3281,244.3125 Q356.1094,244.3125 356.8203,244.1406 Q357.5313,243.9688 358.6875,243.5938 L358.6875,245.6406 Q358.0938,245.875 357.7188,245.9766 Q357.3438,246.0781 356.9453,246.1328 Q356.5469,246.1875 356.1016,246.2188 Q355.6563,246.25 355.1094,246.25 Q353.5625,246.25 352.4063,245.7969 Q351.25,245.3438 350.4844,244.4922 Q349.7188,243.6406 349.3594,242.4688 Q349,241.2969 349,239.8906 Q349,238.5 349.3984,237.3438 Q349.7969,236.1875 350.5625,235.3438 Q351.3281,234.5 352.4688,234.0313 Q353.6094,233.5625 355.0625,233.5625 Q356.0156,233.5625 356.9063,233.75 Q357.7969,233.9375 358.8125,234.4844 L357.8125,236.3906 Q356.9844,235.9219 356.3906,235.7109 Q355.7969,235.5 355.0469,235.5 Z "/><text fill="#000000" font-family="sans-serif" font-size="12" lengthAdjust="spacingAndGlyphs" textLength="43" x="369" y="244.1543">SeqLike</text><line style="stroke: #A80036; stroke-width: 1.5;" x1="341" x2="414" y1="256" y2="256"/><line style="stroke: #A80036; stroke-width: 1.5;" x1="341" x2="414" y1="264" y2="264"/><!--class Seq--><rect fill="#FEFECE" filter="url(#f1m5pe2tprh5z2)" height="48" id="Seq" style="stroke: #A80036; stroke-width: 1.5;" width="53" x="131" y="332"/><ellipse cx="146" cy="348" fill="#ADD1B2" rx="11" ry="11" style="stroke: #A80036; stroke-width: 1.0;"/><path d="M146.0469,343.5 Q145.2031,343.5 144.5156,343.7969 Q143.8281,344.0938 143.3516,344.6484 Q142.875,345.2031 142.6016,346.0313 Q142.3281,346.8594 142.3281,347.9063 Q142.3281,349 142.5859,349.8203 Q142.8438,350.6406 143.3281,351.1875 Q143.8125,351.7344 144.5547,352.0234 Q145.2969,352.3125 146.3281,352.3125 Q147.1094,352.3125 147.8203,352.1406 Q148.5313,351.9688 149.6875,351.5938 L149.6875,353.6406 Q149.0938,353.875 148.7188,353.9766 Q148.3438,354.0781 147.9453,354.1328 Q147.5469,354.1875 147.1016,354.2188 Q146.6563,354.25 146.1094,354.25 Q144.5625,354.25 143.4063,353.7969 Q142.25,353.3438 141.4844,352.4922 Q140.7188,351.6406 140.3594,350.4688 Q140,349.2969 140,347.8906 Q140,346.5 140.3984,345.3438 Q140.7969,344.1875 141.5625,343.3438 Q142.3281,342.5 143.4688,342.0313 Q144.6094,341.5625 146.0625,341.5625 Q147.0156,341.5625 147.9063,341.75 Q148.7969,341.9375 149.8125,342.4844 L148.8125,344.3906 Q147.9844,343.9219 147.3906,343.7109 Q146.7969,343.5 146.0469,343.5 Z "/><text fill="#000000" font-family="sans-serif" font-size="12" lengthAdjust="spacingAndGlyphs" textLength="21" x="160" y="352.1543">Seq</text><line style="stroke: #A80036; stroke-width: 1.5;" x1="132" x2="183" y1="364" y2="364"/><line style="stroke: #A80036; stroke-width: 1.5;" x1="132" x2="183" y1="372" y2="372"/><!--class List--><rect fill="#FEFECE" filter="url(#f1m5pe2tprh5z2)" height="48" id="List" style="stroke: #A80036; stroke-width: 1.5;" width="51" x="51" y="440"/><ellipse cx="66" cy="456" fill="#ADD1B2" rx="11" ry="11" style="stroke: #A80036; stroke-width: 1.0;"/><path d="M66.0469,451.5 Q65.2031,451.5 64.5156,451.7969 Q63.8281,452.0938 63.3516,452.6484 Q62.875,453.2031 62.6016,454.0313 Q62.3281,454.8594 62.3281,455.9063 Q62.3281,457 62.5859,457.8203 Q62.8438,458.6406 63.3281,459.1875 Q63.8125,459.7344 64.5547,460.0234 Q65.2969,460.3125 66.3281,460.3125 Q67.1094,460.3125 67.8203,460.1406 Q68.5313,459.9688 69.6875,459.5938 L69.6875,461.6406 Q69.0938,461.875 68.7188,461.9766 Q68.3438,462.0781 67.9453,462.1328 Q67.5469,462.1875 67.1016,462.2188 Q66.6563,462.25 66.1094,462.25 Q64.5625,462.25 63.4063,461.7969 Q62.25,461.3438 61.4844,460.4922 Q60.7188,459.6406 60.3594,458.4688 Q60,457.2969 60,455.8906 Q60,454.5 60.3984,453.3438 Q60.7969,452.1875 61.5625,451.3438 Q62.3281,450.5 63.4688,450.0313 Q64.6094,449.5625 66.0625,449.5625 Q67.0156,449.5625 67.9063,449.75 Q68.7969,449.9375 69.8125,450.4844 L68.8125,452.3906 Q67.9844,451.9219 67.3906,451.7109 Q66.7969,451.5 66.0469,451.5 Z "/><text fill="#000000" font-family="sans-serif" font-size="12" lengthAdjust="spacingAndGlyphs" textLength="19" x="80" y="460.1543">List</text><line style="stroke: #A80036; stroke-width: 1.5;" x1="52" x2="101" y1="472" y2="472"/><line style="stroke: #A80036; stroke-width: 1.5;" x1="52" x2="101" y1="480" y2="480"/><!--link GenIterable to Iterable--><path d="M250.737,183.54 C254.354,197.235 258.228,211.9 261.34,223.678 " fill="none" id="GenIterable-Iterable" style="stroke: #A80036; stroke-width: 1.0;"/><polygon fill="none" points="243.916,185.125,245.576,164,257.451,181.549,243.916,185.125" style="stroke: #A80036; stroke-width: 1.0;"/><!--link IterableLike to Iterable--><path d="M436.515,171.087 C393.97,190.196 340.468,214.226 305.19,230.071 " fill="none" id="IterableLike-Iterable" style="stroke: #A80036; stroke-width: 1.0;"/><polygon fill="none" points="433.775,164.644,454.887,162.835,439.511,177.415,433.775,164.644" style="stroke: #A80036; stroke-width: 1.0;"/><!--link GenIterableLike to IterableLike--><path d="M415.876,68.635 C435.193,84.147 457.288,101.89 474.458,115.678 " fill="none" id="GenIterableLike-IterableLike" style="stroke: #A80036; stroke-width: 1.0;"/><polygon fill="none" points="411.353,73.981,400.142,56,420.119,63.065,411.353,73.981" style="stroke: #A80036; stroke-width: 1.0;"/><!--link GenericTraversableTemplate to GenIterable--><path d="M147.589,68.402 C167.856,83.969 191.097,101.821 209.138,115.678 " fill="none" id="GenericTraversableTemplate-GenIterable" style="stroke: #A80036; stroke-width: 1.0;"/><polygon fill="none" points="143.041,73.735,131.444,56,151.569,62.632,143.041,73.735" style="stroke: #A80036; stroke-width: 1.0;"/><!--link GenIterableLike to GenIterable--><path d="M327.124,68.635 C307.807,84.147 285.712,101.89 268.542,115.678 " fill="none" id="GenIterableLike-GenIterable" style="stroke: #A80036; stroke-width: 1.0;"/><polygon fill="none" points="322.881,63.065,342.858,56,331.647,73.981,322.881,63.065" style="stroke: #A80036; stroke-width: 1.0;"/><!--link GenIterableLike to GenSeqLike--><path d="M371.5,76.024 C371.5,89.579 371.5,104.038 371.5,115.678 " fill="none" id="GenIterableLike-GenSeqLike" style="stroke: #A80036; stroke-width: 1.0;"/><polygon fill="none" points="364.5,76,371.5,56,378.5,76,364.5,76" style="stroke: #A80036; stroke-width: 1.0;"/><!--link GenericTraversableTemplate to GenSeq--><path d="M112.683,75.735 C124.327,120.231 142.134,188.281 151.408,223.72 " fill="none" id="GenericTraversableTemplate-GenSeq" style="stroke: #A80036; stroke-width: 1.0;"/><polygon fill="none" points="105.8908,77.43,107.6,56.309,119.435,73.885,105.8908,77.43" style="stroke: #A80036; stroke-width: 1.0;"/><!--link GenIterable to GenSeq--><path d="M209.192,180.178 C197.881,194.8 185.404,210.929 175.541,223.678 " fill="none" id="GenIterable-GenSeq" style="stroke: #A80036; stroke-width: 1.0;"/><polygon fill="none" points="203.933,175.536,221.707,164,215.006,184.103,203.933,175.536" style="stroke: #A80036; stroke-width: 1.0;"/><!--link GenSeqLike to GenSeq--><path d="M307.08,172.909 C270.585,190.986 226.192,212.975 195.289,228.282 " fill="none" id="GenSeqLike-GenSeq" style="stroke: #A80036; stroke-width: 1.0;"/><polygon fill="none" points="304.036,166.605,325.065,164,310.25,179.15,304.036,166.605" style="stroke: #A80036; stroke-width: 1.0;"/><!--link GenSeqLike to SeqLike--><path d="M373.935,184.024 C374.703,197.579 375.521,212.038 376.18,223.678 " fill="none" id="GenSeqLike-SeqLike" style="stroke: #A80036; stroke-width: 1.0;"/><polygon fill="none" points="366.943,184.364,372.802,164,380.921,183.573,366.943,184.364" style="stroke: #A80036; stroke-width: 1.0;"/><!--link IterableLike to SeqLike--><path d="M460.584,177.104 C442.279,192.503 421.447,210.029 405.222,223.678 " fill="none" id="IterableLike-SeqLike" style="stroke: #A80036; stroke-width: 1.0;"/><polygon fill="none" points="456.349,171.519,476.16,164,465.362,182.232,456.349,171.519" style="stroke: #A80036; stroke-width: 1.0;"/><!--link Iterable to Seq--><path d="M228.813,286.28 C213.132,301.391 195.507,318.375 181.702,331.678 " fill="none" id="Iterable-Seq" style="stroke: #A80036; stroke-width: 1.0;"/><polygon fill="none" points="224.373,280.838,243.632,272,234.087,290.919,224.373,280.838" style="stroke: #A80036; stroke-width: 1.0;"/><!--link GenericTraversableTemplate to Seq--><path d="M94.4233,75.97 C88.0462,124.677 82.4336,205.892 102.5,272 C109.278,294.33 124.203,316.191 136.796,331.867 " fill="none" id="GenericTraversableTemplate-Seq" style="stroke: #A80036; stroke-width: 1.0;"/><polygon fill="none" points="87.5145,74.836,97.3176,56.05,101.369,76.849,87.5145,74.836" style="stroke: #A80036; stroke-width: 1.0;"/><!--link GenSeq to Seq--><path d="M157.5,292.024 C157.5,305.579 157.5,320.038 157.5,331.678 " fill="none" id="GenSeq-Seq" style="stroke: #A80036; stroke-width: 1.0;"/><polygon fill="none" points="150.5,292,157.5,272,164.5,292,150.5,292" style="stroke: #A80036; stroke-width: 1.0;"/><!--link SeqLike to Seq--><path d="M321.56,275.953 C277.494,297.185 218.022,325.839 184.118,342.175 " fill="none" id="SeqLike-Seq" style="stroke: #A80036; stroke-width: 1.0;"/><polygon fill="none" points="318.625,269.597,339.681,267.222,324.701,282.21,318.625,269.597" style="stroke: #A80036; stroke-width: 1.0;"/><!--link GenericTraversableTemplate to List--><path d="M89.1829,76.151 C86.0735,88.878 83.1512,102.905 81.5,116 C66.2368,237.046 71.9919,383.713 75.064,439.7291 " fill="none" id="GenericTraversableTemplate-List" style="stroke: #A80036; stroke-width: 1.0;"/><polygon fill="none" points="82.5345,73.91,94.401,56.355,96.0721,77.478,82.5345,73.91" style="stroke: #A80036; stroke-width: 1.0;"/><!--link Seq to List--><path d="M127.562,396.1784 C116.389,410.7995 104.0633,426.9295 94.3212,439.6784 " fill="none" id="Seq-List" style="stroke: #A80036; stroke-width: 1.0;"/><polygon fill="none" points="122.219,391.6416,139.924,380,133.343,400.1421,122.219,391.6416" style="stroke: #A80036; stroke-width: 1.0;"/><!--
@startuml
GenIterable <|- - Iterable
IterableLike <|- - Iterable
GenIterableLike <|- - IterableLike
GenericTraversableTemplate <|- - GenIterable
GenIterableLike <|- - GenIterable
GenIterableLike <|- - GenSeqLike
GenericTraversableTemplate <|- - GenSeq
GenIterable <|- - GenSeq
GenSeqLike <|- - GenSeq
GenSeqLike <|- - SeqLike
IterableLike <|- - SeqLike
Iterable <|- - Seq
GenericTraversableTemplate <|- - Seq
GenSeq <|- - Seq
SeqLike <|- - Seq
GenericTraversableTemplate <|- - List
Seq <|- - List
@enduml

PlantUML version 1.2017.15(Mon Jul 03 18:45:34 CEST 2017)
(GPL source distribution)
Java Runtime: OpenJDK Runtime Environment
JVM: OpenJDK Server VM
Java Version: 1.8.0_152-release-b886
Operating System: Linux
OS Version: 4.4.0-97-generic
Default Encoding: UTF-8
Language: en
Country: US
--></g></svg>