<?xml version="1.0" encoding="UTF-8" standalone="no"?><svg xmlns="http://www.w3.org/2000/svg" xmlns:xlink="http://www.w3.org/1999/xlink" contentScriptType="application/ecmascript" contentStyleType="text/css" height="175px" preserveAspectRatio="none" style="width:400px;height:175px;" version="1.1" viewBox="0 0 400 175" width="400px" zoomAndPan="magnify"><defs><filter height="300%" id="f1k89roe4uviw9" width="300%" x="-1" y="-1"><feGaussianBlur result="blurOut" stdDeviation="2.0"/><feColorMatrix in="blurOut" result="blurOut2" type="matrix" values="0 0 0 0 0 0 0 0 0 0 0 0 0 0 0 0 0 0 .4 0"/><feOffset dx="4.0" dy="4.0" in="blurOut2" result="blurOut3"/><feBlend in="SourceGraphic" in2="blurOut3" mode="normal"/></filter></defs><g><!--class Iterable--><rect fill="#FEFECE" filter="url(#f1k89roe4uviw9)" height="48" id="Iterable" style="stroke: #A80036; stroke-width: 1.5;" width="86" x="146" y="8"/><ellipse cx="161" cy="24" fill="#B4A7E5" rx="11" ry="11" style="stroke: #A80036; stroke-width: 1.0;"/><path d="M163.1563,30.5 L158.0781,30.5 L158.0781,29.0469 L159.5,28.7031 L159.5,19.6094 L158.0781,19.2656 L158.0781,17.8125 L163.1563,17.8125 L163.1563,19.2656 L161.7344,19.6094 L161.7344,28.7031 L163.1563,29.0469 L163.1563,30.5 Z "/><text fill="#000000" font-family="sans-serif" font-size="12" font-style="italic" lengthAdjust="spacingAndGlyphs" textLength="43" x="175" y="28.1543">Iterable</text><rect fill="#FFFFFF" height="15.9688" style="stroke: #000000; stroke-width: 1.0; stroke-dasharray: 2.0,2.0;" width="9" x="226" y="5"/><text fill="#000000" font-family="sans-serif" font-size="12" font-style="italic" lengthAdjust="spacingAndGlyphs" textLength="7" x="227" y="17.1387">A</text><line style="stroke: #A80036; stroke-width: 1.5;" x1="147" x2="231" y1="40" y2="40"/><line style="stroke: #A80036; stroke-width: 1.5;" x1="147" x2="231" y1="48" y2="48"/><!--class Seq--><rect fill="#FEFECE" filter="url(#f1k89roe4uviw9)" height="48" id="Seq" style="stroke: #A80036; stroke-width: 1.5;" width="64" x="6" y="116"/><ellipse cx="21" cy="132" fill="#B4A7E5" rx="11" ry="11" style="stroke: #A80036; stroke-width: 1.0;"/><path d="M23.1563,138.5 L18.0781,138.5 L18.0781,137.0469 L19.5,136.7031 L19.5,127.6094 L18.0781,127.2656 L18.0781,125.8125 L23.1563,125.8125 L23.1563,127.2656 L21.7344,127.6094 L21.7344,136.7031 L23.1563,137.0469 L23.1563,138.5 Z "/><text fill="#000000" font-family="sans-serif" font-size="12" font-style="italic" lengthAdjust="spacingAndGlyphs" textLength="21" x="35" y="136.1543">Seq</text><rect fill="#FFFFFF" height="15.9688" style="stroke: #000000; stroke-width: 1.0; stroke-dasharray: 2.0,2.0;" width="9" x="64" y="113"/><text fill="#000000" font-family="sans-serif" font-size="12" font-style="italic" lengthAdjust="spacingAndGlyphs" textLength="7" x="65" y="125.1387">A</text><line style="stroke: #A80036; stroke-width: 1.5;" x1="7" x2="69" y1="148" y2="148"/><line style="stroke: #A80036; stroke-width: 1.5;" x1="7" x2="69" y1="156" y2="156"/><!--class Set--><rect fill="#FEFECE" filter="url(#f1k89roe4uviw9)" height="48" id="Set" style="stroke: #A80036; stroke-width: 1.5;" width="61" x="105.5" y="116"/><ellipse cx="120.5" cy="132" fill="#B4A7E5" rx="11" ry="11" style="stroke: #A80036; stroke-width: 1.0;"/><path d="M122.6563,138.5 L117.5781,138.5 L117.5781,137.0469 L119,136.7031 L119,127.6094 L117.5781,127.2656 L117.5781,125.8125 L122.6563,125.8125 L122.6563,127.2656 L121.2344,127.6094 L121.2344,136.7031 L122.6563,137.0469 L122.6563,138.5 Z "/><text fill="#000000" font-family="sans-serif" font-size="12" font-style="italic" lengthAdjust="spacingAndGlyphs" textLength="18" x="134.5" y="136.1543">Set</text><rect fill="#FFFFFF" height="15.9688" style="stroke: #000000; stroke-width: 1.0; stroke-dasharray: 2.0,2.0;" width="9" x="160.5" y="113"/><text fill="#000000" font-family="sans-serif" font-size="12" font-style="italic" lengthAdjust="spacingAndGlyphs" textLength="7" x="161.5" y="125.1387">A</text><line style="stroke: #A80036; stroke-width: 1.5;" x1="106.5" x2="165.5" y1="148" y2="148"/><line style="stroke: #A80036; stroke-width: 1.5;" x1="106.5" x2="165.5" y1="156" y2="156"/><!--class Map--><rect fill="#FEFECE" filter="url(#f1k89roe4uviw9)" height="48" id="Map" style="stroke: #A80036; stroke-width: 1.5;" width="81" x="201.5" y="116"/><ellipse cx="216.5" cy="132" fill="#B4A7E5" rx="11" ry="11" style="stroke: #A80036; stroke-width: 1.0;"/><path d="M218.6563,138.5 L213.5781,138.5 L213.5781,137.0469 L215,136.7031 L215,127.6094 L213.5781,127.2656 L213.5781,125.8125 L218.6563,125.8125 L218.6563,127.2656 L217.2344,127.6094 L217.2344,136.7031 L218.6563,137.0469 L218.6563,138.5 Z "/><text fill="#000000" font-family="sans-serif" font-size="12" font-style="italic" lengthAdjust="spacingAndGlyphs" textLength="25" x="230.5" y="136.1543">Map</text><rect fill="#FFFFFF" height="15.9688" style="stroke: #000000; stroke-width: 1.0; stroke-dasharray: 2.0,2.0;" width="22" x="263.5" y="113"/><text fill="#000000" font-family="sans-serif" font-size="12" font-style="italic" lengthAdjust="spacingAndGlyphs" textLength="20" x="264.5" y="125.1387">K, V</text><line style="stroke: #A80036; stroke-width: 1.5;" x1="202.5" x2="281.5" y1="148" y2="148"/><line style="stroke: #A80036; stroke-width: 1.5;" x1="202.5" x2="281.5" y1="156" y2="156"/><!--class View--><rect fill="#FEFECE" filter="url(#f1k89roe4uviw9)" height="48" id="View" style="stroke: #A80036; stroke-width: 1.5;" width="69" x="317.5" y="116"/><ellipse cx="332.5" cy="132" fill="#B4A7E5" rx="11" ry="11" style="stroke: #A80036; stroke-width: 1.0;"/><path d="M334.6563,138.5 L329.5781,138.5 L329.5781,137.0469 L331,136.7031 L331,127.6094 L329.5781,127.2656 L329.5781,125.8125 L334.6563,125.8125 L334.6563,127.2656 L333.2344,127.6094 L333.2344,136.7031 L334.6563,137.0469 L334.6563,138.5 Z "/><text fill="#000000" font-family="sans-serif" font-size="12" font-style="italic" lengthAdjust="spacingAndGlyphs" textLength="26" x="346.5" y="136.1543">View</text><rect fill="#FFFFFF" height="15.9688" style="stroke: #000000; stroke-width: 1.0; stroke-dasharray: 2.0,2.0;" width="9" x="380.5" y="113"/><text fill="#000000" font-family="sans-serif" font-size="12" font-style="italic" lengthAdjust="spacingAndGlyphs" textLength="7" x="381.5" y="125.1387">A</text><line style="stroke: #A80036; stroke-width: 1.5;" x1="318.5" x2="385.5" y1="148" y2="148"/><line style="stroke: #A80036; stroke-width: 1.5;" x1="318.5" x2="385.5" y1="156" y2="156"/><!--link Iterable to Seq--><path d="M139.659,67.6369 C116.84,83.6551 90.3844,102.2269 70.1821,116.4086 " fill="none" id="Iterable-Seq" style="stroke: #A80036; stroke-width: 1.0;"/><polygon fill="none" points="135.844,61.762,156.235,56,143.888,73.2208,135.844,61.762" style="stroke: #A80036; stroke-width: 1.0;"/><!--link Iterable to Set--><path d="M168.453,74.0936 C161.402,88.1958 153.758,103.4838 147.661,115.6784 " fill="none" id="Iterable-Set" style="stroke: #A80036; stroke-width: 1.0;"/><polygon fill="none" points="162.294,70.7585,177.5,56,174.816,77.0195,162.294,70.7585" style="stroke: #A80036; stroke-width: 1.0;"/><!--link Iterable to Map--><path d="M209.547,74.0936 C216.598,88.1958 224.242,103.4838 230.339,115.6784 " fill="none" id="Iterable-Map" style="stroke: #A80036; stroke-width: 1.0;"/><polygon fill="none" points="203.184,77.0195,200.5,56,215.706,70.7585,203.184,77.0195" style="stroke: #A80036; stroke-width: 1.0;"/><!--link Iterable to View--><path d="M241.178,66.9319 C266.053,83.108 295.132,102.0183 317.26,116.4086 " fill="none" id="Iterable-View" style="stroke: #A80036; stroke-width: 1.0;"/><polygon fill="none" points="237.319,72.7721,224.369,56,244.951,61.036,237.319,72.7721" style="stroke: #A80036; stroke-width: 1.0;"/><!--
@startuml
interface Iterable<A>
interface Seq<A>
interface Set<A>
interface Map<K, V>
interface View<A>
Iterable <|- - Seq
Iterable <|- - Set
Iterable <|- - Map
Iterable <|- - View
@enduml

PlantUML version 1.2017.15(Mon Jul 03 18:45:34 CEST 2017)
(GPL source distribution)
Java Runtime: OpenJDK Runtime Environment
JVM: OpenJDK Server VM
Java Version: 1.8.0_152-release-b886
Operating System: Linux
OS Version: 4.4.0-97-generic
Default Encoding: UTF-8
Language: en
Country: US
--></g></svg>