<?xml version="1.0" encoding="UTF-8" standalone="no"?><svg xmlns="http://www.w3.org/2000/svg" xmlns:xlink="http://www.w3.org/1999/xlink" contentScriptType="application/ecmascript" contentStyleType="text/css" height="283px" preserveAspectRatio="none" style="width:92px;height:283px;" version="1.1" viewBox="0 0 92 283" width="92px" zoomAndPan="magnify"><defs><filter height="300%" id="fty6z48v7r97o" width="300%" x="-1" y="-1"><feGaussianBlur result="blurOut" stdDeviation="2.0"/><feColorMatrix in="blurOut" result="blurOut2" type="matrix" values="0 0 0 0 0 0 0 0 0 0 0 0 0 0 0 0 0 0 .4 0"/><feOffset dx="4.0" dy="4.0" in="blurOut2" result="blurOut3"/><feBlend in="SourceGraphic" in2="blurOut3" mode="normal"/></filter></defs><g><!--class Iterable--><rect fill="#FEFECE" filter="url(#fty6z48v7r97o)" height="48" id="Iterable" style="stroke: #A80036; stroke-width: 1.5;" width="75" x="6" y="8"/><ellipse cx="21" cy="24" fill="#ADD1B2" rx="11" ry="11" style="stroke: #A80036; stroke-width: 1.0;"/><path d="M21.0469,19.5 Q20.2031,19.5 19.5156,19.7969 Q18.8281,20.0938 18.3516,20.6484 Q17.875,21.2031 17.6016,22.0313 Q17.3281,22.8594 17.3281,23.9063 Q17.3281,25 17.5859,25.8203 Q17.8438,26.6406 18.3281,27.1875 Q18.8125,27.7344 19.5547,28.0234 Q20.2969,28.3125 21.3281,28.3125 Q22.1094,28.3125 22.8203,28.1406 Q23.5313,27.9688 24.6875,27.5938 L24.6875,29.6406 Q24.0938,29.875 23.7188,29.9766 Q23.3438,30.0781 22.9453,30.1328 Q22.5469,30.1875 22.1016,30.2188 Q21.6563,30.25 21.1094,30.25 Q19.5625,30.25 18.4063,29.7969 Q17.25,29.3438 16.4844,28.4922 Q15.7188,27.6406 15.3594,26.4688 Q15,25.2969 15,23.8906 Q15,22.5 15.3984,21.3438 Q15.7969,20.1875 16.5625,19.3438 Q17.3281,18.5 18.4688,18.0313 Q19.6094,17.5625 21.0625,17.5625 Q22.0156,17.5625 22.9063,17.75 Q23.7969,17.9375 24.8125,18.4844 L23.8125,20.3906 Q22.9844,19.9219 22.3906,19.7109 Q21.7969,19.5 21.0469,19.5 Z "/><text fill="#000000" font-family="sans-serif" font-size="12" lengthAdjust="spacingAndGlyphs" textLength="43" x="35" y="28.1543">Iterable</text><line style="stroke: #A80036; stroke-width: 1.5;" x1="7" x2="80" y1="40" y2="40"/><line style="stroke: #A80036; stroke-width: 1.5;" x1="7" x2="80" y1="48" y2="48"/><!--class Seq--><rect fill="#FEFECE" filter="url(#fty6z48v7r97o)" height="48" id="Seq" style="stroke: #A80036; stroke-width: 1.5;" width="53" x="17" y="116"/><ellipse cx="32" cy="132" fill="#ADD1B2" rx="11" ry="11" style="stroke: #A80036; stroke-width: 1.0;"/><path d="M32.0469,127.5 Q31.2031,127.5 30.5156,127.7969 Q29.8281,128.0938 29.3516,128.6484 Q28.875,129.2031 28.6016,130.0313 Q28.3281,130.8594 28.3281,131.9063 Q28.3281,133 28.5859,133.8203 Q28.8438,134.6406 29.3281,135.1875 Q29.8125,135.7344 30.5547,136.0234 Q31.2969,136.3125 32.3281,136.3125 Q33.1094,136.3125 33.8203,136.1406 Q34.5313,135.9688 35.6875,135.5938 L35.6875,137.6406 Q35.0938,137.875 34.7188,137.9766 Q34.3438,138.0781 33.9453,138.1328 Q33.5469,138.1875 33.1016,138.2188 Q32.6563,138.25 32.1094,138.25 Q30.5625,138.25 29.4063,137.7969 Q28.25,137.3438 27.4844,136.4922 Q26.7188,135.6406 26.3594,134.4688 Q26,133.2969 26,131.8906 Q26,130.5 26.3984,129.3438 Q26.7969,128.1875 27.5625,127.3438 Q28.3281,126.5 29.4688,126.0313 Q30.6094,125.5625 32.0625,125.5625 Q33.0156,125.5625 33.9063,125.75 Q34.7969,125.9375 35.8125,126.4844 L34.8125,128.3906 Q33.9844,127.9219 33.3906,127.7109 Q32.7969,127.5 32.0469,127.5 Z "/><text fill="#000000" font-family="sans-serif" font-size="12" lengthAdjust="spacingAndGlyphs" textLength="21" x="46" y="136.1543">Seq</text><line style="stroke: #A80036; stroke-width: 1.5;" x1="18" x2="69" y1="148" y2="148"/><line style="stroke: #A80036; stroke-width: 1.5;" x1="18" x2="69" y1="156" y2="156"/><!--class List--><rect fill="#FEFECE" filter="url(#fty6z48v7r97o)" height="48" id="List" style="stroke: #A80036; stroke-width: 1.5;" width="51" x="18" y="224"/><ellipse cx="33" cy="240" fill="#ADD1B2" rx="11" ry="11" style="stroke: #A80036; stroke-width: 1.0;"/><path d="M33.0469,235.5 Q32.2031,235.5 31.5156,235.7969 Q30.8281,236.0938 30.3516,236.6484 Q29.875,237.2031 29.6016,238.0313 Q29.3281,238.8594 29.3281,239.9063 Q29.3281,241 29.5859,241.8203 Q29.8438,242.6406 30.3281,243.1875 Q30.8125,243.7344 31.5547,244.0234 Q32.2969,244.3125 33.3281,244.3125 Q34.1094,244.3125 34.8203,244.1406 Q35.5313,243.9688 36.6875,243.5938 L36.6875,245.6406 Q36.0938,245.875 35.7188,245.9766 Q35.3438,246.0781 34.9453,246.1328 Q34.5469,246.1875 34.1016,246.2188 Q33.6563,246.25 33.1094,246.25 Q31.5625,246.25 30.4063,245.7969 Q29.25,245.3438 28.4844,244.4922 Q27.7188,243.6406 27.3594,242.4688 Q27,241.2969 27,239.8906 Q27,238.5 27.3984,237.3438 Q27.7969,236.1875 28.5625,235.3438 Q29.3281,234.5 30.4688,234.0313 Q31.6094,233.5625 33.0625,233.5625 Q34.0156,233.5625 34.9063,233.75 Q35.7969,233.9375 36.8125,234.4844 L35.8125,236.3906 Q34.9844,235.9219 34.3906,235.7109 Q33.7969,235.5 33.0469,235.5 Z "/><text fill="#000000" font-family="sans-serif" font-size="12" lengthAdjust="spacingAndGlyphs" textLength="19" x="47" y="244.1543">List</text><line style="stroke: #A80036; stroke-width: 1.5;" x1="19" x2="68" y1="256" y2="256"/><line style="stroke: #A80036; stroke-width: 1.5;" x1="19" x2="68" y1="264" y2="264"/><!--link Iterable to Seq--><path d="M43.5,76.024 C43.5,89.579 43.5,104.038 43.5,115.678 " fill="none" id="Iterable-Seq" style="stroke: #A80036; stroke-width: 1.0;"/><polygon fill="none" points="36.5001,76,43.5,56,50.5001,76,36.5001,76" style="stroke: #A80036; stroke-width: 1.0;"/><!--link Seq to List--><path d="M43.5,184.0236 C43.5,197.5792 43.5,212.0381 43.5,223.6784 " fill="none" id="Seq-List" style="stroke: #A80036; stroke-width: 1.0;"/><polygon fill="none" points="36.5001,184.0005,43.5,164,50.5001,184.0004,36.5001,184.0005" style="stroke: #A80036; stroke-width: 1.0;"/><!--
@startuml
Iterable <|- - Seq
Seq <|- - List
@enduml

PlantUML version 1.2017.15(Mon Jul 03 18:45:34 CEST 2017)
(GPL source distribution)
Java Runtime: OpenJDK Runtime Environment
JVM: OpenJDK Server VM
Java Version: 1.8.0_152-release-b886
Operating System: Linux
OS Version: 4.4.0-97-generic
Default Encoding: UTF-8
Language: en
Country: US
--></g></svg>