<?xml version="1.0" encoding="UTF-8" standalone="no"?><svg xmlns="http://www.w3.org/2000/svg" xmlns:xlink="http://www.w3.org/1999/xlink" contentScriptType="application/ecmascript" contentStyleType="text/css" height="391px" preserveAspectRatio="none" style="width:202px;height:391px;" version="1.1" viewBox="0 0 202 391" width="202px" zoomAndPan="magnify"><defs><filter height="300%" id="f1q1dlv24u3e3s" width="300%" x="-1" y="-1"><feGaussianBlur result="blurOut" stdDeviation="2.0"/><feColorMatrix in="blurOut" result="blurOut2" type="matrix" values="0 0 0 0 0 0 0 0 0 0 0 0 0 0 0 0 0 0 .4 0"/><feOffset dx="4.0" dy="4.0" in="blurOut2" result="blurOut3"/><feBlend in="SourceGraphic" in2="blurOut3" mode="normal"/></filter></defs><g><!--class IterableOps--><rect fill="#FEFECE" filter="url(#f1q1dlv24u3e3s)" height="48" id="IterableOps" style="stroke: #A80036; stroke-width: 1.5;" width="97" x="50" y="8"/><ellipse cx="65" cy="24" fill="#ADD1B2" rx="11" ry="11" style="stroke: #A80036; stroke-width: 1.0;"/><path d="M65.0469,19.5 Q64.2031,19.5 63.5156,19.7969 Q62.8281,20.0938 62.3516,20.6484 Q61.875,21.2031 61.6016,22.0313 Q61.3281,22.8594 61.3281,23.9063 Q61.3281,25 61.5859,25.8203 Q61.8438,26.6406 62.3281,27.1875 Q62.8125,27.7344 63.5547,28.0234 Q64.2969,28.3125 65.3281,28.3125 Q66.1094,28.3125 66.8203,28.1406 Q67.5313,27.9688 68.6875,27.5938 L68.6875,29.6406 Q68.0938,29.875 67.7188,29.9766 Q67.3438,30.0781 66.9453,30.1328 Q66.5469,30.1875 66.1016,30.2188 Q65.6563,30.25 65.1094,30.25 Q63.5625,30.25 62.4063,29.7969 Q61.25,29.3438 60.4844,28.4922 Q59.7188,27.6406 59.3594,26.4688 Q59,25.2969 59,23.8906 Q59,22.5 59.3984,21.3438 Q59.7969,20.1875 60.5625,19.3438 Q61.3281,18.5 62.4688,18.0313 Q63.6094,17.5625 65.0625,17.5625 Q66.0156,17.5625 66.9063,17.75 Q67.7969,17.9375 68.8125,18.4844 L67.8125,20.3906 Q66.9844,19.9219 66.3906,19.7109 Q65.7969,19.5 65.0469,19.5 Z "/><text fill="#000000" font-family="sans-serif" font-size="12" lengthAdjust="spacingAndGlyphs" textLength="65" x="79" y="28.1543">IterableOps</text><line style="stroke: #A80036; stroke-width: 1.5;" x1="51" x2="146" y1="40" y2="40"/><line style="stroke: #A80036; stroke-width: 1.5;" x1="51" x2="146" y1="48" y2="48"/><!--class Iterable--><rect fill="#FEFECE" filter="url(#f1q1dlv24u3e3s)" height="48" id="Iterable" style="stroke: #A80036; stroke-width: 1.5;" width="75" x="6" y="116"/><ellipse cx="21" cy="132" fill="#ADD1B2" rx="11" ry="11" style="stroke: #A80036; stroke-width: 1.0;"/><path d="M21.0469,127.5 Q20.2031,127.5 19.5156,127.7969 Q18.8281,128.0938 18.3516,128.6484 Q17.875,129.2031 17.6016,130.0313 Q17.3281,130.8594 17.3281,131.9063 Q17.3281,133 17.5859,133.8203 Q17.8438,134.6406 18.3281,135.1875 Q18.8125,135.7344 19.5547,136.0234 Q20.2969,136.3125 21.3281,136.3125 Q22.1094,136.3125 22.8203,136.1406 Q23.5313,135.9688 24.6875,135.5938 L24.6875,137.6406 Q24.0938,137.875 23.7188,137.9766 Q23.3438,138.0781 22.9453,138.1328 Q22.5469,138.1875 22.1016,138.2188 Q21.6563,138.25 21.1094,138.25 Q19.5625,138.25 18.4063,137.7969 Q17.25,137.3438 16.4844,136.4922 Q15.7188,135.6406 15.3594,134.4688 Q15,133.2969 15,131.8906 Q15,130.5 15.3984,129.3438 Q15.7969,128.1875 16.5625,127.3438 Q17.3281,126.5 18.4688,126.0313 Q19.6094,125.5625 21.0625,125.5625 Q22.0156,125.5625 22.9063,125.75 Q23.7969,125.9375 24.8125,126.4844 L23.8125,128.3906 Q22.9844,127.9219 22.3906,127.7109 Q21.7969,127.5 21.0469,127.5 Z "/><text fill="#000000" font-family="sans-serif" font-size="12" lengthAdjust="spacingAndGlyphs" textLength="43" x="35" y="136.1543">Iterable</text><line style="stroke: #A80036; stroke-width: 1.5;" x1="7" x2="80" y1="148" y2="148"/><line style="stroke: #A80036; stroke-width: 1.5;" x1="7" x2="80" y1="156" y2="156"/><!--class SeqOps--><rect fill="#FEFECE" filter="url(#f1q1dlv24u3e3s)" height="48" id="SeqOps" style="stroke: #A80036; stroke-width: 1.5;" width="75" x="116" y="116"/><ellipse cx="131" cy="132" fill="#ADD1B2" rx="11" ry="11" style="stroke: #A80036; stroke-width: 1.0;"/><path d="M131.0469,127.5 Q130.2031,127.5 129.5156,127.7969 Q128.8281,128.0938 128.3516,128.6484 Q127.875,129.2031 127.6016,130.0313 Q127.3281,130.8594 127.3281,131.9063 Q127.3281,133 127.5859,133.8203 Q127.8438,134.6406 128.3281,135.1875 Q128.8125,135.7344 129.5547,136.0234 Q130.2969,136.3125 131.3281,136.3125 Q132.1094,136.3125 132.8203,136.1406 Q133.5313,135.9688 134.6875,135.5938 L134.6875,137.6406 Q134.0938,137.875 133.7188,137.9766 Q133.3438,138.0781 132.9453,138.1328 Q132.5469,138.1875 132.1016,138.2188 Q131.6563,138.25 131.1094,138.25 Q129.5625,138.25 128.4063,137.7969 Q127.25,137.3438 126.4844,136.4922 Q125.7188,135.6406 125.3594,134.4688 Q125,133.2969 125,131.8906 Q125,130.5 125.3984,129.3438 Q125.7969,128.1875 126.5625,127.3438 Q127.3281,126.5 128.4688,126.0313 Q129.6094,125.5625 131.0625,125.5625 Q132.0156,125.5625 132.9063,125.75 Q133.7969,125.9375 134.8125,126.4844 L133.8125,128.3906 Q132.9844,127.9219 132.3906,127.7109 Q131.7969,127.5 131.0469,127.5 Z "/><text fill="#000000" font-family="sans-serif" font-size="12" lengthAdjust="spacingAndGlyphs" textLength="43" x="145" y="136.1543">SeqOps</text><line style="stroke: #A80036; stroke-width: 1.5;" x1="117" x2="190" y1="148" y2="148"/><line style="stroke: #A80036; stroke-width: 1.5;" x1="117" x2="190" y1="156" y2="156"/><!--class Seq--><rect fill="#FEFECE" filter="url(#f1q1dlv24u3e3s)" height="48" id="Seq" style="stroke: #A80036; stroke-width: 1.5;" width="53" x="72" y="224"/><ellipse cx="87" cy="240" fill="#ADD1B2" rx="11" ry="11" style="stroke: #A80036; stroke-width: 1.0;"/><path d="M87.0469,235.5 Q86.2031,235.5 85.5156,235.7969 Q84.8281,236.0938 84.3516,236.6484 Q83.875,237.2031 83.6016,238.0313 Q83.3281,238.8594 83.3281,239.9063 Q83.3281,241 83.5859,241.8203 Q83.8438,242.6406 84.3281,243.1875 Q84.8125,243.7344 85.5547,244.0234 Q86.2969,244.3125 87.3281,244.3125 Q88.1094,244.3125 88.8203,244.1406 Q89.5313,243.9688 90.6875,243.5938 L90.6875,245.6406 Q90.0938,245.875 89.7188,245.9766 Q89.3438,246.0781 88.9453,246.1328 Q88.5469,246.1875 88.1016,246.2188 Q87.6563,246.25 87.1094,246.25 Q85.5625,246.25 84.4063,245.7969 Q83.25,245.3438 82.4844,244.4922 Q81.7188,243.6406 81.3594,242.4688 Q81,241.2969 81,239.8906 Q81,238.5 81.3984,237.3438 Q81.7969,236.1875 82.5625,235.3438 Q83.3281,234.5 84.4688,234.0313 Q85.6094,233.5625 87.0625,233.5625 Q88.0156,233.5625 88.9063,233.75 Q89.7969,233.9375 90.8125,234.4844 L89.8125,236.3906 Q88.9844,235.9219 88.3906,235.7109 Q87.7969,235.5 87.0469,235.5 Z "/><text fill="#000000" font-family="sans-serif" font-size="12" lengthAdjust="spacingAndGlyphs" textLength="21" x="101" y="244.1543">Seq</text><line style="stroke: #A80036; stroke-width: 1.5;" x1="73" x2="124" y1="256" y2="256"/><line style="stroke: #A80036; stroke-width: 1.5;" x1="73" x2="124" y1="264" y2="264"/><!--class List--><rect fill="#FEFECE" filter="url(#f1q1dlv24u3e3s)" height="48" id="List" style="stroke: #A80036; stroke-width: 1.5;" width="51" x="73" y="332"/><ellipse cx="88" cy="348" fill="#ADD1B2" rx="11" ry="11" style="stroke: #A80036; stroke-width: 1.0;"/><path d="M88.0469,343.5 Q87.2031,343.5 86.5156,343.7969 Q85.8281,344.0938 85.3516,344.6484 Q84.875,345.2031 84.6016,346.0313 Q84.3281,346.8594 84.3281,347.9063 Q84.3281,349 84.5859,349.8203 Q84.8438,350.6406 85.3281,351.1875 Q85.8125,351.7344 86.5547,352.0234 Q87.2969,352.3125 88.3281,352.3125 Q89.1094,352.3125 89.8203,352.1406 Q90.5313,351.9688 91.6875,351.5938 L91.6875,353.6406 Q91.0938,353.875 90.7188,353.9766 Q90.3438,354.0781 89.9453,354.1328 Q89.5469,354.1875 89.1016,354.2188 Q88.6563,354.25 88.1094,354.25 Q86.5625,354.25 85.4063,353.7969 Q84.25,353.3438 83.4844,352.4922 Q82.7188,351.6406 82.3594,350.4688 Q82,349.2969 82,347.8906 Q82,346.5 82.3984,345.3438 Q82.7969,344.1875 83.5625,343.3438 Q84.3281,342.5 85.4688,342.0313 Q86.6094,341.5625 88.0625,341.5625 Q89.0156,341.5625 89.9063,341.75 Q90.7969,341.9375 91.8125,342.4844 L90.8125,344.3906 Q89.9844,343.9219 89.3906,343.7109 Q88.7969,343.5 88.0469,343.5 Z "/><text fill="#000000" font-family="sans-serif" font-size="12" lengthAdjust="spacingAndGlyphs" textLength="19" x="102" y="352.1543">List</text><line style="stroke: #A80036; stroke-width: 1.5;" x1="74" x2="123" y1="364" y2="364"/><line style="stroke: #A80036; stroke-width: 1.5;" x1="74" x2="123" y1="372" y2="372"/><!--link IterableOps to Iterable--><path d="M77.1778,74.094 C69.8607,88.196 61.9282,103.484 55.6008,115.678 " fill="none" id="IterableOps-Iterable" style="stroke: #A80036; stroke-width: 1.0;"/><polygon fill="none" points="71.1411,70.529,86.5658,56,83.5679,76.977,71.1411,70.529" style="stroke: #A80036; stroke-width: 1.0;"/><!--link IterableOps to SeqOps--><path d="M119.822,74.094 C127.139,88.196 135.072,103.484 141.399,115.678 " fill="none" id="IterableOps-SeqOps" style="stroke: #A80036; stroke-width: 1.0;"/><polygon fill="none" points="113.432,76.977,110.434,56,125.859,70.529,113.432,76.977" style="stroke: #A80036; stroke-width: 1.0;"/><!--link SeqOps to Seq--><path d="M132.178,182.094 C124.861,196.196 116.928,211.484 110.601,223.678 " fill="none" id="SeqOps-Seq" style="stroke: #A80036; stroke-width: 1.0;"/><polygon fill="none" points="126.141,178.529,141.566,164,138.568,184.977,126.141,178.529" style="stroke: #A80036; stroke-width: 1.0;"/><!--link Iterable to Seq--><path d="M64.8222,182.094 C72.1393,196.196 80.0718,211.484 86.3992,223.678 " fill="none" id="Iterable-Seq" style="stroke: #A80036; stroke-width: 1.0;"/><polygon fill="none" points="58.4321,184.977,55.4342,164,70.8589,178.529,58.4321,184.977" style="stroke: #A80036; stroke-width: 1.0;"/><!--link Seq to List--><path d="M98.5,292.0236 C98.5,305.5792 98.5,320.0381 98.5,331.6784 " fill="none" id="Seq-List" style="stroke: #A80036; stroke-width: 1.0;"/><polygon fill="none" points="91.5001,292.0005,98.5,272,105.5001,292.0004,91.5001,292.0005" style="stroke: #A80036; stroke-width: 1.0;"/><!--
@startuml
IterableOps <|- - Iterable
IterableOps <|- - SeqOps
SeqOps <|- - Seq
Iterable <|- - Seq
Seq <|- - List
@enduml

PlantUML version 1.2017.15(Mon Jul 03 18:45:34 CEST 2017)
(GPL source distribution)
Java Runtime: OpenJDK Runtime Environment
JVM: OpenJDK Server VM
Java Version: 1.8.0_152-release-b886
Operating System: Linux
OS Version: 4.4.0-97-generic
Default Encoding: UTF-8
Language: en
Country: US
--></g></svg>