<?xml version="1.0" encoding="UTF-8" standalone="no"?><svg xmlns="http://www.w3.org/2000/svg" xmlns:xlink="http://www.w3.org/1999/xlink" contentScriptType="application/ecmascript" contentStyleType="text/css" height="283px" preserveAspectRatio="none" style="width:296px;height:283px;" version="1.1" viewBox="0 0 296 283" width="296px" zoomAndPan="magnify"><defs><filter height="300%" id="f1jc7hi2una6ib" width="300%" x="-1" y="-1"><feGaussianBlur result="blurOut" stdDeviation="2.0"/><feColorMatrix in="blurOut" result="blurOut2" type="matrix" values="0 0 0 0 0 0 0 0 0 0 0 0 0 0 0 0 0 0 .4 0"/><feOffset dx="4.0" dy="4.0" in="blurOut2" result="blurOut3"/><feBlend in="SourceGraphic" in2="blurOut3" mode="normal"/></filter></defs><g><!--class Traversable--><rect fill="#FEFECE" filter="url(#f1jc7hi2una6ib)" height="48" id="Traversable" style="stroke: #A80036; stroke-width: 1.5;" width="107" x="82.5" y="8"/><ellipse cx="97.5" cy="24" fill="#B4A7E5" rx="11" ry="11" style="stroke: #A80036; stroke-width: 1.0;"/><path d="M99.6563,30.5 L94.5781,30.5 L94.5781,29.0469 L96,28.7031 L96,19.6094 L94.5781,19.2656 L94.5781,17.8125 L99.6563,17.8125 L99.6563,19.2656 L98.2344,19.6094 L98.2344,28.7031 L99.6563,29.0469 L99.6563,30.5 Z "/><text fill="#000000" font-family="sans-serif" font-size="12" font-style="italic" lengthAdjust="spacingAndGlyphs" textLength="64" x="111.5" y="28.1543">Traversable</text><rect fill="#FFFFFF" height="15.9688" style="stroke: #000000; stroke-width: 1.0; stroke-dasharray: 2.0,2.0;" width="9" x="183.5" y="5"/><text fill="#000000" font-family="sans-serif" font-size="12" font-style="italic" lengthAdjust="spacingAndGlyphs" textLength="7" x="184.5" y="17.1387">A</text><line style="stroke: #A80036; stroke-width: 1.5;" x1="83.5" x2="188.5" y1="40" y2="40"/><line style="stroke: #A80036; stroke-width: 1.5;" x1="83.5" x2="188.5" y1="48" y2="48"/><!--class Iterable--><rect fill="#FEFECE" filter="url(#f1jc7hi2una6ib)" height="48" id="Iterable" style="stroke: #A80036; stroke-width: 1.5;" width="86" x="93" y="116"/><ellipse cx="108" cy="132" fill="#B4A7E5" rx="11" ry="11" style="stroke: #A80036; stroke-width: 1.0;"/><path d="M110.1563,138.5 L105.0781,138.5 L105.0781,137.0469 L106.5,136.7031 L106.5,127.6094 L105.0781,127.2656 L105.0781,125.8125 L110.1563,125.8125 L110.1563,127.2656 L108.7344,127.6094 L108.7344,136.7031 L110.1563,137.0469 L110.1563,138.5 Z "/><text fill="#000000" font-family="sans-serif" font-size="12" font-style="italic" lengthAdjust="spacingAndGlyphs" textLength="43" x="122" y="136.1543">Iterable</text><rect fill="#FFFFFF" height="15.9688" style="stroke: #000000; stroke-width: 1.0; stroke-dasharray: 2.0,2.0;" width="9" x="173" y="113"/><text fill="#000000" font-family="sans-serif" font-size="12" font-style="italic" lengthAdjust="spacingAndGlyphs" textLength="7" x="174" y="125.1387">A</text><line style="stroke: #A80036; stroke-width: 1.5;" x1="94" x2="178" y1="148" y2="148"/><line style="stroke: #A80036; stroke-width: 1.5;" x1="94" x2="178" y1="156" y2="156"/><!--class Seq--><rect fill="#FEFECE" filter="url(#f1jc7hi2una6ib)" height="48" id="Seq" style="stroke: #A80036; stroke-width: 1.5;" width="64" x="6" y="224"/><ellipse cx="21" cy="240" fill="#B4A7E5" rx="11" ry="11" style="stroke: #A80036; stroke-width: 1.0;"/><path d="M23.1563,246.5 L18.0781,246.5 L18.0781,245.0469 L19.5,244.7031 L19.5,235.6094 L18.0781,235.2656 L18.0781,233.8125 L23.1563,233.8125 L23.1563,235.2656 L21.7344,235.6094 L21.7344,244.7031 L23.1563,245.0469 L23.1563,246.5 Z "/><text fill="#000000" font-family="sans-serif" font-size="12" font-style="italic" lengthAdjust="spacingAndGlyphs" textLength="21" x="35" y="244.1543">Seq</text><rect fill="#FFFFFF" height="15.9688" style="stroke: #000000; stroke-width: 1.0; stroke-dasharray: 2.0,2.0;" width="9" x="64" y="221"/><text fill="#000000" font-family="sans-serif" font-size="12" font-style="italic" lengthAdjust="spacingAndGlyphs" textLength="7" x="65" y="233.1387">A</text><line style="stroke: #A80036; stroke-width: 1.5;" x1="7" x2="69" y1="256" y2="256"/><line style="stroke: #A80036; stroke-width: 1.5;" x1="7" x2="69" y1="264" y2="264"/><!--class Set--><rect fill="#FEFECE" filter="url(#f1jc7hi2una6ib)" height="48" id="Set" style="stroke: #A80036; stroke-width: 1.5;" width="61" x="105.5" y="224"/><ellipse cx="120.5" cy="240" fill="#B4A7E5" rx="11" ry="11" style="stroke: #A80036; stroke-width: 1.0;"/><path d="M122.6563,246.5 L117.5781,246.5 L117.5781,245.0469 L119,244.7031 L119,235.6094 L117.5781,235.2656 L117.5781,233.8125 L122.6563,233.8125 L122.6563,235.2656 L121.2344,235.6094 L121.2344,244.7031 L122.6563,245.0469 L122.6563,246.5 Z "/><text fill="#000000" font-family="sans-serif" font-size="12" font-style="italic" lengthAdjust="spacingAndGlyphs" textLength="18" x="134.5" y="244.1543">Set</text><rect fill="#FFFFFF" height="15.9688" style="stroke: #000000; stroke-width: 1.0; stroke-dasharray: 2.0,2.0;" width="9" x="160.5" y="221"/><text fill="#000000" font-family="sans-serif" font-size="12" font-style="italic" lengthAdjust="spacingAndGlyphs" textLength="7" x="161.5" y="233.1387">A</text><line style="stroke: #A80036; stroke-width: 1.5;" x1="106.5" x2="165.5" y1="256" y2="256"/><line style="stroke: #A80036; stroke-width: 1.5;" x1="106.5" x2="165.5" y1="264" y2="264"/><!--class Map--><rect fill="#FEFECE" filter="url(#f1jc7hi2una6ib)" height="48" id="Map" style="stroke: #A80036; stroke-width: 1.5;" width="81" x="201.5" y="224"/><ellipse cx="216.5" cy="240" fill="#B4A7E5" rx="11" ry="11" style="stroke: #A80036; stroke-width: 1.0;"/><path d="M218.6563,246.5 L213.5781,246.5 L213.5781,245.0469 L215,244.7031 L215,235.6094 L213.5781,235.2656 L213.5781,233.8125 L218.6563,233.8125 L218.6563,235.2656 L217.2344,235.6094 L217.2344,244.7031 L218.6563,245.0469 L218.6563,246.5 Z "/><text fill="#000000" font-family="sans-serif" font-size="12" font-style="italic" lengthAdjust="spacingAndGlyphs" textLength="25" x="230.5" y="244.1543">Map</text><rect fill="#FFFFFF" height="15.9688" style="stroke: #000000; stroke-width: 1.0; stroke-dasharray: 2.0,2.0;" width="22" x="263.5" y="221"/><text fill="#000000" font-family="sans-serif" font-size="12" font-style="italic" lengthAdjust="spacingAndGlyphs" textLength="20" x="264.5" y="233.1387">K, V</text><line style="stroke: #A80036; stroke-width: 1.5;" x1="202.5" x2="281.5" y1="256" y2="256"/><line style="stroke: #A80036; stroke-width: 1.5;" x1="202.5" x2="281.5" y1="264" y2="264"/><!--link Traversable to Iterable--><path d="M136,76.024 C136,89.579 136,104.038 136,115.678 " fill="none" id="Traversable-Iterable" style="stroke: #A80036; stroke-width: 1.0;"/><polygon fill="none" points="129,76,136,56,143,76,129,76" style="stroke: #A80036; stroke-width: 1.0;"/><!--link Iterable to Seq--><path d="M101.0963,178.753 C87.2367,193.744 71.7326,210.5138 59.5615,223.6784 " fill="none" id="Iterable-Seq" style="stroke: #A80036; stroke-width: 1.0;"/><polygon fill="none" points="96.0184,173.9339,114.735,164,106.298,183.4379,96.0184,173.9339" style="stroke: #A80036; stroke-width: 1.0;"/><!--link Iterable to Set--><path d="M136,184.0236 C136,197.5792 136,212.0381 136,223.6784 " fill="none" id="Iterable-Set" style="stroke: #A80036; stroke-width: 1.0;"/><polygon fill="none" points="129,184.0005,136,164,143,184.0004,129,184.0005" style="stroke: #A80036; stroke-width: 1.0;"/><!--link Iterable to Map--><path d="M173.28,178.2802 C188.391,193.3905 205.375,210.3752 218.678,223.6784 " fill="none" id="Iterable-Map" style="stroke: #A80036; stroke-width: 1.0;"/><polygon fill="none" points="168.193,183.0923,159,164,178.092,173.1928,168.193,183.0923" style="stroke: #A80036; stroke-width: 1.0;"/><!--
@startuml
interface Traversable<A>
interface Iterable<A>
interface Seq<A>
interface Set<A>
interface Map<K, V>
Traversable <|- - Iterable
Iterable <|- - Seq
Iterable <|- - Set
Iterable <|- - Map
@enduml

PlantUML version 1.2017.15(Mon Jul 03 18:45:34 CEST 2017)
(GPL source distribution)
Java Runtime: OpenJDK Runtime Environment
JVM: OpenJDK Server VM
Java Version: 1.8.0_152-release-b886
Operating System: Linux
OS Version: 4.4.0-97-generic
Default Encoding: UTF-8
Language: en
Country: US
--></g></svg>