<?xml version="1.0" encoding="UTF-8"?><svg xmlns="http://www.w3.org/2000/svg" xmlns:xlink="http://www.w3.org/1999/xlink" fill-opacity="1" color-rendering="auto" color-interpolation="auto" text-rendering="auto" stroke="black" stroke-linecap="square" width="708" stroke-miterlimit="10" shape-rendering="auto" stroke-opacity="1" fill="black" stroke-dasharray="none" font-weight="normal" stroke-width="1" height="165" font-family="'Dialog'" font-style="normal" stroke-linejoin="miter" font-size="12px" stroke-dashoffset="0" image-rendering="auto">
  <!--Generated by ySVG 2.5-->
  <defs id="genericDefs"/>
  <g>
    <defs id="defs1">
      <clipPath clipPathUnits="userSpaceOnUse" id="clipPath1">
        <path d="M0 0 L708 0 L708 165 L0 165 L0 0 Z"/>
      </clipPath>
      <clipPath clipPathUnits="userSpaceOnUse" id="clipPath2">
        <path d="M58 23 L766 23 L766 188 L58 188 L58 23 Z"/>
      </clipPath>
    </defs>
    <g fill="white" text-rendering="geometricPrecision" shape-rendering="geometricPrecision" transform="translate(-58,-23)" stroke="white">
      <rect x="58" width="708" height="165" y="23" clip-path="url(#clipPath2)" stroke="none"/>
    </g>
    <g font-size="30px" stroke-linecap="butt" transform="matrix(1,0,0,1,-58,-23)" text-rendering="geometricPrecision" font-family="sans-serif" shape-rendering="geometricPrecision" stroke-miterlimit="1.45">
      <text x="221.3105" xml:space="preserve" y="153.8976" clip-path="url(#clipPath2)" stroke="none">4</text>
      <text x="75.2934" xml:space="preserve" y="153.8976" clip-path="url(#clipPath2)" stroke="none">x: Rx[Int]</text>
      <rect x="199.6527" y="112.113" clip-path="url(#clipPath2)" fill="none" width="60" rx="4" ry="4" height="60"/>
      <text x="335.6209" xml:space="preserve" y="153.8976" clip-path="url(#clipPath2)" stroke="none">10</text>
      <rect x="322.3055" y="112.113" clip-path="url(#clipPath2)" fill="none" width="60" rx="4" ry="4" height="60"/>
      <text x="466.616" xml:space="preserve" y="153.8976" clip-path="url(#clipPath2)" stroke="none">2</text>
      <rect x="444.9582" y="112.113" clip-path="url(#clipPath2)" fill="none" width="60" rx="4" ry="4" height="60"/>
      <text x="580.9265" xml:space="preserve" y="153.8976" clip-path="url(#clipPath2)" stroke="none">15</text>
      <rect x="567.611" y="112.113" clip-path="url(#clipPath2)" fill="none" width="60" rx="4" ry="4" height="60"/>
      <text x="703.5792" xml:space="preserve" y="153.8976" clip-path="url(#clipPath2)" stroke="none">17</text>
      <rect x="690.2637" y="112.113" clip-path="url(#clipPath2)" fill="none" width="60" rx="4" ry="4" height="60"/>
      <text x="214.641" xml:space="preserve" font-size="36px" y="82.2546" clip-path="url(#clipPath2)" stroke="none">t1</text>
      <text x="337.2938" xml:space="preserve" font-size="36px" y="82.2546" clip-path="url(#clipPath2)" stroke="none">t2</text>
      <text x="459.9465" xml:space="preserve" font-size="36px" y="82.2546" clip-path="url(#clipPath2)" stroke="none">t3</text>
      <text x="582.5993" xml:space="preserve" font-size="36px" y="82.2546" clip-path="url(#clipPath2)" stroke="none">t4</text>
      <text x="705.252" xml:space="preserve" font-size="36px" y="82.2546" clip-path="url(#clipPath2)" stroke="none">t5</text>
      <path fill="none" d="M259.6272 142.113 L314.3027 142.113" clip-path="url(#clipPath2)"/>
      <path d="M322.3027 142.113 L310.3027 137.113 L313.3027 142.113 L310.3027 147.113 Z" stroke="none" clip-path="url(#clipPath2)"/>
      <path fill="none" d="M382.28 142.113 L436.9555 142.113" clip-path="url(#clipPath2)"/>
      <path d="M444.9555 142.113 L432.9555 137.113 L435.9555 142.113 L432.9555 147.113 Z" stroke="none" clip-path="url(#clipPath2)"/>
      <path fill="none" d="M504.9327 142.113 L559.6082 142.113" clip-path="url(#clipPath2)"/>
      <path d="M567.6082 142.113 L555.6082 137.113 L558.6082 142.113 L555.6082 147.113 Z" stroke="none" clip-path="url(#clipPath2)"/>
      <path fill="none" d="M627.5854 142.113 L682.261 142.113" clip-path="url(#clipPath2)"/>
      <path d="M690.261 142.113 L678.261 137.113 L681.261 142.113 L678.261 147.113 Z" stroke="none" clip-path="url(#clipPath2)"/>
    </g>
  </g>
</svg>
