<?xml version="1.0" encoding="UTF-8"?><svg xmlns="http://www.w3.org/2000/svg" xmlns:xlink="http://www.w3.org/1999/xlink" fill-opacity="1" color-rendering="auto" color-interpolation="auto" text-rendering="auto" stroke="black" stroke-linecap="square" width="753" stroke-miterlimit="10" shape-rendering="auto" stroke-opacity="1" fill="black" stroke-dasharray="none" font-weight="normal" stroke-width="1" height="411" font-family="'Dialog'" font-style="normal" stroke-linejoin="miter" font-size="12px" stroke-dashoffset="0" image-rendering="auto">
  <!--Generated by ySVG 2.5-->
  <defs id="genericDefs"/>
  <g>
    <defs id="defs1">
      <clipPath clipPathUnits="userSpaceOnUse" id="clipPath1">
        <path d="M0 0 L753 0 L753 411 L0 411 L0 0 Z"/>
      </clipPath>
      <clipPath clipPathUnits="userSpaceOnUse" id="clipPath2">
        <path d="M13 23 L766 23 L766 434 L13 434 L13 23 Z"/>
      </clipPath>
    </defs>
    <g fill="white" text-rendering="geometricPrecision" shape-rendering="geometricPrecision" transform="translate(-13,-23)" stroke="white">
      <rect x="13" width="753" height="411" y="23" clip-path="url(#clipPath2)" stroke="none"/>
    </g>
    <g font-size="30px" stroke-linecap="butt" transform="matrix(1,0,0,1,-13,-23)" text-rendering="geometricPrecision" font-family="sans-serif" shape-rendering="geometricPrecision" stroke-miterlimit="1.45">
      <text x="221.3105" xml:space="preserve" y="153.8976" clip-path="url(#clipPath2)" stroke="none">4</text>
      <text x="75.2934" xml:space="preserve" y="153.8976" clip-path="url(#clipPath2)" stroke="none">x: Rx[Int]</text>
      <rect x="199.6527" y="112.113" clip-path="url(#clipPath2)" fill="none" width="60" rx="4" ry="4" height="60"/>
      <text x="335.6209" xml:space="preserve" y="153.8976" clip-path="url(#clipPath2)" stroke="none">10</text>
      <rect x="322.3055" y="112.113" clip-path="url(#clipPath2)" fill="none" width="60" rx="4" ry="4" height="60"/>
      <text x="466.616" xml:space="preserve" y="153.8976" clip-path="url(#clipPath2)" stroke="none">2</text>
      <rect x="444.9582" y="112.113" clip-path="url(#clipPath2)" fill="none" width="60" rx="4" ry="4" height="60"/>
      <text x="580.9265" xml:space="preserve" y="153.8976" clip-path="url(#clipPath2)" stroke="none">15</text>
      <rect x="567.611" y="112.113" clip-path="url(#clipPath2)" fill="none" width="60" rx="4" ry="4" height="60"/>
      <text x="703.5792" xml:space="preserve" y="153.8976" clip-path="url(#clipPath2)" stroke="none">17</text>
      <rect x="690.2637" y="112.113" clip-path="url(#clipPath2)" fill="none" width="60" rx="4" ry="4" height="60"/>
      <text x="214.641" xml:space="preserve" font-size="36px" y="82.2546" clip-path="url(#clipPath2)" stroke="none">t1</text>
      <text x="337.2938" xml:space="preserve" font-size="36px" y="82.2546" clip-path="url(#clipPath2)" stroke="none">t2</text>
      <text x="459.9465" xml:space="preserve" font-size="36px" y="82.2546" clip-path="url(#clipPath2)" stroke="none">t3</text>
      <text x="582.5993" xml:space="preserve" font-size="36px" y="82.2546" clip-path="url(#clipPath2)" stroke="none">t4</text>
      <text x="705.252" xml:space="preserve" font-size="36px" y="82.2546" clip-path="url(#clipPath2)" stroke="none">t5</text>
      <text x="221.3105" xml:space="preserve" y="277.0106" clip-path="url(#clipPath2)" stroke="none">8</text>
      <text x="75.2934" xml:space="preserve" y="277.0106" clip-path="url(#clipPath2)" stroke="none">y: Rx[Int]</text>
      <rect x="199.6527" y="235.2259" clip-path="url(#clipPath2)" fill="none" width="60" rx="4" ry="4" height="60"/>
      <text x="335.6209" xml:space="preserve" y="277.0106" clip-path="url(#clipPath2)" stroke="none">20</text>
      <rect x="322.3055" y="235.2259" clip-path="url(#clipPath2)" fill="none" width="60" rx="4" ry="4" height="60"/>
      <text x="466.616" xml:space="preserve" y="277.0106" clip-path="url(#clipPath2)" stroke="none">4</text>
      <rect x="444.9582" y="235.2259" clip-path="url(#clipPath2)" fill="none" width="60" rx="4" ry="4" height="60"/>
      <text x="580.9265" xml:space="preserve" y="277.0106" clip-path="url(#clipPath2)" stroke="none">30</text>
      <rect x="567.611" y="235.2259" clip-path="url(#clipPath2)" fill="none" width="60" rx="4" ry="4" height="60"/>
      <text x="703.5792" xml:space="preserve" y="277.0106" clip-path="url(#clipPath2)" stroke="none">34</text>
      <rect x="690.2637" y="235.2259" clip-path="url(#clipPath2)" fill="none" width="60" rx="4" ry="4" height="60"/>
      <text x="210.6611" xml:space="preserve" y="400.1235" clip-path="url(#clipPath2)" stroke="none">"8"</text>
      <text x="30.2787" xml:space="preserve" y="400.1235" clip-path="url(#clipPath2)" stroke="none">z: Rx[String]</text>
      <rect x="199.6527" y="358.3389" clip-path="url(#clipPath2)" fill="none" width="60" rx="4" ry="4" height="60"/>
      <text x="324.9715" xml:space="preserve" y="400.1235" clip-path="url(#clipPath2)" stroke="none">"20"</text>
      <rect x="322.3055" y="358.3389" clip-path="url(#clipPath2)" fill="none" width="60" rx="4" ry="4" height="60"/>
      <text x="455.9666" xml:space="preserve" y="400.1235" clip-path="url(#clipPath2)" stroke="none">"4"</text>
      <rect x="444.9582" y="358.3389" clip-path="url(#clipPath2)" fill="none" width="60" rx="4" ry="4" height="60"/>
      <text x="570.277" xml:space="preserve" y="400.1235" clip-path="url(#clipPath2)" stroke="none">"30"</text>
      <rect x="567.611" y="358.3389" clip-path="url(#clipPath2)" fill="none" width="60" rx="4" ry="4" height="60"/>
      <text x="692.9297" xml:space="preserve" y="400.1235" clip-path="url(#clipPath2)" stroke="none">"34"</text>
      <rect x="690.2637" y="358.3389" clip-path="url(#clipPath2)" fill="none" width="60" rx="4" ry="4" height="60"/>
      <path fill="none" d="M259.6272 142.113 L314.3027 142.113" clip-path="url(#clipPath2)"/>
      <path d="M322.3027 142.113 L310.3027 137.113 L313.3027 142.113 L310.3027 147.113 Z" stroke="none" clip-path="url(#clipPath2)"/>
      <path fill="none" d="M382.28 142.113 L436.9555 142.113" clip-path="url(#clipPath2)"/>
      <path d="M444.9555 142.113 L432.9555 137.113 L435.9555 142.113 L432.9555 147.113 Z" stroke="none" clip-path="url(#clipPath2)"/>
      <path fill="none" d="M504.9327 142.113 L559.6082 142.113" clip-path="url(#clipPath2)"/>
      <path d="M567.6082 142.113 L555.6082 137.113 L558.6082 142.113 L555.6082 147.113 Z" stroke="none" clip-path="url(#clipPath2)"/>
      <path fill="none" d="M627.5854 142.113 L682.261 142.113" clip-path="url(#clipPath2)"/>
      <path d="M690.261 142.113 L678.261 137.113 L681.261 142.113 L678.261 147.113 Z" stroke="none" clip-path="url(#clipPath2)"/>
      <path fill="none" stroke-dasharray="6,2" d="M229.6528 172.1398 L229.6528 227.182" clip-path="url(#clipPath2)"/>
      <path stroke-dasharray="6,2" d="M229.6528 235.182 L234.6528 223.182 L229.6528 226.182 L224.6528 223.182 Z" clip-path="url(#clipPath2)" stroke="none"/>
      <text x="235.9399" xml:space="preserve" font-size="24px" y="207.0972" clip-path="url(#clipPath2)" stroke="none">.map(a =&gt; a * 2)</text>
      <path fill="none" d="M259.6272 265.2259 L314.3027 265.2259" clip-path="url(#clipPath2)"/>
      <path d="M322.3027 265.2259 L310.3027 260.2259 L313.3027 265.2259 L310.3027 270.2259 Z" stroke="none" clip-path="url(#clipPath2)"/>
      <path fill="none" d="M382.28 265.2259 L436.9555 265.2259" clip-path="url(#clipPath2)"/>
      <path d="M444.9555 265.2259 L432.9555 260.2259 L435.9555 265.2259 L432.9555 270.2259 Z" stroke="none" clip-path="url(#clipPath2)"/>
      <path fill="none" d="M504.9327 265.2259 L559.6082 265.2259" clip-path="url(#clipPath2)"/>
      <path d="M567.6082 265.2259 L555.6082 260.2259 L558.6082 265.2259 L555.6082 270.2259 Z" stroke="none" clip-path="url(#clipPath2)"/>
      <path fill="none" d="M627.5854 265.2259 L682.261 265.2259" clip-path="url(#clipPath2)"/>
      <path d="M690.261 265.2259 L678.261 260.2259 L681.261 265.2259 L678.261 270.2259 Z" stroke="none" clip-path="url(#clipPath2)"/>
      <path fill="none" stroke-dasharray="6,2" d="M229.6528 295.2527 L229.6528 350.295" clip-path="url(#clipPath2)"/>
      <path stroke-dasharray="6,2" d="M229.6528 358.295 L234.6528 346.295 L229.6528 349.295 L224.6528 346.295 Z" clip-path="url(#clipPath2)" stroke="none"/>
      <text x="235.2699" xml:space="preserve" font-size="24px" y="332.2101" clip-path="url(#clipPath2)" stroke="none">.map(a =&gt; a.toString())</text>
      <path fill="none" d="M259.6272 388.3389 L314.3027 388.3389" clip-path="url(#clipPath2)"/>
      <path d="M322.3027 388.3389 L310.3027 383.3389 L313.3027 388.3389 L310.3027 393.3389 Z" stroke="none" clip-path="url(#clipPath2)"/>
      <path fill="none" d="M382.28 388.3389 L436.9555 388.3389" clip-path="url(#clipPath2)"/>
      <path d="M444.9555 388.3389 L432.9555 383.3389 L435.9555 388.3389 L432.9555 393.3389 Z" stroke="none" clip-path="url(#clipPath2)"/>
      <path fill="none" d="M504.9327 388.3389 L559.6082 388.3389" clip-path="url(#clipPath2)"/>
      <path d="M567.6082 388.3389 L555.6082 383.3389 L558.6082 388.3389 L555.6082 393.3389 Z" stroke="none" clip-path="url(#clipPath2)"/>
      <path fill="none" d="M627.5854 388.3389 L682.261 388.3389" clip-path="url(#clipPath2)"/>
      <path d="M690.261 388.3389 L678.261 383.3389 L681.261 388.3389 L678.261 393.3389 Z" stroke="none" clip-path="url(#clipPath2)"/>
    </g>
  </g>
</svg>
