<?xml version="1.0" encoding="UTF-8"?><svg xmlns="http://www.w3.org/2000/svg" xmlns:xlink="http://www.w3.org/1999/xlink" fill-opacity="1" color-rendering="auto" color-interpolation="auto" text-rendering="auto" stroke="black" stroke-linecap="square" width="722" stroke-miterlimit="10" shape-rendering="auto" stroke-opacity="1" fill="black" stroke-dasharray="none" font-weight="normal" stroke-width="1" height="411" font-family="'Dialog'" font-style="normal" stroke-linejoin="miter" font-size="12px" stroke-dashoffset="0" image-rendering="auto">
  <!--Generated by ySVG 2.5-->
  <defs id="genericDefs"/>
  <g>
    <defs id="defs1">
      <clipPath clipPathUnits="userSpaceOnUse" id="clipPath1">
        <path d="M0 0 L722 0 L722 411 L0 411 L0 0 Z"/>
      </clipPath>
      <clipPath clipPathUnits="userSpaceOnUse" id="clipPath2">
        <path d="M44 23 L766 23 L766 434 L44 434 L44 23 Z"/>
      </clipPath>
    </defs>
    <g fill="white" text-rendering="geometricPrecision" shape-rendering="geometricPrecision" transform="translate(-44,-23)" stroke="white">
      <rect x="44" width="722" height="411" y="23" clip-path="url(#clipPath2)" stroke="none"/>
    </g>
    <g font-size="30px" stroke-linecap="butt" transform="matrix(1,0,0,1,-44,-23)" text-rendering="geometricPrecision" font-family="sans-serif" shape-rendering="geometricPrecision" stroke-miterlimit="1.45">
      <text x="221.3105" xml:space="preserve" y="153.8976" clip-path="url(#clipPath2)" stroke="none">4</text>
      <text x="75.2934" xml:space="preserve" y="153.8976" clip-path="url(#clipPath2)" stroke="none">x: Rx[Int]</text>
      <rect x="199.6527" y="112.113" clip-path="url(#clipPath2)" fill="none" width="60" rx="4" ry="4" height="60"/>
      <text x="466.616" xml:space="preserve" y="153.8976" clip-path="url(#clipPath2)" stroke="none">2</text>
      <rect x="444.9582" y="112.113" clip-path="url(#clipPath2)" fill="none" width="60" rx="4" ry="4" height="60"/>
      <text x="214.641" xml:space="preserve" font-size="36px" y="82.2546" clip-path="url(#clipPath2)" stroke="none">t1</text>
      <text x="337.2938" xml:space="preserve" font-size="36px" y="82.2546" clip-path="url(#clipPath2)" stroke="none">t2</text>
      <text x="459.9465" xml:space="preserve" font-size="36px" y="82.2546" clip-path="url(#clipPath2)" stroke="none">t3</text>
      <text x="582.5993" xml:space="preserve" font-size="36px" y="82.2546" clip-path="url(#clipPath2)" stroke="none">t4</text>
      <text x="705.252" xml:space="preserve" font-size="36px" y="82.2546" clip-path="url(#clipPath2)" stroke="none">t5</text>
      <text x="343.9632" xml:space="preserve" y="277.0106" clip-path="url(#clipPath2)" stroke="none">8</text>
      <text x="197.9461" xml:space="preserve" y="277.0106" clip-path="url(#clipPath2)" stroke="none">y: Rx[Int]</text>
      <rect x="322.3055" y="235.2259" clip-path="url(#clipPath2)" fill="none" width="60" rx="4" ry="4" height="60"/>
      <text x="589.2687" xml:space="preserve" y="277.0106" clip-path="url(#clipPath2)" stroke="none">4</text>
      <rect x="567.611" y="235.2259" clip-path="url(#clipPath2)" fill="none" width="60" rx="4" ry="4" height="60"/>
      <text x="703.5792" xml:space="preserve" y="277.0106" clip-path="url(#clipPath2)" stroke="none">30</text>
      <rect x="690.2637" y="235.2259" clip-path="url(#clipPath2)" fill="none" width="60" rx="4" ry="4" height="60"/>
      <text x="221.3105" xml:space="preserve" y="400.1235" clip-path="url(#clipPath2)" stroke="none">4</text>
      <text x="75.2934" xml:space="preserve" y="400.1235" clip-path="url(#clipPath2)" stroke="none">z: Rx[Int]</text>
      <rect x="199.6527" y="358.3389" clip-path="url(#clipPath2)" fill="none" width="60" rx="4" ry="4" height="60"/>
      <text x="343.9632" xml:space="preserve" y="400.1235" clip-path="url(#clipPath2)" stroke="none">8</text>
      <rect x="322.3055" y="358.3389" clip-path="url(#clipPath2)" fill="none" width="60" rx="4" ry="4" height="60"/>
      <text x="466.616" xml:space="preserve" y="400.1235" clip-path="url(#clipPath2)" stroke="none">2</text>
      <rect x="444.9582" y="358.3389" clip-path="url(#clipPath2)" fill="none" width="60" rx="4" ry="4" height="60"/>
      <text x="589.2687" xml:space="preserve" y="400.1235" clip-path="url(#clipPath2)" stroke="none">4</text>
      <rect x="567.611" y="358.3389" clip-path="url(#clipPath2)" fill="none" width="60" rx="4" ry="4" height="60"/>
      <text x="703.5792" xml:space="preserve" y="400.1235" clip-path="url(#clipPath2)" stroke="none">30</text>
      <rect x="690.2637" y="358.3389" clip-path="url(#clipPath2)" fill="none" width="60" rx="4" ry="4" height="60"/>
      <path fill="none" d="M259.6272 142.113 L436.9665 142.113" clip-path="url(#clipPath2)"/>
      <path d="M444.9665 142.113 L432.9665 137.113 L435.9665 142.113 L432.9665 147.113 Z" stroke="none" clip-path="url(#clipPath2)"/>
      <path fill="none" d="M382.28 265.2259 L559.6192 265.2259" clip-path="url(#clipPath2)"/>
      <path d="M567.6192 265.2259 L555.6192 260.2259 L558.6192 265.2259 L555.6192 270.2259 Z" stroke="none" clip-path="url(#clipPath2)"/>
      <path fill="none" d="M627.5854 265.2259 L682.261 265.2259" clip-path="url(#clipPath2)"/>
      <path d="M690.261 265.2259 L678.261 260.2259 L681.261 265.2259 L678.261 270.2259 Z" stroke="none" clip-path="url(#clipPath2)"/>
      <path fill="none" stroke-dasharray="6,2" d="M199.6444 153.8802 L190.4082 157.5021 L156.3962 172.8912 L127.6169 188.2803 L104.0701 203.6694 L85.756 219.0586 L72.6744 234.4477 L68.0959 242.1422 L64.8255 249.8368 L62.8633 257.5314 L62.2092 265.2259 L62.8633 272.9205 L64.8255 280.6151 L68.0959 288.3096 L72.6744 296.0042 L85.756 311.3933 L104.0701 326.7824 L127.6169 342.1715 L156.3962 357.5606 L190.4082 372.9497 L192.1966 373.651" clip-path="url(#clipPath2)"/>
      <path stroke-dasharray="6,2" d="M199.6444 376.5716 L190.298 367.5359 L191.2656 373.2859 L186.6473 376.8456 Z" clip-path="url(#clipPath2)" stroke="none"/>
      <text x="61.811" xml:space="preserve" font-size="24px" y="274.435" clip-path="url(#clipPath2)" stroke="none">.merge(y)</text>
      <path fill="none" stroke-dasharray="6,2" d="M322.3089 281.9953 L313.3115 287.7044 L295.8972 301.0186 L279.8713 315.7161 L265.2339 331.7968 L251.9851 349.2609 L250.5242 351.5824" clip-path="url(#clipPath2)"/>
      <path stroke-dasharray="6,2" d="M246.2634 358.3533 L256.8864 350.86 L251.0568 350.736 L248.4228 345.5339 Z" clip-path="url(#clipPath2)" stroke="none"/>
      <path fill="none" d="M259.6272 388.3389 L314.3027 388.3389" clip-path="url(#clipPath2)"/>
      <path d="M322.3027 388.3389 L310.3027 383.3389 L313.3027 388.3389 L310.3027 393.3389 Z" stroke="none" clip-path="url(#clipPath2)"/>
      <path fill="none" d="M382.28 388.3389 L436.9555 388.3389" clip-path="url(#clipPath2)"/>
      <path d="M444.9555 388.3389 L432.9555 383.3389 L435.9555 388.3389 L432.9555 393.3389 Z" stroke="none" clip-path="url(#clipPath2)"/>
      <path fill="none" d="M504.9327 388.3389 L559.6082 388.3389" clip-path="url(#clipPath2)"/>
      <path d="M567.6082 388.3389 L555.6082 383.3389 L558.6082 388.3389 L555.6082 393.3389 Z" stroke="none" clip-path="url(#clipPath2)"/>
      <path fill="none" d="M627.5854 388.3389 L682.261 388.3389" clip-path="url(#clipPath2)"/>
      <path d="M690.261 388.3389 L678.261 383.3389 L681.261 388.3389 L678.261 393.3389 Z" stroke="none" clip-path="url(#clipPath2)"/>
    </g>
  </g>
</svg>
