<?xml version="1.0" encoding="UTF-8"?><svg xmlns="http://www.w3.org/2000/svg" xmlns:xlink="http://www.w3.org/1999/xlink" fill-opacity="1" color-rendering="auto" color-interpolation="auto" text-rendering="auto" stroke="black" stroke-linecap="square" width="747" stroke-miterlimit="10" shape-rendering="auto" stroke-opacity="1" fill="black" stroke-dasharray="none" font-weight="normal" stroke-width="1" height="411" font-family="'Dialog'" font-style="normal" stroke-linejoin="miter" font-size="12px" stroke-dashoffset="0" image-rendering="auto">
  <!--Generated by ySVG 2.5-->
  <defs id="genericDefs"/>
  <g>
    <defs id="defs1">
      <clipPath clipPathUnits="userSpaceOnUse" id="clipPath1">
        <path d="M0 0 L747 0 L747 411 L0 411 L0 0 Z"/>
      </clipPath>
      <clipPath clipPathUnits="userSpaceOnUse" id="clipPath2">
        <path d="M19 23 L766 23 L766 434 L19 434 L19 23 Z"/>
      </clipPath>
    </defs>
    <g fill="white" text-rendering="geometricPrecision" shape-rendering="geometricPrecision" transform="translate(-19,-23)" stroke="white">
      <rect x="19" width="747" height="411" y="23" clip-path="url(#clipPath2)" stroke="none"/>
    </g>
    <g font-size="30px" stroke-linecap="butt" transform="matrix(1,0,0,1,-19,-23)" text-rendering="geometricPrecision" font-family="sans-serif" shape-rendering="geometricPrecision" stroke-miterlimit="1.45">
      <text x="220.1093" xml:space="preserve" y="152.4987" clip-path="url(#clipPath2)" stroke="none">4</text>
      <text x="54.6244" xml:space="preserve" y="152.4987" clip-path="url(#clipPath2)" stroke="none">x: Rx[Int]</text>
      <rect x="199.6527" y="112.113" clip-path="url(#clipPath2)" fill="none" width="60" rx="4" ry="4" height="60"/>
      <text x="465.4148" xml:space="preserve" y="152.4987" clip-path="url(#clipPath2)" stroke="none">2</text>
      <rect x="444.9582" y="112.113" clip-path="url(#clipPath2)" fill="none" width="60" rx="4" ry="4" height="60"/>
      <text x="211.143" xml:space="preserve" font-size="36px" y="80.5758" clip-path="url(#clipPath2)" stroke="none">t1</text>
      <text x="333.7957" xml:space="preserve" font-size="36px" y="80.5758" clip-path="url(#clipPath2)" stroke="none">t2</text>
      <text x="456.4485" xml:space="preserve" font-size="36px" y="80.5758" clip-path="url(#clipPath2)" stroke="none">t3</text>
      <text x="579.1013" xml:space="preserve" font-size="36px" y="80.5758" clip-path="url(#clipPath2)" stroke="none">t4</text>
      <text x="701.754" xml:space="preserve" font-size="36px" y="80.5758" clip-path="url(#clipPath2)" stroke="none">t5</text>
      <text x="220.1093" xml:space="preserve" y="275.6117" clip-path="url(#clipPath2)" stroke="none">8</text>
      <text x="54.6244" xml:space="preserve" y="275.6117" clip-path="url(#clipPath2)" stroke="none">y: Rx[Int]</text>
      <rect x="199.6527" y="235.2259" clip-path="url(#clipPath2)" fill="none" width="60" rx="4" ry="4" height="60"/>
      <text x="333.2186" xml:space="preserve" y="275.6117" clip-path="url(#clipPath2)" stroke="none">12</text>
      <rect x="322.3055" y="235.2259" clip-path="url(#clipPath2)" fill="none" width="60" rx="4" ry="4" height="60"/>
      <text x="701.1768" xml:space="preserve" y="275.6117" clip-path="url(#clipPath2)" stroke="none">30</text>
      <rect x="690.2637" y="235.2259" clip-path="url(#clipPath2)" fill="none" width="60" rx="4" ry="4" height="60"/>
      <text x="220.1093" xml:space="preserve" y="398.7246" clip-path="url(#clipPath2)" stroke="none">4</text>
      <text x="56.6313" xml:space="preserve" y="398.7246" clip-path="url(#clipPath2)" stroke="none">z: Rx[Int]</text>
      <rect x="199.6527" y="358.3389" clip-path="url(#clipPath2)" fill="none" width="60" rx="4" ry="4" height="60"/>
      <text x="342.7621" xml:space="preserve" y="398.7246" clip-path="url(#clipPath2)" stroke="none">4</text>
      <rect x="322.3055" y="358.3389" clip-path="url(#clipPath2)" fill="none" width="60" rx="4" ry="4" height="60"/>
      <text x="701.1768" xml:space="preserve" y="398.7246" clip-path="url(#clipPath2)" stroke="none">10</text>
      <rect x="690.2637" y="358.3389" clip-path="url(#clipPath2)" fill="none" width="60" rx="4" ry="4" height="60"/>
      <text x="578.5241" xml:space="preserve" y="152.4987" clip-path="url(#clipPath2)" stroke="none">10</text>
      <rect x="567.611" y="112.113" clip-path="url(#clipPath2)" fill="none" width="60" rx="4" ry="4" height="60"/>
      <path fill="none" d="M259.6272 142.113 L436.9665 142.113" clip-path="url(#clipPath2)"/>
      <path d="M444.9665 142.113 L432.9665 137.113 L435.9665 142.113 L432.9665 147.113 Z" stroke="none" clip-path="url(#clipPath2)"/>
      <path fill="none" d="M259.6272 265.2259 L314.3027 265.2259" clip-path="url(#clipPath2)"/>
      <path d="M322.3027 265.2259 L310.3027 260.2259 L313.3027 265.2259 L310.3027 270.2259 Z" stroke="none" clip-path="url(#clipPath2)"/>
      <path fill="none" d="M382.265 265.2259 L682.268 265.2259" clip-path="url(#clipPath2)"/>
      <path d="M690.268 265.2259 L678.268 260.2259 L681.268 265.2259 L678.268 270.2259 Z" stroke="none" clip-path="url(#clipPath2)"/>
      <path fill="none" stroke-dasharray="6,2" d="M199.6366 152.197 L183.8457 157.5021 L144.1462 172.8912 L110.5544 188.2803 L83.0701 203.6694 L61.6935 219.0586 L53.2955 226.7531 L46.4244 234.4477 L41.0803 242.1422 L37.263 249.8368 L34.9727 257.5314 L34.2092 265.2259 L34.9727 272.9205 L37.263 280.6151 L41.0803 288.3096 L46.4244 296.0042 L53.2955 303.6987 L61.6935 311.3933 L83.0701 326.7824 L110.5544 342.1715 L144.1462 357.5606 L183.8457 372.9497 L192.0531 375.7071" clip-path="url(#clipPath2)"/>
      <path stroke-dasharray="6,2" d="M199.6366 378.2548 L189.8537 369.6936 L191.1052 375.3886 L186.6691 379.1729 Z" clip-path="url(#clipPath2)" stroke="none"/>
      <text x="101.4747" xml:space="preserve" font-size="24px" y="215.6214" clip-path="url(#clipPath2)" stroke="none">.sampleOn(y)</text>
      <path fill="none" stroke-dasharray="6,2" d="M221.4914 295.2527 L221.3219 296.0042 L219.2392 311.3933 L218.5449 326.7824 L219.2392 342.1715 L220.3519 350.3936 L220.3739 350.4912" clip-path="url(#clipPath2)"/>
      <path stroke-dasharray="6,2" d="M221.5055 358.4107 L224.7579 345.8242 L220.2325 349.5012 L214.8584 347.2386 Z" clip-path="url(#clipPath2)" stroke="none"/>
      <path fill="none" d="M259.6272 388.3389 L314.3027 388.3389" clip-path="url(#clipPath2)"/>
      <path d="M322.3027 388.3389 L310.3027 383.3389 L313.3027 388.3389 L310.3027 393.3389 Z" stroke="none" clip-path="url(#clipPath2)"/>
      <path fill="none" d="M382.265 388.3389 L682.268 388.3389" clip-path="url(#clipPath2)"/>
      <path d="M690.268 388.3389 L678.268 383.3389 L681.268 388.3389 L678.268 393.3389 Z" stroke="none" clip-path="url(#clipPath2)"/>
      <path fill="none" d="M504.9327 142.113 L559.6082 142.113" clip-path="url(#clipPath2)"/>
      <path d="M567.6082 142.113 L555.6082 137.113 L558.6082 142.113 L555.6082 147.113 Z" stroke="none" clip-path="url(#clipPath2)"/>
    </g>
  </g>
</svg>
